<?xml version="1.0" encoding="UTF-8"?>
<svg width="21px" height="24px" viewBox="0 0 21 24" version="1.1" xmlns="http://www.w3.org/2000/svg" xmlns:xlink="http://www.w3.org/1999/xlink">
    <title>Shape</title>
    <g id="Symbols" stroke="none" stroke-width="1" fill="none" fill-rule="evenodd">
        <g id="components/date" transform="translate(-8.000000, -4.000000)" fill="#50E2C4" fill-rule="nonzero">
            <g id="Padding-Group-5">
                <path d="M14.9375,17.5 L13.0625,17.5 C12.753125,17.5 12.5,17.246875 12.5,16.9375 L12.5,15.0625 C12.5,14.753125 12.753125,14.5 13.0625,14.5 L14.9375,14.5 C15.246875,14.5 15.5,14.753125 15.5,15.0625 L15.5,16.9375 C15.5,17.246875 15.246875,17.5 14.9375,17.5 Z M20,16.9375 L20,15.0625 C20,14.753125 19.746875,14.5 19.4375,14.5 L17.5625,14.5 C17.253125,14.5 17,14.753125 17,15.0625 L17,16.9375 C17,17.246875 17.253125,17.5 17.5625,17.5 L19.4375,17.5 C19.746875,17.5 20,17.246875 20,16.9375 Z M24.5,16.9375 L24.5,15.0625 C24.5,14.753125 24.246875,14.5 23.9375,14.5 L22.0625,14.5 C21.753125,14.5 21.5,14.753125 21.5,15.0625 L21.5,16.9375 C21.5,17.246875 21.753125,17.5 22.0625,17.5 L23.9375,17.5 C24.246875,17.5 24.5,17.246875 24.5,16.9375 Z M20,21.4375 L20,19.5625 C20,19.253125 19.746875,19 19.4375,19 L17.5625,19 C17.253125,19 17,19.253125 17,19.5625 L17,21.4375 C17,21.746875 17.253125,22 17.5625,22 L19.4375,22 C19.746875,22 20,21.746875 20,21.4375 Z M15.5,21.4375 L15.5,19.5625 C15.5,19.253125 15.246875,19 14.9375,19 L13.0625,19 C12.753125,19 12.5,19.253125 12.5,19.5625 L12.5,21.4375 C12.5,21.746875 12.753125,22 13.0625,22 L14.9375,22 C15.246875,22 15.5,21.746875 15.5,21.4375 Z M24.5,21.4375 L24.5,19.5625 C24.5,19.253125 24.246875,19 23.9375,19 L22.0625,19 C21.753125,19 21.5,19.253125 21.5,19.5625 L21.5,21.4375 C21.5,21.746875 21.753125,22 22.0625,22 L23.9375,22 C24.246875,22 24.5,21.746875 24.5,21.4375 Z M29,9.25 L29,25.75 C29,26.9921875 27.9921875,28 26.75,28 L10.25,28 C9.0078125,28 8,26.9921875 8,25.75 L8,9.25 C8,8.0078125 9.0078125,7 10.25,7 L12.5,7 L12.5,4.5625 C12.5,4.253125 12.753125,4 13.0625,4 L14.9375,4 C15.246875,4 15.5,4.253125 15.5,4.5625 L15.5,7 L21.5,7 L21.5,4.5625 C21.5,4.253125 21.753125,4 22.0625,4 L23.9375,4 C24.246875,4 24.5,4.253125 24.5,4.5625 L24.5,7 L26.75,7 C27.9921875,7 29,8.0078125 29,9.25 Z M26.75,25.46875 L26.75,11.5 L10.25,11.5 L10.25,25.46875 C10.25,25.6234375 10.3765625,25.75 10.53125,25.75 L26.46875,25.75 C26.6234375,25.75 26.75,25.6234375 26.75,25.46875 Z" id="Shape"></path>
            </g>
        </g>
    </g>
</svg>