<svg xmlns="http://www.w3.org/2000/svg" viewBox="0 0 88.73 80"><defs><style>.cls-1{isolation:isolate;}.cls-2{fill:none;}.cls-3{fill:#ecbc8f;stroke-miterlimit:10;}.cls-3,.cls-6{stroke:#db7e27;stroke-width:1.08px;}.cls-4{fill:#fff;}.cls-5{fill:#e6a568;}.cls-10,.cls-6{fill:#f5dac0;}.cls-6{stroke-linecap:round;stroke-linejoin:round;}.cls-7{fill:#f9e9da;}.cls-8{fill:#db7e27;}.cls-9{fill:#f9e8d8;}.cls-11{fill:#e9b07b;}.cls-12{fill:#f0c8a2;}.cls-13{fill:#f2d2b3;}.cls-14{mix-blend-mode:multiply;}</style></defs><title>docente_2</title><g class="cls-1"><g id="Layer_2" data-name="Layer 2"><g id="Layer_1-2" data-name="Layer 1"><rect class="cls-2" x="0.73" width="88" height="80"/><path class="cls-3" d="M65.31,2.13h-.52V1L57.45,1V2.17l-32.67.17a4.19,4.19,0,0,0-4.17,4.21L21,73.88a4.19,4.19,0,0,0,4.21,4.17l40.53-.2a4.2,4.2,0,0,0,4.17-4.22L69.52,6.3A4.19,4.19,0,0,0,65.31,2.13Z"/><rect class="cls-4" x="22.5" y="7.43" width="45.46" height="63.51" rx="0.44" transform="translate(-0.2 0.23) rotate(-0.29)"/><circle class="cls-5" cx="45.4" cy="74.1" r="1.79"/><circle class="cls-6" cx="45.2" cy="34.38" r="12.61"/><path class="cls-6" d="M29.2,63.07c0-4.44,1.39-8.63,5.59-10.84,2.7-1.42,6.55-1.85,9.57-2a29.46,29.46,0,0,1,9.88,1.19,10.16,10.16,0,0,1,6.48,6.38c.13.35,1.29,5.1.81,5.1L49.24,63l-17.78.09C30.71,63.06,29.94,63.05,29.2,63.07Z"/><path class="cls-7" d="M28.78,75.1a1.91,1.91,0,0,1-.6-.11c-1.4-.47-2.32-2-3.13-3.4-.24-.41-.48-.81-.71-1.15l-7-10.26a.53.53,0,0,1-.07-.46.54.54,0,0,1,.32-.34c9.9-3.77,9.94-3.77,10.07-3.77a.55.55,0,0,1,.54.47l1.62,12.47c0,.19.06.43.11.72.36,2.2.64,4.43-.16,5.37A1.26,1.26,0,0,1,28.78,75.1Z"/><path class="cls-8" d="M27.66,56.15h0l.89,6.77q.36,2.85.74,5.7c.17,1.36,1.19,5.94-.51,5.94a1.35,1.35,0,0,1-.42-.08c-1.6-.54-2.58-2.89-3.58-4.35l-3.32-4.86c-1.22-1.8-2.45-3.59-3.68-5.39,0,0,9.81-3.73,9.88-3.73m0-1.08h0c-.28,0-.28,0-10.26,3.8a1,1,0,0,0-.64.69,1.09,1.09,0,0,0,.13.93l2.17,3.17,1.51,2.22L21.34,67l2.55,3.73c.23.33.46.72.7,1.13C25.45,73.32,26.42,75,28,75.5a2.37,2.37,0,0,0,.77.14,1.79,1.79,0,0,0,1.4-.65c.95-1.12.68-3.39.28-5.81,0-.28-.08-.52-.11-.7L30,65.72l-.39-2.94-.44-3.38L28.73,56a1.08,1.08,0,0,0-1.07-.94Z"/><path class="cls-8" d="M28.23,74.53a7.51,7.51,0,0,1-2.68-2.43,18.17,18.17,0,0,1-2.09-3.2.7.7,0,0,1-.08-.27c0-.28.59-.44.77-.51s.48-.18.72-.29a3,3,0,0,0,.4-.21c.57-.34,1-.88,1.68-1s1.46-.13,2.19-.28l.31,2,.15,1.05C29.79,70.8,30.27,75.2,28.23,74.53Z"/><path class="cls-9" d="M18.77,61.48a.79.79,0,0,1-.53-.23,5.71,5.71,0,0,1-1.4-1.92,16.33,16.33,0,0,1-.9-2.09L5.11,28.83,16.22,24.6l9.61,25.19c.25.67.54,1.34.82,2a27.11,27.11,0,0,1,1.67,4.73,2.67,2.67,0,0,1-.06,1.41l-.27.73-.59-.51a7.09,7.09,0,0,0-2.13-1.27,1,1,0,0,0-.32-.07l-.09.08c0,.09-.06.18-.1.27l-.13.2a.55.55,0,0,0-.08.14,6.59,6.59,0,0,0-.15,1.36v.18c0,.36-.07,1.45-1,1.53h-.12A2.25,2.25,0,0,1,21.94,60a2,2,0,0,0-.26-.18A11.89,11.89,0,0,0,20.09,59a1,1,0,0,0-.37-.05h-.35a2.6,2.6,0,0,0,0,1,4.45,4.45,0,0,1,.05.9.68.68,0,0,1-.19.47l-.16.16Z"/><path class="cls-8" d="M15.91,25.29,18,30.69q2.49,6.54,5,13.08,1.17,3.1,2.36,6.21a48.11,48.11,0,0,1,2.47,6.66,2.09,2.09,0,0,1,0,1.11,7.33,7.33,0,0,0-2.3-1.36,1.45,1.45,0,0,0-.51-.11.59.59,0,0,0-.48.21,2.05,2.05,0,0,0-.18.43,1.79,1.79,0,0,0-.25.45A8.35,8.35,0,0,0,23.85,59c0,.36-.06,1-.53,1h-.07c-.48,0-.9-.42-1.28-.66a11.79,11.79,0,0,0-1.67-.92,1.29,1.29,0,0,0-.58-.1h-.51a.32.32,0,0,0-.14,0,.32.32,0,0,0-.12.14c-.36.67,0,1.5-.07,2.26,0,0,0,.09,0,.12a.09.09,0,0,1-.07,0,.32.32,0,0,1-.17-.09,5.17,5.17,0,0,1-1.26-1.71,18,18,0,0,1-.9-2.09L12.52,46.77q-2.27-6-4.54-11.91C7.26,33,6.53,31.05,5.81,29.14l10.1-3.85m.63-1.39-1,.38L5.42,28.14l-1,.38.38,1L7,35.24l2.27,6,2.27,5.95,2,5.14,1.95,5.14a20,20,0,0,0,.93,2.16,6.3,6.3,0,0,0,1.51,2,1.33,1.33,0,0,0,.9.37,1.21,1.21,0,0,0,.83-.33,1.28,1.28,0,0,0,.35-.83,6.12,6.12,0,0,0-.05-1c0-.14,0-.28,0-.41h0a11.46,11.46,0,0,1,1.52.85l.22.15a2.77,2.77,0,0,0,1.63.67h.16c.53,0,1.43-.38,1.52-2V58.9a6.36,6.36,0,0,1,.12-1.21l0,0a1.59,1.59,0,0,0,.13-.22A6.45,6.45,0,0,1,27,58.56l1.18,1,.54-1.47a3.23,3.23,0,0,0,.09-1.71,28,28,0,0,0-1.7-4.81c-.28-.66-.57-1.34-.82-2l-.65-1.7L24,43.39,19,30.31l-1-2.7-1-2.7-.38-1Z"/><rect class="cls-4" x="4.22" y="22.94" width="11.89" height="4.94" transform="translate(-8.38 5.29) rotate(-20.86)"/><path class="cls-8" d="M14.54,21.68l1.37,3.61L5.81,29.14,4.43,25.53l10.11-3.85m.62-1.39-1,.38L4,24.52l-1,.39.38,1L4.8,29.53l.38,1,1-.38L16.3,26.3l1-.39-.38-1-1.38-3.62-.38-1Z"/><rect class="cls-10" x="4.22" y="22.94" width="11.89" height="4.94" transform="translate(-8.38 5.29) rotate(-20.86)"/><path class="cls-8" d="M14.54,21.68l1.37,3.61L5.81,29.14,4.43,25.53l10.11-3.85m.62-1.39-1,.38L4,24.52l-1,.39.38,1L4.8,29.53l.38,1,1-.38L16.3,26.3l1-.39-.38-1-1.38-3.62-.38-1Z"/><rect class="cls-11" x="3.01" y="20.2" width="11.89" height="4.04" transform="translate(-7.33 4.65) rotate(-20.86)"/><path class="cls-8" d="M13.48,18.91l1.06,2.77L4.43,25.53,3.37,22.76l10.11-3.85m.62-1.39-1,.39L3,21.76l-1,.38.39,1,1,2.76.39,1,1-.38,10.11-3.85,1-.39-.39-1-1-2.76-.39-1Z"/><path class="cls-12" d="M.84,17.63a4.58,4.58,0,0,1,2.64-5.89l2.59-1a4.51,4.51,0,0,1,1.62-.3A4.59,4.59,0,0,1,12,13.39l2.23,5.83L3.06,23.46Z"/><path class="cls-8" d="M7.69,11a4,4,0,0,1,3.76,2.58l2,5.33L3.37,22.76l-2-5.32a4,4,0,0,1,2.33-5.19l2.59-1A4,4,0,0,1,7.69,11m0-1.08a5.09,5.09,0,0,0-1.81.33l-2.6,1A5.1,5.1,0,0,0,.45,13.92a5,5,0,0,0-.11,3.9l2,5.33.38,1,1-.39,10.11-3.85,1-.38-.38-1-2-5.33A5.14,5.14,0,0,0,7.69,9.92Z"/><rect class="cls-13" x="3.01" y="20.2" width="11.89" height="4.04" transform="translate(-7.33 4.65) rotate(-20.86)"/><path class="cls-8" d="M13.48,18.91l1.06,2.77L4.43,25.53,3.37,22.76l10.11-3.85m.62-1.39-1,.39L3,21.76l-1,.38.39,1,1,2.76.39,1,1-.38,10.11-3.85,1-.39-.39-1-1-2.76-.39-1Z"/><g class="cls-14"><path class="cls-9" d="M26.36,57.54l.7.39c.14.07.3.15.43.06a.41.41,0,0,0,.12-.34A13,13,0,0,0,26.47,53L25,49.22,21.3,39.44,17.43,29.28l-3-8-1.23-3.23-2.59,1,.89,2.32,2.81,7.38,3.8,10,3.82,10L23.51,53l.67,1.77c.26.68.41,1.66,1,2.11a2.38,2.38,0,0,0,.3.18Z"/></g></g></g></g></svg>