<svg xmlns="http://www.w3.org/2000/svg" viewBox="0 0 85.32 87.01"><defs><style>.cls-1{isolation:isolate;}.cls-2,.cls-9{fill:none;}.cls-2,.cls-8{stroke:#db7e27;stroke-width:1.13px;}.cls-2,.cls-8,.cls-9{stroke-miterlimit:10;}.cls-3{fill:#f9e9da;}.cls-4{fill:#db7e27;}.cls-5{mix-blend-mode:multiply;}.cls-6{opacity:0.19;}.cls-7,.cls-8{fill:#f1cdab;}.cls-9{stroke:#fff;stroke-linecap:round;stroke-width:4.53px;opacity:0.59;}</style></defs><title>lupa</title><g class="cls-1"><g id="Layer_2" data-name="Layer 2"><g id="Layer_1-2" data-name="Layer 1"><path class="cls-2" d="M75.83,8.79A29.24,29.24,0,0,0,33.6,49.19l-2.86,3-2-2L2.84,76.93a5.12,5.12,0,1,0,7.36,7.12L36.07,57.3l-2-2,2.86-3A29.24,29.24,0,0,0,75.83,8.79Z"/><rect class="cls-3" x="29.27" y="49.43" width="9.03" height="5.71" transform="translate(-27.29 40.24) rotate(-45.98)"/><path class="cls-4" d="M34.89,47.85,38.18,51l-5.5,5.68L29.4,53.53l5.49-5.68m0-1.6-.79.82-5.49,5.68-.78.81.81.79,3.29,3.18.81.78.79-.81L39,51.82l.79-.81L39,50.22,35.67,47l-.81-.79Z"/><g class="cls-5"><rect class="cls-3" x="33.85" y="48.29" width="3.16" height="4.57" transform="translate(-25.56 40.9) rotate(-45.97)"/></g><g class="cls-6"><circle class="cls-7" cx="55.51" cy="29.82" r="29.25"/></g><path class="cls-8" d="M76.54,50.14a29.25,29.25,0,1,1-.71-41.35A29.24,29.24,0,0,1,76.54,50.14Zm-3.36-38.6a25.42,25.42,0,1,0,.61,36A25.43,25.43,0,0,0,73.18,11.54Z"/><path class="cls-9" d="M40,14.8a20.9,20.9,0,0,1,35.8,16.74"/><path class="cls-7" d="M6.54,86.45A5,5,0,0,1,3,85l-.94-.91A5,5,0,0,1,2,77l26.7-27.63,8.18,7.91L10.16,84.91A5,5,0,0,1,6.54,86.45Z"/><path class="cls-4" d="M28.7,50.17l7.37,7.13L9.75,84.52a4.47,4.47,0,0,1-6.32.1l-.94-.9a4.48,4.48,0,0,1-.1-6.33L28.7,50.17m0-1.59-.78.81L1.57,76.61a5.6,5.6,0,0,0,.14,7.92l.93.91a5.62,5.62,0,0,0,7.93-.14L36.88,58.08l.79-.81-.82-.79-7.37-7.12-.81-.78Z"/></g></g></g></svg>