<svg xmlns="http://www.w3.org/2000/svg" viewBox="0 0 70.4 78.14"><defs><style>.cls-1{isolation:isolate;}.cls-2{fill:#ecbc8f;stroke-miterlimit:10;}.cls-2,.cls-5{stroke:#db7e27;stroke-width:1.08px;}.cls-3{fill:#fff;}.cls-4{fill:#e6a568;}.cls-5,.cls-9{fill:#f5dac0;}.cls-5{stroke-linecap:round;stroke-linejoin:round;}.cls-6{fill:#f9e9da;}.cls-7{fill:#db7e27;}.cls-8{fill:#f9e8d8;}.cls-10{fill:#e9b07b;}.cls-11{fill:#f0c8a2;}.cls-12{fill:#f2d2b3;}.cls-13{mix-blend-mode:multiply;}</style></defs><title>docente</title><g class="cls-1"><g id="Layer_2" data-name="Layer 2"><g id="Layer_1-2" data-name="Layer 1"><path class="cls-2" d="M65.31,1.69h-.52V.54l-7.33,0V1.73l-32.67.16A4.2,4.2,0,0,0,20.61,6.1L21,73.44a4.17,4.17,0,0,0,4.21,4.16l40.53-.2a4.19,4.19,0,0,0,4.17-4.21L69.52,5.86A4.18,4.18,0,0,0,65.31,1.69Z"/><rect class="cls-3" x="22.5" y="6.99" width="45.46" height="63.51" rx="0.44" transform="translate(-0.19 0.23) rotate(-0.29)"/><circle class="cls-4" cx="45.4" cy="73.65" r="1.79"/><circle class="cls-5" cx="45.2" cy="33.93" r="12.61"/><path class="cls-5" d="M29.2,62.63c0-4.44,1.39-8.63,5.59-10.84,2.7-1.43,6.55-1.85,9.57-2A29.72,29.72,0,0,1,54.24,51a10.2,10.2,0,0,1,6.48,6.39c.13.35,1.29,5.09.81,5.09l-12.29.07-17.78.09C30.71,62.62,29.94,62.6,29.2,62.63Z"/><path class="cls-6" d="M28.78,74.65a1.89,1.89,0,0,1-.6-.1c-1.4-.48-2.32-2-3.13-3.4-.24-.41-.48-.81-.71-1.16l-7-10.25a.54.54,0,0,1-.07-.46.56.56,0,0,1,.32-.35c9.9-3.77,9.94-3.77,10.07-3.77a.55.55,0,0,1,.54.47l1.62,12.48c0,.18.06.43.11.71.36,2.21.64,4.44-.16,5.38A1.25,1.25,0,0,1,28.78,74.65Z"/><path class="cls-7" d="M27.66,55.7h0l.89,6.78q.36,2.85.74,5.7c.17,1.35,1.19,5.93-.51,5.93a1.32,1.32,0,0,1-.42-.07c-1.6-.55-2.58-2.89-3.58-4.35l-3.32-4.86q-1.83-2.7-3.68-5.39s9.81-3.74,9.88-3.74m0-1.08h0c-.28,0-.28,0-10.26,3.81a1.06,1.06,0,0,0-.64.68,1.09,1.09,0,0,0,.13.93l2.17,3.18,1.51,2.22.77,1.12,2.55,3.74c.23.32.46.71.7,1.12.86,1.45,1.83,3.1,3.42,3.64a2.35,2.35,0,0,0,.77.13,1.82,1.82,0,0,0,1.4-.64c.95-1.12.68-3.39.28-5.81,0-.28-.08-.52-.11-.7L30,65.28l-.39-2.94L29.17,59l-.44-3.39a1.09,1.09,0,0,0-1.07-.94Z"/><path class="cls-7" d="M28.23,74.08a7.33,7.33,0,0,1-2.68-2.43,17.81,17.81,0,0,1-2.09-3.2.65.65,0,0,1-.08-.27c0-.27.59-.43.77-.5s.48-.18.72-.29.27-.13.4-.21c.57-.34,1-.89,1.68-1A20.15,20.15,0,0,0,29.14,66l.31,2,.15,1C29.79,70.35,30.27,74.75,28.23,74.08Z"/><path class="cls-8" d="M18.77,61a.75.75,0,0,1-.53-.23,5.55,5.55,0,0,1-1.4-1.91,17,17,0,0,1-.9-2.09L5.11,28.39l11.11-4.24,9.61,25.2c.25.67.54,1.34.82,2a27,27,0,0,1,1.67,4.72,2.66,2.66,0,0,1-.06,1.41l-.27.73-.59-.51a7.06,7.06,0,0,0-2.13-1.26,1,1,0,0,0-.32-.07l-.09.08a2,2,0,0,1-.1.26l-.13.21a.55.55,0,0,0-.08.13,6.74,6.74,0,0,0-.15,1.36v.19c0,.36-.07,1.45-1,1.53h-.12a2.26,2.26,0,0,1-1.31-.57l-.26-.18a11.82,11.82,0,0,0-1.59-.88.83.83,0,0,0-.37-.05h-.35a2.55,2.55,0,0,0,0,1,4.55,4.55,0,0,1,.05.91.7.7,0,0,1-.19.47l-.16.16Z"/><path class="cls-7" d="M15.91,24.85,18,30.25q2.49,6.54,5,13.08,1.17,3.11,2.36,6.21a47.64,47.64,0,0,1,2.47,6.66,2.09,2.09,0,0,1,0,1.11A7.33,7.33,0,0,0,25.45,56a1.45,1.45,0,0,0-.51-.11.61.61,0,0,0-.48.2c-.1.12-.11.3-.18.43a1.86,1.86,0,0,0-.25.46,8.34,8.34,0,0,0-.18,1.65c0,.36-.06,1-.53,1h-.07c-.48,0-.9-.42-1.28-.66A12.94,12.94,0,0,0,20.3,58a1.44,1.44,0,0,0-.58-.09h-.51a.32.32,0,0,0-.14,0,.28.28,0,0,0-.12.14c-.36.67,0,1.5-.07,2.26,0,0,0,.09,0,.12a.08.08,0,0,1-.07,0,.3.3,0,0,1-.17-.08,5.17,5.17,0,0,1-1.26-1.71,18,18,0,0,1-.9-2.09L12.52,46.32q-2.27-6-4.54-11.91L5.81,28.7l10.1-3.85m.63-1.39-1,.38L5.42,27.69l-1,.39.38,1L7,34.8l2.27,6,2.27,6,2,5.14L15.43,57a20,20,0,0,0,.93,2.16,6.42,6.42,0,0,0,1.51,2.05,1.33,1.33,0,0,0,.9.37,1.17,1.17,0,0,0,.83-.34A1.24,1.24,0,0,0,20,60.4a6.25,6.25,0,0,0-.05-1c0-.13,0-.27,0-.4h0a14.28,14.28,0,0,1,1.52.85l.22.16a2.77,2.77,0,0,0,1.63.66h.16c.53,0,1.43-.38,1.52-2v-.18a6.36,6.36,0,0,1,.12-1.21l0,0a1.07,1.07,0,0,0,.13-.21A6.23,6.23,0,0,1,27,58.12l1.18,1,.54-1.46A3.23,3.23,0,0,0,28.85,56a28.39,28.39,0,0,0-1.7-4.82c-.28-.65-.57-1.33-.82-2l-.65-1.69L24,43,19,29.86l-1-2.7-1-2.7-.38-1Z"/><rect class="cls-3" x="4.22" y="22.5" width="11.89" height="4.94" transform="translate(-8.23 5.26) rotate(-20.86)"/><path class="cls-7" d="M14.54,21.23l1.37,3.62L5.81,28.7,4.43,25.09l10.11-3.86m.62-1.39-1,.39L4,24.08l-1,.38.38,1L4.8,29.08l.38,1,1-.38L16.3,25.85l1-.38-.38-1-1.38-3.61-.38-1Z"/><rect class="cls-9" x="4.22" y="22.5" width="11.89" height="4.94" transform="translate(-8.23 5.26) rotate(-20.86)"/><path class="cls-7" d="M14.54,21.23l1.37,3.62L5.81,28.7,4.43,25.09l10.11-3.86m.62-1.39-1,.39L4,24.08l-1,.38.38,1L4.8,29.08l.38,1,1-.38L16.3,25.85l1-.38-.38-1-1.38-3.61-.38-1Z"/><rect class="cls-10" x="3.01" y="19.76" width="11.89" height="4.04" transform="translate(-7.17 4.62) rotate(-20.86)"/><path class="cls-7" d="M13.48,18.47l1.06,2.76L4.43,25.09,3.37,22.32l10.11-3.85m.62-1.39-1,.38L3,21.31,2,21.7l.39,1,1,2.77.39,1,1-.39,10.11-3.85,1-.38-.39-1-1-2.76-.39-1Z"/><path class="cls-11" d="M.84,17.18A4.57,4.57,0,0,1,3.48,11.3l2.59-1A4.51,4.51,0,0,1,7.69,10,4.58,4.58,0,0,1,12,13l2.23,5.83L3.06,23Z"/><path class="cls-7" d="M7.69,10.55a4,4,0,0,1,3.76,2.59l2,5.33L3.37,22.32,1.34,17a4,4,0,0,1,2.33-5.18l2.59-1a4,4,0,0,1,1.43-.27m0-1.08a5.1,5.1,0,0,0-1.81.34l-2.6,1A5.1,5.1,0,0,0,.34,17.38l2,5.32.38,1,1-.38,10.11-3.85,1-.39-.38-1-2-5.33A5.13,5.13,0,0,0,7.69,9.47Z"/><rect class="cls-12" x="3.01" y="19.76" width="11.89" height="4.04" transform="translate(-7.17 4.62) rotate(-20.86)"/><path class="cls-7" d="M13.48,18.47l1.06,2.76L4.43,25.09,3.37,22.32l10.11-3.85m.62-1.39-1,.38L3,21.31,2,21.7l.39,1,1,2.77.39,1,1-.39,10.11-3.85,1-.38-.39-1-1-2.76-.39-1Z"/><g class="cls-13"><path class="cls-8" d="M26.36,57.1l.7.39c.14.07.3.14.43.06a.43.43,0,0,0,.12-.35,13,13,0,0,0-1.14-4.65L25,48.77,21.3,39,17.43,28.84l-3-8-1.23-3.22-2.59,1L11.47,21l2.81,7.38,3.8,10,3.82,10,1.61,4.22.67,1.78c.26.68.41,1.65,1,2.11l.3.18Z"/></g></g></g></g></svg>