<svg xmlns="http://www.w3.org/2000/svg" viewBox="0 0 102.64 89.02"><defs><style>.cls-1{isolation:isolate;}.cls-2{fill:#e8a25f;}.cls-10,.cls-3{fill:none;}.cls-3,.cls-9{stroke:#db7e27;stroke-width:1.13px;}.cls-10,.cls-3,.cls-9{stroke-miterlimit:10;}.cls-4{fill:#f9e9da;}.cls-5{fill:#db7e27;}.cls-6{mix-blend-mode:multiply;}.cls-7{opacity:0.19;}.cls-8,.cls-9{fill:#f1cdab;}.cls-10{stroke:#fff;stroke-linecap:round;stroke-width:4.53px;opacity:0.59;}</style></defs><title>latina</title><g class="cls-1"><g id="Layer_2" data-name="Layer 2"><g id="Layer_1-2" data-name="Layer 1"><g id="kHEOjt"><path class="cls-2" d="M64.78,82.53a1.11,1.11,0,0,1,0-.19c.27-2.23,1.26-4.29,1.81-6.47l-.55-.2-.84,1.64L65,77.25a27,27,0,0,0,.85-3.61,11,11,0,0,1,.86-3.84,9.7,9.7,0,0,0,.92-4.08c0-1.49.49-3,.67-4.45.27-2.3.54-4.6.67-6.91.09-1.67-1.09-2.58-2.41-3.3a20.8,20.8,0,0,1-1.93-1A5.69,5.69,0,0,1,63,48c-1.36-2.41-2-5.28-4.21-7.18a1.9,1.9,0,0,1,0-2.44c.31-.27.75-.38,1-.72-1.35-.67-1.18-1.41-.85-2.27a9,9,0,0,1,2.49-3.28A1.69,1.69,0,0,0,62,31c-.13-1.28.45-2.73-.75-3.82-.18-.15-.11-.47-.28-.65a1.08,1.08,0,0,0-.82-.31,1.32,1.32,0,0,0-1.13.71c-.17.38-.17.36-.57.15-.56-.29-1.18-.46-1.75-.74-.21-.11-.34-.27-.53-.39a7.81,7.81,0,0,0-.84-.35l-.29-.12a1.67,1.67,0,0,1-.39-.23,1.14,1.14,0,0,1-.21-.28c-.39-.6-.82-1.1-1.16-1.73a5.32,5.32,0,0,0-1.25-1.72c-.73-.57-2-.46-2.92-.79a5.9,5.9,0,0,1-1.93-1.07c-.95-.82-1.82-1.53-3.17-.84a1.61,1.61,0,0,1-1.2,0c-1.46-.57-2.89-1.2-4.32-1.85-.66-.3-1.31-.62-2-.95a2.75,2.75,0,0,1-1.35-1c-.64-1.13-1.2-2.33-1.92-3.41l-.38-.54A16.54,16.54,0,0,0,31.37,9a7,7,0,0,1-.64-.58A10.77,10.77,0,0,0,30,7.45a16,16,0,0,1-1.64-1.84,6.8,6.8,0,0,1-.62-1c-.14-.32-.24-.45-.65-.38a.66.66,0,0,0-.5.34,1.06,1.06,0,0,0-.06.19,1.13,1.13,0,0,0,.15.76,8.07,8.07,0,0,0,.6,1c.31.38.62.76.91,1.16.54.74,1,1.55,1.49,2.31a6.8,6.8,0,0,0,.64.78,2.77,2.77,0,0,1,.43.92.17.17,0,0,1,0,.12c0,.11-.17.13-.28.1a1.22,1.22,0,0,1-.59-.41,3.79,3.79,0,0,1-.34-.45,3.38,3.38,0,0,0-.43-.7,3.87,3.87,0,0,0-.43-.27,15.22,15.22,0,0,1-1.26-1.28c-.27-.26-.53-.52-.81-.75a2.5,2.5,0,0,1-.81-.84,2.38,2.38,0,0,1-.12-.59,7.89,7.89,0,0,0-2-3.73l.25-.46c.75.09,1.51.13,2.25.28,1.69.33,3.35.72,5,1.06A1.32,1.32,0,0,0,32,3.6a2.71,2.71,0,0,1,3.51,1.11,10.6,10.6,0,0,0,1.25,1.34c1.59-1.24,2-1.12,3,.39.74,1.1,1.14,2.63,2.58,2.6a19.82,19.82,0,0,0,.29,4.44c.35,1.2.94,2.58,2.49,2.9a7.94,7.94,0,0,0,1.62,0c1.53,0,2.58-.58,2.76-2.26a.77.77,0,0,1,.54-.49c.85-.15,1.71-.21,2.68-.32L50.78,19c.89,0,1.69,0,2.5,0a14.46,14.46,0,0,1,1.61,0A1.32,1.32,0,0,1,56.1,20.7c-.14.68-.25,1.36-.39,2-.3,1.39.76,2.11,1.53,2.89.62.62,1.43.29,2.12-.11,1.32-.76,2,.3,3.06,1.08l1.46-2.33a3.73,3.73,0,0,1,2.58-1.36,8.22,8.22,0,0,1,1.54.37,46.54,46.54,0,0,0,4.87.76A16.65,16.65,0,0,1,78,25.83a6.44,6.44,0,0,1,1.88,1.38,4.44,4.44,0,0,0,1.52,1.43,10.92,10.92,0,0,1,1.72.6c.85.59.22,1.86,1.13,2.39.67.39,1.55-.1,2.26-.08a1.79,1.79,0,0,1,1.56,1.35c.14.48-.23,1,.24,1.41a3.9,3.9,0,0,0,1,.37C90.22,35,91,35.77,92,35.8c.8,0,1.21.67,1.89,1a5.82,5.82,0,0,0,2.8.68,4.13,4.13,0,0,1,3.07,1.26,9.4,9.4,0,0,0,1.33.9c.48.28,1.38.43,1.44.76a7.62,7.62,0,0,1,.08,2.52,4,4,0,0,1-1,1.73A14.37,14.37,0,0,0,99,50.25a23.75,23.75,0,0,1-.77,3,21,21,0,0,1-1.47,3,2.69,2.69,0,0,1-1.79.94,9.38,9.38,0,0,0-5,2.46,2.14,2.14,0,0,0-.32,1.58,2.93,2.93,0,0,1-.66,2c-.67,1-1.85,1.46-2.52,2.42-.54.77-1,1.59-1.48,2.4a1.81,1.81,0,0,1-2.48.76c-.38-.13-.37-.45-.76-.19s-.41,1.5-.39,2c1,.12-.33,1.6-.78,1.86s-3.84.47-3.89.65c-.26.94-.39,1.76-1.46,1.91-.51.07-.9-.19-1.3.23s-.14,1.35-.12,1.89a2.47,2.47,0,0,1-1.46,2.09c-.45.22-1.15.77-.82,1.29s.93.13,1,.83c.14.88-1.14,1.72-1.7,2.18-1.17.95-1.74,2.06-.45,3.23.75.69,2.64,2.21.49,2.25a9.88,9.88,0,0,1-4.67-1.51c-1-.57-1.26-1.89-1.45-3A7.19,7.19,0,0,1,64.78,82.53Z"/></g><path class="cls-3" d="M75.83,8.79A29.24,29.24,0,0,0,33.6,49.19l-2.86,3-2-2L2.84,76.93a5.12,5.12,0,1,0,7.36,7.12L36.07,57.3l-2-2,2.86-3A29.24,29.24,0,0,0,75.83,8.79Z"/><rect class="cls-4" x="29.27" y="49.43" width="9.03" height="5.7" transform="translate(-27.29 40.23) rotate(-45.97)"/><path class="cls-5" d="M34.89,47.85,38.18,51l-5.5,5.68L29.4,53.53l5.49-5.68m0-1.6-.79.82-5.49,5.68-.78.81.81.79,3.29,3.18.81.78.79-.81L39,51.82l.79-.81L39,50.22,35.67,47l-.81-.79Z"/><g class="cls-6"><rect class="cls-4" x="33.85" y="48.29" width="3.16" height="4.57" transform="translate(-25.56 40.9) rotate(-45.97)"/></g><g class="cls-7"><circle class="cls-8" cx="55.51" cy="29.82" r="29.25"/></g><path class="cls-9" d="M76.54,50.14a29.25,29.25,0,1,1-.71-41.35A29.24,29.24,0,0,1,76.54,50.14Zm-3.36-38.6a25.42,25.42,0,1,0,.61,36A25.43,25.43,0,0,0,73.18,11.54Z"/><path class="cls-10" d="M40,14.8a20.9,20.9,0,0,1,35.8,16.74"/><path class="cls-8" d="M6.54,86.45A5,5,0,0,1,3,85l-.94-.9A5,5,0,0,1,2,77l26.7-27.62,8.19,7.9L10.16,84.91A5,5,0,0,1,6.54,86.45Z"/><path class="cls-5" d="M28.7,50.17l7.37,7.13L9.75,84.52a4.47,4.47,0,0,1-6.32.1l-.94-.9a4.48,4.48,0,0,1-.1-6.33L28.7,50.17m0-1.59-.78.81L1.57,76.61a5.6,5.6,0,0,0,.14,7.92l.93.91a5.62,5.62,0,0,0,7.93-.14L36.88,58.08l.79-.81-.82-.79-7.37-7.12-.81-.78Z"/></g></g></g></svg>