<?xml version="1.0" encoding="UTF-8"?>
<svg width="32px" height="31px" viewBox="0 0 32 31" version="1.1" xmlns="http://www.w3.org/2000/svg" xmlns:xlink="http://www.w3.org/1999/xlink">
    <g id="Winners-main" stroke="none" stroke-width="1" fill="none" fill-rule="evenodd">
        <g id="single-award" transform="translate(-1178.000000, -241.000000)" fill="currentColor" fill-rule="nonzero">
            <g id="Widget-text" transform="translate(985.000000, 176.000000)">
                <g id="Group-2" transform="translate(90.000000, 64.000000)">
                    <path d="M132.714286,1 L105.278571,1 C104.021429,1 103,1.97478992 103,3.17142857 L103,28.9462185 C103,30.1428571 104.021429,31.1176471 105.278571,31.1176471 L132.714286,31.1176471 C133.971429,31.1176471 135,30.1428571 135,28.9462185 L135,3.17142857 C135,1.97478992 133.971429,1 132.714286,1 Z M112.671429,26.8151261 L107.928571,26.8151261 L107.928571,12.4420168 L112.678571,12.4420168 L112.678571,26.8151261 L112.671429,26.8151261 Z M110.3,10.4789916 C108.778571,10.4789916 107.55,9.31596639 107.55,7.8907563 C107.55,6.46554622 108.778571,5.30252101 110.3,5.30252101 C111.814286,5.30252101 113.05,6.46554622 113.05,7.8907563 C113.05,9.32268908 111.821429,10.4789916 110.3,10.4789916 L110.3,10.4789916 Z M130.45,26.8151261 L125.707143,26.8151261 L125.707143,19.8235294 C125.707143,18.1563025 125.671429,16.0117647 123.242857,16.0117647 C120.771429,16.0117647 120.392857,17.8268908 120.392857,19.702521 L120.392857,26.8151261 L115.65,26.8151261 L115.65,12.4420168 L120.2,12.4420168 L120.2,14.405042 L120.264286,14.405042 C120.9,13.2756303 122.45,12.0857143 124.757143,12.0857143 C129.557143,12.0857143 130.45,15.0638655 130.45,18.9361345 L130.45,26.8151261 L130.45,26.8151261 Z" ></path>
                </g>
            </g>
        </g>
    </g>
</svg>
