<?xml version="1.0" encoding="UTF-8"?>
<svg width="16px" height="16px" viewBox="0 0 15 15" version="1.1" xmlns="http://www.w3.org/2000/svg" xmlns:xlink="http://www.w3.org/1999/xlink">
    <!-- Generator: Sketch 63.1 (92452) - https://sketch.com -->
    <title>icons/magnify</title>
    <desc>Created with Sketch.</desc>
    <g id="Home-Page-HD" stroke="none" stroke-width="1" fill="none" fill-rule="evenodd">
        <g id="oeg_desktop" transform="translate(-957.000000, -40.000000)">
            <g id="Padding-Group-18" transform="translate(947.000000, 30.000000)" fill-rule="nonzero">
                <g id="icons/magnify" transform="translate(10.000000, 10.000000)" fill="#4D4D4D">
                    <path d="M7,16.6666667 L7,11.3333333 L7.33333333,11.3333333 L7.33365451,10.6254442 C4.70262464,10.2975214 2.66666667,8.05318911 2.66666667,5.33333333 C2.66666667,2.38781467 5.05448133,0 8,0 C10.9455187,0 13.3333333,2.38781467 13.3333333,5.33333333 C13.3333333,8.05273137 11.2980606,10.296766 8.6676738,10.6252785 L8.66666667,11.3333333 L9,11.3333333 L9,16.6666667 L7,16.6666667 Z M8,1.33333333 C5.790861,1.33333333 4,3.12419433 4,5.33333333 C4,7.54247233 5.790861,9.33333333 8,9.33333333 C10.209139,9.33333333 12,7.54247233 12,5.33333333 C12,3.12419433 10.209139,1.33333333 8,1.33333333 Z" id="Shape" transform="translate(8.000000, 8.333333) rotate(-45.000000) translate(-8.000000, -8.333333) "></path>
                </g>
            </g>
        </g>
    </g>
</svg>