<?xml version="1.0" encoding="UTF-8"?>
<svg width="32px" height="32px" viewBox="0 0 32 32" version="1.1" xmlns="http://www.w3.org/2000/svg" xmlns:xlink="http://www.w3.org/1999/xlink">
    <g id="Winners-main" stroke="none" stroke-width="1" fill="none" fill-rule="evenodd">
        <g id="single-award" transform="translate(-1229.000000, -240.000000)" fill="currentColor" fill-rule="nonzero">
            <g id="Widget-text" transform="translate(985.000000, 176.000000)">
                <g id="Group-2" transform="translate(90.000000, 64.000000)">
                    <path d="M182.571429,0 L157.428571,0 C155.535,0 154,1.535 154,3.42857143 L154,28.5714286 C154,30.465 155.535,32 157.428571,32 L182.571429,32 C184.465,32 186,30.465 186,28.5714286 L186,3.42857143 C186,1.535 184.465,0 182.571429,0 Z M166.722643,16.436 C160.244929,11.7347857 160.310929,11.7229286 158.571429,10.3690714 L158.571429,8.57142857 C158.571429,7.62464286 159.338929,6.85714286 160.285714,6.85714286 L179.714286,6.85714286 C180.661071,6.85714286 181.428571,7.62464286 181.428571,8.57142857 L181.428571,10.3690714 C179.687786,11.724 179.754714,11.7350714 173.277357,16.4360714 C172.527357,16.9828571 171.035071,18.3017857 170,18.2856429 C168.964071,18.3012143 167.473786,16.9837143 166.722643,16.436 L166.722643,16.436 Z M181.428571,13.2696429 L181.428571,23.4285714 C181.428571,24.3753571 180.661071,25.1428571 179.714286,25.1428571 L160.285714,25.1428571 C159.338929,25.1428571 158.571429,24.3753571 158.571429,23.4285714 L158.571429,13.2696429 C159.568429,14.0406429 160.952071,15.0722143 165.378786,18.2849286 C166.390357,19.0235714 168.091286,20.581 169.999786,20.5713571 C171.920286,20.5809286 173.645286,18.997 174.622643,18.2838571 C179.048214,15.0720714 180.431571,14.0405714 181.428571,13.2696429 Z" id="Shape"></path>
                </g>
            </g>
        </g>
    </g>
</svg>
