<?xml version="1.0" encoding="UTF-8"?>
<svg viewBox="0 0 94 94" version="1.1" xmlns="http://www.w3.org/2000/svg" xmlns:xlink="http://www.w3.org/1999/xlink">
    <title>megaphone</title>
    <defs>
        <circle id="path-1" cx="27" cy="27" r="27"></circle>
        <filter x="-55.6%" y="-46.3%" width="211.1%" height="211.1%" filterUnits="objectBoundingBox" id="filter-2">
            <feMorphology radius="2.5" operator="erode" in="SourceAlpha" result="shadowSpreadOuter1"></feMorphology>
            <feOffset dx="0" dy="5" in="shadowSpreadOuter1" result="shadowOffsetOuter1"></feOffset>
            <feGaussianBlur stdDeviation="10" in="shadowOffsetOuter1" result="shadowBlurOuter1"></feGaussianBlur>
            <feColorMatrix values="0 0 0 0 0   0 0 0 0 0   0 0 0 0 0  0 0 0 0.3 0" type="matrix" in="shadowBlurOuter1" result="shadowMatrixOuter1"></feColorMatrix>
            <feOffset dx="0" dy="0" in="SourceAlpha" result="shadowOffsetOuter2"></feOffset>
            <feGaussianBlur stdDeviation="0.5" in="shadowOffsetOuter2" result="shadowBlurOuter2"></feGaussianBlur>
            <feColorMatrix values="0 0 0 0 0.8   0 0 0 0 0.8   0 0 0 0 0.8  0 0 0 1 0" type="matrix" in="shadowBlurOuter2" result="shadowMatrixOuter2"></feColorMatrix>
            <feMerge>
                <feMergeNode in="shadowMatrixOuter1"></feMergeNode>
                <feMergeNode in="shadowMatrixOuter2"></feMergeNode>
            </feMerge>
        </filter>
    </defs>
    <g id="Page-1" stroke="none" stroke-width="1" fill="none" fill-rule="evenodd">
        <g id="frontpage" transform="translate(-281.000000, -283.000000)" fill-rule="nonzero">
            <g id="megaphone" transform="translate(301.000000, 298.000000)">
                <g id="Oval">
                    <use fill="black" fill-opacity="1" filter="url(#filter-2)" xlink:href="#path-1"></use>
                    <use fill="#FFFFFF" xlink:href="#path-1"></use>
                </g>
                <path d="M41.1346519,23.2860964 L41.1346519,14.7899619 C41.1346519,14.3042462 40.7468674,13.0115978 39.3573989,13.0115978 L39.3568433,13.0115978 C38.9612809,13.0115978 38.5684963,13.1438636 38.2468241,13.4017264 L33.5228533,17.1824174 C31.1500344,19.0797096 28.1710939,20.1250542 25.1343746,20.1250542 L14.4675231,20.1250542 C12.5036002,20.1250542 10.9119059,21.7172458 10.9119059,23.6817824 L10.9119059,29.0168747 C10.9119059,30.9814113 12.5036002,32.5736029 14.4675231,32.5736029 L14.440856,34.351967 C14.440856,36.5621401 14.9553093,38.6506065 15.8608806,40.517333 C16.1492189,41.1114178 16.7786743,41.4654234 17.4386857,41.4654234 L23.3432325,41.4654234 C24.7904798,41.4654234 25.6593837,39.8070989 24.7821463,38.6556081 C23.8710194,37.4596582 23.3293433,35.9680554 23.3293433,34.351967 C23.3293433,33.7345412 23.4193449,33.1410122 23.5743476,32.5736029 L25.1343746,32.5736029 C28.1710939,32.5736029 31.1500344,33.6189475 33.5222978,35.5162397 L38.2462685,39.2969307 C38.5613371,39.549136 38.9527585,39.6867054 39.3562878,39.6870593 C40.7407562,39.6870593 41.1340964,38.4210863 41.1340964,37.9086952 L41.1340964,29.4125607 C42.192448,28.7962464 42.9119059,27.6625393 42.9119059,26.3493285 C42.9124605,25.0361178 42.1930036,23.9024107 41.1346519,23.2860964 Z M23.3432325,39.6870593 L17.4603527,39.6853921 C16.6364496,37.9870543 16.2186646,36.2292526 16.218109,34.3786424 L16.2447761,32.6002783 L16.2453317,32.5736029 L21.7637607,32.5736029 C21.6354251,33.1682434 21.5520903,33.7645511 21.5520903,34.351967 C21.5520903,36.3131691 22.179879,38.1743383 23.3432325,39.6870593 Z M14.4675231,30.7952388 C13.4875061,30.7952388 12.6897145,29.9971979 12.6897145,29.0168747 L12.6897145,23.6817824 C12.6897145,22.7014592 13.4875061,21.9034183 14.4675231,21.9034183 L25.1343746,21.9034183 L25.1343746,30.7952388 L14.4675231,30.7952388 Z M39.3596212,37.8492311 C39.3573989,37.8631246 39.3523988,37.881464 39.345732,37.8992476 L34.6328726,34.1274485 C32.411723,32.3513074 29.7200097,31.2476102 26.9121832,30.9136111 L26.9121832,21.7850459 C29.7200097,21.4510469 32.411723,20.3473497 34.6334281,18.5706528 L39.3485099,14.7971865 C39.3501766,14.7988537 39.3518433,14.7999652 39.3529544,14.7999652 C39.3551766,14.7999652 39.3562878,14.7971865 39.3568433,14.7905176 L39.3596212,37.8492311 Z" id="Shape" fill="#FF8670"></path>
            </g>
        </g>
    </g>
</svg>
