<svg height="103" viewBox="0 0 144 103" width="144" xmlns="http://www.w3.org/2000/svg">
  <path
    d="m409.78125 159.832031c8.59375 0 16.015625-3.051758 22.265625-9.155273 6.25-6.103516 9.375-12.866211 9.375-20.288086 0-5.761719-2.099609-10.253906-6.298828-13.476563-4.199219-3.222656-10.546875-4.833984-19.042969-4.833984h-8.203125c1.757813-5.664063 4.223633-10.693359 7.397461-15.0878906 3.173828-4.3945313 6.713867-8.3496094 10.620117-11.8652344 3.417969-3.125 7.983399-6.3720703 13.696289-9.7412109 5.712891-3.3691407 10.81543-6.0302735 15.307618-7.9833985l-4.101563-10.4003906c-18.652344 7.421875-34.448242 18.1640625-47.387695 32.2265625-12.939453 14.0624995-19.40918 28.7597655-19.40918 44.0917965 0 7.8125 2.026367 14.184571 6.079102 19.116211 4.052734 4.931641 10.620117 7.397461 19.702148 7.397461zm72.216797 0c8.59375 0 16.015625-3.051758 22.265625-9.155273 6.25-6.103516 9.375-12.866211 9.375-20.288086 0-5.761719-2.09961-10.253906-6.298828-13.476563-4.199219-3.222656-10.546875-4.833984-19.042969-4.833984h-8.203125c1.757812-5.664063 4.223633-10.693359 7.397461-15.0878906 3.173828-4.3945313 6.713867-8.3496094 10.620117-11.8652344 3.417969-3.125 7.983399-6.3720703 13.696289-9.7412109 5.712891-3.3691407 10.81543-6.0302735 15.307617-7.9833985l-4.101562-10.4003906c-18.652344 7.421875-34.448242 18.1640625-47.387695 32.2265625-12.939454 14.0624995-19.40918 28.7597655-19.40918 44.0917965 0 7.8125 2.026367 14.184571 6.079101 19.116211 4.052735 4.931641 10.620118 7.397461 19.702149 7.397461z"
    fill="#50e2c4" transform="translate(-384 -57)"/>
</svg>
