<?xml version="1.0" encoding="UTF-8"?>
<svg width="32px" height="32px" viewBox="0 0 32 32" version="1.1" xmlns="http://www.w3.org/2000/svg" xmlns:xlink="http://www.w3.org/1999/xlink">
    <title>linkedin</title>
    <g id="Case-study" stroke="none" stroke-width="1" fill="none" fill-rule="evenodd">
        <g id="Desktop-HD" transform="translate(-1177.000000, -240.000000)" fill="currentColor" fill-rule="nonzero">
            <g id="Widget-text" transform="translate(997.000000, 176.000000)">
                <g id="icons" transform="translate(84.000000, 64.000000)">
                    <path d="M125.714286,0 C126.971401,0 128,1.03571429 128,2.30712891 L128,2.30712891 L128,29.6928711 C128,30.9642857 126.971401,32 125.714286,32 L125.714286,32 L98.2785993,32 C97.0214146,32 96,30.9642857 96,29.6928711 L96,29.6928711 L96,2.30712891 C96,1.03571429 97.0214146,0 98.2785993,0 L98.2785993,0 Z M117.757115,11.7785993 C115.449986,11.7785993 113.899972,13.0428292 113.2643,14.242885 L113.2643,14.242885 L113.199986,14.242885 L113.199986,12.1571568 L108.649972,12.1571568 L108.649972,27.4285714 L113.392857,27.4285714 L113.393721,19.710035 C113.414848,17.7757191 113.838211,15.949986 116.242885,15.949986 C118.415817,15.949986 118.673138,17.7741279 118.703234,19.4269958 L118.703234,19.4269958 L118.70653,19.7164943 L118.707171,27.4285714 L123.449986,27.4285714 L123.449012,18.8252758 C123.414902,14.8245911 122.466563,11.7785993 117.757115,11.7785993 Z M105.678571,12.1571568 L100.928571,12.1571568 L100.928571,27.4285714 L105.678571,27.4285714 L105.678571,12.1571568 Z M103.300014,4.57142857 C101.778599,4.57142857 100.550014,5.80712891 100.550014,7.32142857 C100.550014,8.83572824 101.778599,10.0714286 103.300014,10.0714286 C104.821429,10.0714286 106.050014,8.84284319 106.050014,7.32142857 C106.050014,5.80712891 104.814314,4.57142857 103.300014,4.57142857 Z" id="linkedin"></path>
                </g>
            </g>
        </g>
    </g>
</svg>