<?xml version="1.0" encoding="UTF-8"?>
<svg width="32px" height="32px" viewBox="0 0 32 32" version="1.1" xmlns="http://www.w3.org/2000/svg" xmlns:xlink="http://www.w3.org/1999/xlink">
    <title>facebook</title>
    <g id="Case-study" stroke="none" stroke-width="1" fill="none" fill-rule="evenodd">
        <g id="Desktop-HD" transform="translate(-1129.000000, -240.000000)" fill="currentColor" fill-rule="nonzero">
            <g id="Widget-text" transform="translate(997.000000, 176.000000)">
                <g id="icons" transform="translate(84.000000, 64.000000)">
                    <path d="M61.2321429,32 L61.2321429,21.120745 L56.7321429,21.120745 L56.7321429,16 L61.2321429,16 L61.2321429,12.097168 C61.2321429,7.65785435 63.875,5.20570592 67.9228516,5.20570592 C69.8613979,5.20570592 71.8886021,5.55140904 71.8886021,5.55140904 L71.8886021,9.9085519 L69.6549944,9.9085519 C67.4543108,9.9085519 66.7678571,11.2742746 66.7678571,12.675014 L66.7678571,16 L71.6807338,16 L70.8950195,21.120745 L66.7678571,21.120745 L66.7678571,32 L76.5714286,32 C78.4637277,32 80,30.4637277 80,28.5714286 L80,3.42857143 C80,1.53627232 78.4637277,0 76.5714286,0 L51.4285714,0 C49.5362723,0 48,1.53627232 48,3.42857143 L48,28.5714286 C48,30.4637277 49.5362723,32 51.4285714,32 L61.2321429,32 Z" id="facebook"></path>
                </g>
            </g>
        </g>
    </g>
</svg>