<?xml version="1.0" encoding="UTF-8"?>
<svg width="32px" height="32px" viewBox="0 0 32 32" version="1.1" xmlns="http://www.w3.org/2000/svg" xmlns:xlink="http://www.w3.org/1999/xlink">
    <title>twitter</title>
    <g id="Case-study" stroke="none" stroke-width="1" fill="none" fill-rule="evenodd">
        <g id="Desktop-HD" transform="translate(-1081.000000, -240.000000)" fill="currentColor" fill-rule="nonzero">
            <g id="Widget-text" transform="translate(997.000000, 176.000000)">
                <g id="icons" transform="translate(84.000000, 64.000000)">
                    <path d="M28.5714286,0 C30.4642857,0 32,1.53571429 32,3.42857143 L32,3.42857143 L32,28.5714286 C32,30.4642857 30.4642857,32 28.5714286,32 L28.5714286,32 L3.42857143,32 C1.53571429,32 0,30.4642857 0,28.5714286 L0,28.5714286 L0,3.42857143 C0,1.53571429 1.53571429,0 3.42857143,0 L3.42857143,0 Z M20.3928571,6.71428571 C17.5357143,6.71428571 15.1571568,9.29282924 15.8214286,12.4714007 C11.9356864,12.2714146 8.47140067,10.4142718 6.16427176,7.57142857 C5.75711496,8.26429967 5.52859933,9.06431362 5.52859933,9.93568638 C5.52859933,9.93833705 5.52385603,9.93798828 5.52385603,9.9405692 C5.52385603,11.5654994 6.3546317,12.9978376 7.61425781,13.8357282 C6.8500279,13.8071289 6.12144252,13.5928432 5.5,13.242885 L5.5,13.242885 L5.5,13.300014 C5.5,15.5785435 7.10714286,17.4642857 9.25,17.8999721 C8.50711496,18.0928432 7.85714286,18.0928432 7.13574219,17.9857003 C7.72858538,19.8428432 9.45717076,21.1928711 11.5142997,21.2357003 C9.90715681,22.492885 7.89285714,23.2357003 5.69998605,23.2357003 C5.31431362,23.2357003 4.94998605,23.2214007 4.57142857,23.1785714 C6.64285714,24.507115 9.10714286,25.2785993 11.7642997,25.2785993 C20.3785575,25.2785993 25.0928432,18.1428571 25.0928432,11.949986 C25.0928432,11.75 25.0928432,11.5428292 25.0785435,11.3428432 C25.992885,10.6785714 26.7928292,9.8500279 27.4285714,8.91427176 C26.5857282,9.27859933 25.6714565,9.54282924 24.7285854,9.64285714 C25.699986,9.06431362 26.4356864,8.1499721 26.7857143,7.06431362 C25.8857422,7.6000279 24.8714425,7.99288504 23.8143136,8.19287109 C22.9571708,7.27859933 21.742885,6.71428571 20.3928571,6.71428571 Z" id="twitter"></path>
                </g>
            </g>
        </g>
    </g>
</svg>