<?xml version="1.0" encoding="UTF-8"?>
<svg width="32px" height="32px" viewBox="0 0 32 32" version="1.1" xmlns="http://www.w3.org/2000/svg" xmlns:xlink="http://www.w3.org/1999/xlink">
    <title>mail</title>
    <g id="Case-study" stroke="none" stroke-width="1" fill="none" fill-rule="evenodd">
        <g id="Desktop-HD" transform="translate(-1225.000000, -240.000000)" fill="currentColor" fill-rule="nonzero">
            <g id="Widget-text" transform="translate(997.000000, 176.000000)">
                <g id="icons" transform="translate(84.000000, 64.000000)">
                    <path d="M172.571429,0 L147.428571,0 C145.535,0 144,1.535 144,3.42857143 L144,28.5714286 C144,30.465 145.535,32 147.428571,32 L172.571429,32 C174.465,32 176,30.465 176,28.5714286 L176,3.42857143 C176,1.535 174.465,0 172.571429,0 Z M156.722643,16.436 C150.244929,11.7347857 150.310929,11.7229286 148.571429,10.3690714 L148.571429,8.57142857 C148.571429,7.62464286 149.338929,6.85714286 150.285714,6.85714286 L169.714286,6.85714286 C170.661071,6.85714286 171.428571,7.62464286 171.428571,8.57142857 L171.428571,10.3690714 C169.687786,11.724 169.754714,11.7350714 163.277357,16.4360714 C162.527357,16.9828571 161.035071,18.3017857 160,18.2856429 C158.964071,18.3012143 157.473786,16.9837143 156.722643,16.436 L156.722643,16.436 Z M171.428571,13.2696429 L171.428571,23.4285714 C171.428571,24.3753571 170.661071,25.1428571 169.714286,25.1428571 L150.285714,25.1428571 C149.338929,25.1428571 148.571429,24.3753571 148.571429,23.4285714 L148.571429,13.2696429 C149.568429,14.0406429 150.952071,15.0722143 155.378786,18.2849286 C156.390357,19.0235714 158.091286,20.581 159.999786,20.5713571 C161.920286,20.5809286 163.645286,18.997 164.622643,18.2838571 C169.048214,15.0720714 170.431571,14.0405714 171.428571,13.2696429 Z" id="mail"></path>
                </g>
            </g>
        </g>
    </g>
</svg>