<?xml version="1.0" encoding="UTF-8"?>
<svg width="18px" height="16px" viewBox="0 0 18 16" version="1.1" xmlns="http://www.w3.org/2000/svg" xmlns:xlink="http://www.w3.org/1999/xlink">
    <title>stream-solid</title>
    <g id="Page-1" stroke="none" stroke-width="1" fill="none" fill-rule="evenodd">
        <g id="frontpage" transform="translate(-1105.000000, -539.000000)" fill="currentColor" fill-rule="nonzero">
            <g id="webinars-heading" transform="translate(248.000000, 533.000000)">
                <g id="stream-solid" transform="translate(857.000000, 6.000000)">
                    <path d="M0.5625,3.42857143 L15.1875,3.42857143 C15.4982812,3.42857143 15.75,3.17285714 15.75,2.85714286 L15.75,0.571428571 C15.75,0.255714286 15.4982812,-1.70530257e-14 15.1875,-1.70530257e-14 L0.5625,-1.70530257e-14 C0.25171875,-1.70530257e-14 -7.10542736e-14,0.255714286 -7.10542736e-14,0.571428571 L-7.10542736e-14,2.85714286 C-7.10542736e-14,3.17285714 0.25171875,3.42857143 0.5625,3.42857143 Z M17.4375,6.28571429 L2.8125,6.28571429 C2.50171875,6.28571429 2.25,6.54142857 2.25,6.85714286 L2.25,9.14285714 C2.25,9.45857143 2.50171875,9.71428571 2.8125,9.71428571 L17.4375,9.71428571 C17.7482812,9.71428571 18,9.45857143 18,9.14285714 L18,6.85714286 C18,6.54142857 17.7482812,6.28571429 17.4375,6.28571429 Z M15.1875,12.5714286 L0.5625,12.5714286 C0.25171875,12.5714286 -7.10542736e-14,12.8271429 -7.10542736e-14,13.1428571 L-7.10542736e-14,15.4285714 C-7.10542736e-14,15.7442857 0.25171875,16 0.5625,16 L15.1875,16 C15.4982812,16 15.75,15.7442857 15.75,15.4285714 L15.75,13.1428571 C15.75,12.8271429 15.4982812,12.5714286 15.1875,12.5714286 Z" id="Shape"></path>
                </g>
            </g>
        </g>
    </g>
</svg>
