<?xml version="1.0" encoding="UTF-8"?>
<svg width="32px" height="32px" viewBox="0 0 32 32" version="1.1" xmlns="http://www.w3.org/2000/svg" xmlns:xlink="http://www.w3.org/1999/xlink">
    <title>Youtube</title>
    <defs>
        <filter id="filter-1">
            <feColorMatrix in="SourceGraphic" type="matrix" values="0 0 0 0 1.000000 0 0 0 0 1.000000 0 0 0 0 1.000000 0 0 0 1.000000 0"></feColorMatrix>
        </filter>
    </defs>
    <g id="Page-1" stroke="none" stroke-width="1" fill="none" fill-rule="evenodd">
        <g id="frontpage" transform="translate(-1099.000000, -4198.000000)">
            <g id="youtube-square-brands" transform="translate(0.000000, 4063.000000)" filter="url(#filter-1)">
                <g transform="translate(1099.000000, 135.000000)">
                    <path d="M13.3428571,12.15 L20.1428571,16.0142857 L13.3428571,19.8785714 L13.3428571,12.15 Z M32,3.42857143 L32,28.5714286 C32,30.4642857 30.4642857,32 28.5714286,32 L3.42857143,32 C1.53571429,32 0,30.4642857 0,28.5714286 L0,3.42857143 C0,1.53571429 1.53571429,0 3.42857143,0 L28.5714286,0 C30.4642857,0 32,1.53571429 32,3.42857143 Z M29,16.0214286 C29,16.0214286 29,11.7642857 28.4571429,9.72142857 C28.1571429,8.59285714 27.2785714,7.70714286 26.1571429,7.40714286 C24.1357143,6.85714286 16,6.85714286 16,6.85714286 C16,6.85714286 7.86428571,6.85714286 5.84285714,7.40714286 C4.72142857,7.70714286 3.84285714,8.59285714 3.54285714,9.72142857 C3,11.7571429 3,16.0214286 3,16.0214286 C3,16.0214286 3,20.2785714 3.54285714,22.3214286 C3.84285714,23.45 4.72142857,24.3 5.84285714,24.6 C7.86428571,25.1428571 16,25.1428571 16,25.1428571 C16,25.1428571 24.1357143,25.1428571 26.1571429,24.5928571 C27.2785714,24.2928571 28.1571429,23.4428571 28.4571429,22.3142857 C29,20.2785714 29,16.0214286 29,16.0214286 L29,16.0214286 Z" id="Shape" fill="#000000" fill-rule="nonzero"></path>
                </g>
            </g>
        </g>
    </g>
</svg>
