<?xml version="1.0" encoding="UTF-8"?>
<svg width="2000px" height="748px" viewBox="0 0 2000 748" version="1.1" xmlns="http://www.w3.org/2000/svg" xmlns:xlink="http://www.w3.org/1999/xlink">
    <title>hero-home</title>
    <defs>
        <rect id="path-1" x="0" y="0" width="2000" height="748"></rect>
        <linearGradient x1="22.8329956%" y1="31.3636797%" x2="61.3356135%" y2="70.7680127%" id="linearGradient-3">
            <stop stop-color="#0D59F2" offset="0%"></stop>
            <stop stop-color="#3B80F7" offset="100%"></stop>
        </linearGradient>
        <linearGradient x1="8.8968385%" y1="40.9544378%" x2="67.1505679%" y2="60.0802277%" id="linearGradient-4">
            <stop stop-color="#0D59F2" offset="0%"></stop>
            <stop stop-color="#3B80F7" offset="100%"></stop>
        </linearGradient>
        <linearGradient x1="8.8968385%" y1="42.1920903%" x2="67.1505679%" y2="58.7010078%" id="linearGradient-5">
            <stop stop-color="#0D59F2" offset="0%"></stop>
            <stop stop-color="#3B80F7" offset="100%"></stop>
        </linearGradient>
        <linearGradient x1="8.8968385%" y1="43.0760074%" x2="67.1505679%" y2="57.7159849%" id="linearGradient-6">
            <stop stop-color="#0D59F2" offset="0%"></stop>
            <stop stop-color="#3B80F7" offset="100%"></stop>
        </linearGradient>
        <linearGradient x1="15.799736%" y1="31.3636797%" x2="64.2702879%" y2="70.7680127%" id="linearGradient-7">
            <stop stop-color="#0D59F2" offset="0%"></stop>
            <stop stop-color="#3B80F7" offset="100%"></stop>
        </linearGradient>
    </defs>
    <g id="hero-home" stroke="none" stroke-width="1" fill="none" fill-rule="evenodd">
        <g>
            <mask id="mask-2" fill="white">
                <use xlink:href="#path-1"></use>
            </mask>
            <use id="Rectangle" fill="#1C2B5A" fill-rule="nonzero" xlink:href="#path-1"></use>
            <path d="M653.514965,-233.823617 C791.208621,-287.410811 1048.95919,-228.844886 991.023311,69.6907741 C933.08743,368.226434 939.604596,462.21251 1231.59563,627.182321 C1523.58667,792.152132 1447.43053,1268.97824 1133.12403,1191.25073 C818.817529,1113.52322 124.119734,732.869583 249.442492,358.296918 C374.76525,-16.2757475 515.821309,-180.236424 653.514965,-233.823617 Z" id="Path-2" fill="url(#linearGradient-3)" fill-rule="nonzero" opacity="0.401994978" style="mix-blend-mode: screen;" mask="url(#mask-2)"></path>
            <path d="M2249.95643,393.144263 C2199.67457,519.362019 1998.71125,655.961858 1834.2733,429.717323 C1669.83536,203.472788 1602.54683,148.894873 1308.5651,241.770916 C1014.58337,334.646959 741.672006,-15.698817 990.974888,-178.312449 C1240.27777,-340.926081 1931.75075,-569.321108 2105.07781,-250.0574 C2278.40488,69.2063093 2300.23829,266.926507 2249.95643,393.144263 Z" id="Path-2" fill="url(#linearGradient-4)" fill-rule="nonzero" opacity="0.401994978" style="mix-blend-mode: screen;" mask="url(#mask-2)"></path>
            <path d="M281.078292,213 C417.350803,213 597,121.628616 597,37.9370918 C597,-45.7544323 480.443147,-143 344.170636,-143 C207.898125,-143 47,-64.5036663 47,19.1878578 C47,102.879382 144.80578,213 281.078292,213 Z" id="Oval" fill="url(#linearGradient-5)" fill-rule="nonzero" opacity="0.401994978" style="mix-blend-mode: screen;" mask="url(#mask-2)"></path>
            <path d="M981.655471,588.009074 C991.280834,440.569315 1153.28969,231.718995 1399.37012,410.393357 C1645.45055,589.067718 1733.38514,622.881392 2006.29931,427.966894 C2279.21348,233.052397 2679.17972,503.588722 2475.903,755.598085 C2272.62628,1007.60745 1634.04495,1476.34629 1347.53052,1204.46405 C1061.01608,932.581814 972.030109,735.448833 981.655471,588.009074 Z" id="Path-2" fill="url(#linearGradient-6)" fill-rule="nonzero" opacity="0.401994978" style="mix-blend-mode: screen;" mask="url(#mask-2)"></path>
            <path d="M611.724599,1305.97881 C511.243292,1364.62793 303.590362,1350.84124 311.88951,1111.50274 C320.188658,872.164242 303.549086,799.865872 56.1684091,707.538986 C-191.212267,615.212099 -190.694814,234.955364 63.2985647,256.675778 C317.291943,278.396191 904.396348,488.850192 853.05467,795.634418 C801.712993,1102.41864 712.205905,1247.32968 611.724599,1305.97881 Z" id="Path-2" fill="url(#linearGradient-7)" fill-rule="nonzero" opacity="0.401994978" style="mix-blend-mode: screen;" mask="url(#mask-2)"></path>
        </g>
    </g>
</svg>