<?xml version="1.0" encoding="UTF-8"?>
<svg width="1024px" height="28px" viewBox="0 0 1024 28" version="1.1" xmlns="http://www.w3.org/2000/svg" xmlns:xlink="http://www.w3.org/1999/xlink">
    <!-- Generator: Sketch 58 (84663) - https://sketch.com -->
    <title>pattern 1</title>
    <desc>Created with Sketch.</desc>
    <g id="Home" stroke="none" stroke-width="1" fill="none" fill-rule="evenodd">
        <g id="oeg_desktop" transform="translate(0.000000, -412.000000)" fill-rule="nonzero">
            <g id="strip" transform="translate(-5.000000, 400.000000)">
                <g id="pattern-1" transform="translate(0.000000, 12.000000)">
                    <path d="M1024.65999,9.29897632 L1014.93011,1.28798686 L1004.92206,9.29796406 L1004.7922,9.136 L1004.65999,9.29897632 L994.930109,1.28798686 L984.922065,9.29796406 L984.792201,9.136 L984.659988,9.29897632 L974.930109,1.28798686 L964.922065,9.29796406 L964.792201,9.136 L964.659988,9.29897632 L954.930109,1.28798686 L944.922065,9.29796406 L944.792201,9.136 L944.659988,9.29897632 L934.930109,1.28798686 L924.922065,9.29796406 L924.792201,9.136 L924.659988,9.29897632 L914.930109,1.28798686 L904.922065,9.29796406 L904.792201,9.136 L904.659988,9.29897632 L894.930109,1.28798686 L884.922065,9.29796406 L884.792201,9.136 L884.659988,9.29897632 L874.930109,1.28798686 L864.922065,9.29796406 L864.792201,9.136 L864.659988,9.29897632 L854.930109,1.28798686 L844.922065,9.29796406 L844.792201,9.136 L844.659988,9.29897632 L834.930109,1.28798686 L824.922065,9.29796406 L824.792201,9.136 L824.659988,9.29897632 L814.930109,1.28798686 L804.922065,9.29796406 L804.792201,9.136 L804.659988,9.29897632 L794.930109,1.28798686 L784.922065,9.29796406 L784.792201,9.136 L784.659988,9.29897632 L774.930109,1.28798686 L764.922065,9.29796406 L764.792201,9.136 L764.659988,9.29897632 L754.930109,1.28798686 L744.922065,9.29796406 L744.792201,9.136 L744.659988,9.29897632 L734.930109,1.28798686 L724.922065,9.29796406 L724.792201,9.136 L724.659988,9.29897632 L714.930109,1.28798686 L704.922065,9.29796406 L704.792201,9.136 L704.659988,9.29897632 L694.930109,1.28798686 L684.922065,9.29796406 L684.792201,9.136 L684.659988,9.29897632 L674.930109,1.28798686 L664.922065,9.29796406 L664.792201,9.136 L664.659988,9.29897632 L654.930109,1.28798686 L644.922065,9.29796406 L644.792201,9.136 L644.659988,9.29897632 L634.930109,1.28798686 L624.922065,9.29796406 L624.792201,9.136 L624.659988,9.29897632 L614.930109,1.28798686 L604.922065,9.29796406 L604.792201,9.136 L604.659988,9.29897632 L594.930109,1.28798686 L584.922065,9.29796406 L584.792201,9.136 L584.659988,9.29897632 L574.930109,1.28798686 L564.922065,9.29796406 L564.792201,9.136 L564.659988,9.29897632 L554.930109,1.28798686 L544.922065,9.29796406 L544.792201,9.136 L544.659988,9.29897632 L534.930109,1.28798686 L524.922065,9.29796406 L524.792201,9.136 L524.659988,9.29897632 L514.930109,1.28798686 L504.922065,9.29796406 L504.792201,9.136 L504.659988,9.29897632 L494.930109,1.28798686 L484.922065,9.29796406 L484.792201,9.136 L484.659988,9.29897632 L474.930109,1.28798686 L464.922065,9.29796406 L464.792201,9.136 L464.659988,9.29897632 L454.930109,1.28798686 L444.922065,9.29796406 L444.792201,9.136 L444.659988,9.29897632 L434.930109,1.28798686 L424.922065,9.29796406 L424.792201,9.136 L424.659988,9.29897632 L414.930109,1.28798686 L404.922065,9.29796406 L404.792201,9.136 L404.659988,9.29897632 L394.930109,1.28798686 L384.922065,9.29796406 L384.792201,9.136 L384.659988,9.29897632 L374.930109,1.28798686 L364.922065,9.29796406 L364.792201,9.136 L364.659988,9.29897632 L354.930109,1.28798686 L344.922065,9.29796406 L344.792201,9.136 L344.659988,9.29897632 L334.930109,1.28798686 L324.922065,9.29796406 L324.792201,9.136 L324.659988,9.29897632 L314.930109,1.28798686 L304.922065,9.29796406 L304.792201,9.136 L304.659988,9.29897632 L294.930109,1.28798686 L284.922065,9.29796406 L284.792201,9.136 L284.659988,9.29897632 L274.930109,1.28798686 L264.922065,9.29796406 L264.792201,9.136 L264.659988,9.29897632 L254.930109,1.28798686 L244.922065,9.29796406 L244.792201,9.136 L244.659988,9.29897632 L234.930109,1.28798686 L224.922065,9.29796406 L224.792201,9.136 L224.659988,9.29897632 L214.930109,1.28798686 L204.922065,9.29796406 L204.792201,9.136 L204.659988,9.29897632 L194.930109,1.28798686 L184.922065,9.29796406 L184.792201,9.136 L184.659988,9.29897632 L174.930109,1.28798686 L164.922065,9.29796406 L164.792201,9.136 L164.659988,9.29897632 L154.930109,1.28798686 L144.922065,9.29796406 L144.792201,9.136 L144.659988,9.29897632 L134.930109,1.28798686 L124.922065,9.29796406 L124.792201,9.136 L124.659988,9.29897632 L114.930109,1.28798686 L104.922065,9.29796406 L104.792201,9.136 L104.659988,9.29897632 L94.9301092,1.28798686 L84.9220647,9.29796406 L84.7922012,9.136 L84.6599882,9.29897632 L74.9301092,1.28798686 L64.9220647,9.29796406 L64.7922012,9.136 L64.6599882,9.29897632 L54.9301092,1.28798686 L44.9220647,9.29796406 L44.7922012,9.136 L44.6599882,9.29897632 L34.9301092,1.28798686 L24.9220647,9.29796406 L24.7922012,9.136 L24.6599882,9.29897632 L14.9301092,1.28798686 L4.92206474,9.29796406 L4.29720124,8.51723005 L14.9390314,3.64153152e-14 L24.7972012,8.116 L34.9390314,3.64153152e-14 L44.7972012,8.116 L54.9390314,3.64153152e-14 L64.7972012,8.116 L74.9390314,3.55271368e-14 L84.7972012,8.116 L94.9390314,3.55271368e-14 L104.797201,8.116 L114.939031,3.55271368e-14 L124.797201,8.116 L134.939031,3.8191672e-14 L144.797201,8.116 L154.939031,3.8191672e-14 L164.797201,8.116 L174.939031,3.8191672e-14 L184.797201,8.116 L194.939031,3.8191672e-14 L204.797201,8.116 L214.939031,3.8191672e-14 L224.797201,8.116 L234.939031,3.8191672e-14 L244.797201,8.116 L254.939031,3.8191672e-14 L264.797201,8.116 L274.939031,3.8191672e-14 L284.797201,8.116 L294.939031,3.8191672e-14 L304.797201,8.116 L314.939031,3.8191672e-14 L324.797201,8.116 L334.939031,3.8191672e-14 L344.797201,8.116 L354.939031,3.8191672e-14 L364.797201,8.116 L374.939031,3.8191672e-14 L384.797201,8.116 L394.939031,3.8191672e-14 L404.797201,8.116 L414.939031,3.8191672e-14 L424.797201,8.116 L434.939031,3.8191672e-14 L444.797201,8.116 L454.939031,3.8191672e-14 L464.797201,8.116 L474.939031,3.8191672e-14 L484.797201,8.116 L494.939031,3.8191672e-14 L504.797201,8.116 L514.939031,3.8191672e-14 L524.797201,8.116 L534.939031,2.66453526e-14 L544.797201,8.116 L554.939031,2.66453526e-14 L564.797201,8.116 L574.939031,2.66453526e-14 L584.797201,8.116 L594.939031,2.66453526e-14 L604.797201,8.116 L614.939031,2.66453526e-14 L624.797201,8.116 L634.939031,2.66453526e-14 L644.797201,8.116 L654.939031,2.66453526e-14 L664.797201,8.116 L674.939031,2.66453526e-14 L684.797201,8.116 L694.939031,2.66453526e-14 L704.797201,8.116 L714.939031,2.66453526e-14 L724.797201,8.116 L734.939031,2.66453526e-14 L744.797201,8.116 L754.939031,2.66453526e-14 L764.797201,8.116 L774.939031,2.66453526e-14 L784.797201,8.116 L794.939031,2.66453526e-14 L804.797201,8.116 L814.939031,2.66453526e-14 L824.797201,8.116 L834.939031,2.66453526e-14 L844.797201,8.116 L854.939031,2.66453526e-14 L864.797201,8.116 L874.939031,2.66453526e-14 L884.797201,8.116 L894.939031,2.66453526e-14 L904.797201,8.116 L914.939031,2.66453526e-14 L924.797201,8.116 L934.939031,2.66453526e-14 L944.797201,8.116 L954.939031,2.66453526e-14 L964.797201,8.116 L974.939031,2.66453526e-14 L984.797201,8.116 L994.939031,2.66453526e-14 L1004.7972,8.116 L1014.93903,2.66453526e-14 L1024.7972,8.116 L1034.93903,3.55271368e-15 L1045.29561,8.52697398 L1044.65999,9.29897632 L1034.93011,1.28798686 L1024.92206,9.29796406 L1024.7922,9.136 L1024.65999,9.29897632 Z" id="Combined-Shape" fill="#9EBDFA"></path>
                    <path d="M1024.53239,27.8119579 L1023.64221,26.6990328 L1014.9078,19.507954 L1005.92121,26.6990328 L1005.00094,27.8180314 L1004.76621,27.6240328 L1004.53239,27.8119579 L1003.64221,26.6990328 L994.907804,19.507954 L985.921207,26.6990328 L985.000945,27.8180314 L984.766207,27.6240328 L984.532388,27.8119579 L983.642207,26.6990328 L974.907804,19.507954 L965.921207,26.6990328 L965.000945,27.8180314 L964.766207,27.6240328 L964.532388,27.8119579 L963.642207,26.6990328 L954.907804,19.507954 L945.921207,26.6990328 L945.000945,27.8180314 L944.766207,27.6240328 L944.532388,27.8119579 L943.642207,26.6990328 L934.907804,19.507954 L925.921207,26.6990328 L925.000945,27.8180314 L924.766207,27.6240328 L924.532388,27.8119579 L923.642207,26.6990328 L914.907804,19.507954 L905.921207,26.6990328 L905.000945,27.8180314 L904.766207,27.6240328 L904.532388,27.8119579 L903.642207,26.6990328 L894.907804,19.507954 L885.921207,26.6990328 L885.000945,27.8180314 L884.766207,27.6240328 L884.532388,27.8119579 L883.642207,26.6990328 L874.907804,19.507954 L865.921207,26.6990328 L865.000945,27.8180314 L864.766207,27.6240328 L864.532388,27.8119579 L863.642207,26.6990328 L854.907804,19.507954 L845.921207,26.6990328 L845.000945,27.8180314 L844.766207,27.6240328 L844.532388,27.8119579 L843.642207,26.6990328 L834.907804,19.507954 L825.921207,26.6990328 L825.000945,27.8180314 L824.766207,27.6240328 L824.532388,27.8119579 L823.642207,26.6990328 L814.907804,19.507954 L805.921207,26.6990328 L805.000945,27.8180314 L804.766207,27.6240328 L804.532388,27.8119579 L803.642207,26.6990328 L794.907804,19.507954 L785.921207,26.6990328 L785.000945,27.8180314 L784.766207,27.6240328 L784.532388,27.8119579 L783.642207,26.6990328 L774.907804,19.507954 L765.921207,26.6990328 L765.000945,27.8180314 L764.766207,27.6240328 L764.532388,27.8119579 L763.642207,26.6990328 L754.907804,19.507954 L745.921207,26.6990328 L745.000945,27.8180314 L744.766207,27.6240328 L744.532388,27.8119579 L743.642207,26.6990328 L734.907804,19.507954 L725.921207,26.6990328 L725.000945,27.8180314 L724.766207,27.6240328 L724.532388,27.8119579 L723.642207,26.6990328 L714.907804,19.507954 L705.921207,26.6990328 L705.000945,27.8180314 L704.766207,27.6240328 L704.532388,27.8119579 L703.642207,26.6990328 L694.907804,19.507954 L685.921207,26.6990328 L685.000945,27.8180314 L684.766207,27.6240328 L684.532388,27.8119579 L683.642207,26.6990328 L674.907804,19.507954 L665.921207,26.6990328 L665.000945,27.8180314 L664.766207,27.6240328 L664.532388,27.8119579 L663.642207,26.6990328 L654.907804,19.507954 L645.921207,26.6990328 L645.000945,27.8180314 L644.766207,27.6240328 L644.532388,27.8119579 L643.642207,26.6990328 L634.907804,19.507954 L625.921207,26.6990328 L625.000945,27.8180314 L624.766207,27.6240328 L624.532388,27.8119579 L623.642207,26.6990328 L614.907804,19.507954 L605.921207,26.6990328 L605.000945,27.8180314 L604.766207,27.6240328 L604.532388,27.8119579 L603.642207,26.6990328 L594.907804,19.507954 L585.921207,26.6990328 L585.000945,27.8180314 L584.766207,27.6240328 L584.532388,27.8119579 L583.642207,26.6990328 L574.907804,19.507954 L565.921207,26.6990328 L565.000945,27.8180314 L564.766207,27.6240328 L564.532388,27.8119579 L563.642207,26.6990328 L554.907804,19.507954 L545.921207,26.6990328 L545.000945,27.8180314 L544.766207,27.6240328 L544.532388,27.8119579 L543.642207,26.6990328 L534.907804,19.507954 L525.921207,26.6990328 L525.000945,27.8180314 L524.766207,27.6240328 L524.532388,27.8119579 L523.642207,26.6990328 L514.907804,19.507954 L505.921207,26.6990328 L505.000945,27.8180314 L504.766207,27.6240328 L504.532388,27.8119579 L503.642207,26.6990328 L494.907804,19.507954 L485.921207,26.6990328 L485.000945,27.8180314 L484.766207,27.6240328 L484.532388,27.8119579 L483.642207,26.6990328 L474.907804,19.507954 L465.921207,26.6990328 L465.000945,27.8180314 L464.766207,27.6240328 L464.532388,27.8119579 L463.642207,26.6990328 L454.907804,19.507954 L445.921207,26.6990328 L445.000945,27.8180314 L444.766207,27.6240328 L444.532388,27.8119579 L443.642207,26.6990328 L434.907804,19.507954 L425.921207,26.6990328 L425.000945,27.8180314 L424.766207,27.6240328 L424.532388,27.8119579 L423.642207,26.6990328 L414.907804,19.507954 L405.921207,26.6990328 L405.000945,27.8180314 L404.766207,27.6240328 L404.532388,27.8119579 L403.642207,26.6990328 L394.907804,19.507954 L385.921207,26.6990328 L385.000945,27.8180314 L384.766207,27.6240328 L384.532388,27.8119579 L383.642207,26.6990328 L374.907804,19.507954 L365.921207,26.6990328 L365.000945,27.8180314 L364.766207,27.6240328 L364.532388,27.8119579 L363.642207,26.6990328 L354.907804,19.507954 L345.921207,26.6990328 L345.000945,27.8180314 L344.766207,27.6240328 L344.532388,27.8119579 L343.642207,26.6990328 L334.907804,19.507954 L325.921207,26.6990328 L325.000945,27.8180314 L324.766207,27.6240328 L324.532388,27.8119579 L323.642207,26.6990328 L314.907804,19.507954 L305.921207,26.6990328 L305.000945,27.8180314 L304.766207,27.6240328 L304.532388,27.8119579 L303.642207,26.6990328 L294.907804,19.507954 L285.921207,26.6990328 L285.000945,27.8180314 L284.766207,27.6240328 L284.532388,27.8119579 L283.642207,26.6990328 L274.907804,19.507954 L265.921207,26.6990328 L265.000945,27.8180314 L264.766207,27.6240328 L264.532388,27.8119579 L263.642207,26.6990328 L254.907804,19.507954 L245.921207,26.6990328 L245.000945,27.8180314 L244.766207,27.6240328 L244.532388,27.8119579 L243.642207,26.6990328 L234.907804,19.507954 L225.921207,26.6990328 L225.000945,27.8180314 L224.766207,27.6240328 L224.532388,27.8119579 L223.642207,26.6990328 L214.907804,19.507954 L205.921207,26.6990328 L205.000945,27.8180314 L204.766207,27.6240328 L204.532388,27.8119579 L203.642207,26.6990328 L194.907804,19.507954 L185.921207,26.6990328 L185.000945,27.8180314 L184.766207,27.6240328 L184.532388,27.8119579 L183.642207,26.6990328 L174.907804,19.507954 L165.921207,26.6990328 L165.000945,27.8180314 L164.766207,27.6240328 L164.532388,27.8119579 L163.642207,26.6990328 L154.907804,19.507954 L145.921207,26.6990328 L145.000945,27.8180314 L144.766207,27.6240328 L144.532388,27.8119579 L143.642207,26.6990328 L134.907804,19.507954 L125.921207,26.6990328 L125.000945,27.8180314 L124.766207,27.6240328 L124.532388,27.8119579 L123.642207,26.6990328 L114.907804,19.507954 L105.921207,26.6990328 L105.000945,27.8180314 L104.766207,27.6240328 L104.532388,27.8119579 L103.642207,26.6990328 L94.9078037,19.507954 L85.9212074,26.6990328 L85.0009448,27.8180314 L84.7662074,27.6240328 L84.5323884,27.8119579 L83.6422074,26.6990328 L74.9078037,19.507954 L65.9212074,26.6990328 L65.0009448,27.8180314 L64.7662074,27.6240328 L64.5323884,27.8119579 L63.6422074,26.6990328 L54.9078037,19.507954 L45.9212074,26.6990328 L45.0009448,27.8180314 L44.7662074,27.6240328 L44.5323884,27.8119579 L43.6422074,26.6990328 L34.9078037,19.507954 L25.9192074,26.7010328 L25.0009448,27.8180314 L24.7662074,27.6240328 L24.5323884,27.8119579 L23.6422074,26.6990328 L14.9078037,19.507954 L4.53238844,27.8119579 L0.783207447,23.1275537 L14.9613369,11.7800328 L24.8202074,19.8960328 L34.9613369,11.7800328 L44.8202074,19.8960328 L54.9613369,11.7800328 L64.8202074,19.8960328 L74.9613369,11.7800328 L84.8202074,19.8960328 L94.9613369,11.7800328 L104.820207,19.8960328 L114.961337,11.7800328 L124.820207,19.8960328 L134.961337,11.7800328 L144.820207,19.8960328 L154.961337,11.7800328 L164.820207,19.8960328 L174.961337,11.7800328 L184.820207,19.8960328 L194.961337,11.7800328 L204.820207,19.8960328 L214.961337,11.7800328 L224.820207,19.8960328 L234.961337,11.7800328 L244.820207,19.8960328 L254.961337,11.7800328 L264.820207,19.8960328 L274.961337,11.7800328 L284.820207,19.8960328 L294.961337,11.7800328 L304.820207,19.8960328 L314.961337,11.7800328 L324.820207,19.8960328 L334.961337,11.7800328 L344.820207,19.8960328 L354.961337,11.7800328 L364.820207,19.8960328 L374.961337,11.7800328 L384.820207,19.8960328 L394.961337,11.7800328 L404.820207,19.8960328 L414.961337,11.7800328 L424.820207,19.8960328 L434.961337,11.7800328 L444.820207,19.8960328 L454.961337,11.7800328 L464.820207,19.8960328 L474.961337,11.7800328 L484.820207,19.8960328 L494.961337,11.7800328 L504.820207,19.8960328 L514.961337,11.7800328 L524.820207,19.8960328 L534.961337,11.7800328 L544.820207,19.8960328 L554.961337,11.7800328 L564.820207,19.8960328 L574.961337,11.7800328 L584.820207,19.8960328 L594.961337,11.7800328 L604.820207,19.8960328 L614.961337,11.7800328 L624.820207,19.8960328 L634.961337,11.7800328 L644.820207,19.8960328 L654.961337,11.7800328 L664.820207,19.8960328 L674.961337,11.7800328 L684.820207,19.8960328 L694.961337,11.7800328 L704.820207,19.8960328 L714.961337,11.7800328 L724.820207,19.8960328 L734.961337,11.7800328 L744.820207,19.8960328 L754.961337,11.7800328 L764.820207,19.8960328 L774.961337,11.7800328 L784.820207,19.8960328 L794.961337,11.7800328 L804.820207,19.8960328 L814.961337,11.7800328 L824.820207,19.8960328 L834.961337,11.7800328 L844.820207,19.8960328 L854.961337,11.7800328 L864.820207,19.8960328 L874.961337,11.7800328 L884.820207,19.8960328 L894.961337,11.7800328 L904.820207,19.8960328 L914.961337,11.7800328 L924.820207,19.8960328 L934.961337,11.7800328 L944.820207,19.8960328 L954.961337,11.7800328 L964.820207,19.8960328 L974.961337,11.7800328 L984.820207,19.8960328 L994.961337,11.7800328 L1004.82021,19.8960328 L1014.96134,11.7800328 L1024.82021,19.8960328 L1034.96134,11.7800328 L1048.81466,23.1860173 L1045.00094,27.8180314 L1034.9078,19.507954 L1025.92121,26.6990328 L1025.00094,27.8180314 L1024.76621,27.6240328 L1024.53239,27.8119579 Z" id="Combined-Shape" fill="#FF922D"></path>
                </g>
            </g>
        </g>
    </g>
</svg>