<?xml version="1.0" encoding="UTF-8"?>
<svg width="897px" height="76px" viewBox="0 0 897 76" version="1.1" xmlns="http://www.w3.org/2000/svg" xmlns:xlink="http://www.w3.org/1999/xlink">
    <!-- Generator: Sketch 58 (84663) - https://sketch.com -->
    <title>pattern 2</title>
    <desc>Created with Sketch.</desc>
    <g id="Home" stroke="none" stroke-width="1" fill="none" fill-rule="evenodd" opacity="0.499930246">
        <g id="oeg_desktop" transform="translate(-62.000000, -1720.000000)" fill-rule="nonzero">
            <g id="pattern-2" transform="translate(62.000000, 1721.000000)">
                <polygon id="Path" fill="#9EBDFA" points="10.7142151 51.9160723 20.999 60.3830723 20.999 74.6330723 10.6160709 66.0839277 0 74.5800723 0 60.4910723"></polygon>
                <polygon id="Path" stroke="#1F467A" points="90.7142151 0 100.999 8.467 100.999 22.717 90.6160709 14.1678555 80 22.664 80 8.575"></polygon>
                <polygon id="Path" stroke="#1F467A" points="249.714215 0 259.999 8.467 259.999 22.717 249.616071 14.1678555 239 22.664 239 8.575"></polygon>
                <polygon id="Path" stroke="#1F467A" points="408.714215 0 418.999 8.467 418.999 22.717 408.616071 14.1678555 398 22.664 398 8.575"></polygon>
                <polygon id="Path" stroke="#1F467A" points="567.714215 0 577.999 8.467 577.999 22.717 567.616071 14.1678555 557 22.664 557 8.575"></polygon>
                <polygon id="Path" stroke="#1F467A" points="726.714215 0 736.999 8.467 736.999 22.717 726.616071 14.1678555 716 22.664 716 8.575"></polygon>
                <polygon id="Path" stroke="#1F467A" points="885.714215 0 895.999 8.467 895.999 22.717 885.616071 14.1678555 875 22.664 875 8.575"></polygon>
                <polygon id="Path" fill="#9EBDFA" points="169.714215 51.9160723 179.999 60.3830723 179.999 74.6330723 169.616071 66.0839277 159 74.5800723 159 60.4910723"></polygon>
                <polygon id="Path" fill="#9EBDFA" points="328.714215 51.9160723 338.999 60.3830723 338.999 74.6330723 328.616071 66.0839277 318 74.5800723 318 60.4910723"></polygon>
                <polygon id="Path" fill="#9EBDFA" points="487.714215 51.9160723 497.999 60.3830723 497.999 74.6330723 487.616071 66.0839277 477 74.5800723 477 60.4910723"></polygon>
                <polygon id="Path" fill="#9EBDFA" points="646.714215 51.9160723 656.999 60.3830723 656.999 74.6330723 646.616071 66.0839277 636 74.5800723 636 60.4910723"></polygon>
                <polygon id="Path" fill="#9EBDFA" points="805.714215 51.9160723 815.999 60.3830723 815.999 74.6330723 805.616071 66.0839277 795 74.5800723 795 60.4910723"></polygon>
            </g>
        </g>
    </g>
</svg>