<?xml version="1.0" encoding="UTF-8"?>
<svg width="183px" height="43px" viewBox="0 0 183 43" version="1.1" xmlns="http://www.w3.org/2000/svg" xmlns:xlink="http://www.w3.org/1999/xlink">
    <!-- Generator: Sketch 61.2 (89653) - https://sketch.com -->
    <title>logos/cccoer</title>
    <desc>Created with Sketch.</desc>
    <g id="Home-Page-HD" stroke="none" stroke-width="1" fill="none" fill-rule="evenodd">
        <g id="oeg_desktop" transform="translate(-61.000000, -944.000000)">
            <g id="Padding-Group-29" transform="translate(40.000000, 928.000000)">
                <g id="logos/cccoer" transform="translate(21.000000, 16.000000)">
                    <g>
                        <path d="M52.8979279,14.2547945 C51.539056,14.2898156 50.2277461,13.749337 49.2822237,12.7645205 C48.3248145,11.7882651 47.801941,10.4615645 47.8336055,9.08890411 L47.8336055,9.08890411 C47.8041285,7.71316032 48.3264409,6.38363577 49.2822237,5.40150685 C50.2450569,4.39732063 51.583548,3.84971305 52.9680223,3.89356164 C53.721537,3.87339686 54.4711118,4.00973766 55.1701556,4.29410959 C55.7989738,4.58662987 56.3737902,4.98502087 56.8699455,5.47219178 L55.7425934,6.7739726 C55.0082407,6.01102313 54.010014,5.56362931 52.9563399,5.52520548 C52.0660443,5.51045442 51.2133494,5.88665121 50.619859,6.5560274 C49.9926203,7.22389492 49.6452612,8.11015915 49.6502194,9.03 L49.6502194,9.05945205 C49.6289,9.99430791 49.9657241,10.9014787 50.590653,11.5923288 C51.1796098,12.2693511 52.0341844,12.650686 52.9271339,12.6349315 C53.447306,12.6432293 53.9625711,12.5324606 54.4341641,12.3109589 C54.9313108,12.051906 55.3879267,11.7204523 55.789323,11.3272603 L56.9108339,12.4758904 C56.4147681,13.0266373 55.8202884,13.4782514 55.1584732,13.8071233 C54.4474604,14.1243752 53.6751113,14.2773288 52.8979279,14.2547945 Z" id="Path" fill="#1A1A1A" fill-rule="nonzero"></path>
                        <path d="M63.4763453,14.2547945 C62.1174733,14.2898156 60.8061634,13.749337 59.860641,12.7645205 C58.9009207,11.7897906 58.3776392,10.4620551 58.4120229,9.08890411 L58.4120229,9.08890411 C58.3798675,7.71267635 58.9025779,6.38213877 59.860641,5.40150685 C60.8234742,4.39732063 62.1619654,3.84971305 63.5464397,3.89356164 C64.2980609,3.87336474 65.0457348,4.00972149 65.7427317,4.29410959 C66.3741913,4.58503321 66.9511857,4.98356416 67.4483628,5.47219178 L66.3210108,6.7739726 C65.586658,6.01102313 64.5884314,5.56362931 63.5347573,5.52520548 C62.6444617,5.51045442 61.7917667,5.88665121 61.1982764,6.5560274 C60.571776,7.2388283 60.2343474,8.14128696 60.2578428,9.07123288 L60.2578428,9.10068493 C60.2365234,10.0355408 60.5733475,10.9427116 61.1982764,11.6335616 C61.7872331,12.310584 62.6418077,12.6919189 63.5347573,12.6761644 C64.0549293,12.6844622 64.5701945,12.5736935 65.0417875,12.3521918 C65.5379196,12.0943605 65.992779,11.7627526 66.3911052,11.3684932 L67.5184572,12.5171233 C67.0212739,13.0666333 66.4270412,13.5180598 65.7660966,13.8483562 C65.0428879,14.155825 64.2601977,14.2947551 63.4763453,14.2547945 L63.4763453,14.2547945 Z" id="Path" fill="#1A1A1A" fill-rule="nonzero"></path>
                        <path d="M74.0547626,14.2547945 C72.6958906,14.2898156 71.3845808,13.749337 70.4390584,12.7645205 C69.4777791,11.7903907 68.9524421,10.4627928 68.984599,9.08890411 L68.984599,9.08890411 C68.9546649,7.71194319 69.4794301,6.38153993 70.4390584,5.40150685 C71.4018916,4.39732063 72.7403827,3.84971305 74.124857,3.89356164 C74.8764783,3.87336474 75.6241522,4.00972149 76.3211491,4.29410959 C76.9499673,4.58662987 77.5247837,4.98502087 78.020939,5.47219178 L76.8994281,6.7739726 C76.163634,6.00963733 75.1630516,5.56212586 74.1073334,5.52520548 C73.2175045,5.5127924 72.3657289,5.88858361 71.7708525,6.5560274 C71.1464755,7.23975131 70.8111823,8.1421034 70.8362601,9.07123288 L70.8362601,9.10068493 C70.812745,10.0348371 71.1475201,10.9421246 71.7708525,11.6335616 C72.3612464,12.3086087 73.214867,12.689518 74.1073334,12.6761644 C74.6294311,12.6849452 75.1467017,12.5741748 75.6202048,12.3521918 C76.1145489,12.0914355 76.5690025,11.7601233 76.9695225,11.3684932 L78.0910334,12.5171233 C77.5955373,13.0684996 77.0009307,13.5202102 76.3386727,13.8483562 C75.6172602,14.1549509 74.836665,14.2938634 74.0547626,14.2547945 L74.0547626,14.2547945 Z" id="Path" fill="#1A1A1A" fill-rule="nonzero"></path>
                        <path d="M89.0900173,12.7409589 C86.8978522,14.7870384 83.5133833,14.7870384 81.3212182,12.7409589 C80.3061048,11.7665749 79.7425172,10.4076975 79.7674584,8.99465753 L79.7674584,8.96520548 C79.7422483,7.54630492 80.3104561,6.18223577 81.3329007,5.20712329 C83.5270057,3.16025657 86.9134358,3.16025657 89.1075409,5.20712329 C90.1214483,6.18234445 90.684804,7.54066266 90.6613007,8.95342466 L90.6613007,8.98287671 C90.6842728,10.4025315 90.1140065,11.7664533 89.0900173,12.7409589 L89.0900173,12.7409589 Z M83.3714803,10.9267123 C83.8551496,11.4358209 84.5239883,11.7237013 85.2231414,11.7237013 C85.9222945,11.7237013 86.5911331,11.4358209 87.0748025,10.9267123 C87.5570129,10.4026894 87.8169518,9.70931663 87.7991116,8.99465753 L87.7991116,8.96520548 C87.8143713,8.24529546 87.5502899,7.54782704 87.0631201,7.02136986 C86.5897261,6.48939441 85.9082916,6.19427526 85.1997766,6.21438356 C84.5012127,6.1919531 83.8282512,6.48064049 83.3597978,7.00369863 C82.8818406,7.52996589 82.6243731,8.22232988 82.64133,8.93575342 L82.64133,8.96520548 C82.6223763,9.6899349 82.8842986,10.3935742 83.3714803,10.9267123 L83.3714803,10.9267123 Z" id="Shape" fill="#000000" fill-rule="nonzero"></path>
                        <polygon id="Path" fill="#000000" fill-rule="nonzero" points="91.8295412 14.0839726 91.8295412 3.88178082 99.9663359 3.88178082 99.9663359 6.28506849 94.6274771 6.28506849 94.6274771 7.83424658 99.4815162 7.83424658 99.4815162 10.0608219 94.6274771 10.0608219 94.6274771 11.6806849 100.059795 11.6806849 100.059795 14.0839726"></polygon>
                        <path d="M101.537619,14.0839726 L101.537619,3.88178082 L106.309882,3.88178082 C107.793547,3.88178082 108.891693,4.25091324 109.60432,4.98917808 C110.21333,5.61561286 110.537009,6.46896142 110.498024,7.34534247 L110.498024,7.37479452 C110.56741,8.76789573 109.722051,10.041827 108.418556,10.5084932 L110.830972,14.0427397 L107.594946,14.0427397 L105.556367,10.950274 L104.329714,10.950274 L104.329714,14.0427397 L101.537619,14.0839726 Z M104.341396,8.78260274 L106.193058,8.78260274 C106.586034,8.80460648 106.974913,8.6925619 107.297045,8.46452055 C107.561747,8.24827085 107.709112,7.91827709 107.694247,7.57506849 L107.694247,7.57506849 C107.714866,7.22743051 107.566747,6.89135475 107.297045,6.67383562 C106.966907,6.44986775 106.572631,6.3421853 106.175534,6.36753425 L104.341396,6.36753425 L104.341396,8.78260274 Z" id="Shape" fill="#000000" fill-rule="nonzero"></path>
                        <path d="M51.9867004,26.5068493 C50.9502731,26.5344596 49.949966,26.1219899 49.2296529,25.37 C48.4989778,24.6255962 48.1003781,23.6132584 48.1256656,22.5661644 L48.1256656,22.5661644 C48.1012364,21.5157453 48.499472,20.5000825 49.2296529,19.7505479 C49.9590294,18.9751241 50.9797253,18.547143 52.0392712,18.5724658 C52.6129754,18.5578269 53.1835549,18.6620781 53.7156962,18.8787671 C54.1960269,19.0968088 54.6348769,19.3978205 55.0124431,19.7682192 L54.1596276,20.7636986 C53.5980714,20.1795336 52.8339027,19.8375111 52.0275888,19.8094521 C51.3413167,19.7997898 50.6855407,20.0948978 50.2343397,20.6164384 C49.7554992,21.1374366 49.4976522,21.826593 49.5158718,22.5367123 L49.5158718,22.5367123 C49.4927956,23.2582073 49.7506808,23.9601516 50.2343397,24.4923288 C50.6874645,25.0057325 51.3403012,25.2940236 52.0217476,25.2816438 C52.4245705,25.2948412 52.8248062,25.2121017 53.189988,25.040137 C53.5691712,24.8408953 53.9174756,24.5868922 54.2238808,24.2861644 L55.0825376,25.1638356 C54.700543,25.5838034 54.2451233,25.9292441 53.739061,26.1828767 C53.1860471,26.420759 52.5874306,26.53143 51.9867004,26.5068493 L51.9867004,26.5068493 Z" id="Path" fill="#000000" fill-rule="nonzero"></path>
                        <path d="M62.775401,25.3582192 C61.651779,26.5294198 59.9358739,26.8960582 58.4377805,26.2850411 C56.939687,25.6740239 55.9590027,24.207546 55.9587179,22.5779452 L55.9587179,22.5779452 C55.9587179,21.1469252 56.7157801,19.8246081 57.9447266,19.1090981 C59.1736732,18.3935881 60.6877978,18.3935881 61.9167443,19.1090981 C63.1456908,19.8246081 63.9027531,21.1469252 63.902753,22.5779452 L63.902753,22.5779452 C63.917516,23.6207372 63.5104625,24.6246121 62.775401,25.3582192 L62.775401,25.3582192 Z M58.1024392,24.4923288 C58.5871606,24.992834 59.2515861,25.2750197 59.9453385,25.2750197 C60.6390909,25.2750197 61.3035163,24.992834 61.7882378,24.4923288 C62.2640629,23.9722134 62.5197532,23.285333 62.5008645,22.5779452 L62.5008645,22.5779452 C62.5261708,21.8521545 62.2633718,21.1461601 61.7707142,20.6164384 C61.2884366,20.1113933 60.6230977,19.8260355 59.9278149,19.8260355 C59.232532,19.8260355 58.5671931,20.1113933 58.0849155,20.6164384 C57.602324,21.1354866 57.3420772,21.8254479 57.3606065,22.5367123 L57.3606065,22.5367123 C57.3384398,23.261319 57.6032718,23.9650091 58.096598,24.4923288 L58.1024392,24.4923288 Z" id="Shape" fill="#000000" fill-rule="nonzero"></path>
                        <polygon id="Path" fill="#000000" fill-rule="nonzero" points="65.6200665 26.3890411 65.6200665 18.7315068 67.0453199 18.7315068 69.3818008 22.36 71.7182817 18.7315068 73.1376938 18.7315068 73.1376938 26.3890411 71.8058997 26.3890411 71.8058997 20.8932877 69.4051656 24.51 69.3642772 24.51 66.9869078 20.9168493 66.9869078 26.3890411"></polygon>
                        <polygon id="Path" fill="#000000" fill-rule="nonzero" points="75.193797 26.3890411 75.193797 18.7315068 76.6190504 18.7315068 78.9555313 22.36 81.2920122 18.7315068 82.7114244 18.7315068 82.7114244 26.3890411 81.3796303 26.3890411 81.3796303 20.8932877 78.9788961 24.51 78.9380077 24.51 76.51975 20.9168493 76.51975 26.3890411"></polygon>
                        <path d="M87.9159356,26.5068493 C87.0423663,26.5571826 86.1861272,26.24668 85.5444075,25.6468493 C84.9369446,24.9604783 84.6313489,24.0550956 84.6974332,23.1375342 L84.6974332,18.7256164 L86.0350685,18.7256164 L86.0350685,23.0845205 C85.9988008,23.6694168 86.1799851,24.2469507 86.5432531,24.7043836 C87.328009,25.4684231 88.5670983,25.4839131 89.370395,24.739726 C89.7364767,24.2953139 89.9185008,23.7256524 89.8785796,23.1493151 L89.8785796,18.7256164 L91.2103737,18.7256164 L91.2103737,23.0727397 C91.2757986,24.0075725 90.964059,24.929429 90.3458758,25.6291781 C89.6924114,26.2501623 88.8117674,26.5682425 87.9159356,26.5068493 L87.9159356,26.5068493 Z" id="Path" fill="#000000" fill-rule="nonzero"></path>
                        <polygon id="Path" fill="#000000" fill-rule="nonzero" points="93.2022237 26.3890411 93.2022237 18.7315068 94.4405586 18.7315068 98.5294002 24.0328767 98.5294002 18.7315068 99.8436707 18.7315068 99.8436707 26.3890411 98.7163187 26.3890411 94.5281766 20.940411 94.5281766 26.3890411"></polygon>
                        <polygon id="Path" fill="#000000" fill-rule="nonzero" points="101.964027 26.3890411 101.964027 18.7315068 103.301662 18.7315068 103.301662 26.3890411"></polygon>
                        <polygon id="Path" fill="#000000" fill-rule="nonzero" points="107.121809 26.3890411 107.121809 19.9743836 104.715233 19.9743836 104.715233 18.7256164 110.877702 18.7256164 110.877702 19.9743836 108.471126 19.9743836 108.471126 26.3890411"></polygon>
                        <polygon id="Path" fill="#000000" fill-rule="nonzero" points="114.884767 26.3890411 114.884767 23.3672603 111.870706 18.7256164 113.44199 18.7256164 115.568187 22.1184932 117.71775 18.7256164 119.248145 18.7256164 116.239926 23.3378082 116.239926 26.3890411"></polygon>
                        <path d="M127.33821,26.5068493 C126.30165,26.5351916 125.301062,26.1226059 124.581162,25.37 C123.846608,24.6277318 123.445541,23.6144896 123.471334,22.5661644 L123.471334,22.5661644 C123.44643,21.5145249 123.847123,20.4979736 124.581162,19.7505479 C125.310539,18.9751241 126.331235,18.547143 127.390781,18.5724658 C127.964485,18.5578269 128.535064,18.6620781 129.067206,18.8787671 C129.547536,19.0968088 129.986386,19.3978205 130.363953,19.7682192 L129.505296,20.7636986 C128.932752,20.1776492 128.153958,19.8431852 127.33821,19.8330137 C126.669861,19.8293895 126.031969,20.1145704 125.585849,20.6164384 C125.107009,21.1374366 124.849162,21.826593 124.867381,22.5367123 L124.867381,22.5367123 C124.844305,23.2582073 125.10219,23.9601516 125.585849,24.4923288 C126.030908,24.9963803 126.668946,25.2837713 127.33821,25.2816438 C127.741033,25.2948412 128.141269,25.2121017 128.50645,25.040137 C128.885633,24.8408953 129.233938,24.5868922 129.540343,24.2861644 L130.393159,25.1638356 C130.008062,25.5853762 129.548514,25.9309429 129.038,26.1828767 C128.5008,26.4118809 127.921235,26.5223435 127.33821,26.5068493 L127.33821,26.5068493 Z" id="Path" fill="#000000" fill-rule="nonzero"></path>
                        <path d="M138.086022,25.3582192 C136.964647,26.5356745 135.245514,26.9063201 133.744727,26.294204 C132.243939,25.6820879 131.263697,24.210467 131.269315,22.5779452 L131.269315,22.5779452 C131.269315,20.36578 133.047672,18.5724658 135.241357,18.5724658 C137.435041,18.5724658 139.213374,20.36578 139.213374,22.5779452 L139.213374,22.5779452 C139.228137,23.6207372 138.821084,24.6246121 138.086022,25.3582192 L138.086022,25.3582192 Z M133.41306,24.4923288 C133.898791,24.9931769 134.564179,25.2754961 135.25888,25.2754961 C135.953581,25.2754961 136.618969,24.9931769 137.1047,24.4923288 C137.58336,23.9688557 137.841057,23.2779863 137.823168,22.5661644 L137.823168,22.5661644 C137.842849,21.8426326 137.575892,21.1410024 137.081335,20.6164384 C136.59722,20.1125811 135.931228,19.8281625 135.235515,19.8281625 C134.539803,19.8281625 133.873811,20.1125811 133.389695,20.6164384 C132.910855,21.1374366 132.653008,21.826593 132.671228,22.5367123 L132.671228,22.5367123 C132.649417,23.2601646 132.911837,23.9630253 133.401378,24.4923288 L133.41306,24.4923288 Z" id="Shape" fill="#000000" fill-rule="nonzero"></path>
                        <polygon id="Path" fill="#000000" fill-rule="nonzero" points="140.930688 26.3890411 140.930688 18.7315068 142.262482 18.7315068 142.262482 25.1638356 146.257864 25.1638356 146.257864 26.3890411"></polygon>
                        <polygon id="Path" fill="#000000" fill-rule="nonzero" points="147.618864 26.3890411 147.618864 18.7315068 148.950658 18.7315068 148.950658 25.1638356 152.946041 25.1638356 152.946041 26.3890411"></polygon>
                        <polygon id="Path" fill="#000000" fill-rule="nonzero" points="154.312882 26.3890411 154.312882 18.7315068 159.943801 18.7315068 159.943801 19.9390411 155.644676 19.9390411 155.644676 21.93 159.464822 21.93 159.464822 23.1080822 155.656359 23.1080822 155.656359 25.169726 160.008054 25.169726 160.008054 26.3478082"></polygon>
                        <path d="M165.130789,26.5068493 C164.0843,26.5466664 163.068468,26.1461334 162.326302,25.4010667 C161.584137,24.656 161.182395,23.6334181 161.217183,22.5779452 L161.217183,22.5779452 C161.199026,21.5298776 161.601331,20.5188265 162.332853,19.7741096 C163.060428,18.9996038 164.078963,18.5716393 165.13663,18.5960274 C165.690865,18.5833797 166.24285,18.6711645 166.766325,18.8552055 C167.237447,19.0408867 167.673936,19.3057829 168.057231,19.6386301 L167.210257,20.6576712 C166.922187,20.4107625 166.596812,20.211904 166.246458,20.0686301 C165.874555,19.922107 165.477363,19.8520129 165.078218,19.8624658 C164.406559,19.8547803 163.765599,20.1456421 163.325857,20.6576712 C162.856734,21.1791739 162.603774,21.8622275 162.619072,22.5661644 L162.619072,22.5661644 C162.593495,23.2887562 162.849265,23.9927652 163.331698,24.5276712 C163.814669,25.0455377 164.496446,25.3269913 165.200883,25.2993151 C165.86012,25.3135003 166.505329,25.1062886 167.035021,24.710274 L167.035021,23.2789041 L165.0899,23.2789041 L165.0899,22.1008219 L168.325926,22.1008219 L168.325926,25.3287671 C167.443431,26.1088449 166.304124,26.52892 165.130789,26.5068493 Z" id="Path" fill="#000000" fill-rule="nonzero"></path>
                        <polygon id="Path" fill="#000000" fill-rule="nonzero" points="170.206793 26.3890411 170.206793 18.7315068 175.820189 18.7315068 175.820189 19.9390411 171.521064 19.9390411 171.521064 21.93 175.329528 21.93 175.329528 23.1080822 171.521064 23.1080822 171.521064 25.169726 175.87276 25.169726 175.87276 26.3478082"></polygon>
                        <path d="M180.265344,26.5068493 C179.093869,26.5196278 177.961647,26.0814614 177.099412,25.2816438 L177.899657,24.3156164 C178.547148,24.9425977 179.403063,25.3038086 180.300391,25.3287671 C180.646033,25.3451123 180.98839,25.254692 181.281713,25.069589 C181.512009,24.912548 181.648201,24.6489453 181.643868,24.3686301 L181.643868,24.3686301 C181.650609,24.0984436 181.520803,23.8433005 181.299237,23.6912329 C180.87158,23.4284551 180.400766,23.2449264 179.90903,23.1493151 C179.540086,23.0635373 179.177146,22.9533444 178.822567,22.8194521 C178.541994,22.7185818 178.278118,22.575603 178.039846,22.3953425 C177.817365,22.2316337 177.643626,22.0095741 177.537502,21.7532877 C177.426759,21.4703418 177.37314,21.1679492 177.37979,20.8638356 L177.37979,20.8638356 C177.367293,20.2280927 177.655794,19.6243549 178.15667,19.2380822 C178.689271,18.8215599 179.352838,18.6124485 180.025855,18.6490411 C181.027743,18.6353138 182.00292,18.9749174 182.782902,19.6091781 L182.035228,20.6164384 C181.450056,20.1364222 180.726922,19.8596055 179.973284,19.8271233 C179.653313,19.8112576 179.3371,19.9023654 179.073739,20.0863014 C178.858943,20.2329105 178.731636,20.4786013 178.734949,20.740137 L178.734949,20.740137 C178.724725,21.0202355 178.862568,21.2847926 179.097103,21.4352055 C179.549778,21.6781264 180.036162,21.8508872 180.53988,21.9476712 C181.208421,22.0736429 181.839686,22.3516447 182.3857,22.7605479 C182.788284,23.1217301 183.003702,23.6496069 182.96982,24.1919178 L182.96982,24.1919178 C183.018567,24.8513503 182.748866,25.4939979 182.245511,25.9178082 C181.674573,26.3426441 180.973525,26.5511853 180.265344,26.5068493 L180.265344,26.5068493 Z" id="Path" fill="#000000" fill-rule="nonzero"></path>
                        <path d="M51.9867004,39.6542466 C50.9502731,39.6818569 49.949966,39.2693872 49.2296529,38.5173973 C48.5001285,37.7722353 48.1017312,36.7604114 48.1256656,35.7135616 L48.1256656,35.7135616 C48.1021557,34.6650488 48.500372,33.65156 49.2296529,32.9038356 C49.9590294,32.1284118 50.9797253,31.7004307 52.0392712,31.7257534 C52.6132082,31.7080173 53.1844145,31.812383 53.7156962,32.0320548 C54.1946232,32.2500737 54.6331617,32.5488797 55.0124431,32.9156164 L54.1596276,33.9110959 C53.5963712,33.343901 52.8406585,33.013386 52.0451124,32.9863014 C51.3592927,32.9609921 50.6971188,33.2410173 50.2343397,33.7520548 C49.75496,34.2727165 49.4970269,34.962103 49.5158718,35.6723288 L49.5158718,35.6723288 C49.4930836,36.392014 49.7510333,37.0920192 50.2343397,37.6220548 C50.6863843,38.1376429 51.3393724,38.4281528 52.0217476,38.4172603 C52.4250382,38.4286186 52.8252961,38.3438563 53.189988,38.169863 C53.5690621,37.9728629 53.9174063,37.7208154 54.2238808,37.4217808 L55.0883788,38.2876712 C54.7055245,38.7107374 54.2479688,39.0582932 53.739061,39.3126027 C53.1883288,39.5594616 52.5889899,39.6763099 51.9867004,39.6542466 Z" id="Path" fill="#000000" fill-rule="nonzero"></path>
                        <path d="M62.775401,38.4938356 C61.1891014,40.0462473 58.6665283,40.0462473 57.0802288,38.4938356 C56.3437787,37.7567805 55.9385334,36.7479028 55.9587179,35.7017808 L55.9587179,35.7017808 C55.9587179,33.4896156 57.7370507,31.6963014 59.9307355,31.6963014 C62.1244202,31.6963014 63.902753,33.4896156 63.902753,35.7017808 L63.902753,35.7017808 C63.9193517,36.7483831 63.5122602,37.7566056 62.775401,38.4938356 L62.775401,38.4938356 Z M58.1024392,37.6220548 C58.5847167,38.1270998 59.2500556,38.4124577 59.9453385,38.4124577 C60.6406213,38.4124577 61.3059602,38.1270998 61.7882378,37.6220548 C62.2647902,37.1047559 62.5207178,36.4193534 62.5008645,35.7135616 L62.5008645,35.7135616 C62.516177,34.9971506 62.2518749,34.30333 61.764873,33.7815068 C61.2937879,33.261513 60.6231821,32.9716893 59.9248943,32.9863014 C59.2275522,32.9639801 58.5553793,33.2501773 58.0849155,33.769726 C57.6012272,34.2880827 57.3408018,34.9785173 57.3606065,35.69 L57.3606065,35.69 C57.3433927,36.406744 57.6079627,37.1012679 58.096598,37.6220548 L58.1024392,37.6220548 Z" id="Shape" fill="#000000" fill-rule="nonzero"></path>
                        <polygon id="Path" fill="#000000" fill-rule="nonzero" points="65.6200665 39.5246575 65.6200665 31.8671233 66.8584014 31.8671233 70.947243 37.1684932 70.947243 31.8671233 72.2615135 31.8671233 72.2615135 39.5246575 71.1400027 39.5246575 66.9518606 34.070137 66.9518606 39.5246575"></polygon>
                        <path d="M76.9753637,39.6306849 C75.8017729,39.6455673 74.6669832,39.2072161 73.8035909,38.4054795 L74.6096768,37.4453425 C75.2613653,38.0634865 76.1160258,38.4178769 77.010411,38.4408219 C77.3570001,38.4585304 77.7003258,38.3657934 77.9917329,38.1757534 C78.2228572,38.0194583 78.3593018,37.7553664 78.3538875,37.4747945 L78.3538875,37.4747945 C78.3593329,37.2034827 78.2272036,36.9481014 78.0034153,36.7973973 C77.578876,36.5568121 77.1165585,36.3914462 76.636574,36.3084932 C76.2704742,36.2192214 75.9096878,36.1090903 75.5559516,35.9786301 C75.2769167,35.8742953 75.0135183,35.7315755 74.7732305,35.5545205 C74.54922,35.3909477 74.3735535,35.1690057 74.2650459,34.9124658 C74.1538391,34.6275972 74.1002179,34.3231867 74.1073334,34.0171233 L74.1073334,34.0171233 C74.0882461,33.3921627 74.3580061,32.7936913 74.8374837,32.3972603 C75.3677966,31.980667 76.0295854,31.771462 76.7008272,31.8082192 C77.6906107,31.7816057 78.6588748,32.1022216 79.4403511,32.7153425 L78.7277244,33.7343836 C78.1425525,33.2543674 77.4194182,32.9775507 76.66578,32.9450685 C76.345708,32.9283074 76.0292132,33.0194963 75.7662349,33.2042466 C75.5531734,33.3496976 75.4260966,33.5927358 75.4274451,33.8521918 L75.4274451,33.8521918 C75.4184097,34.1320166 75.5559623,34.3960157 75.7895997,34.5472603 C76.2399844,34.7894259 76.7246308,34.9602824 77.2265354,35.0538356 C77.8976818,35.1805125 78.5311148,35.4606038 79.0781966,35.8726027 C79.4791131,36.2324774 79.6943699,36.7577873 79.6623168,37.2980822 L79.6623168,37.2980822 C79.6920881,37.9440736 79.4143056,38.5655958 78.9146429,38.9709589 C78.3655175,39.4144674 77.6786893,39.6481204 76.9753637,39.6306849 Z" id="Path" fill="#000000" fill-rule="nonzero"></path>
                        <path d="M87.723176,38.4938356 C86.9760632,39.2716667 85.9403359,39.6988457 84.866828,39.6719178 C83.8175649,39.6992216 82.8024977,39.2945723 82.0553674,38.5511491 C81.3082371,37.8077259 80.8934403,36.7896058 80.9064929,35.7312329 L80.9064929,35.7312329 C80.9064929,33.5190677 82.6848257,31.7257534 84.8785104,31.7257534 C87.0721952,31.7257534 88.850528,33.5190677 88.850528,35.7312329 L88.850528,35.7312329 C88.8591881,36.7676578 88.4527082,37.7637463 87.723176,38.4938356 Z M83.0502141,37.6220548 C83.523542,38.1458378 84.1993977,38.4360876 84.9018752,38.4172603 C85.5992173,38.4395816 86.2713902,38.1533843 86.741854,37.6338356 C87.2233589,37.1141036 87.4834299,36.4246087 87.4661631,35.7135616 L87.4661631,35.7135616 C87.4814755,34.9971506 87.2171735,34.30333 86.7301716,33.7815068 C86.2452443,33.2791595 85.5795556,32.9957953 84.8843516,32.9957953 C84.1891477,32.9957953 83.523459,33.2791595 83.0385317,33.7815068 C82.559152,34.3021685 82.301219,34.9915551 82.3200638,35.7017808 L82.3200638,35.7017808 C82.3030855,36.411688 82.560762,37.100389 83.0385317,37.6220548 L83.0502141,37.6220548 Z" id="Shape" fill="#000000" fill-rule="nonzero"></path>
                        <path d="M90.5678415,39.5246575 L90.5678415,31.8671233 L93.9557388,31.8671233 C94.7581073,31.8163404 95.5471541,32.092181 96.1461897,32.6328767 C96.5693754,33.076144 96.7968943,33.6731015 96.7770395,34.2880822 L96.7770395,34.2880822 C96.798738,34.8302931 96.62437,35.3619904 96.2863785,35.7842466 C95.9392195,36.1874954 95.4789103,36.4750449 94.9662668,36.6089041 L97.0165288,39.5128767 L95.4394042,39.5128767 L93.5760606,36.8386301 L91.9054768,36.8386301 L91.9054768,39.5246575 L90.5678415,39.5246575 Z M91.9054768,35.6605479 L93.8564384,35.6605479 C94.2654014,35.6805477 94.6683985,35.555504 94.9954728,35.3071233 C95.2753761,35.0822058 95.4334624,34.7371639 95.4218806,34.3764384 L95.4218806,34.3764384 C95.4429313,34.0131324 95.2884168,33.6619973 95.0071552,33.4339726 C94.6661195,33.1935699 94.2541589,33.0772492 93.8389147,33.1041096 L91.8996356,33.1041096 L91.9054768,35.6605479 Z" id="Shape" fill="#000000" fill-rule="nonzero"></path>
                        <polygon id="Path" fill="#000000" fill-rule="nonzero" points="100.305126 39.5246575 100.305126 33.11 97.8985503 33.11 97.8985503 31.8612329 104.061019 31.8612329 104.061019 33.11 101.63692 33.11 101.63692 39.5246575"></polygon>
                        <polygon id="Path" fill="#000000" fill-rule="nonzero" points="105.480431 39.5246575 105.480431 31.8671233 106.812225 31.8671233 106.812225 39.5246575"></polygon>
                        <path d="M112.116037,39.6424658 C111.241327,39.6932966 110.384189,39.3803391 109.744509,38.7765753 C109.128646,38.0966315 108.816178,37.1917826 108.880011,36.2731507 L108.880011,31.8612329 L110.211805,31.8612329 L110.211805,36.220137 C110.177178,36.8057961 110.360472,37.3834147 110.725831,37.84 C111.085349,38.236984 111.600948,38.4527281 112.13356,38.4290411 C112.659128,38.4593263 113.172136,38.2596926 113.54129,37.8812329 C113.902777,37.4368708 114.082452,36.8701314 114.043633,36.2967123 L114.043633,31.8612329 L115.381269,31.8612329 L115.381269,36.2083562 C115.437429,37.1471702 115.115148,38.0690542 114.487565,38.7647945 C113.847259,39.3686862 112.99171,39.6853134 112.116037,39.6424658 L112.116037,39.6424658 Z" id="Path" fill="#000000" fill-rule="nonzero"></path>
                        <polygon id="Path" fill="#000000" fill-rule="nonzero" points="117.408166 39.5246575 117.408166 31.8671233 118.827578 31.8671233 121.164059 35.489726 123.50054 31.8671233 124.919952 31.8671233 124.919952 39.5246575 123.582317 39.5246575 123.582317 34.0289041 121.187424 37.639726 121.140694 37.639726 118.763325 34.0524658 118.763325 39.5246575"></polygon>
                        <polygon id="Path" fill="#000000" fill-rule="nonzero" points="130.182875 39.5246575 130.182875 31.8671233 135.837159 31.8671233 135.837159 33.0923288 131.520511 33.0923288 131.520511 35.1834247 135.352339 35.1834247 135.352339 36.4027397 131.520511 36.4027397 131.520511 39.5246575"></polygon>
                        <path d="M143.646847,38.4938356 C142.899734,39.2716667 141.864007,39.6988457 140.790499,39.6719178 C139.741236,39.6992216 138.726168,39.2945723 137.979038,38.5511491 C137.231908,37.8077259 136.817111,36.7896058 136.830164,35.7312329 L136.830164,35.7312329 C136.830164,33.5190677 138.608496,31.7257534 140.802181,31.7257534 C142.995866,31.7257534 144.774199,33.5190677 144.774199,35.7312329 L144.774199,35.7312329 C144.782859,36.7676578 144.376379,37.7637463 143.646847,38.4938356 Z M138.973885,37.6220548 C139.447213,38.1458378 140.123068,38.4360876 140.825546,38.4172603 C141.522888,38.4395816 142.195061,38.1533843 142.665525,37.6338356 C143.14703,37.1141036 143.407101,36.4246087 143.389834,35.7135616 L143.389834,35.7135616 C143.405146,34.9971506 143.140844,34.30333 142.653842,33.7815068 C142.172408,33.2517701 141.485092,32.9611823 140.772975,32.9863014 C140.076072,32.9663491 139.404838,33.2521467 138.932996,33.769726 C138.453617,34.2903877 138.195684,34.9797743 138.214529,35.69 L138.214529,35.69 C138.202359,36.4080641 138.470942,37.1021062 138.962202,37.6220548 L138.973885,37.6220548 Z" id="Shape" fill="#000000" fill-rule="nonzero"></path>
                        <path d="M146.491512,39.5246575 L146.491512,31.8671233 L149.879409,31.8671233 C150.681778,31.8163404 151.470825,32.092181 152.06986,32.6328767 C152.493046,33.076144 152.720565,33.6731015 152.70071,34.2880822 L152.70071,34.2880822 C152.722409,34.8302931 152.548041,35.3619904 152.210049,35.7842466 C151.861576,36.1887906 151.398997,36.4764849 150.884096,36.6089041 L152.934358,39.5128767 L151.363075,39.5128767 L149.49389,36.8386301 L147.823306,36.8386301 L147.823306,39.5246575 L146.491512,39.5246575 Z M147.823306,35.6605479 L149.780109,35.6605479 C150.189072,35.6805477 150.592069,35.555504 150.919144,35.3071233 C151.197612,35.0815917 151.353631,34.7363334 151.33971,34.3764384 L151.33971,34.3764384 C151.36216,34.0141621 151.209905,33.6632184 150.930826,33.4339726 C150.589391,33.1944231 150.177732,33.0781874 149.762585,33.1041096 L147.817465,33.1041096 L147.823306,35.6605479 Z" id="Shape" fill="#000000" fill-rule="nonzero"></path>
                        <path d="M164.178673,38.4938356 C163.056649,39.6669531 161.340291,40.034801 159.842141,39.4232364 C158.34399,38.8116718 157.364682,37.3434183 157.367823,35.7135616 L157.367823,35.7135616 C157.367823,33.5013964 159.146164,31.7080822 161.339848,31.7080822 C163.533533,31.7080822 165.311866,33.5013964 165.311866,35.7135616 L165.311866,35.7135616 C165.323065,36.7568269 164.914165,37.7600586 164.178673,38.4938356 L164.178673,38.4938356 Z M159.505711,37.6220548 C159.987988,38.1270998 160.653327,38.4124577 161.34861,38.4124577 C162.043893,38.4124577 162.709232,38.1270998 163.19151,37.6220548 C163.675198,37.1036981 163.935623,36.4132635 163.915819,35.7017808 L163.915819,35.7017808 C163.931131,34.9853698 163.666829,34.2915492 163.179827,33.769726 C162.703923,33.2509472 162.028667,32.9652512 161.328166,32.9863014 C160.625549,32.9524793 159.943859,33.2326244 159.464822,33.7520548 C158.981134,34.2704114 158.720709,34.9608461 158.740513,35.6723288 L158.740513,35.6723288 C158.724867,36.3984942 158.998359,37.1007132 159.49987,37.6220548 L159.505711,37.6220548 Z" id="Shape" fill="#000000" fill-rule="nonzero"></path>
                        <polygon id="Path" fill="#000000" fill-rule="nonzero" points="167.023338 39.5246575 167.023338 31.8671233 172.660098 31.8671233 172.660098 33.0452055 168.360974 33.0452055 168.360974 35.0420548 172.169437 35.0420548 172.169437 36.220137 168.360974 36.220137 168.360974 38.2758904 172.712669 38.2758904 172.712669 39.4539726"></polygon>
                        <path d="M174.435824,39.5246575 L174.435824,31.8671233 L177.81788,31.8671233 C178.621869,31.8173926 179.412336,32.0929948 180.014172,32.6328767 C180.433524,33.0781898 180.658609,33.6742817 180.639181,34.2880822 L180.639181,34.2880822 C180.66041,34.829252 180.48838,35.3601399 180.154361,35.7842466 C179.804925,36.1876454 179.342727,36.475103 178.828408,36.6089041 L180.87867,39.5128767 L179.32491,39.5128767 L177.455725,36.8386301 L175.785142,36.8386301 L175.785142,39.5246575 L174.435824,39.5246575 Z M175.767618,35.6605479 L177.724421,35.6605479 C178.133384,35.6805477 178.536381,35.555504 178.863455,35.3071233 C179.141924,35.0815917 179.297943,34.7363334 179.284022,34.3764384 L179.284022,34.3764384 C179.306472,34.0141621 179.154217,33.6632184 178.875138,33.4339726 C178.533703,33.1944231 178.122043,33.0781874 177.706897,33.1041096 L175.761777,33.1041096 L175.767618,35.6605479 Z" id="Shape" fill="#000000" fill-rule="nonzero"></path>
                        <rect id="Rectangle" fill="#E5E5E5" fill-rule="nonzero" x="0" y="0" width="42.6758239" height="42.9352055" rx="0.981321984"></rect>
                        <path d="M0,36.8857534 L42.6407767,36.8857534 L42.6407767,41.9986301 C42.6407767,42.5158864 42.2249606,42.9352055 41.7120255,42.9352055 L0.940433568,42.9352055 C0.69209556,42.9383558 0.452851728,42.8410737 0.2761422,42.6650891 C0.0994326722,42.4891046 0,42.2490801 0,41.9986301 L0,36.8857534 Z" id="Path" fill="#26D6B1" fill-rule="nonzero"></path>
                        <path d="M21.8519378,40.8264384 C18.6275941,40.8264384 15.6777869,38.6764384 13.5457481,34.7652055 C11.5889453,31.1779452 10.5141641,26.4538356 10.5141641,21.4469863 C10.5141641,16.440137 11.5947865,11.7160274 13.5515893,8.13465753 C15.6836281,4.22342466 18.6334353,2.07342466 21.857779,2.07342466 C22.7594729,2.12670529 23.4636383,2.8796296 23.4636383,3.79047945 C23.4636383,4.70132931 22.7594729,5.45425361 21.857779,5.50753425 C19.9301822,5.50753425 18.0434739,7.02726027 16.5364437,9.78986301 C14.8483362,12.8764384 13.9195851,17.0173973 13.9195851,21.4469863 C13.9195851,25.8765753 14.842495,30.0410959 16.5306025,33.11 C18.0376327,35.8726027 19.924341,37.3923288 21.8519378,37.3923288 C23.7795345,37.3923288 25.6662429,35.8726027 27.173273,33.11 C28.8555393,30.0410959 29.7901317,25.8824658 29.7901317,21.4469863 C29.8429672,20.5376961 30.5896015,19.8275986 31.4928421,19.8275986 C32.3960827,19.8275986 33.1427171,20.5376961 33.1955526,21.4469863 C33.1955526,26.4538356 32.1149302,31.1779452 30.1639686,34.7652055 C28.037771,38.6764384 25.0704402,40.8264384 21.8519378,40.8264384 Z" id="Path" fill="#0D6AE5" fill-rule="nonzero"></path>
                        <path d="M-1.89363088e-14,29.340137 C5.31583707,28.0474692 10.7338733,27.227523 16.1918127,26.889726 C18.0785211,26.7719178 20.0061178,26.7130137 21.9045086,26.7130137 C26.7570406,26.7141721 31.6021984,27.094258 36.3965315,27.849863 L38.0787977,28.1090411 L37.5530895,31.5078082 L35.8708232,31.2191781 C31.2495155,30.5020038 26.580213,30.1455573 21.9045086,30.1530137 C20.0703711,30.1530137 18.2187099,30.2060274 16.3962548,30.3238356 C10.8645308,30.6622798 5.37572081,31.5161011 -1.89363088e-14,32.8743836" id="Path" fill="#0D6AE5" fill-rule="nonzero"></path>
                        <path d="M-1.26242059e-14,21.0228767 C5.33221273,19.7406272 10.766054,18.9344532 16.2385424,18.6136986 C18.0259503,18.5076712 19.8484054,18.4546575 21.6474957,18.4546575 C24.2176247,18.4546575 26.8228009,18.5606849 29.3987711,18.7727397 L29.7258784,18.8021918 L30.4677111,18.8669863 L30.520282,18.8669863 C32.138295,19.020137 33.81472,19.2263014 35.5028275,19.4560274 L36.5308791,19.6032877 L36.5308791,19.6032877 C36.9163985,19.6621918 37.307759,19.7269863 37.6991196,19.7976712 L37.6991196,19.7976712 L39.5040511,20.1275342 L40.8767336,20.3336986 C41.0097613,20.3653922 41.099404,20.4909449 41.0870169,20.6282192 L40.888416,23.9091781 L38.8790424,23.5616438 C38.2949222,23.449726 37.710802,23.3436986 37.0449049,23.2317808 L35.8766645,23.0491781 C35.345115,22.9608219 34.7785184,22.8783562 34.1243038,22.7841096 C33.5401835,22.7016438 33.0144753,22.6309589 32.5354967,22.5779452 L31.3672563,22.4483562 C28.1465667,22.1017893 24.9098341,21.928758 21.6708605,21.93 C14.367844,21.920092 7.09075786,22.8062373 -1.26242059e-14,24.5689041" id="Path" fill="#0D6AE5" fill-rule="nonzero"></path>
                        <path d="M-1.26242059e-14,16.7817808 C5.37936616,15.4382131 10.8698423,14.5962673 16.402096,14.2665753 C18.1544567,14.1664384 19.9068174,14.1134247 21.6591781,14.1134247 C22.465264,14.1134247 24.4687964,14.1546575 25.5377364,14.1782192 C25.7174112,14.182226 25.869976,14.0463251 25.8882085,13.8660274 L26.2211571,10.9208219 C26.2243946,10.8870282 26.213716,10.853378 26.1916242,10.8277584 C26.1695323,10.8021387 26.1379693,10.7868018 26.104333,10.7853425 C24.6265088,10.7146575 23.1311611,10.6793151 21.6591781,10.6793151 C19.8484054,10.6793151 18.0201091,10.7323288 16.2210188,10.8383562 C10.7549896,11.1621771 5.32740149,11.9663224 -1.26242059e-14,13.2416438" id="Path" fill="#0D6AE5" fill-rule="nonzero"></path>
                        <path d="M23.4349036,40.8617808 C15.3483153,41.5754299 7.68494664,37.103816 4.26865278,29.6781777 C0.852358922,22.2525394 2.41533237,13.4643665 8.1776832,7.69876712 C14.2720822,1.55754056 23.6627499,0.228743935 31.1978614,4.44136986 C33.9093459,5.96772984 36.2187629,8.12693596 37.9327677,10.7382192 C37.9935561,10.8345924 37.9677306,10.9622031 37.8743556,11.0268493 L35.257497,12.7291781 C35.2119669,12.7602193 35.1559608,12.7714674 35.1021116,12.7603851 C35.0482623,12.7493029 35.0011056,12.7168238 34.9712781,12.670274 C31.996462,8.12337131 26.9209402,5.42812452 21.5199953,5.52725937 C16.1190505,5.62639421 11.1441552,8.50611735 8.33539566,13.1591781 C7.45988881,14.5592727 6.8259109,16.0988161 6.46036973,17.7124658 C5.18029192,23.1077237 6.77077719,28.7862374 10.6607057,32.7089363 C14.5506341,36.6316351 20.1817094,38.2355192 25.5318952,36.9446575 C27.1344023,36.5776507 28.6632677,35.9382448 30.0529858,35.0538356 C34.7459872,32.1586792 37.6037581,27.0066263 37.5939779,21.4587671 L37.5939779,20.3984932 L40.1816305,20.2571233 L41.0461285,20.3867123 C41.0899083,20.39265 41.1224583,20.4305241 41.1220676,20.4750685 L41.1220676,21.4587671 C41.1183932,31.5772274 33.4330616,40.0081224 23.4349036,40.8617808 Z" id="Path" fill="#0D6AE5" fill-rule="nonzero"></path>
                    </g>
                </g>
            </g>
        </g>
    </g>
</svg>