<svg xmlns="http://www.w3.org/2000/svg" viewBox="0 0 309.66 72.89"><defs><style>.cls-1{fill:#1a1a1a;}.cls-2{fill:#e5e5e5;}.cls-3{fill:#26d6b1;}.cls-4{fill:#0d6ae5;}</style></defs><title>cccoer</title><g id="Layer_2" data-name="Layer 2"><g id="Layer_1-2" data-name="Layer 1"><path class="cls-1" d="M90.56,24.2a8.32,8.32,0,0,1-6.19-2.53,8.59,8.59,0,0,1-2.48-6.24v0a8.67,8.67,0,0,1,2.48-6.26,8.41,8.41,0,0,1,6.31-2.56,9.41,9.41,0,0,1,3.77.68,10.44,10.44,0,0,1,2.91,2l-1.93,2.21a7,7,0,0,0-4.77-2.12,5.25,5.25,0,0,0-4,1.75A6.06,6.06,0,0,0,85,15.33v.05a6.17,6.17,0,0,0,1.61,4.3,5.2,5.2,0,0,0,4,1.77,5.89,5.89,0,0,0,2.58-.55,9.76,9.76,0,0,0,2.32-1.67l1.92,1.95a10.06,10.06,0,0,1-3,2.26A8.93,8.93,0,0,1,90.56,24.2Z"/><path class="cls-1" d="M108.67,24.2a8.32,8.32,0,0,1-6.19-2.53A8.55,8.55,0,0,1,100,15.43v0a8.63,8.63,0,0,1,2.48-6.26,8.41,8.41,0,0,1,6.31-2.56,9.36,9.36,0,0,1,3.76.68,10.34,10.34,0,0,1,2.92,2l-1.93,2.21a7,7,0,0,0-4.77-2.12,5.25,5.25,0,0,0-4,1.75,6.06,6.06,0,0,0-1.61,4.27v.05a6.17,6.17,0,0,0,1.61,4.3,5.2,5.2,0,0,0,4,1.77,5.89,5.89,0,0,0,2.58-.55,9.53,9.53,0,0,0,2.31-1.67l1.93,1.95a10.18,10.18,0,0,1-3,2.26A8.93,8.93,0,0,1,108.67,24.2Z"/><path class="cls-1" d="M126.78,24.2a8.32,8.32,0,0,1-6.19-2.53,8.56,8.56,0,0,1-2.49-6.24v0a8.64,8.64,0,0,1,2.49-6.26,8.41,8.41,0,0,1,6.31-2.56,9.36,9.36,0,0,1,3.76.68,10.44,10.44,0,0,1,2.91,2l-1.92,2.21a7,7,0,0,0-4.78-2.12,5.28,5.28,0,0,0-4,1.75,6.06,6.06,0,0,0-1.6,4.27v.05a6.16,6.16,0,0,0,1.6,4.3,5.23,5.23,0,0,0,4,1.77,5.91,5.91,0,0,0,2.59-.55,9.93,9.93,0,0,0,2.31-1.67l1.92,1.95a10,10,0,0,1-3,2.26A8.93,8.93,0,0,1,126.78,24.2Z"/><path d="M152.52,21.63a9.79,9.79,0,0,1-13.3,0,8.57,8.57,0,0,1-2.66-6.36v-.05a8.57,8.57,0,0,1,2.68-6.38,9.8,9.8,0,0,1,13.31,0,8.59,8.59,0,0,1,2.66,6.36v.05A8.58,8.58,0,0,1,152.52,21.63Zm-9.79-3.08a4.39,4.39,0,0,0,6.34,0,4.65,4.65,0,0,0,1.24-3.28v-.05a4.69,4.69,0,0,0-1.26-3.3,4.13,4.13,0,0,0-3.19-1.37,4.07,4.07,0,0,0-3.15,1.34,4.69,4.69,0,0,0-1.23,3.28v.05A4.73,4.73,0,0,0,142.73,18.55Z"/><path d="M157.21,23.91V6.59h13.93v4.08H162V13.3h8.31v3.78H162v2.75h9.3v4.08Z"/><path d="M173.83,23.91V6.59H182q3.81,0,5.64,1.88a5.37,5.37,0,0,1,1.53,4v.05a5.36,5.36,0,0,1-3.56,5.32l4.13,6h-5.54l-3.49-5.25h-2.1v5.25Zm4.8-9h3.17a3,3,0,0,0,1.89-.54,1.84,1.84,0,0,0,.68-1.51v0a1.82,1.82,0,0,0-.68-1.53,3.09,3.09,0,0,0-1.92-.52h-3.14Z"/><path d="M89,45a6.33,6.33,0,0,1-4.72-1.93,6.54,6.54,0,0,1-1.89-4.76v0a6.6,6.6,0,0,1,1.89-4.78,6.42,6.42,0,0,1,4.81-2,7.18,7.18,0,0,1,2.87.52,7.74,7.74,0,0,1,2.22,1.51l-1.46,1.69a5.34,5.34,0,0,0-3.65-1.62A4,4,0,0,0,86,35a4.62,4.62,0,0,0-1.23,3.26v0A4.69,4.69,0,0,0,86,41.58a4,4,0,0,0,3.06,1.34,4.39,4.39,0,0,0,2-.41,7.52,7.52,0,0,0,1.77-1.28l1.47,1.49A7.88,7.88,0,0,1,92,44.45,6.93,6.93,0,0,1,89,45Z"/><path d="M107.47,43.05A6.79,6.79,0,0,1,95.8,38.33v0a6.8,6.8,0,1,1,13.6,0v0A6.51,6.51,0,0,1,107.47,43.05Zm-8-1.47a4.41,4.41,0,0,0,6.31,0A4.61,4.61,0,0,0,107,38.33v0A4.63,4.63,0,0,0,105.75,35a4.38,4.38,0,0,0-6.31,0,4.59,4.59,0,0,0-1.24,3.26v0A4.63,4.63,0,0,0,99.46,41.58Z"/><path d="M112.34,44.8v-13h2.44l4,6.16,4-6.16h2.43v13h-2.28V35.47l-4.11,6.14h-.07l-4.07-6.1V44.8Z"/><path d="M128.73,44.8v-13h2.44l4,6.16,4-6.16h2.43v13h-2.28V35.47l-4.11,6.14h-.07L131,35.51V44.8Z"/><path d="M150.51,45a5.51,5.51,0,0,1-4.06-1.46A5.77,5.77,0,0,1,145,39.28V31.79h2.29v7.4a4,4,0,0,0,.87,2.75A3.53,3.53,0,0,0,153,42a3.81,3.81,0,0,0,.87-2.7V31.79h2.28v7.38a5.9,5.9,0,0,1-1.48,4.34A5.52,5.52,0,0,1,150.51,45Z"/><path d="M159.56,44.8v-13h2.12l7,9v-9h2.25v13H169l-7.17-9.25V44.8Z"/><path d="M174.56,44.8v-13h2.29v13Z"/><path d="M183.39,44.8V33.91h-4.12V31.79h10.55v2.12H185.7V44.8Z"/><path d="M196.68,44.8V39.67l-5.16-7.88h2.69l3.64,5.76,3.68-5.76h2.62L199,39.62V44.8Z"/><path d="M218,45a6.32,6.32,0,0,1-4.72-1.93,6.51,6.51,0,0,1-1.9-4.76v0a6.57,6.57,0,0,1,1.9-4.78,6.42,6.42,0,0,1,4.81-2,7.18,7.18,0,0,1,2.87.52,7.74,7.74,0,0,1,2.22,1.51l-1.47,1.69A5.3,5.3,0,0,0,218,33.67,4,4,0,0,0,215,35a4.62,4.62,0,0,0-1.23,3.26v0A4.69,4.69,0,0,0,215,41.58,4,4,0,0,0,218,42.92a4.39,4.39,0,0,0,2-.41,7.52,7.52,0,0,0,1.77-1.28l1.46,1.49a7.84,7.84,0,0,1-2.32,1.73A7,7,0,0,1,218,45Z"/><path d="M236.4,43.05a6.78,6.78,0,0,1-11.67-4.72v0a6.8,6.8,0,1,1,13.6,0v0A6.51,6.51,0,0,1,236.4,43.05Zm-8-1.47a4.42,4.42,0,0,0,6.32,0,4.65,4.65,0,0,0,1.23-3.27v0A4.62,4.62,0,0,0,234.68,35a4.4,4.4,0,0,0-6.32,0,4.62,4.62,0,0,0-1.23,3.26v0A4.66,4.66,0,0,0,228.38,41.58Z"/><path d="M241.27,44.8v-13h2.28V42.72h6.84V44.8Z"/><path d="M252.72,44.8v-13H255V42.72h6.84V44.8Z"/><path d="M264.18,44.8v-13h9.64v2.05h-7.36v3.38H273v2h-6.52v3.5h7.45v2Z"/><path d="M282.7,45A6.46,6.46,0,0,1,276,38.33v0a6.6,6.6,0,0,1,1.91-4.76,6.41,6.41,0,0,1,4.8-2,7.93,7.93,0,0,1,2.79.44,7.66,7.66,0,0,1,2.21,1.33l-1.45,1.73a6.07,6.07,0,0,0-1.65-1,5.13,5.13,0,0,0-2-.35,3.91,3.91,0,0,0-3,1.35,4.67,4.67,0,0,0-1.21,3.24v0a4.7,4.7,0,0,0,1.22,3.33,4.17,4.17,0,0,0,3.2,1.31,5.09,5.09,0,0,0,3.14-1V39.52h-3.33v-2h5.54V43A8.07,8.07,0,0,1,282.7,45Z"/><path d="M291.39,44.8v-13H301v2.05h-7.36v3.38h6.52v2h-6.52v3.5h7.45v2Z"/><path d="M89,67.32a6.33,6.33,0,0,1-4.72-1.93,6.56,6.56,0,0,1-1.89-4.76v0a6.59,6.59,0,0,1,1.89-4.77,6.42,6.42,0,0,1,4.81-2,7,7,0,0,1,2.87.52,7.91,7.91,0,0,1,2.22,1.5l-1.46,1.69A5.38,5.38,0,0,0,89.1,56,4,4,0,0,0,86,57.3a4.61,4.61,0,0,0-1.23,3.26v0A4.67,4.67,0,0,0,86,63.87a4,4,0,0,0,3.06,1.35,4.39,4.39,0,0,0,2-.42,7.46,7.46,0,0,0,1.77-1.27L94.31,65A7.84,7.84,0,0,1,92,66.74,6.78,6.78,0,0,1,89,67.32Z"/><path d="M107.47,65.35a7,7,0,0,1-9.75,0,6.5,6.5,0,0,1-1.92-4.74v0a6.8,6.8,0,1,1,13.6,0v0A6.53,6.53,0,0,1,107.47,65.35Zm-8-1.48a4.38,4.38,0,0,0,6.31,0A4.57,4.57,0,0,0,107,60.63v0a4.64,4.64,0,0,0-1.26-3.28A4.15,4.15,0,0,0,102.59,56a4.09,4.09,0,0,0-3.15,1.33,4.57,4.57,0,0,0-1.24,3.26v0A4.61,4.61,0,0,0,99.46,63.87Z"/><path d="M112.34,67.1v-13h2.12l7,9v-9h2.25v13h-1.92l-7.17-9.26V67.1Z"/><path d="M131.78,67.28a7.87,7.87,0,0,1-5.43-2.08l1.38-1.63a6.23,6.23,0,0,0,4.11,1.69,2.83,2.83,0,0,0,1.68-.45,1.4,1.4,0,0,0,.62-1.19v0a1.35,1.35,0,0,0-.6-1.15,7.29,7.29,0,0,0-2.34-.83,17.06,17.06,0,0,1-1.85-.56,5.53,5.53,0,0,1-1.34-.72,2.61,2.61,0,0,1-.87-1.09,3.9,3.9,0,0,1-.27-1.52v0A3.42,3.42,0,0,1,128.12,55a4.77,4.77,0,0,1,3.19-1A7.32,7.32,0,0,1,136,55.54l-1.22,1.73a6,6,0,0,0-3.53-1.34,2.47,2.47,0,0,0-1.54.44,1.32,1.32,0,0,0-.58,1.1v0a1.35,1.35,0,0,0,.62,1.18,8.52,8.52,0,0,0,2.46.86,7.65,7.65,0,0,1,3.17,1.39,3,3,0,0,1,1,2.42v0a3.44,3.44,0,0,1-1.28,2.84A5.11,5.11,0,0,1,131.78,67.28Z"/><path d="M150.18,65.35a6.58,6.58,0,0,1-4.89,2,6.61,6.61,0,0,1-6.78-6.69v0a6.8,6.8,0,1,1,13.6,0v0A6.53,6.53,0,0,1,150.18,65.35Zm-8-1.48a4.14,4.14,0,0,0,3.17,1.35,4.09,4.09,0,0,0,3.15-1.33,4.61,4.61,0,0,0,1.24-3.26v0a4.64,4.64,0,0,0-1.26-3.28,4.41,4.41,0,0,0-6.32,0,4.61,4.61,0,0,0-1.23,3.26v0A4.64,4.64,0,0,0,142.16,63.87Z"/><path d="M155.05,67.1v-13h5.8a5.14,5.14,0,0,1,3.75,1.3,3.87,3.87,0,0,1,1.08,2.81v0a3.8,3.8,0,0,1-.84,2.54,4.48,4.48,0,0,1-2.26,1.4l3.51,4.93h-2.7l-3.19-4.54h-2.86V67.1Zm2.29-6.56h3.34a3,3,0,0,0,1.95-.6,1.94,1.94,0,0,0,.73-1.58v0a1.91,1.91,0,0,0-.71-1.6,3.14,3.14,0,0,0-2-.56h-3.32Z"/><path d="M171.72,67.1V56.21H167.6V54.09h10.55v2.12H174V67.1Z"/><path d="M180.58,67.1v-13h2.28v13Z"/><path d="M191.94,67.3a5.48,5.48,0,0,1-4.06-1.47,5.71,5.71,0,0,1-1.48-4.25V54.09h2.28v7.4a4,4,0,0,0,.88,2.75,3.08,3.08,0,0,0,2.41,1,3.13,3.13,0,0,0,2.41-.93,3.83,3.83,0,0,0,.86-2.69V54.09h2.29v7.38A5.92,5.92,0,0,1,196,65.81,5.55,5.55,0,0,1,191.94,67.3Z"/><path d="M201,67.1v-13h2.43l4,6.15,4-6.15h2.43v13h-2.29V57.77l-4.1,6.13h-.08l-4.07-6.09V67.1Z"/><path d="M222.87,67.1v-13h9.68v2.08h-7.39v3.55h6.56V61.8h-6.56v5.3Z"/><path d="M245.92,65.35a6.58,6.58,0,0,1-4.89,2,6.61,6.61,0,0,1-6.78-6.69v0a6.8,6.8,0,1,1,13.6,0v0A6.53,6.53,0,0,1,245.92,65.35Zm-8-1.48a4.14,4.14,0,0,0,3.17,1.35,4.09,4.09,0,0,0,3.15-1.33,4.61,4.61,0,0,0,1.24-3.26v0a4.64,4.64,0,0,0-1.26-3.28A4.17,4.17,0,0,0,241,56a4.12,4.12,0,0,0-3.15,1.33,4.61,4.61,0,0,0-1.23,3.26v0A4.64,4.64,0,0,0,237.9,63.87Z"/><path d="M250.79,67.1v-13h5.8a5.14,5.14,0,0,1,3.75,1.3,3.87,3.87,0,0,1,1.08,2.81v0a3.8,3.8,0,0,1-.84,2.54,4.47,4.47,0,0,1-2.27,1.4l3.51,4.93h-2.69l-3.2-4.54h-2.86V67.1Zm2.28-6.56h3.35a3,3,0,0,0,1.95-.6,1.93,1.93,0,0,0,.72-1.58v0a1.91,1.91,0,0,0-.7-1.6,3.16,3.16,0,0,0-2-.56h-3.33Z"/><path d="M281.07,65.35a6.78,6.78,0,0,1-11.66-4.72v0a6.8,6.8,0,1,1,13.6,0v0A6.54,6.54,0,0,1,281.07,65.35Zm-8-1.48a4.38,4.38,0,0,0,6.31,0,4.57,4.57,0,0,0,1.24-3.26v0a4.64,4.64,0,0,0-1.26-3.28A4.15,4.15,0,0,0,276.19,56,4.09,4.09,0,0,0,273,57.3a4.57,4.57,0,0,0-1.24,3.26v0A4.61,4.61,0,0,0,273.06,63.87Z"/><path d="M285.94,67.1v-13h9.65v2h-7.36v3.39h6.52v2h-6.52v3.49h7.45v2Z"/><path d="M298.63,67.1v-13h5.79a5.18,5.18,0,0,1,3.76,1.3,3.9,3.9,0,0,1,1.07,2.81v0a3.84,3.84,0,0,1-.83,2.54,4.51,4.51,0,0,1-2.27,1.4l3.51,4.93H307l-3.2-4.54h-2.86V67.1Zm2.28-6.56h3.35a3,3,0,0,0,1.95-.6,1.93,1.93,0,0,0,.72-1.58v0a1.91,1.91,0,0,0-.7-1.6,3.16,3.16,0,0,0-2-.56h-3.33Z"/><rect class="cls-2" width="73.06" height="72.89" rx="1.68"/><path class="cls-3" d="M0,62.62h73a0,0,0,0,1,0,0V71.3a1.59,1.59,0,0,1-1.59,1.59H1.61A1.59,1.59,0,0,1,0,71.3V62.62A0,0,0,0,1,0,62.62Z"/><path class="cls-4" d="M37.41,69.31c-5.52,0-10.57-3.65-14.22-10.29C19.84,52.93,18,44.91,18,36.41s1.85-16.52,5.2-22.6c3.65-6.64,8.7-10.29,14.22-10.29a2.92,2.92,0,0,1,0,5.83c-3.3,0-6.53,2.58-9.11,7.27-2.89,5.24-4.48,12.27-4.48,19.79S25.41,51,28.3,56.21c2.58,4.69,5.81,7.27,9.11,7.27s6.53-2.58,9.11-7.27C49.4,51,51,43.94,51,36.41a2.92,2.92,0,0,1,5.83,0c0,8.5-1.85,16.52-5.19,22.61C48,65.66,42.92,69.31,37.41,69.31Z"/><path class="cls-4" d="M0,49.81a160.08,160.08,0,0,1,27.72-4.16c3.23-.2,6.53-.3,9.78-.3a160.92,160.92,0,0,1,24.81,1.93l2.88.44-.9,5.77L61.41,53A155.58,155.58,0,0,0,37.5,51.19c-3.14,0-6.31.09-9.43.29A153.82,153.82,0,0,0,0,55.81"/><path class="cls-4" d="M0,35.69A159.83,159.83,0,0,1,27.8,31.6c3.06-.18,6.18-.27,9.26-.27,4.4,0,8.86.18,13.27.54l.56.05,1.27.11h.09c2.77.26,5.64.61,8.53,1l1.76.25v0c.66.1,1.33.21,2,.33h0l3.09.56,2.35.35a.47.47,0,0,1,.36.5L70,40.59,66.56,40c-1-.19-2-.37-3.14-.56l-2-.31c-.91-.15-1.88-.29-3-.45-1-.14-1.9-.26-2.72-.35l-2-.22a155.89,155.89,0,0,0-16.6-.88A154.14,154.14,0,0,0,0,41.71"/><path class="cls-4" d="M0,28.49a154.78,154.78,0,0,1,28.08-4.27c3-.17,6-.26,9-.26,1.38,0,4.81.07,6.64.11a.59.59,0,0,0,.6-.53l.57-5a.21.21,0,0,0-.2-.23c-2.53-.12-5.09-.18-7.61-.18-3.1,0-6.23.09-9.31.27A161.15,161.15,0,0,0,0,22.48"/><path class="cls-4" d="M40.12,69.37A33,33,0,0,1,14,13.07,33.07,33.07,0,0,1,53.41,7.54,33.28,33.28,0,0,1,64.94,18.23a.36.36,0,0,1-.1.49l-4.48,2.89a.35.35,0,0,1-.49-.1,27,27,0,0,0-45.6.83,24.88,24.88,0,0,0-3.21,7.73A27.09,27.09,0,0,0,43.71,62.72a24.79,24.79,0,0,0,7.74-3.21A27,27,0,0,0,64.36,36.43v-1.8l4.43-.24,1.48.22a.15.15,0,0,1,.13.15v1.67A33.07,33.07,0,0,1,40.12,69.37Z"/></g></g></svg>