<?xml version="1.0" encoding="UTF-8"?>
<svg width="188px" height="46px" viewBox="0 0 188 46" version="1.1" xmlns="http://www.w3.org/2000/svg" xmlns:xlink="http://www.w3.org/1999/xlink">
    <!-- Generator: Sketch 61.2 (89653) - https://sketch.com -->
    <title>logos/oeawards</title>
    <desc>Created with Sketch.</desc>
    <g id="Home-Page-HD" stroke="none" stroke-width="1" fill="none" fill-rule="evenodd">
        <g id="oeg_desktop" transform="translate(-296.000000, -608.000000)">
            <g id="Padding-Group-26" transform="translate(280.000000, 592.000000)">
                <g id="logos/oeawards" transform="translate(16.000000, 16.000000)">
                    <g id="oeawards">
                        <path d="M59.7593588,12.9421622 C58.1992244,14.5640988 55.8152154,15.0721631 53.7339885,14.2262494 C51.6527617,13.3803358 50.2910593,11.3498289 50.2924072,9.09432432 L50.2924072,9.06324324 C50.2195108,7.0394465 51.2506343,5.13669181 52.982148,4.09980589 C54.7136617,3.06291996 56.8701264,3.05684466 58.6074014,4.08395812 C60.3446765,5.11107158 61.3864061,7.00798651 61.324809,9.03216216 L61.324809,9.06324324 C61.3516193,10.5166333 60.7860936,11.9179096 59.7593588,12.9421622 L59.7593588,12.9421622 Z M53.2562437,11.7362162 C53.9277085,12.4335744 54.8521262,12.8273193 55.8178894,12.8273193 C56.7836526,12.8273193 57.7080703,12.4335744 58.3795351,11.7362162 C59.0497415,11.0230244 59.4160968,10.0750101 59.4004809,9.09432432 L59.4004809,9.06324324 C59.4219276,8.07343654 59.0578186,7.11433761 58.3857227,6.39027027 C57.7133935,5.69451087 56.7892989,5.30188343 55.8240769,5.30188343 C54.858855,5.30188343 53.9347604,5.69451087 53.2624312,6.39027027 C52.5908333,7.10671565 52.2283104,8.06079185 52.2538605,9.04459459 L52.2538605,9.07567568 C52.2296804,10.0599411 52.5894013,11.0147178 53.2562437,11.7362162 Z" id="Shape" fill="#1A1A1A" fill-rule="nonzero"></path>
                        <polygon id="Path" fill="#1A1A1A" fill-rule="nonzero" points="63.8122041 14.3656757 63.8122041 3.79810811 71.639455 3.79810811 71.639455 5.43297297 65.6684691 5.43297297 65.6684691 8.18675676 70.9588245 8.18675676 70.9588245 9.8527027 65.6684691 9.8527027 65.6684691 12.6997297 71.7137056 12.6997297 71.7137056 14.3656757"></polygon>
                        <path d="M73.4647823,14.3656757 L77.9631312,3.68621622 L80.7784665,3.68621622 L85.2706278,14.3656757 L82.1335399,14.3656757 L81.3662837,12.4697297 L77.2948758,12.4697297 L76.5461822,14.3656757 L73.4647823,14.3656757 Z M78.1487577,10.1883784 L80.5185894,10.1883784 L79.3429548,7.17351351 L78.1487577,10.1883784 Z" id="Shape" fill="#1A1A1A" fill-rule="nonzero"></path>
                        <polygon id="Path" fill="#1A1A1A" fill-rule="nonzero" points="87.9003366 14.4402703 84.3734331 3.76702703 87.4672081 3.76702703 89.3234731 9.89621622 91.3406145 3.72972973 93.8589474 3.72972973 95.9070264 9.89621622 97.7632915 3.76702703 100.789003 3.76702703 97.2620999 14.4402703 94.6695164 14.4402703 92.5409992 8.33594595 90.4310446 14.4402703"></polygon>
                        <path d="M99.8732461,14.3656757 L104.365407,3.68621622 L107.180743,3.68621622 L111.672904,14.3656757 L108.535816,14.3656757 L107.76856,12.4697297 L103.697152,12.4697297 L102.948458,14.3656757 L99.8732461,14.3656757 Z M104.569597,10.1883784 L106.939428,10.1883784 L105.763794,7.17351351 L104.569597,10.1883784 Z" id="Shape" fill="#1A1A1A" fill-rule="nonzero"></path>
                        <path d="M112.848539,14.3656757 L112.848539,3.79810811 L117.835704,3.79810811 C119.388779,3.79810811 120.533476,4.1772973 121.275982,4.94810811 C121.921796,5.60794393 122.260983,6.5106136 122.210302,7.43459459 L122.210302,7.43459459 C122.273141,8.87477625 121.39149,10.1869767 120.038472,10.667027 L122.556805,14.3656757 L119.178402,14.3656757 L117.056073,11.1518919 L115.77525,11.1518919 L115.77525,14.3656757 L112.848539,14.3656757 Z M115.77525,8.85189189 L117.699578,8.85189189 C118.110974,8.87411356 118.518039,8.75820781 118.85665,8.52243243 C119.134374,8.2981022 119.288478,7.95380559 119.271216,7.59621622 L119.271216,7.56513514 C119.29575,7.20268112 119.140613,6.85142353 118.85665,6.62648649 C118.511524,6.39585678 118.100963,6.28455715 117.687203,6.30945946 L115.77525,6.30945946 L115.77525,8.85189189 Z" id="Shape" fill="#1A1A1A" fill-rule="nonzero"></path>
                        <path d="M123.837628,14.3656757 L123.837628,3.79810811 L127.909036,3.79810811 C129.492516,3.70585081 131.051759,4.22134031 132.271258,5.24027027 C133.331079,6.20744855 133.91283,7.59465716 133.861459,9.03216216 L133.861459,9.03216216 C133.909387,10.4885605 133.319071,11.892795 132.246508,12.8737838 C131.026155,13.921938 129.450166,14.4563818 127.84716,14.3656757 L123.837628,14.3656757 Z M126.764339,11.7610811 L127.952348,11.7610811 C128.720096,11.7991753 129.474465,11.5487699 130.068491,11.0586486 C130.614396,10.5525237 130.905153,9.82682839 130.860497,9.08189189 L130.860497,9.08189189 C130.903263,8.33908092 130.612666,7.61606553 130.068491,7.11135135 C129.47715,6.61576658 128.721401,6.36268304 127.952348,6.4027027 L126.764339,6.4027027 L126.764339,11.7610811 Z" id="Shape" fill="#1A1A1A" fill-rule="nonzero"></path>
                        <path d="M139.51688,14.5459459 C137.705374,14.61288 135.936139,13.9863355 134.566839,12.792973 L136.194165,10.8348649 C137.150657,11.6496829 138.361837,12.1007537 139.61588,12.1091892 C140.420262,12.1091892 140.822453,11.8667568 140.822453,11.3818919 L140.822453,11.3818919 C140.817155,11.142178 140.675098,10.9268965 140.457387,10.8286486 C140.007397,10.6130391 139.530925,10.4583564 139.040438,10.3686486 C138.502592,10.2489117 137.971721,10.0994961 137.450238,9.92108108 C137.016485,9.77274052 136.601232,9.57458149 136.212728,9.33054054 C135.837056,9.10588767 135.530764,8.78096254 135.327908,8.39189189 C135.127882,7.96908584 135.030346,7.50470753 135.043281,7.03675676 L135.043281,7.03675676 C135.018004,6.0944714 135.426649,5.19312134 136.150852,4.59378378 C136.994845,3.92380698 138.052894,3.58569582 139.127064,3.6427027 C140.690068,3.59389955 142.221307,4.09275892 143.458349,5.05378378 L141.998087,7.13 C141.144645,6.4807071 140.110568,6.11558203 139.040438,6.08567568 C138.765976,6.06922831 138.492744,6.13407024 138.254619,6.27216216 C138.08543,6.37752954 137.982462,6.56326024 137.982367,6.76324324 L137.982367,6.79432432 C137.979018,7.04453144 138.125329,7.27236316 138.35362,7.37243243 C138.81809,7.58266888 139.306404,7.73506093 139.807694,7.82621622 C140.861313,8.01009136 141.867228,8.40544216 142.765343,8.98864865 C143.427574,9.49161226 143.794698,10.2946244 143.742976,11.127027 L143.742976,11.1581081 C143.783906,12.1391462 143.353491,13.0802716 142.585904,13.6881081 C141.687148,14.3107567 140.606586,14.6127899 139.51688,14.5459459 Z" id="Path" fill="#1A1A1A" fill-rule="nonzero"></path>
                        <rect id="Rectangle" fill="#E5E5E5" fill-rule="nonzero" x="0" y="0" width="45.1876783" height="45.4591892" rx="1.33799456"></rect>
                        <path d="M0,39.0751351 L45.1691157,39.0751351 L45.1691157,44.4708108 C45.1691157,45.0166771 44.7286443,45.4591892 44.1852952,45.4591892 L0.983820465,45.4591892 C0.440471426,45.4591892 0,45.0166771 0,44.4708108 L0,39.0751351 Z" id="Path" fill="#FFCF25" fill-rule="nonzero"></path>
                        <path d="M22.6154956,43.5135135 C19.1814053,43.5135135 16.0876302,41.2508108 13.8167994,37.1232432 C11.7563452,33.3375676 10.6054609,28.3459459 10.6054609,23.0683784 C10.6054609,17.7908108 11.7563452,12.7991892 13.8167994,9.01972973 C16.0876302,4.89216216 19.1814053,2.61702703 22.6154956,2.61702703 C23.5706545,2.67325467 24.3165726,3.46782407 24.3165726,4.42905405 C24.3165726,5.39028404 23.5706545,6.18485344 22.6154956,6.24108108 C20.5736041,6.24108108 18.5750254,7.85108108 16.9786375,10.7664865 C15.196623,14.0237838 14.2313652,18.3937838 14.2313652,23.0683784 C14.2313652,27.742973 15.2151857,32.1191892 16.9972001,35.3764865 C18.593588,38.2918919 20.5921667,39.8956757 22.6340582,39.8956757 C24.6759498,39.8956757 26.6745285,38.2918919 28.2709164,35.3764865 C30.0529308,32.1191892 31.0367513,27.7491892 31.0367513,23.0683784 C31.0927196,22.1087943 31.8836249,21.3594205 32.8404221,21.3594205 C33.7972194,21.3594205 34.5881246,22.1087943 34.644093,23.0683784 C34.644093,28.3459459 33.5055838,33.3375676 31.4327545,37.1232432 C29.155736,41.2508108 26.0310232,43.5135135 22.6154956,43.5135135 Z" id="Path" fill="#0D6AE5" fill-rule="nonzero"></path>
                        <path d="M0,31.2737838 C5.45925811,29.9706167 11.0194267,29.1387585 16.6197596,28.7872973 C18.6245258,28.662973 20.6602298,28.6008108 22.6711835,28.6008108 C27.8122853,28.6172134 32.9445196,29.030775 38.0224953,29.8378378 L39.8045098,30.1175676 L39.2476302,33.7043243 L37.4656158,33.4245946 C32.5711213,32.6571253 27.6249358,32.2705704 22.6711835,32.2683784 C20.7344804,32.2683784 18.773027,32.3305405 16.8425114,32.4486486 C11.164024,32.7928889 5.52747312,33.6458251 0,34.9972973" id="Path" fill="#0D6AE5" fill-rule="nonzero"></path>
                        <path d="M0,22.4964865 C5.47782727,21.2143734 11.0544034,20.4033339 16.66926,20.0721622 C18.5626503,19.9602703 20.4931659,19.8918919 22.4051189,19.8918919 C25.1214534,19.8918919 27.8811007,20.01 30.6098103,20.2337838 L30.9563131,20.2337838 L31.742132,20.2959459 L31.7978199,20.2959459 C33.5179589,20.4575676 35.2937857,20.6689189 37.0758002,20.9175676 L38.164809,21.072973 L38.164809,21.072973 L39.402319,21.2718919 L39.402319,21.2718919 C40.0520118,21.3837838 40.6893294,21.5018919 41.314272,21.62 L42.7683462,21.8375676 C42.9101934,21.870763 43.0071518,22.002395 42.9972856,22.1483784 L42.743596,25.5735135 L40.6336415,25.1818919 C40.0148865,25.0637838 39.3961314,24.9518919 38.6907507,24.8275676 L37.4532407,24.6348649 L35.5969757,24.3551351 L33.9325247,24.2432432 L32.6950147,24.1127027 C21.756837,22.9208232 10.6959298,23.6358367 0,26.2262162" id="Path" fill="#0D6AE5" fill-rule="nonzero"></path>
                        <path d="M-1.73127164e-14,18.027027 C5.52824341,16.6839998 11.1647788,15.8393872 16.8425114,15.5032432 C18.6987764,15.3975676 20.5550414,15.3416216 22.4113064,15.3416216 C23.2590008,15.3416216 25.387518,15.3851351 26.5198397,15.41 C26.7067266,15.4081518 26.8631097,15.2670212 26.8849052,15.0805405 L27.2375955,11.9724324 C27.2410311,11.9361301 27.2298928,11.8999528 27.2066555,11.8719388 C27.1834182,11.8439249 27.1500066,11.8263946 27.1138445,11.8232432 C25.5483943,11.7548649 23.9705691,11.7113514 22.4113064,11.7113514 C20.4931659,11.7113514 18.5502752,11.7735135 16.6445098,11.8854054 C11.038402,12.2147596 5.47024157,13.0216203 -1.73127164e-14,14.2972973" id="Path" fill="#0D6AE5" fill-rule="nonzero"></path>
                        <path d="M24.2985092,43.5508108 C15.7301398,44.3099247 7.60707316,39.5931219 3.98475133,31.7552668 C0.362429506,23.9174117 2.01773377,14.6394933 8.12425327,8.55351351 C14.5756616,2.05781804 24.5363302,0.656559298 32.5155757,5.12216216 C35.3878348,6.73294683 37.8341861,9.01158107 39.649821,11.7672973 C39.6821409,11.8147678 39.6938088,11.8734206 39.6821329,11.9297245 C39.670457,11.9860285 39.6364458,12.0351207 39.5879455,12.0656757 L36.8159231,13.8683784 C36.7659652,13.9008636 36.7051458,13.9119156 36.6470263,13.8990701 C36.5889068,13.8862245 36.53832,13.8505496 36.5065456,13.8 C33.3431467,9.0193938 27.9714243,6.18959177 22.2582662,6.29406304 C16.5451082,6.39853431 11.2794496,9.42285235 8.29131713,14.3159459 C7.36669681,15.7964601 6.69729968,17.4230655 6.3113011,19.1272973 C4.95442937,24.8222965 6.63986867,30.8165502 10.7621302,34.9566416 C14.8843918,39.0967331 20.8515188,40.7881451 26.5198397,39.4232432 C28.2173657,39.0359369 29.8368836,38.3611647 31.3090035,37.4278378 C36.2730696,34.3655946 39.2978246,28.9330019 39.2971306,23.0808108 L39.2971306,21.9556757 L42.0382153,21.8127027 L42.9477852,21.9432432 C42.9951179,21.9523124 43.0290765,21.9943012 43.0282411,22.0427027 L43.0282411,23.0808108 C43.0421145,33.7624642 34.8944684,42.6671551 24.2985092,43.5508108 Z" id="Path" fill="#0D6AE5" fill-rule="nonzero"></path>
                        <path d="M57.5937163,28.1967568 C56.4405536,29.3999848 54.6750148,29.777921 53.1337881,29.1514616 C51.5925615,28.5250022 50.5853257,27.0200216 50.5893972,25.3497297 L50.5893972,25.3497297 C50.5893972,23.0838696 52.4177815,21.247027 54.6731926,21.247027 C56.9286037,21.247027 58.7569757,23.0838696 58.7569757,25.3497297 L58.7569757,25.3497297 C58.7693165,26.4179024 58.349514,27.4453506 57.5937163,28.1967568 Z M52.7798023,27.3078378 C53.2774024,27.8232145 53.9616013,28.1140867 54.6762864,28.1140867 C55.3909715,28.1140867 56.0751704,27.8232145 56.5727705,27.3078378 C57.0678073,26.7766601 57.3345763,26.0709138 57.3152765,25.3435135 L57.3152765,25.3435135 C57.3301515,24.6090086 57.0593416,23.8976266 56.5603954,23.3605405 C56.0744406,22.826277 55.3808994,22.5312344 54.6608175,22.5524324 C53.9566857,22.5422577 53.2815783,22.8338987 52.8045525,23.3543243 C52.3095157,23.8855021 52.0427467,24.5912484 52.0620465,25.3186486 L52.0620465,25.3186486 C52.0321636,26.050651 52.2899601,26.7651087 52.7798023,27.3078378 L52.7798023,27.3078378 Z" id="Shape" fill="#1A1A1A" fill-rule="nonzero"></path>
                        <path d="M60.7431793,29.2472973 L60.7431793,21.4086486 L63.8369543,21.4086486 C64.6209973,21.3629383 65.3929996,21.6185015 65.9964093,22.1235135 C66.5350531,22.6041931 66.8303455,23.3024862 66.8007908,24.0256757 L66.8007908,24.0256757 C66.838844,24.7873292 66.5095014,25.5207925 65.9159711,25.9962162 C65.2732361,26.4969246 64.4766033,26.7563701 63.6637029,26.7297297 L62.1168154,26.7297297 L62.1168154,29.2162162 L60.7431793,29.2472973 Z M62.1168154,25.5175676 L63.731766,25.5175676 C64.1781606,25.5442728 64.6187068,25.4048578 64.969276,25.1259459 C65.2722355,24.8795009 65.4418996,24.5040499 65.4271547,24.1127027 L65.4271547,24.1127027 C65.4754073,23.6873398 65.3024204,23.2669599 64.969276,23 C64.6104936,22.7400612 64.1733102,22.6126907 63.731766,22.6394595 L62.135378,22.6394595 L62.1168154,25.5175676 Z" id="Shape" fill="#1A1A1A" fill-rule="nonzero"></path>
                        <polygon id="Path" fill="#1A1A1A" fill-rule="nonzero" points="68.4961795 29.2472973 68.4961795 21.4086486 74.2815389 21.4086486 74.2815389 22.6518919 69.8698157 22.6518919 69.8698157 24.6783784 73.7803473 24.6783784 73.7803473 25.9216216 69.8698157 25.9216216 69.8698157 28.0289189 74.3372268 28.0289189 74.3372268 29.2721622"></polygon>
                        <polygon id="Path" fill="#1A1A1A" fill-rule="nonzero" points="76.3358055 29.2472973 76.3358055 21.4086486 77.5733155 21.4086486 81.7560994 26.8291892 81.7560994 21.4086486 83.1049853 21.4086486 83.1049853 29.2472973 81.9602885 29.2472973 77.6290035 23.6527027 77.6290035 29.2472973"></polygon>
                        <polygon id="Path" fill="#1A1A1A" fill-rule="nonzero" points="89.0512209 29.2472973 89.0512209 21.4086486 94.8365803 21.4086486 94.8365803 22.6518919 90.4186695 22.6518919 90.4186695 24.6783784 94.3353887 24.6783784 94.3353887 25.9216216 90.4186695 25.9216216 90.4186695 28.0289189 94.8922682 28.0289189 94.8922682 29.2721622"></polygon>
                        <path d="M96.8846594,29.2472973 L96.8846594,21.4086486 L99.7989955,21.4086486 C100.900975,21.3656254 101.974487,21.7661421 102.781395,22.5213514 C103.550197,23.2385558 103.975987,24.2525134 103.950842,25.3062162 L103.950842,25.3062162 C103.974791,26.3620523 103.552062,27.378592 102.787582,28.1035135 C101.981298,28.8603862 100.907926,29.2630878 99.805183,29.2224324 L96.8846594,29.2472973 Z M98.2582955,28.0040541 L99.7989955,28.0040541 C100.525769,28.035892 101.234065,27.7687696 101.760449,27.2643243 C102.263761,26.7607693 102.535124,26.0690815 102.509142,25.3559459 L102.509142,25.3559459 C102.534087,24.6393181 102.26314,23.9441912 101.760449,23.4351351 C101.23627,22.9265397 100.527016,22.6568085 99.7989955,22.6891892 L98.2582955,22.6891892 L98.2582955,28.0040541 Z" id="Shape" fill="#1A1A1A" fill-rule="nonzero"></path>
                        <path d="M109.136009,29.3716216 C108.237532,29.4238922 107.35682,29.1050077 106.698114,28.4889189 C106.064467,27.7913802 105.74252,26.8637404 105.807107,25.9216216 L105.807107,21.4086486 L107.180743,21.4086486 L107.180743,25.8656757 C107.141707,26.465723 107.329538,27.0584644 107.706684,27.5254054 C108.520833,28.292774 109.788309,28.292774 110.602458,27.5254054 C110.972236,27.0695845 111.155812,26.4896422 111.116025,25.902973 L111.116025,21.4086486 L112.489661,21.4086486 L112.489661,25.8532432 C112.555682,26.810549 112.234428,27.7541207 111.598653,28.4702703 C110.936168,29.0983045 110.045366,29.4243463 109.136009,29.3716216 L109.136009,29.3716216 Z" id="Path" fill="#1A1A1A" fill-rule="nonzero"></path>
                        <path d="M118.32452,29.3840541 C117.259569,29.4121762 116.231648,28.9905346 115.490622,28.2216216 C114.737039,27.4604411 114.325755,26.4229755 114.352113,25.3497297 L114.352113,25.3497297 C114.326683,24.2729815 114.737575,23.2320168 115.490622,22.4654054 C116.246657,21.6832017 117.295464,21.2567716 118.380208,21.2905405 C118.969361,21.274015 119.555398,21.3820234 120.100347,21.6075676 C120.59645,21.8270688 121.049172,22.1344932 121.436858,22.5151351 L120.552038,23.5283784 C119.975858,22.9340126 119.193202,22.5865339 118.367833,22.5586486 C117.661461,22.5368839 116.981762,22.8305088 116.511568,23.3605405 C116.018204,23.8923429 115.753608,24.5982219 115.77525,25.3248649 L115.77525,25.3248649 C115.755658,26.0548774 116.01975,26.7638725 116.511568,27.3016216 C116.979567,27.8353936 117.660135,28.1316728 118.367833,28.1097297 C118.775556,28.1191555 119.179958,28.0340716 119.549655,27.8610811 C119.939841,27.6605624 120.296762,27.4005438 120.607726,27.0902703 L121.492546,27.972973 C121.095189,28.4038751 120.620846,28.7560092 120.09416,29.0110811 C119.538845,29.2648974 118.934551,29.3922598 118.32452,29.3840541 L118.32452,29.3840541 Z" id="Path" fill="#1A1A1A" fill-rule="nonzero"></path>
                        <path d="M122.562992,29.2472973 L126.00327,21.3527027 L127.271718,21.3527027 L130.705808,29.2472973 L129.257921,29.2472973 L128.465915,27.3824324 L124.753385,27.3824324 L123.949003,29.2472973 L122.562992,29.2472973 Z M125.273139,26.1391892 L127.964723,26.1391892 L126.615838,23.0310811 L125.273139,26.1391892 Z" id="Shape" fill="#1A1A1A" fill-rule="nonzero"></path>
                        <polygon id="Path" fill="#1A1A1A" fill-rule="nonzero" points="133.242704 29.2472973 133.242704 22.682973 130.767684 22.682973 130.767684 21.4086486 137.103735 21.4086486 137.103735 22.682973 134.628715 22.682973 134.628715 29.2472973"></polygon>
                        <polygon id="Path" fill="#1A1A1A" fill-rule="nonzero" points="138.786749 29.2472973 138.786749 21.4086486 140.154197 21.4086486 140.154197 29.2472973"></polygon>
                        <path d="M149.212771,28.1967568 C147.57407,29.7715504 144.991861,29.7715504 143.353161,28.1967568 C142.599222,27.4404395 142.18569,26.407435 142.208464,25.3372973 L142.208464,25.3372973 C142.150207,23.8345766 142.91499,22.4202672 144.201544,21.6515016 C145.488098,20.8827359 147.090208,20.8827359 148.376762,21.6515016 C149.663317,22.4202672 150.428099,23.8345766 150.369842,25.3372973 L150.369842,25.3372973 C150.387908,26.4089898 149.970022,27.4417076 149.212771,28.1967568 L149.212771,28.1967568 Z M144.398857,27.3078378 C144.896457,27.8232145 145.580656,28.1140867 146.295341,28.1140867 C147.010026,28.1140867 147.694225,27.8232145 148.191825,27.3078378 C148.685189,26.7760355 148.949785,26.0701564 148.928143,25.3435135 L148.928143,25.3435135 C148.945349,24.6097581 148.676711,23.8982495 148.17945,23.3605405 C147.68185,22.8451639 146.997651,22.5542917 146.282966,22.5542917 C145.56828,22.5542917 144.884082,22.8451639 144.386481,23.3605405 C143.891445,23.8917183 143.624676,24.5974646 143.643975,25.3248649 L143.643975,25.3248649 C143.626448,26.0598315 143.897628,26.772186 144.398857,27.3078378 Z" id="Shape" fill="#1A1A1A" fill-rule="nonzero"></path>
                        <polygon id="Path" fill="#1A1A1A" fill-rule="nonzero" points="152.362234 29.2472973 152.362234 21.4086486 153.599744 21.4086486 157.782527 26.8291892 157.782527 21.4086486 159.131413 21.4086486 159.131413 29.2472973 157.986717 29.2472973 153.655431 23.6527027 153.655431 29.2472973"></polygon>
                        <path d="M49.9335293,41.0581081 L52.7921774,34.4875676 L53.8316858,34.4875676 L56.690334,41.0581081 L55.4528239,41.0581081 L54.7907561,39.4854054 L51.696981,39.4854054 L51.0287256,41.0581081 L49.9335293,41.0581081 Z M52.1857975,38.4659459 L54.4504408,38.4659459 L53.3243067,35.8551351 L52.1857975,38.4659459 Z" id="Shape" fill="#1A1A1A" fill-rule="nonzero"></path>
                        <polygon id="Path" fill="#1A1A1A" fill-rule="nonzero" points="59.233417 41.1078378 56.9687737 34.5310811 58.2062837 34.5310811 59.7593588 39.3735135 61.3557467 34.5124324 62.3210045 34.5124324 63.9173925 39.3735135 65.46428 34.5310811 66.6646647 34.5310811 64.4000214 41.1078378 63.4162009 41.1078378 61.8136254 36.4145946 60.2172375 41.1078378"></polygon>
                        <path d="M66.9121667,41.0581081 L69.7708149,34.4875676 L70.8288859,34.4875676 L73.6875341,41.0581081 L72.450024,41.0581081 L71.7941437,39.4854054 L68.7003687,39.4854054 L68.063051,41.0581081 L66.9121667,41.0581081 Z M69.1706225,38.4659459 L71.4043281,38.4659459 L70.2843815,35.8551351 L69.1706225,38.4659459 Z" id="Shape" fill="#1A1A1A" fill-rule="nonzero"></path>
                        <path d="M75.0178573,41.0581081 L75.0178573,34.5310811 L77.9136308,34.5310811 C78.5938926,34.4939216 79.261176,34.7285528 79.7698958,35.1837838 C80.1306461,35.5624511 80.3246422,36.0709699 80.3082127,36.5948649 L80.3082127,36.5948649 C80.3268533,37.0558746 80.1796947,37.508222 79.8936468,37.8691892 C79.5949985,38.2122735 79.2004241,38.4570465 78.7613251,38.5716216 L80.5124018,41.0581081 L79.2006412,41.0581081 L77.6042533,38.782973 L76.1749292,38.782973 L76.1749292,41.0581081 L75.0178573,41.0581081 Z M76.1625541,37.7697297 L77.8331926,37.7697297 C78.181919,37.7886281 78.5260506,37.6829285 78.804638,37.4713514 C79.0554858,37.2848283 79.2026195,36.9891974 79.2006412,36.6756757 L79.2006412,36.6756757 C79.2179392,36.3670135 79.0867597,36.0687582 78.8479508,35.8737838 C78.5566063,35.6707326 78.205674,35.5721915 77.8517553,35.5940541 L76.1934919,35.5940541 L76.1625541,37.7697297 Z" id="Shape" fill="#1A1A1A" fill-rule="nonzero"></path>
                        <path d="M82.022164,41.0581081 L82.022164,34.5310811 L84.4414961,34.5310811 C85.3568449,34.5004392 86.246925,34.8357656 86.9165162,35.4635135 C87.5524696,36.0602914 87.9038007,36.9019625 87.881774,37.7759459 L87.881774,37.7759459 C87.9027982,38.6551762 87.552063,39.5021958 86.9165162,40.107027 C86.246925,40.734775 85.3568449,41.0701014 84.4414961,41.0394595 L82.022164,41.0581081 Z M83.1668608,40.0137838 L84.4414961,40.0137838 C85.0494159,40.0389086 85.6413528,39.8145014 86.0811969,39.3921622 C86.4982517,38.9734559 86.7225164,38.3989317 86.6999519,37.807027 L86.6999519,37.807027 C86.7212455,37.2135026 86.4973015,36.6375498 86.0811969,36.2156757 C85.6421354,35.7920891 85.0496487,35.5674734 84.4414961,35.5940541 L83.1668608,35.5940541 L83.1668608,40.0137838 Z" id="Shape" fill="#1A1A1A" fill-rule="nonzero"></path>
                        <path d="M91.7056799,41.1513514 C90.7028422,41.1629002 89.7334528,40.7893569 88.995533,40.107027 L89.6823511,39.2864865 C90.2384866,39.8161637 90.9705075,40.119632 91.7366177,40.1381081 C92.0316404,40.1544555 92.3241896,40.0760809 92.5719369,39.9143243 C92.7803532,39.7788519 92.9007252,39.5417349 92.887502,39.2927027 L92.887502,39.2927027 C92.8930838,39.0617321 92.7811335,38.8438234 92.5904996,38.7145946 C92.2276498,38.5074651 91.8320836,38.3644856 91.4210526,38.2918919 C91.1067624,38.2159697 90.7969085,38.1225829 90.4929201,38.0121622 C90.2541719,37.9246617 90.0291337,37.803248 89.8246647,37.6516216 C89.6323595,37.5134007 89.4823392,37.32393 89.3915362,37.1045946 C89.2940993,36.8640801 89.2477342,36.6057733 89.2554101,36.3462162 L89.2554101,36.3462162 C89.2414944,35.8190517 89.4696679,35.3147444 89.8741651,34.9786486 C90.3258056,34.6155249 90.8925122,34.4279543 91.470553,34.4502703 C92.3277355,34.438219 93.1619744,34.7285857 93.8280096,35.2708108 L93.2092546,36.1410811 C92.7178106,35.7198285 92.103051,35.4710395 91.4581779,35.4324324 C91.1837618,35.4193223 90.9124735,35.495635 90.6847342,35.65 C90.5044745,35.7756446 90.3978778,35.9828416 90.4001069,36.2032432 L90.4001069,36.2032432 C90.381546,36.4518515 90.5003784,36.6906174 90.7094844,36.8248649 C91.0985699,37.0286136 91.5156251,37.1731643 91.9469944,37.2537838 C92.5186217,37.3628483 93.0581305,37.6009068 93.5248197,37.95 C93.8782039,38.2618705 94.0659509,38.7219115 94.0321988,39.1932432 L94.0321988,39.1932432 C94.061802,39.7393827 93.8323069,40.2673614 93.4134438,40.6167568 C92.925343,40.9928473 92.3200365,41.1823311 91.7056799,41.1513514 Z" id="Path" fill="#1A1A1A" fill-rule="nonzero"></path>
                        <polygon id="Path" fill="#1A1A1A" fill-rule="nonzero" points="98.6233609 41.0581081 98.6233609 34.5310811 103.455838 34.5310811 103.455838 35.5754054 99.7433075 35.5754054 99.7433075 37.3594595 103.022709 37.3594595 103.022709 38.4037838 99.7433075 38.4037838 99.7433075 41.0581081"></polygon>
                        <path d="M110.330206,40.1816216 C109.369646,41.1798785 107.902144,41.4925635 106.620935,40.9719669 C105.339726,40.4513704 104.501226,39.2016816 104.501533,37.8132432 L104.501533,37.8132432 C104.501533,35.9250265 106.025177,34.3943243 107.904686,34.3943243 C109.784195,34.3943243 111.307839,35.9250265 111.307839,37.8132432 L111.307839,37.8132432 C111.315066,38.7032134 110.962232,39.5579772 110.330206,40.1816216 L110.330206,40.1816216 Z M106.326861,39.4418919 C106.740633,39.8710759 107.30995,40.1133565 107.904686,40.1133565 C108.499422,40.1133565 109.06874,39.8710759 109.482511,39.4418919 C109.894809,38.9974316 110.116992,38.4081523 110.101266,37.8008108 L110.101266,37.8008108 C110.116328,37.1935827 109.894237,36.604547 109.482511,36.1597297 C109.06874,35.7305457 108.499422,35.4882651 107.904686,35.4882651 C107.30995,35.4882651 106.740633,35.7305457 106.326861,36.1597297 C105.914357,36.6015605 105.692009,37.1890429 105.708106,37.7945946 L105.708106,37.7945946 C105.692738,38.4037298 105.91476,38.9948127 106.326861,39.4418919 L106.326861,39.4418919 Z" id="Shape" fill="#1A1A1A" fill-rule="nonzero"></path>
                        <path d="M112.966102,41.0581081 L112.966102,34.5310811 L115.861876,34.5310811 C116.542137,34.4939216 117.209421,34.7285528 117.718141,35.1837838 C118.078891,35.5624511 118.272887,36.0709699 118.256457,36.5948649 L118.256457,36.5948649 C118.273352,37.056657 118.123969,37.5090898 117.835704,37.8691892 C117.537056,38.2122735 117.142481,38.4570465 116.703382,38.5716216 L118.460647,41.0581081 L117.130323,41.0581081 L115.533935,38.782973 L114.104611,38.782973 L114.104611,41.0581081 L112.966102,41.0581081 Z M114.104611,37.7697297 L115.77525,37.7697297 C116.12587,37.7884985 116.471906,37.6828868 116.752883,37.4713514 C116.990578,37.2777185 117.123559,36.982884 117.111761,36.6756757 L117.111761,36.6756757 C117.129059,36.3670135 116.997879,36.0687582 116.75907,35.8737838 C116.470052,35.6707461 116.121057,35.5721366 115.769062,35.5940541 L114.104611,35.5940541 L114.104611,37.7697297 Z" id="Shape" fill="#1A1A1A" fill-rule="nonzero"></path>
                        <polygon id="Path" fill="#1A1A1A" fill-rule="nonzero" points="122.92187 41.0581081 122.92187 34.5310811 127.741972 34.5310811 127.741972 35.5567568 124.066567 35.5567568 124.066567 37.2537838 127.321218 37.2537838 127.321218 38.2794595 124.066567 38.2794595 124.066567 40.0324324 127.779097 40.0324324 127.779097 41.0581081"></polygon>
                        <polygon id="Path" fill="#1A1A1A" fill-rule="nonzero" points="128.985669 41.0581081 131.355501 37.7386486 129.078483 34.5310811 130.427368 34.5310811 132.042319 36.8745946 133.651082 34.5310811 134.962843 34.5310811 132.698199 37.72 135.055656 41.0581081 133.70677 41.0581081 131.999006 38.5716216 130.285055 41.0581081"></polygon>
                        <path d="M139.158002,41.17 C138.271739,41.19238 137.416689,40.8406591 136.800545,40.2002703 C136.174577,39.5673158 135.832677,38.7052374 135.85385,37.8132432 L135.85385,37.8132432 C135.837218,36.9239093 136.178563,36.0654724 136.800545,35.4324324 C137.427294,34.765031 138.306839,34.3966679 139.219877,34.4191892 C139.709218,34.4052603 140.196058,34.4941868 140.649201,34.6802703 C141.061402,34.8662986 141.438267,35.122913 141.76296,35.4386486 L141.026642,36.2840541 C140.547058,35.7885427 139.89507,35.4989134 139.207502,35.4759459 C138.625991,35.4636733 138.068009,35.7065104 137.679177,36.1410811 C137.268963,36.5843455 137.046985,37.1708513 137.060422,37.7759459 L137.060422,37.7759459 C137.047013,38.3847464 137.268767,38.9751155 137.679177,39.4232432 C138.062401,39.8762681 138.628228,40.131956 139.219877,40.1194595 C139.559763,40.1273401 139.896744,40.0549475 140.203698,39.9081081 C140.527913,39.7465064 140.82617,39.5369688 141.088517,39.2864865 L141.818648,40.0324324 C141.490234,40.3923426 141.09782,40.6874894 140.661576,40.9027027 C140.186404,41.1030152 139.672742,41.1943312 139.158002,41.17 L139.158002,41.17 Z" id="Path" fill="#1A1A1A" fill-rule="nonzero"></path>
                        <polygon id="Path" fill="#1A1A1A" fill-rule="nonzero" points="143.217034 41.0581081 143.217034 34.5310811 148.037136 34.5310811 148.037136 35.5567568 144.361731 35.5567568 144.361731 37.2537838 147.616383 37.2537838 147.616383 38.2794595 144.361731 38.2794595 144.361731 40.0324324 148.074261 40.0324324 148.074261 41.0581081"></polygon>
                        <polygon id="Path" fill="#1A1A1A" fill-rule="nonzero" points="149.738712 41.0581081 149.738712 34.5310811 150.883409 34.5310811 150.883409 40.0137838 154.292749 40.0137838 154.292749 41.0581081"></polygon>
                        <polygon id="Path" fill="#1A1A1A" fill-rule="nonzero" points="155.672573 41.0581081 155.672573 34.5310811 156.811082 34.5310811 156.811082 40.0137838 160.257547 40.0137838 160.257547 41.0581081"></polygon>
                        <polygon id="Path" fill="#1A1A1A" fill-rule="nonzero" points="161.587871 41.0581081 161.587871 34.5310811 166.407972 34.5310811 166.407972 35.5567568 162.732567 35.5567568 162.732567 37.2537838 165.987219 37.2537838 165.987219 38.2794595 162.732567 38.2794595 162.732567 40.0324324 166.445098 40.0324324 166.445098 41.0581081"></polygon>
                        <polygon id="Path" fill="#1A1A1A" fill-rule="nonzero" points="168.121924 41.0581081 168.121924 34.5310811 169.179995 34.5310811 172.663585 39.0440541 172.663585 34.5310811 173.783532 34.5310811 173.783532 41.0581081 172.830649 41.0581081 169.248058 36.4145946 169.248058 41.0581081"></polygon>
                        <path d="M178.758322,41.17 C177.872059,41.19238 177.01701,40.8406591 176.400866,40.2002703 C175.774898,39.5673158 175.432998,38.7052374 175.45417,37.8132432 L175.45417,37.8132432 C175.437539,36.9239093 175.778884,36.0654724 176.400866,35.4324324 C177.027615,34.765031 177.90716,34.3966679 178.820198,34.4191892 C179.311502,34.4058474 179.800243,34.4947363 180.255709,34.6802703 C180.660278,34.8673366 181.030538,35.1216249 181.350906,35.4324324 L180.614587,36.2778378 C180.135003,35.7823265 179.483016,35.4926972 178.795448,35.4697297 C178.213937,35.4574571 177.655954,35.7002942 177.267123,36.1348649 C176.856909,36.5781292 176.634931,37.1646351 176.648368,37.7697297 L176.648368,37.7697297 C176.634959,38.3785301 176.856712,38.9688993 177.267123,39.417027 C177.651897,39.8757997 178.223229,40.1342048 178.820198,40.1194595 C179.160084,40.1273401 179.497064,40.0549475 179.804018,39.9081081 C180.128233,39.7465064 180.42649,39.5369688 180.688838,39.2864865 L181.418969,40.0324324 C181.090554,40.3923426 180.698141,40.6874894 180.261897,40.9027027 C179.786725,41.1030152 179.273063,41.1943312 178.758322,41.17 L178.758322,41.17 Z" id="Path" fill="#1A1A1A" fill-rule="nonzero"></path>
                        <polygon id="Path" fill="#1A1A1A" fill-rule="nonzero" points="182.817355 41.0581081 182.817355 34.5310811 187.637457 34.5310811 187.637457 35.5567568 183.962052 35.5567568 183.962052 37.2537838 187.216703 37.2537838 187.216703 38.2794595 183.962052 38.2794595 183.962052 40.0324324 187.674582 40.0324324 187.674582 41.0581081"></polygon>
                    </g>
                </g>
            </g>
        </g>
    </g>
</svg>