<svg xmlns="http://www.w3.org/2000/svg" viewBox="0 0 232.37 73.13"><defs><style>.cls-1{fill:#1a1a1a;}.cls-2{fill:#f1f1f1;}.cls-3{fill:#ffcf25;}.cls-4{fill:#0d6ae5;}</style></defs><title>oeawards</title><g id="Layer_2" data-name="Layer 2"><g id="Layer_1-2" data-name="Layer 1"><path class="cls-1" d="M96.58,32.38a8.89,8.89,0,0,1-15.3-6.18v-.05a8.92,8.92,0,1,1,17.83,0v0A8.57,8.57,0,0,1,96.58,32.38ZM86.07,30.45a5.77,5.77,0,0,0,8.28,0A6,6,0,0,0,96,26.2v-.05a6.11,6.11,0,0,0-1.64-4.3,5.43,5.43,0,0,0-4.16-1.77,5.38,5.38,0,0,0-4.12,1.74,6,6,0,0,0-1.63,4.28v0A6.07,6.07,0,0,0,86.07,30.45Z"/><path class="cls-1" d="M103.13,34.67v-17h12.65V20.3h-9.65v4.44h8.55v2.67h-8.55V32h9.77v2.67Z"/><path class="cls-1" d="M118.73,34.67,126,17.5h4.55l7.26,17.17h-5.07l-1.24-3h-6.58l-1.21,3ZM126.3,28h3.83l-1.9-4.85Z"/><path class="cls-1" d="M142.06,34.8l-5.7-17.18h5l3,9.87,3.29-9.92h4.07L155,27.49l3-9.87h4.89l-5.7,17.18H153L149.59,25l-3.41,9.82Z"/><path class="cls-1" d="M161.41,34.67l7.26-17.17h4.55l7.26,17.17h-5.07l-1.24-3h-6.58l-1.21,3ZM169,28h3.83l-1.9-4.85Z"/><path class="cls-1" d="M182.38,34.67v-17h8.06q3.76,0,5.56,1.85a5.31,5.31,0,0,1,1.51,4v0A5.28,5.28,0,0,1,194,28.73l4.07,5.94h-5.46l-3.43-5.16h-2.07v5.16Zm4.73-8.86h3.11a2.91,2.91,0,0,0,1.87-.54,1.78,1.78,0,0,0,.67-1.48v-.05a1.77,1.77,0,0,0-.67-1.51,3,3,0,0,0-1.89-.52h-3.09Z"/><path class="cls-1" d="M200.14,34.67v-17h6.58A10.11,10.11,0,0,1,213.77,20a7.84,7.84,0,0,1,2.57,6.1v.05a8,8,0,0,1-2.61,6.18,10.11,10.11,0,0,1-7.11,2.39Zm4.73-4.19h1.92a4.94,4.94,0,0,0,3.42-1.13,4,4,0,0,0,1.28-3.18v-.05A4,4,0,0,0,210.21,23a4.9,4.9,0,0,0-3.42-1.15h-1.92Z"/><path class="cls-1" d="M225.48,35a11.52,11.52,0,0,1-8-2.83L220.12,29a8.69,8.69,0,0,0,5.53,2c1.3,0,1.95-.38,1.95-1.16v-.05a1,1,0,0,0-.59-.89,9,9,0,0,0-2.29-.75c-1-.24-1.89-.48-2.57-.71a10.79,10.79,0,0,1-2-.95A3.89,3.89,0,0,1,218.75,25a4.78,4.78,0,0,1-.46-2.19v0a5,5,0,0,1,1.79-3.94,7.2,7.2,0,0,1,4.81-1.52,10.89,10.89,0,0,1,7,2.26l-2.36,3.34a8.3,8.3,0,0,0-4.78-1.68,2.19,2.19,0,0,0-1.27.31.92.92,0,0,0-.44.79v0a1,1,0,0,0,.6.92,9.63,9.63,0,0,0,2.35.73,12.85,12.85,0,0,1,4.78,1.88,4,4,0,0,1,1.58,3.43v.05a4.91,4.91,0,0,1-1.87,4.07A7.89,7.89,0,0,1,225.48,35Z"/><rect class="cls-2" width="73.03" height="73.13" rx="1.73"/><path class="cls-3" d="M0,62.86H73a0,0,0,0,1,0,0v8.68a1.59,1.59,0,0,1-1.59,1.59H1.59A1.59,1.59,0,0,1,0,71.54V62.86A0,0,0,0,1,0,62.86Z"/><path class="cls-4" d="M36.55,70C31,70,26,66.36,22.33,59.72,19,53.63,17.14,45.6,17.14,37.11S19,20.59,22.33,14.51C26,7.87,31,4.21,36.55,4.21a2.92,2.92,0,0,1,0,5.83c-3.3,0-6.53,2.59-9.11,7.28C24.56,22.56,23,29.59,23,37.11s1.59,14.56,4.47,19.8c2.58,4.69,5.81,7.27,9.11,7.27s6.53-2.58,9.11-7.27c2.88-5.24,4.47-12.27,4.47-19.8a2.92,2.92,0,0,1,5.83,0c0,8.49-1.84,16.52-5.19,22.61C47.12,66.36,42.07,70,36.55,70Z"/><path class="cls-4" d="M0,50.31a159.1,159.1,0,0,1,26.86-4c3.24-.2,6.53-.3,9.78-.3A162.07,162.07,0,0,1,61.45,48l2.88.45-.9,5.77-2.88-.45a155.49,155.49,0,0,0-23.91-1.86c-3.13,0-6.3.1-9.42.29A154.45,154.45,0,0,0,0,56.3"/><path class="cls-4" d="M0,36.19a160.08,160.08,0,0,1,26.94-3.9C30,32.11,33.12,32,36.21,32c4.39,0,8.85.19,13.26.55l.56,0,1.27.1h.09c2.78.26,5.65.6,8.53,1l1.76.25v0l2,.32h0c1.05.18,2.08.37,3.09.56l2.35.35a.48.48,0,0,1,.37.5l-.41,5.51-3.41-.63c-1-.19-2-.37-3.14-.57l-2-.31-3-.45L54.84,39l-2-.21A154.42,154.42,0,0,0,0,42.19"/><path class="cls-4" d="M0,29a154.47,154.47,0,0,1,27.22-4.06c3-.17,6-.26,9-.26,1.37,0,4.81.07,6.64.11a.6.6,0,0,0,.59-.53l.57-5a.22.22,0,0,0-.2-.24c-2.53-.11-5.08-.18-7.6-.18-3.1,0-6.24.1-9.32.28A160.37,160.37,0,0,0,0,23"/><path class="cls-4" d="M39.27,70.06a33,33,0,0,1-26.14-56.3A33,33,0,0,1,52.55,8.24,33.28,33.28,0,0,1,64.08,18.93a.34.34,0,0,1-.1.48l-4.48,2.9A.36.36,0,0,1,59,22.2a27.06,27.06,0,0,0-45.6.83,25,25,0,0,0-3.2,7.74A27.09,27.09,0,0,0,42.86,63.42a24.79,24.79,0,0,0,7.74-3.21A27.08,27.08,0,0,0,63.51,37.13V35.32l4.43-.23,1.47.21a.16.16,0,0,1,.13.16v1.67A33,33,0,0,1,39.27,70.06Z"/><path class="cls-1" d="M82.21,55.65V45.15H90v1.68h-6V49.7h5.29v1.68H84.06v4.27Z"/><path class="cls-1" d="M101.14,54.24a5.48,5.48,0,0,1-9.42-3.81v0a5.49,5.49,0,1,1,11,0v0A5.28,5.28,0,0,1,101.14,54.24Zm-6.47-1.19a3.54,3.54,0,0,0,5.1,0,3.73,3.73,0,0,0,1-2.63v0a3.7,3.7,0,0,0-1-2.64,3.31,3.31,0,0,0-2.55-1.09,3.36,3.36,0,0,0-2.55,1.07,3.74,3.74,0,0,0-1,2.63v0A3.72,3.72,0,0,0,94.67,53.05Z"/><path class="cls-1" d="M105.39,55.65V45.15h4.68a4.17,4.17,0,0,1,3,1.05,3.14,3.14,0,0,1,.87,2.27v0a3.09,3.09,0,0,1-.67,2,3.65,3.65,0,0,1-1.83,1.13l2.83,4h-2.17L109.55,52h-2.31v3.66Zm1.85-5.29h2.7a2.39,2.39,0,0,0,1.57-.48,1.58,1.58,0,0,0,.59-1.28v0a1.55,1.55,0,0,0-.57-1.29,2.55,2.55,0,0,0-1.61-.45h-2.68Z"/><path class="cls-1" d="M121.49,55.65V45.15h7.78V46.8h-5.94v2.73h5.27v1.65h-5.27V54h6v1.65Z"/><path class="cls-1" d="M131.29,55.65l3.82-5.34-3.67-5.16h2.17l2.61,3.77,2.63-3.77H141l-3.66,5.13,3.81,5.37h-2.17l-2.76-4-2.78,4Z"/><path class="cls-1" d="M147.73,55.83a5.12,5.12,0,0,1-3.81-1.56,5.27,5.27,0,0,1-1.53-3.84v0a5.31,5.31,0,0,1,1.53-3.85A5.18,5.18,0,0,1,147.8,45a5.73,5.73,0,0,1,2.32.42,6.26,6.26,0,0,1,1.79,1.22L150.73,48a4.3,4.3,0,0,0-2.94-1.3,3.25,3.25,0,0,0-2.48,1.07,3.74,3.74,0,0,0-1,2.63v0a3.79,3.79,0,0,0,1,2.65,3.2,3.2,0,0,0,2.48,1.09,3.65,3.65,0,0,0,1.59-.34,5.81,5.81,0,0,0,1.42-1L152,54a6.35,6.35,0,0,1-1.88,1.4A5.55,5.55,0,0,1,147.73,55.83Z"/><path class="cls-1" d="M154.29,55.65V45.15h7.79V46.8h-5.94v2.73h5.26v1.65h-5.26V54h6v1.65Z"/><path class="cls-1" d="M164.85,55.65V45.15h1.84V54h5.52v1.68Z"/><path class="cls-1" d="M174.42,55.65V45.15h1.84V54h5.52v1.68Z"/><path class="cls-1" d="M184,55.65V45.15h7.79V46.8h-5.94v2.73h5.26v1.65h-5.26V54h6v1.65Z"/><path class="cls-1" d="M194.54,55.65V45.15h1.71l5.63,7.26V45.15h1.81v10.5h-1.54l-5.79-7.47v7.47Z"/><path class="cls-1" d="M211.73,55.83a5.12,5.12,0,0,1-3.81-1.56,5.27,5.27,0,0,1-1.53-3.84v0a5.31,5.31,0,0,1,1.53-3.85A5.2,5.2,0,0,1,211.81,45a5.68,5.68,0,0,1,2.31.42,6.3,6.3,0,0,1,1.8,1.22L214.73,48a4.3,4.3,0,0,0-2.94-1.3,3.23,3.23,0,0,0-2.47,1.07,3.74,3.74,0,0,0-1,2.63v0a3.79,3.79,0,0,0,1,2.65,3.18,3.18,0,0,0,2.47,1.09,3.65,3.65,0,0,0,1.59-.34,5.85,5.85,0,0,0,1.43-1L216,54a6.31,6.31,0,0,1-1.87,1.4A5.6,5.6,0,0,1,211.73,55.83Z"/><path class="cls-1" d="M218.29,55.65V45.15h7.79V46.8h-5.94v2.73h5.26v1.65h-5.26V54h6v1.65Z"/></g></g></svg>