<?xml version="1.0" encoding="UTF-8"?>
<svg width="480px" height="144px" viewBox="0 0 480 144" version="1.1" xmlns="http://www.w3.org/2000/svg" xmlns:xlink="http://www.w3.org/1999/xlink">
    <!-- Generator: Sketch 58 (84663) - https://sketch.com -->
    <title>logo/desktop/inverted</title>
    <desc>Created with Sketch.</desc>
    <g id="logo/desktop/inverted" stroke="none" stroke-width="1" fill="none" fill-rule="evenodd">
        <g id="logo/fc/primary" transform="translate(28.000000, 14.000000)" fill="#FFFFFF">
            <g id="Group" transform="translate(1.000000, 0.000000)">
                <path d="M57.0479592,3.01342149 C57.0345306,3.0086281 57.010551,3.00383471 57,3 C57.5937347,3.1246281 57.5937347,3.1246281 58.0886735,3.33841322 L57.8862857,3.26076033 C57.6359388,3.17447934 57.47,3.12079339 57.0479592,3.01342149" id="Fill-1"></path>
                <path d="M35.1026327,1.33447934 C35.0719388,1.34406612 35.0306939,1.35557025 35,1.36323967 C39.6079184,0.00766942149 39.8064694,0.00766942149 41.7046939,0 L42.3128163,0.00958677686 L42.1583878,0.00958677686 C40.9124082,0.067107438 39.0985918,0.265553719 35.1026327,1.33447934 M47.1883469,0.443867769 C47.0598163,0.420859504 46.8881224,0.398809917 46.7567143,0.377719008 C47.382102,0.480297521 48.2204286,0.605884298 48.843898,0.726677686 L49.4616122,0.855140496 C50.8332449,1.19163636 52.3890408,1.57510744 55.4776122,2.79933884 C54.374551,2.3717686 51.0174082,1.07563636 47.1883469,0.443867769" id="Fill-2"></path>
                <path d="M28.0546735,2.60876033 C28.0393265,2.61355372 28.0172653,2.62122314 28,2.62793388 C28.444102,2.48029752 29.0349592,2.28664463 29.482898,2.14284298 L29.5260612,2.13229752 C30.0996531,2.0517686 30.0996531,2.0517686 33.3858163,2 C32.2223265,2.05560331 29.4972857,2.17927273 28.0546735,2.60876033" id="Fill-3"></path>
                <path d="M64.8843673,7.64327273 C66.1898163,8.64413223 69.1623265,11.0772562 69.1853469,11.0973884 C66.2569592,8.56647934 66.1437755,8.46677686 64.1131837,7.07573554 L64,7 C64.1534694,7.10545455 64.3827143,7.26171901 64.8843673,7.64327273" id="Fill-4"></path>
                <path d="M56,3 L56,3 C56.115102,3.04218182 56.2330816,3.08723967 56.350102,3.1332562 C56.2292449,3.09970248 56.115102,3.04505785 56,3 M56.7740612,3.31732231 C56.6570408,3.26747107 56.5016531,3.20515702 56.3875102,3.15722314 C59.4501837,4.31530579 67.1370816,7.77900826 73.039898,15.5730579 C78.4017347,22.6586446 80.8351837,29.1901157 81.6783061,37.2851901 C80.6730816,27.6313058 76.3442857,23.1878347 72.8039388,22.3163967 C70.3436327,21.7095537 68.0847551,22.5819504 65.0057755,23.1590744 C77.4463878,18.4471736 65.7596939,7.71477686 58.5763673,4.14945455 C58.4296122,4.07659504 57.6603469,3.69791736 56.7740612,3.31732231" id="Fill-5"></path>
                <path d="M44.1114478,1.95182716 C44.9967743,3.22495112 49.726509,3.83754616 50.0651008,2.72164534 C50.2483049,2.11192633 48.6378355,1.23377757 46.2792029,1.01711641 C44.2591621,0.898240379 43.7392845,1.41880236 44.1114478,1.95182716" id="Fill-6"></path>
                <path d="M34,2.12662057 L34,2.12662057 C34.0987959,2.11511644 34.1956735,2.10840569 34.2935102,2.09690156 C34.2062245,2.11990982 34.2062245,2.11990982 34,2.12662057 M34.6225102,2.10840569 C34.5237143,2.10840569 34.3894286,2.1122404 34.2887143,2.11511644 C35.7888776,1.95405858 43.5026327,1.38364536 48.1335714,5.73316602 C49.9051837,1.84764536 55.974898,3.49465363 56.6607143,3.69693462 C52.5678776,2.76222387 50.5449592,5.92777759 53.9596531,11.5648024 C56.5475306,15.8347528 63.8776122,22.5301578 65.0794694,23.653728 C53.2162857,14.3650999 50.471102,11.5648024 49.2241633,10.0107859 C48.5114898,11.470852 46.0358367,14.8549842 34.3568163,21.5580586 C47.0046122,13.0450007 47.2300204,4.51085197 38.4352653,2.50817429 C37.8952449,2.38546354 36.444,2.10265363 34.6225102,2.10840569" id="Fill-7"></path>
                <path d="M19.1635006,6.97004858 C18.8373781,7.44555271 19.0052353,7.67851139 19.6123985,7.59414775 C21.4808883,7.32667668 25.2562353,4.58677585 24.4840924,4.06142048 C24.1809904,3.85051139 23.249623,4.23877585 22.8985618,4.38449486 C21.040623,5.2204618 19.6123985,6.31718907 19.1635006,6.97004858" id="Fill-8"></path>
                <path d="M14.981898,10.3059835 L15.1171429,10.1909421 L15.133449,10.1784793 C15.3013061,10.0423471 19.243551,6.88446281 20.3418163,10.2187438 C24.5411224,4.7322314 31.7186939,2.64231405 34.6077551,2 C25.2010408,4.58363636 18.0522449,12.6595372 27.4589592,18.5141818 C29.0732653,19.518876 32.2059592,21.0489256 34.0869184,21.6260496 C22.1028776,18.9590083 20.0013061,16.0407934 19.3241224,14.8395702 C16.1712857,20.7958347 11.4549796,26.9898512 8,32.7352066 C13.9833878,20.9741488 15.0097143,19.0558347 15.8739388,16.3753719 C18.2268163,9.07504132 15.6024898,9.93401653 15.5756327,9.94168595 C15.3147347,10.036595 15.0634286,10.2407934 14.981898,10.3059835" id="Fill-9"></path>
                <path d="M1.39368141,52.6330909 C-1.57211451,40.3322975 0.924640593,32.9476033 2.19651814,28.5884959 C1.94233447,30.2633058 1.37545692,33.3809256 7.19962019,32.6168595 C-1.56444104,31.7061157 5.90184468,20.4330248 8.40051814,17 L8.18278345,17.291438 C6.19343651,20.2077355 5.59586508,21.0887603 3.66694672,24.9589421 C2.1754161,28.537686 2.16294672,29.4963636 1.12031406,33.4336529 C0.158252838,37.5818512 0.786518145,48.0381488 1.39368141,52.6330909 C1.39368141,52.6330909 0.768293655,46.844595 0.760620185,46.7151736" id="Fill-10"></path>
                <path d="M73.0029786,30.6499413 C73.1104072,33.9679247 75.4277949,37.0577429 76.7591419,35.6551975 C77.9303052,34.4213793 77.3279378,30.2357925 75.2762439,28.393214 C73.6187745,27.1871975 72.9492643,28.9885528 73.0029786,30.6499413" id="Fill-11"></path>
                <path d="M65.488449,23.0472948 C65.3695102,22.9408815 65.6457551,23.0472948 65.488449,23.0472948 C66.1992041,23.0472948 74.6189184,28.2490799 75.1042653,39.8212782 C78.7443673,33.3789642 81.4089796,36.0460055 82.0554694,37.1810799 C82.0497143,37.1734105 82.0631429,37.1887493 82.0554694,37.1810799 C81.818551,36.9787989 80.1064082,35.6606171 76.9737143,43.2073278 C76.1190816,45.2646501 75.8946327,46.0498072 71.348102,64.5666667 C72.1950612,58.9497741 72.4502041,52.4691129 73.0823061,46.8349642 C71.8190612,48.4627989 69.0834694,51.8392617 60,54.9808485 C77.964551,45.8187658 72.6717755,29.4196253 65.593,23.070303" id="Fill-12"></path>
                <path d="M47.0425383,23.8318103 C47.589273,27.2494963 52.0993546,28.677926 53.9400281,26.0204715 C55.4133342,23.8912483 53.9313954,20.4217938 50.5934362,20.001893 C47.7072526,19.9251988 46.779722,22.1953475 47.0425383,23.8318103" id="Fill-13"></path>
                <path d="M34.0019184,21 L34,21 C34.1381224,21.0038347 34.2810408,21.0124628 34.4210816,21.0258843 C34.397102,21.0335537 34.3712041,21.0431405 34.3472245,21.0546446 C34.3385918,21.0575207 34.329,21.0642314 34.3194082,21.0642314 C34.2618571,21.0613554 34.2110204,21.0402645 34.1553878,21.026843 C34.104551,21.0182149 34.0517959,21.0076694 34.0019184,21 M34.914102,21.2089917 C34.7673469,21.169686 34.5726327,21.1246281 34.4258776,21.0891338 C34.5467347,21.086281 46.7897551,21.3336198 50.8327143,31.7410248 C54.68,22.3824132 64.6814082,23.1225124 65.1063265,23.1560661 C58.7018571,23.9824463 48.8596735,33.6382479 59.4615306,54.9927934 C56.5926122,50.8762314 52.2129796,44.2805289 50.6418367,39.3788099 C49.7478776,41.4255868 47.6357551,45.7300496 38.9618571,53.4723306 C53.3975714,36.5344132 45.2608163,24.0092893 34.914102,21.2089917" id="Fill-14"></path>
                <path d="M16.1140876,30.7280169 C16.8603325,33.6174715 20.3162713,33.4861326 21.9852509,30.501769 C23.6484753,27.5269921 21.9104345,24.2722814 19.1220876,25.1437194 C19.0213733,25.1782318 18.8813325,25.2338351 18.7825366,25.2721822 C16.2857815,26.5021657 15.7198631,29.2046781 16.1140876,30.7280169" id="Fill-15"></path>
                <path d="M8.30789796,32.4063471 C8.21581633,32.4120992 8.09304082,32.4283967 8,32.4399008 C8.07002041,32.3967603 15.7876122,28.715438 21.322102,36.5229091 C22.4721633,25.9678678 32.1752653,21.7669421 34.2423061,21 C22.9795714,27.1786777 20.8904694,43.6372562 38.8166531,53.5145124 C35.8316735,52.3669752 27.4752653,48.842876 23.4016122,43.7973554 C23.3709184,46.0550413 22.8635102,46.954281 20.3418163,61.4120992 C21.3527959,35.0848926 12.4151224,32.0861488 8.30789796,32.4063471" id="Fill-16"></path>
                <path d="M0.283439128,47.9459638 C0.627786067,49.2430547 1.19754117,49.6111869 1.63780648,48.8298646 C2.62001056,47.0831538 2.0771126,41.7279803 0.945275863,42.0107902 C0.706439128,42.0692695 0.547214638,42.3933026 0.450337087,42.5869555 C-0.204785362,44.254096 -0.0398057697,46.7236497 0.283439128,47.9459638" id="Fill-17"></path>
                <path d="M14.7728762,72.618314 C12.5801824,69.2399339 12.6022436,69.9838678 6.58144766,58.8660826 C7.48883542,60.5437686 11.8099579,61.8772893 20.1097742,62.1303802 C2.72840684,58.9418182 2.33034562,41.4871736 7.45526399,33 C6.77712113,33.8235041 0.243161946,48.2870744 3.19361093,53.5789752 C1.67522317,50.8505785 1.00475378,49.8640992 1.00091705,49.8966942 C0.976937456,50.0759669 1.41048848,55.7158678 3.81132521,60.6060826 C6.97183542,67.0455207 12.8909579,71.2454876 14.7728762,72.618314" id="Fill-18"></path>
                <path d="M19.8895249,74.5422643 C20.7738923,75.3053717 21.2832188,75.3216692 21.1000147,74.5815701 C20.6875657,72.9326444 17.5069127,69.4047106 17.0455453,70.0863304 C16.9457902,70.2320494 17.0330759,70.5292395 17.0877494,70.7037188 C17.6325657,72.1599502 19.0531168,73.8213387 19.8895249,74.5422643" id="Fill-19"></path>
                <path d="M42.8155337,83.4494545 C39.9178399,83.201157 35.6139827,83.5549091 30.9350848,80.2024132 C32.2386154,81.137124 39.0929419,82.847405 43.7248399,79.4651901 C32.5925541,84.6871074 22.4568603,70.1621818 20.653595,62 C20.7303297,62.868562 18.9500848,71.3566942 26.2475541,77.9447273 C21.6923909,76.1798017 16.9799215,75.1147107 17,75.1338843 C17.6101052,75.6276033 17.1429827,75.2144132 17.2523297,75.3361653 L18.0177582,75.9554711 C18.7026154,76.5249256 23.5695133,80.1305124 28.126595,81.4707438 C34.4150031,83.3248264 41.1158603,83.7629421 42.8155337,83.4494545" id="Fill-20"></path>
                <path d="M45.9668571,82.6435041 C48.5767959,82.2686612 52.4116122,81.793157 57.2084898,78.9267107 C55.8685102,79.7243306 48.4262041,81.6023802 45,79.3063471 C53.8081837,82.5907769 67.9369592,71.3684959 71.1406327,65 C70.9027551,65.6672397 69.5416735,71.3761653 61.7962653,76.8981488 C66.1701429,75.2520992 69.9589184,70.8719008 69.9378163,71.2601653 C69.920551,71.5516033 70.0577143,71.1623802 69.9378163,71.2601653 C69.3853265,72.1095537 65.2867347,76.4590744 59.3186939,79.3130579 C53.225,82.227438 47.4046735,82.7758017 45.9668571,82.6435041" id="Fill-21"></path>
                <path d="M71,69.6113388 C73.2329796,67.365157 74.3686531,66.2780165 78.3032245,57.7083967 C77.7162041,58.9891901 75.3335918,62.2784132 71.0057551,64.3855868 C79.1655306,60.4118678 82.8209796,43.6215868 81.7131224,37 C81.8387755,37.7439339 83.5557143,46.8417851 78.6197551,58.1628099 C76.6227347,62.7433719 72.5260612,68.7504463 71,69.6113388" id="Fill-22"></path>
                <path d="M63.0429684,61.7190274 C61.9399072,63.5826968 61.3442542,66.0503332 63.1619072,65.6352257 C65.5598664,65.0839861 68.4479684,60.756515 66.8921725,59.1948291 C65.6461929,58.3866638 63.9091113,60.2618373 63.0429684,61.7190274" id="Fill-23"></path>
                <path d="M59.441898,55.0929917 C59.3891429,55 59.441898,55.0929917 59.3853061,55 C59.4486122,55.0460165 64.8747143,59.8211901 59.0371224,68.221124 C65.8962449,62.8237686 69.3425918,63.6932893 70.7813673,64.6951074 C70.7813673,64.7027769 70.7784898,64.7094876 70.7756122,64.7133223 C67.0827551,63.8792727 61.2537959,68.3898512 57.3997959,71.3799669 C52.8292857,74.9184463 48.8832041,77.970876 44,79.184562 C44.1784082,79.1375868 44.4172449,79.0723967 44.5956531,79.0196694 C48.0535102,77.8941818 50.1397347,76.3315372 53.5074286,73.2484298 C50.3718571,75.2837025 46.9926531,76.8981157 44,79.184562 L44.177449,79.044595 C47.0358163,76.8195041 50.1387755,74.9577521 52.8887551,72.5773554 C55.844,70.020562 57.2098776,68.0859504 57.6635714,67.3707769 C61.1972041,61.7797686 60.732,57.4618843 59.441898,55.0929917" id="Fill-24"></path>
                <path d="M47,57.1117686 C47.0057724,59.5563967 48.4934662,61.7546446 50.3111193,59.8507107 C52.1815275,57.9026777 52.5978132,53.4266116 49.8411193,53 C47.9898948,53.0047934 46.9952213,55.1253884 47,57.1117686" id="Fill-25"></path>
                <path d="M39.1035918,54.0498512 C39,53.9980826 39.1035918,54.0498512 39,54 C39.0863265,54.0095868 47.5492041,55.1983471 47.9817959,64.9135868 C51.3907347,56.3631405 58.176,55.6134545 59.4996735,55.5463471 C51.8405918,57.7867769 48.9822245,67.6419835 47.9050612,71.3530248 C46.8432449,75.0113388 46.0787755,77.6496198 44.2227551,79.7443306 C44.3071633,79.638876 44.4241837,79.4950744 44.5143469,79.3915372 C46.0749388,77.1827438 46.2686939,75.2462149 46.6533265,71.3827438 C44.0923061,78.0589752 44.0923061,78.0589752 44.2227551,79.7443306 C44.2160408,79.695438 44.2054898,79.6302479 44.1997347,79.579438 C43.7767347,74.121686 46.7895306,69.0109752 45.6720816,63.485157 C44.7857959,59.1049587 42.5787143,55.7217851 39.1035918,54.0498512" id="Fill-26"></path>
                <path d="M27.9643519,60.8676231 C29.3570866,62.9278215 31.9094743,64.1510942 32.3036988,61.7141355 C32.7065559,59.2532099 30.5033111,55.2804496 28.0353315,56.1125818 C26.523658,56.9207471 26.8142906,59.1640529 27.9643519,60.8676231" id="Fill-27"></path>
                <path d="M20.7606327,61.9042975 C20.6608776,61.8995041 20.1007143,61.9627769 20,61.9570248 C20.0604286,61.9320992 26.6317959,59.681124 33.5264082,67.1866116 C30.4061837,58.6620496 37.1377347,54.7055868 38.5218367,54 C37.0475714,55.2031405 33.7662041,58.6984793 35.0697347,65.1254545 C36.2802245,71.0951405 41.3514286,74.5492562 43.7445918,79.7443306 C43.6870408,79.638876 43.6141429,79.4969917 43.5623469,79.3944132 C43.0232857,78.5124298 43.0232857,78.5124298 37.4082245,72.8073388 C39.2863061,75.9335868 40.6445102,78.1941488 43.7445918,79.7443306 L43.5297347,79.6475041 C34.8750204,75.2337521 31.9408776,62.7613554 20.7606327,61.9042975" id="Fill-28"></path>
                <path d="M15,10.2952727 L15,10.2952727 C15.0517959,10.2521322 15.0968776,10.2089917 15.1477143,10.1648926 C15.0968776,10.2089917 15.047,10.2511736 15,10.2952727 M15.1927959,10.1246281 L15.1035918,10.202281 C15.1832041,10.1351736 15.2580204,10.0671074 15.3376327,10 C15.2944694,10.0383471 15.2369184,10.0872397 15.1927959,10.1246281" id="Fill-29"></path>
                <path d="M7.25241892,19.8284406 C6.48603116,20.677829 6.03041892,21.0133662 6.00260259,20.7516472 C5.88270463,19.6347877 9.94292912,14.413829 10.433072,15.0542257 C10.5126842,15.1587216 10.4052557,15.4242753 10.339072,15.5862918 C9.65421484,17.0310191 7.73009239,19.3002092 7.25241892,19.8284406" id="Fill-30"></path>
                <path d="M9.46671429,23.6419835 C6.99681633,22.6727603 3.52265306,23.5815868 1,33.432 C2.10306122,29.461157 2.30161224,28.7440661 3.88714286,25.0646612 C5.59065306,21.6901157 5.99734694,20.8877025 8.40297959,17.397157 L8.62071429,17.105719 C10.6215714,14.4473058 12.8085102,12.1244298 15.309102,10 C8.99287755,15.3791405 5.65683673,21.6766942 4.40414286,24.0484628 C5.27412245,22.6555041 6.59108163,20.5416198 9.50891837,23.6621157 C9.49836735,23.658281 9.47726531,23.6496529 9.46671429,23.6419835" id="Fill-31"></path>
                <path d="M104.23,25.357157 C104.23,28.4306777 105.262082,30.9577521 107.327204,32.9383802 C109.37698,34.9199669 111.75,35.9112397 114.434755,35.9112397 C117.349714,35.9112397 119.81098,34.9017521 121.814714,32.8856529 C123.816531,30.8446281 124.820796,28.3587769 124.820796,25.4290579 C124.820796,22.4629091 123.829959,19.9789752 121.851163,17.9734215 C119.882918,15.9563636 117.445633,14.9478347 114.543143,14.9478347 C111.650245,14.9478347 109.212,15.9563636 107.217857,17.9734215 C105.224673,19.9674711 104.23,22.427438 104.23,25.357157 Z M100,25.3120992 C100,21.3939835 101.43398,18.0290248 104.30098,15.2181818 C107.157429,12.4054215 110.590347,11 114.597816,11 C118.556367,11 121.952837,12.4178843 124.785306,15.2536529 C127.628327,18.0903802 129.050796,21.4975207 129.050796,25.4750744 C129.050796,29.4756364 127.621612,32.870314 124.768041,35.6591074 C121.898163,38.4584463 118.436469,39.8581157 114.382,39.8581157 C110.794653,39.8581157 107.571796,38.6137521 104.715347,36.1279008 C101.572102,33.3764959 100,29.7699504 100,25.3120992 L100,25.3120992 Z" id="Fill-32"></path>
                <path d="M137.191633,24.6344132 L138.75798,24.6344132 C142.610061,24.6344132 144.536102,23.1503802 144.536102,20.182314 C144.536102,17.3101157 142.550592,15.8740165 138.577653,15.8740165 L137.191633,15.8740165 L137.191633,24.6344132 Z M137.191633,28.5276033 L137.191633,39.8284959 L133,39.8284959 L133,12 L137.747959,12 C140.076857,12 141.836,12.1620165 143.023469,12.4860496 C144.223408,12.8100826 145.277551,13.4226777 146.190694,14.3238347 C147.785816,15.8855207 148.584816,17.856562 148.584816,20.236 C148.584816,22.7841653 147.732102,24.8021818 146.027633,26.2929256 C144.324122,27.7827107 142.026878,28.5276033 139.136857,28.5276033 L137.191633,28.5276033 L137.191633,28.5276033 Z" id="Fill-33"></path>
                <polyline id="Fill-34" points="168.335429 15.946876 157.19451 15.946876 157.19451 22.6336529 168.009306 22.6336529 168.009306 26.5805289 157.19451 26.5805289 157.19451 35.8816198 168.335429 35.8816198 168.335429 39.8284959 153 39.8284959 153 12 168.335429 12 168.335429 15.946876"></polyline>
                <polyline id="Fill-35" points="173 39.7218843 173 10 193.266592 31.2327934 193.266592 11.8933884 197.461102 11.8933884 197.461102 41.4168264 177.19451 20.237719 177.19451 39.7218843 173 39.7218843"></polyline>
                <polyline id="Fill-36" points="229.332551 15.946876 218.193551 15.946876 218.193551 22.6336529 229.009306 22.6336529 229.009306 26.5805289 218.193551 26.5805289 218.193551 35.8816198 229.332551 35.8816198 229.332551 39.8284959 214 39.8284959 214 12 229.332551 12 229.332551 15.946876"></polyline>
                <path d="M238.191633,35.8816198 L240.083143,35.8816198 C241.965061,35.8816198 243.531408,35.6831736 244.780265,35.286281 C246.028163,34.8654215 247.156163,34.1991405 248.164265,33.2855207 C250.227469,31.398843 251.26051,28.9417521 251.26051,25.9142479 C251.26051,22.8618182 250.239939,20.3865124 248.200714,18.4873719 C246.363878,16.7933884 243.65802,15.946876 240.083143,15.946876 L238.191633,15.946876 L238.191633,35.8816198 Z M234,39.8284959 L234,12 L239.831837,12 C242.62498,12 244.83398,12.2751405 246.454041,12.8282975 C248.193041,13.3689917 249.770898,14.287405 251.186653,15.5873719 C254.056531,18.2055207 255.489551,21.6481322 255.489551,25.9142479 C255.489551,30.1918678 253.995143,33.6517355 251.008245,36.2957686 C249.507122,37.6177851 247.937898,38.537157 246.292898,39.0529256 C244.755327,39.5706116 242.57702,39.8284959 239.758939,39.8284959 L234,39.8284959 L234,39.8284959 Z" id="Fill-37"></path>
                <path d="M264.193551,12 L264.193551,28.7490579 C264.193551,31.1380826 264.583939,32.8857521 265.363755,33.9911074 C266.527245,35.5873058 268.164571,36.386843 270.276694,36.386843 C272.401286,36.386843 274.045327,35.5873058 275.209776,33.9911074 C275.987673,32.9212231 276.37902,31.1745124 276.37902,28.7490579 L276.37902,12 L280.572571,12 L280.572571,29.9148099 C280.572571,32.847405 279.659429,35.262314 277.83602,37.1614545 C275.783367,39.2753388 273.263592,40.333719 270.276694,40.333719 C267.289796,40.333719 264.774816,39.2753388 262.736551,37.1614545 C260.913143,35.262314 260,32.847405 260,29.9148099 L260,12 L264.193551,12" id="Fill-38"></path>
                <path d="M306.92502,13.028562 L306.92502,17.9945124 C304.500204,15.9630744 301.99098,14.9487934 299.399265,14.9487934 C296.542816,14.9487934 294.135265,15.9755372 292.181408,18.0299835 C290.215082,20.0729256 289.23,22.5721983 289.23,25.5278017 C289.23,28.4488926 290.215082,30.9126942 292.181408,32.9192066 C294.149653,34.9247603 296.561041,35.9294545 299.415571,35.9294545 C300.891755,35.9294545 302.147327,35.6878678 303.178449,35.2075702 C303.754918,34.9679008 304.351531,34.6429091 304.968286,34.2345124 C305.588878,33.8261157 306.238245,33.3333554 306.92502,32.7562314 L306.92502,37.8295537 C304.523224,39.1937521 302.003449,39.8763306 299.363776,39.8763306 C295.391796,39.8763306 291.999163,38.4872066 289.19451,35.7118347 C286.397531,32.9124959 285,29.5360331 285,25.5824463 C285,22.0382149 286.169245,18.8774545 288.512531,16.1020826 C291.388163,12.7006942 295.114592,11 299.688939,11 C302.182816,11 304.595163,11.6768264 306.92502,13.028562" id="Fill-39"></path>
                <path d="M326.796694,28.8715702 L322.677959,19.4094215 L318.358755,28.8715702 L326.796694,28.8715702 Z M328.508837,32.8184463 L316.610163,32.8184463 L313.517755,39.5780826 L309,39.5780826 L322.748939,10 L336.015408,39.5780826 L331.425714,39.5780826 L328.508837,32.8184463 L328.508837,32.8184463 Z" id="Fill-40"></path>
                <polyline id="Fill-41" points="344.584592 15.946876 344.584592 39.8284959 340.388163 39.8284959 340.388163 15.946876 334 15.946876 334 12 350.954531 12 350.954531 15.946876 344.584592 15.946876"></polyline>
                <polygon id="Fill-42" points="354 39.8284959 358.192592 39.8284959 358.192592 12 354 12"></polygon>
                <path d="M367.228082,25.357157 C367.228082,28.4306777 368.263041,30.9577521 370.324327,32.9383802 C372.377939,34.9199669 374.747122,35.9112397 377.435714,35.9112397 C380.349714,35.9112397 382.81002,34.9017521 384.812796,32.8856529 C386.818449,30.8446281 387.820796,28.3587769 387.820796,25.4290579 C387.820796,22.4629091 386.829,19.9789752 384.848286,17.9734215 C382.881,15.9563636 380.445633,14.9478347 377.543143,14.9478347 C374.651204,14.9478347 372.210082,15.9563636 370.216898,17.9734215 C368.225633,19.9674711 367.228082,22.427438 367.228082,25.357157 Z M363,25.3120992 C363,21.3939835 364.434939,18.0290248 367.302898,15.2181818 C370.15551,12.4054215 373.590347,11 377.596857,11 C381.556367,11 384.950918,12.4178843 387.783388,15.2536529 C390.627367,18.0903802 392.048878,21.4975207 392.048878,25.4750744 C392.048878,29.4756364 390.620653,32.870314 387.765163,35.6591074 C384.899122,38.4584463 381.43551,39.8581157 377.381041,39.8581157 C373.793694,39.8581157 370.569878,38.6137521 367.715347,36.1279008 C364.573061,33.3764959 363,29.7699504 363,25.3120992 L363,25.3120992 Z" id="Fill-43"></path>
                <polyline id="Fill-44" points="396 39.7218843 396 10 416.265633 31.2327934 416.265633 11.8933884 420.458224 11.8933884 420.458224 41.4168264 400.193551 20.237719 400.193551 39.7218843 396 39.7218843"></polyline>
                <path d="M116.862449,49.5597686 L116.862449,53.3791405 C114.994918,51.8164959 113.068878,51.0370909 111.075694,51.0370909 C108.878204,51.0370909 107.027939,51.8260826 105.523939,53.4069421 C104.010347,54.9772562 103.255469,56.9003636 103.255469,59.1733884 C103.255469,61.4195702 104.010347,63.3129587 105.523939,64.8583471 C107.036571,66.4018182 108.891633,67.172595 111.089122,67.172595 C112.223837,67.172595 113.187816,66.9875702 113.98298,66.6175207 C114.423245,66.4334545 114.883653,66.1832397 115.359408,65.8697521 C115.833245,65.5562645 116.333939,65.1775868 116.862449,64.7327603 L116.862449,68.6355372 C115.015061,69.6843306 113.07751,70.2087273 111.046918,70.2087273 C107.994796,70.2087273 105.383898,69.1398017 103.228612,67.0077025 C101.075245,64.852595 100,62.2574545 100,59.2155702 C100,56.4890909 100.899714,54.0598017 102.699143,51.9229091 C104.914857,49.308595 107.779939,48 111.297265,48 C113.216592,48 115.070694,48.520562 116.862449,49.5597686" id="Fill-45"></path>
                <path d="M137.255469,59.0420496 C137.255469,61.4061488 138.048714,63.3503471 139.633286,64.873686 C141.21498,66.3979835 143.03551,67.1591736 145.104469,67.1591736 C147.346082,67.1591736 149.238551,66.3826446 150.779,64.8334215 C152.320408,63.2631074 153.090633,61.3515041 153.090633,59.0986116 C153.090633,56.8169587 152.33,54.906314 150.807776,53.3638017 C149.293224,51.8126612 147.41802,51.0380496 145.187918,51.0380496 C142.960694,51.0380496 141.083571,51.8126612 139.552714,53.3638017 C138.01898,54.8967273 137.255469,56.7910744 137.255469,59.0420496 Z M134,59.0084959 C134,55.9953719 135.105939,53.4069421 137.309184,51.2460826 C139.504755,49.0823471 142.144429,48 145.228204,48 C148.273612,48 150.883551,49.0919339 153.059939,51.2729256 C155.247837,53.4539174 156.344184,56.0739835 156.344184,59.133124 C156.344184,62.208562 155.244959,64.8219174 153.049388,66.9655207 C150.844224,69.1187107 148.183449,70.1953058 145.062265,70.1953058 C142.303653,70.1953058 139.825122,69.2385455 137.63051,67.3240661 C135.209531,65.2101818 134,62.4367273 134,59.0084959 L134,59.0084959 Z" id="Fill-46"></path>
                <polyline id="Fill-47" points="175 68.8587107 175 46 190.587694 62.329157 190.587694 47.4552727 193.812469 47.4552727 193.812469 70.1625124 178.223816 53.8726612 178.223816 68.8587107 175 68.8587107"></polyline>
                <path d="M225.154245,51.5912066 L222.537592,53.1433058 C222.048408,52.2939174 221.581286,51.738843 221.138143,51.4809587 C220.678694,51.1837686 220.081122,51.0370909 219.353102,51.0370909 C218.457224,51.0370909 217.715776,51.2911405 217.123959,51.7992397 C216.53502,52.2987107 216.237673,52.9266446 216.237673,53.6849587 C216.237673,54.7318347 217.012694,55.5716364 218.564653,56.2110744 L220.695959,57.0834711 C222.430163,57.7890579 223.699163,58.645157 224.502959,59.6575207 C225.306755,60.670843 225.708653,61.9123306 225.708653,63.3829421 C225.708653,65.3520661 225.053531,66.9818182 223.741367,68.2664463 C222.420571,69.5606612 220.784204,70.2087273 218.829388,70.2087273 C216.971449,70.2087273 215.441551,69.6565289 214.23298,68.5511736 C213.041673,67.4496529 212.298306,65.896595 212,63.9035041 L215.269857,63.1806612 C215.417571,64.4365289 215.673673,65.3041322 216.044878,65.7863471 C216.709592,66.7095537 217.678367,67.172595 218.951204,67.172595 C219.956429,67.172595 220.793796,66.8360992 221.454673,66.1621488 C222.122265,65.4881983 222.453184,64.6311405 222.453184,63.5986446 C222.453184,63.1825785 222.396592,62.8029421 222.278612,62.4568595 C222.166388,62.1098182 221.985102,61.7905785 221.739551,61.5000992 C221.495918,61.2086612 221.181306,60.935438 220.793796,60.6833058 C220.403408,60.4292562 219.943,60.1857521 219.408735,59.9547107 L217.34649,59.0966942 C214.42002,57.86 212.958224,56.0500165 212.958224,53.6648264 C212.958224,52.06 213.570184,50.7149752 214.798898,49.6364628 C216.027612,48.5445289 217.553673,48 219.381878,48 C221.845061,48 223.770143,49.1983471 225.154245,51.5912066" id="Fill-48"></path>
                <path d="M246.251633,59.0420496 C246.251633,61.4061488 247.048714,63.3503471 248.634245,64.873686 C250.213061,66.3979835 252.034551,67.1591736 254.101592,67.1591736 C256.344163,67.1591736 258.237592,66.3826446 259.779,64.8334215 C261.316571,63.2631074 262.090633,61.3515041 262.090633,59.0986116 C262.090633,56.8169587 261.328082,54.906314 259.805857,53.3638017 C258.291306,51.8126612 256.41802,51.0380496 254.186,51.0380496 C251.959735,51.0380496 250.083571,51.8126612 248.549837,53.3638017 C247.017061,54.8967273 246.251633,56.7910744 246.251633,59.0420496 Z M243,59.0084959 C243,55.9953719 244.103061,53.4069421 246.307265,51.2460826 C248.502837,49.0823471 251.144429,48 254.228204,48 C257.274571,48 259.882592,49.0919339 262.061857,51.2729256 C264.246878,53.4539174 265.342265,56.0739835 265.342265,59.133124 C265.342265,62.208562 264.243041,64.8219174 262.048429,66.9655207 C259.843265,69.1187107 257.179612,70.1953058 254.060347,70.1953058 C251.299816,70.1953058 248.823204,69.2385455 246.625714,67.3240661 C244.209531,65.2101818 243,62.4367273 243,59.0084959 L243,59.0084959 Z" id="Fill-49"></path>
                <path d="M286.223816,57.8283636 L287.249184,57.8283636 C290.304184,57.8283636 291.830245,56.6587769 291.830245,54.320562 C291.830245,52.1299835 290.345429,51.0351736 287.373878,51.0351736 L286.223816,51.0351736 L286.223816,57.8283636 Z M290.239918,60.2825785 L296.856367,69.403438 L292.911245,69.403438 L286.807,60.641124 L286.223816,60.641124 L286.223816,69.403438 L283,69.403438 L283,48 L286.778224,48 C289.601102,48 291.641286,48.5301488 292.896857,49.5933223 C294.281918,50.7772893 294.974449,52.3380165 294.974449,54.2793388 C294.974449,55.7940496 294.539939,57.0988099 293.672837,58.1888264 C292.804776,59.2807603 291.660469,59.9767603 290.239918,60.2825785 L290.239918,60.2825785 Z" id="Fill-50"></path>
                <polyline id="Fill-51" points="320.139633 51.0351736 320.139633 69.403438 316.914857 69.403438 316.914857 51.0351736 312 51.0351736 312 48 325.040102 48 325.040102 51.0351736 320.139633 51.0351736"></polyline>
                <polygon id="Fill-52" points="342 69.403438 345.224776 69.403438 345.224776 48 342 48"></polygon>
                <path d="M368.223816,48 L368.223816,60.8827107 C368.223816,62.7195372 368.523082,64.0655207 369.122571,64.9139504 C370.018449,66.1420165 371.277857,66.7555702 372.901755,66.7555702 C374.535245,66.7555702 375.799449,66.1420165 376.693408,64.9139504 C377.294816,64.091405 377.594082,62.7492562 377.594082,60.8827107 L377.594082,48 L380.818857,48 L380.818857,61.7800331 C380.818857,64.0338843 380.117694,65.8918017 378.716327,67.3528264 C377.138469,68.9787438 375.200918,69.7917025 372.901755,69.7917025 C370.602592,69.7917025 368.669837,68.9787438 367.102531,67.3528264 C365.701163,65.8918017 365,64.0338843 365,61.7800331 L365,48 L368.223816,48" id="Fill-53"></path>
                <polyline id="Fill-54" points="399 69.0130579 403.50049 46 410.835367 62.6368926 418.43498 46 422.477939 69.0130579 419.166837 69.0130579 417.104592 56.0929587 410.779735 69.9985785 404.633286 56.0785785 402.335082 69.0130579 399 69.0130579"></polyline>
            </g>
            <path d="M4.7734375,101.648438 L4.7734375,112 L2.953125,112 L2.953125,101.648438 L0.1796875,101.648438 L0.1796875,99.9375 L7.5390625,99.9375 L7.5390625,101.648438 L4.7734375,101.648438 Z M12.378125,98.8046875 L14.1359375,98.8046875 L14.1359375,105.023438 C14.7609406,104.460935 15.4510378,104.179688 16.20625,104.179688 C17.0656292,104.179688 17.7531224,104.458331 18.26875,105.015625 C18.7062521,105.500002 18.925,106.273432 18.925,107.335938 L18.925,112 L17.1671875,112 L17.1671875,107.5 C17.1671875,106.890622 17.0591156,106.44922 16.8429687,106.175781 C16.6268218,105.902342 16.279169,105.765625 15.8,105.765625 C15.1854135,105.765625 14.7531262,105.955727 14.503125,106.335938 C14.2583321,106.721356 14.1359375,107.382808 14.1359375,108.320312 L14.1359375,112 L12.378125,112 L12.378125,98.8046875 Z M31.6312499,108.609375 L26.1781249,108.609375 C26.2250001,109.234378 26.4281231,109.731769 26.7874999,110.101562 C27.1468767,110.466148 27.6078096,110.648438 28.1703124,110.648438 C28.6078146,110.648438 28.9697901,110.544272 29.2562499,110.335938 C29.5375013,110.127603 29.8578106,109.74219 30.2171874,109.179688 L31.7015624,110.007812 C31.4723946,110.398439 31.2302095,110.733072 30.9749999,111.011719 C30.7197903,111.290366 30.4463555,111.51953 30.1546874,111.699219 C29.8630193,111.878907 29.5479183,112.010416 29.2093749,112.09375 C28.8708315,112.177084 28.5036477,112.21875 28.1078124,112.21875 C26.9723901,112.21875 26.0609408,111.85417 25.3734374,111.125 C24.685934,110.390621 24.3421874,109.416673 24.3421874,108.203125 C24.3421874,106.999994 24.6755174,106.026045 25.3421874,105.28125 C26.0140658,104.546871 26.9046819,104.179688 28.0140624,104.179688 C29.1338597,104.179688 30.0192675,104.536455 30.6703124,105.25 C31.316149,105.958337 31.6390624,106.940098 31.6390624,108.195312 L31.6312499,108.609375 Z M29.8265624,107.171875 C29.5817695,106.23437 28.9906296,105.765625 28.0531249,105.765625 C27.8395822,105.765625 27.6390633,105.798177 27.4515624,105.863281 C27.2640615,105.928386 27.0934903,106.022135 26.9398437,106.144531 C26.7861971,106.266928 26.654688,106.414062 26.5453124,106.585938 C26.4359369,106.757813 26.3526044,106.953124 26.2953124,107.171875 L29.8265624,107.171875 Z M52.1296873,105.71875 L57.1140623,105.71875 L57.1140623,106.117188 C57.1140623,107.023442 57.0072925,107.825517 56.7937498,108.523438 C56.5854154,109.169274 56.2338564,109.773435 55.7390623,110.335938 C54.619265,111.59636 53.1948001,112.226562 51.4656248,112.226562 C49.7781164,112.226562 48.3328183,111.617194 47.1296873,110.398438 C45.9265563,109.174473 45.3249998,107.705738 45.3249998,105.992188 C45.3249998,104.242179 45.9369729,102.757819 47.1609373,101.539062 C48.3849018,100.315098 49.8744702,99.703125 51.6296873,99.703125 C52.5724004,99.703125 53.4525999,99.8958314 54.2703123,100.28125 C55.0515662,100.666669 55.8197877,101.291662 56.5749998,102.15625 L55.2781248,103.398438 C54.2885365,102.080723 53.0828194,101.421875 51.6609373,101.421875 C50.3848893,101.421875 49.3145875,101.861975 48.4499998,102.742188 C47.5854122,103.606775 47.1531248,104.690098 47.1531248,105.992188 C47.1531248,107.335944 47.6348908,108.442704 48.5984373,109.3125 C49.4994835,110.119796 50.4760362,110.523438 51.5281248,110.523438 C52.4239626,110.523438 53.2286421,110.221357 53.9421873,109.617188 C54.6557325,109.007809 55.0541661,108.27865 55.1374998,107.429688 L52.1296873,107.429688 L52.1296873,105.71875 Z M64.3749998,98.8046875 L64.3749998,112 L62.6171873,112 L62.6171873,98.8046875 L64.3749998,98.8046875 Z M69.7921872,108.140625 C69.7921872,107.041661 70.1854124,106.106775 70.9718747,105.335938 C71.758337,104.5651 72.7166607,104.179688 73.8468747,104.179688 C74.9822971,104.179688 75.9458291,104.567704 76.7374997,105.34375 C77.5187536,106.119796 77.9093747,107.072911 77.9093747,108.203125 C77.9093747,109.343756 77.5161495,110.299475 76.7296872,111.070312 C75.9380166,111.835941 74.9666721,112.21875 73.8156247,112.21875 C72.674994,112.21875 71.7192744,111.828129 70.9484372,111.046875 C70.1776,110.276038 69.7921872,109.307298 69.7921872,108.140625 Z M71.5890622,108.171875 C71.5890622,108.932295 71.7921852,109.533852 72.1984372,109.976562 C72.615106,110.424481 73.1645796,110.648438 73.8468747,110.648438 C74.5343782,110.648438 75.0838518,110.427086 75.4953122,109.984375 C75.9067726,109.541664 76.1124997,108.950525 76.1124997,108.210938 C76.1124997,107.47135 75.9067726,106.880211 75.4953122,106.4375 C75.0786435,105.989581 74.5291698,105.765625 73.8468747,105.765625 C73.1749964,105.765625 72.630731,105.989581 72.2140622,106.4375 C71.7973935,106.885419 71.5890622,107.463538 71.5890622,108.171875 Z M85.0765622,98.8046875 L85.0765622,105.273438 C85.7796907,104.544267 86.5765577,104.179688 87.4671872,104.179688 C88.493234,104.179688 89.3473921,104.562496 90.0296872,105.328125 C90.7119822,106.088545 91.0531247,107.036453 91.0531247,108.171875 C91.0531247,109.343756 90.7093781,110.312496 90.0218747,111.078125 C89.3395796,111.838545 88.477609,112.21875 87.4359372,112.21875 C86.5557244,112.21875 85.769274,111.880212 85.0765622,111.203125 L85.0765622,112 L83.3187497,112 L83.3187497,98.8046875 L85.0765622,98.8046875 Z M89.2562497,108.25 C89.2562497,107.52083 89.058335,106.927086 88.6624997,106.46875 C88.261456,105.999998 87.7588569,105.765625 87.1546872,105.765625 C86.5088506,105.765625 85.9828142,105.992185 85.5765622,106.445312 C85.1755185,106.893231 84.9749997,107.476559 84.9749997,108.195312 C84.9749997,108.9349 85.1729144,109.526039 85.5687497,109.96875 C85.964585,110.421877 86.4854131,110.648438 87.1312497,110.648438 C87.7406277,110.648438 88.245831,110.421877 88.6468747,109.96875 C89.0531267,109.510414 89.2562497,108.937503 89.2562497,108.25 Z M102.071875,104.390625 L103.8375,104.390625 L103.8375,112 L102.071875,112 L102.071875,111.203125 C101.347913,111.880212 100.569275,112.21875 99.7359371,112.21875 C98.6838485,112.21875 97.8140656,111.838545 97.1265621,111.078125 C96.444267,110.302079 96.1031246,109.333339 96.1031246,108.171875 C96.1031246,107.031244 96.444267,106.080733 97.1265621,105.320312 C97.8088572,104.559892 98.6630153,104.179688 99.6890621,104.179688 C100.574483,104.179688 101.368746,104.544267 102.071875,105.273438 L102.071875,104.390625 Z M97.8999996,108.171875 C97.8999996,108.901045 98.0953102,109.494789 98.4859371,109.953125 C98.8869808,110.416669 99.3921841,110.648438 100.001562,110.648438 C100.652607,110.648438 101.178643,110.424481 101.579687,109.976562 C101.980731,109.513019 102.18125,108.924483 102.18125,108.210938 C102.18125,107.497392 101.980731,106.908856 101.579687,106.445312 C101.178643,105.992185 100.657815,105.765625 100.017187,105.765625 C99.4130174,105.765625 98.9078141,105.994789 98.5015621,106.453125 C98.1005184,106.916669 97.8999996,107.48958 97.8999996,108.171875 Z M111.364062,98.8046875 L111.364062,112 L109.60625,112 L109.60625,98.8046875 L111.364062,98.8046875 Z M125.964062,112 L125.964062,99.1171875 L134.760937,108.320312 L134.760937,99.9375 L136.581249,99.9375 L136.581249,112.734375 L127.784374,103.554688 L127.784374,112 L125.964062,112 Z M149.795312,108.609375 L144.342187,108.609375 C144.389062,109.234378 144.592185,109.731769 144.951562,110.101562 C145.310939,110.466148 145.771872,110.648438 146.334374,110.648438 C146.771877,110.648438 147.133852,110.544272 147.420312,110.335938 C147.701563,110.127603 148.021873,109.74219 148.381249,109.179688 L149.865624,110.007812 C149.636457,110.398439 149.394272,110.733072 149.139062,111.011719 C148.883852,111.290366 148.610418,111.51953 148.318749,111.699219 C148.027081,111.878907 147.71198,112.010416 147.373437,112.09375 C147.034894,112.177084 146.66771,112.21875 146.271874,112.21875 C145.136452,112.21875 144.225003,111.85417 143.537499,111.125 C142.849996,110.390621 142.506249,109.416673 142.506249,108.203125 C142.506249,106.999994 142.839579,106.026045 143.506249,105.28125 C144.178128,104.546871 145.068744,104.179688 146.178124,104.179688 C147.297922,104.179688 148.18333,104.536455 148.834374,105.25 C149.480211,105.958337 149.803124,106.940098 149.803124,108.195312 L149.795312,108.609375 Z M147.990624,107.171875 C147.745832,106.23437 147.154692,105.765625 146.217187,105.765625 C146.003644,105.765625 145.803125,105.798177 145.615624,105.863281 C145.428123,105.928386 145.257552,106.022135 145.103906,106.144531 C144.950259,106.266928 144.81875,106.414062 144.709374,106.585938 C144.599999,106.757813 144.516666,106.953124 144.459374,107.171875 L147.990624,107.171875 Z M157.220312,106.03125 L157.220312,112 L155.462499,112 L155.462499,106.03125 L154.712499,106.03125 L154.712499,104.390625 L155.462499,104.390625 L155.462499,101.601562 L157.220312,101.601562 L157.220312,104.390625 L158.587499,104.390625 L158.587499,106.03125 L157.220312,106.03125 Z M164.285937,104.390625 L166.278124,108.734375 L168.426562,103.695312 L170.590624,108.734375 L172.559374,104.390625 L174.528124,104.390625 L170.543749,112.570312 L168.426562,107.671875 L166.285937,112.570312 L162.309374,104.390625 L164.285937,104.390625 Z M178.617187,108.140625 C178.617187,107.041661 179.010412,106.106775 179.796874,105.335938 C180.583337,104.5651 181.54166,104.179688 182.671874,104.179688 C183.807297,104.179688 184.770829,104.567704 185.562499,105.34375 C186.343753,106.119796 186.734374,107.072911 186.734374,108.203125 C186.734374,109.343756 186.341149,110.299475 185.554687,111.070312 C184.763016,111.835941 183.791672,112.21875 182.640624,112.21875 C181.499994,112.21875 180.544274,111.828129 179.773437,111.046875 C179.0026,110.276038 178.617187,109.307298 178.617187,108.140625 Z M180.414062,108.171875 C180.414062,108.932295 180.617185,109.533852 181.023437,109.976562 C181.440106,110.424481 181.989579,110.648438 182.671874,110.648438 C183.359378,110.648438 183.908851,110.427086 184.320312,109.984375 C184.731772,109.541664 184.937499,108.950525 184.937499,108.210938 C184.937499,107.47135 184.731772,106.880211 184.320312,106.4375 C183.903643,105.989581 183.354169,105.765625 182.671874,105.765625 C181.999996,105.765625 181.455731,105.989581 181.039062,106.4375 C180.622393,106.885419 180.414062,107.463538 180.414062,108.171875 Z M192.143749,104.390625 L193.901562,104.390625 L193.901562,105.070312 C194.22448,104.731769 194.510935,104.500001 194.760937,104.375 C195.016146,104.244791 195.318227,104.179688 195.667187,104.179688 C196.130731,104.179688 196.615101,104.330728 197.120312,104.632812 L196.315624,106.242188 C195.982289,106.002603 195.656772,105.882812 195.339062,105.882812 C194.380724,105.882812 193.901562,106.606764 193.901562,108.054688 L193.901562,112 L192.143749,112 L192.143749,104.390625 Z M203.678124,98.8046875 L203.678124,106.851562 L206.154687,104.390625 L208.514062,104.390625 L205.209374,107.585938 L208.756249,112 L206.474999,112 L203.959374,108.789062 L203.678124,109.070312 L203.678124,112 L201.920312,112 L201.920312,98.8046875 L203.678124,98.8046875 Z M223.746874,106.03125 L223.746874,112 L221.981249,112 L221.981249,106.03125 L221.356249,106.03125 L221.356249,104.390625 L221.981249,104.390625 L221.981249,101.453125 C221.981249,100.494787 222.147914,99.8177103 222.481249,99.421875 C222.939585,98.8697889 223.606245,98.59375 224.481249,98.59375 C224.793751,98.59375 225.186976,98.6848949 225.660937,98.8671875 L225.660937,100.664062 L225.481249,100.570312 C225.101039,100.377603 224.788542,100.28125 224.543749,100.28125 C224.231248,100.28125 224.020312,100.393228 223.910937,100.617188 C223.801561,100.835939 223.746874,101.257809 223.746874,101.882812 L223.746874,104.390625 L225.660937,104.390625 L225.660937,106.03125 L223.746874,106.03125 Z M230.062499,108.140625 C230.062499,107.041661 230.455724,106.106775 231.242187,105.335938 C232.028649,104.5651 232.986973,104.179688 234.117187,104.179688 C235.252609,104.179688 236.216141,104.567704 237.007812,105.34375 C237.789065,106.119796 238.179687,107.072911 238.179687,108.203125 C238.179687,109.343756 237.786461,110.299475 236.999999,111.070312 C236.208328,111.835941 235.236984,112.21875 234.085937,112.21875 C232.945306,112.21875 231.989586,111.828129 231.218749,111.046875 C230.447912,110.276038 230.062499,109.307298 230.062499,108.140625 Z M231.859374,108.171875 C231.859374,108.932295 232.062497,109.533852 232.468749,109.976562 C232.885418,110.424481 233.434891,110.648438 234.117187,110.648438 C234.80469,110.648438 235.354164,110.427086 235.765624,109.984375 C236.177084,109.541664 236.382812,108.950525 236.382812,108.210938 C236.382812,107.47135 236.177084,106.880211 235.765624,106.4375 C235.348955,105.989581 234.799482,105.765625 234.117187,105.765625 C233.445308,105.765625 232.901043,105.989581 232.484374,106.4375 C232.067705,106.885419 231.859374,107.463538 231.859374,108.171875 Z M243.589061,104.390625 L245.346874,104.390625 L245.346874,105.070312 C245.669792,104.731769 245.956248,104.500001 246.206249,104.375 C246.461459,104.244791 246.763539,104.179688 247.112499,104.179688 C247.576043,104.179688 248.060413,104.330728 248.565624,104.632812 L247.760936,106.242188 C247.427601,106.002603 247.102084,105.882812 246.784374,105.882812 C245.826036,105.882812 245.346874,106.606764 245.346874,108.054688 L245.346874,112 L243.589061,112 L243.589061,104.390625 Z M261.345311,105.914062 C261.345311,104.216137 261.967701,102.757819 263.212499,101.539062 C264.452088,100.320306 265.941657,99.7109375 267.681249,99.7109375 C269.400007,99.7109375 270.873951,100.325515 272.103124,101.554688 C273.337505,102.78386 273.954686,104.260408 273.954686,105.984375 C273.954686,107.718759 273.334901,109.190098 272.095311,110.398438 C270.850514,111.611985 269.347924,112.21875 267.587499,112.21875 C266.030199,112.21875 264.631776,111.679693 263.392186,110.601562 C262.027596,109.408848 261.345311,107.846364 261.345311,105.914062 Z M263.181249,105.9375 C263.181249,107.27084 263.629161,108.367183 264.524999,109.226562 C265.415628,110.085942 266.444264,110.515625 267.610936,110.515625 C268.876568,110.515625 269.944265,110.078129 270.814061,109.203125 C271.683857,108.317704 272.118749,107.23959 272.118749,105.96875 C272.118749,104.682285 271.689066,103.604171 270.829686,102.734375 C269.975515,101.859371 268.918234,101.421875 267.657811,101.421875 C266.402597,101.421875 265.342712,101.859371 264.478124,102.734375 C263.613536,103.598963 263.181249,104.66666 263.181249,105.9375 Z M281.215624,116.140625 L279.457811,116.140625 L279.457811,104.390625 L281.215624,104.390625 L281.215624,105.21875 C281.908336,104.526038 282.694786,104.179688 283.574999,104.179688 C284.621879,104.179688 285.48385,104.5651 286.160936,105.335938 C286.84844,106.101566 287.192186,107.067702 287.192186,108.234375 C287.192186,109.375006 286.851044,110.325517 286.168749,111.085938 C285.491662,111.84115 284.637504,112.21875 283.606249,112.21875 C282.715619,112.21875 281.918752,111.861983 281.215624,111.148438 L281.215624,116.140625 Z M285.395311,108.242188 C285.395311,107.513017 285.197397,106.919273 284.801561,106.460938 C284.400518,105.997394 283.895314,105.765625 283.285936,105.765625 C282.6401,105.765625 282.116668,105.989581 281.715624,106.4375 C281.31458,106.885419 281.114061,107.473955 281.114061,108.203125 C281.114061,108.91667 281.31458,109.505206 281.715624,109.96875 C282.111459,110.421877 282.632287,110.648438 283.278124,110.648438 C283.887502,110.648438 284.390101,110.419273 284.785936,109.960938 C285.192188,109.502602 285.395311,108.929691 285.395311,108.242188 Z M299.531249,108.609375 L294.078124,108.609375 C294.124999,109.234378 294.328122,109.731769 294.687499,110.101562 C295.046876,110.466148 295.507808,110.648438 296.070311,110.648438 C296.507813,110.648438 296.869789,110.544272 297.156249,110.335938 C297.4375,110.127603 297.75781,109.74219 298.117186,109.179688 L299.601561,110.007812 C299.372393,110.398439 299.130208,110.733072 298.874999,111.011719 C298.619789,111.290366 298.346354,111.51953 298.054686,111.699219 C297.763018,111.878907 297.447917,112.010416 297.109374,112.09375 C296.77083,112.177084 296.403647,112.21875 296.007811,112.21875 C294.872389,112.21875 293.96094,111.85417 293.273436,111.125 C292.585933,110.390621 292.242186,109.416673 292.242186,108.203125 C292.242186,106.999994 292.575516,106.026045 293.242186,105.28125 C293.914065,104.546871 294.804681,104.179688 295.914061,104.179688 C297.033859,104.179688 297.919266,104.536455 298.570311,105.25 C299.216148,105.958337 299.539061,106.940098 299.539061,108.195312 L299.531249,108.609375 Z M297.726561,107.171875 C297.481768,106.23437 296.890628,105.765625 295.953124,105.765625 C295.739581,105.765625 295.539062,105.798177 295.351561,105.863281 C295.16406,105.928386 294.993489,106.022135 294.839843,106.144531 C294.686196,106.266928 294.554687,106.414062 294.445311,106.585938 C294.335936,106.757813 294.252603,106.953124 294.195311,107.171875 L297.726561,107.171875 Z M305.003124,104.390625 L306.768749,104.390625 L306.768749,105.09375 C307.383335,104.484372 308.076037,104.179688 308.846874,104.179688 C309.732295,104.179688 310.422392,104.458331 310.917186,105.015625 C311.344272,105.489586 311.557811,106.263015 311.557811,107.335938 L311.557811,112 L309.792186,112 L309.792186,107.75 C309.792186,106.999996 309.688021,106.481772 309.479686,106.195312 C309.27656,105.903644 308.906772,105.757812 308.370311,105.757812 C307.786975,105.757812 307.372917,105.950519 307.128124,106.335938 C306.888539,106.716148 306.768749,107.380204 306.768749,108.328125 L306.768749,112 L305.003124,112 L305.003124,104.390625 Z M332.806249,101.648438 L327.970311,101.648438 L327.970311,104.546875 L332.665624,104.546875 L332.665624,106.257812 L327.970311,106.257812 L327.970311,110.289062 L332.806249,110.289062 L332.806249,112 L326.149999,112 L326.149999,99.9375 L332.806249,99.9375 L332.806249,101.648438 Z M344.020311,98.8046875 L345.785936,98.8046875 L345.785936,112 L344.020311,112 L344.020311,111.203125 C343.327599,111.880212 342.543753,112.21875 341.668749,112.21875 C340.627077,112.21875 339.762502,111.838545 339.074999,111.078125 C338.392704,110.302079 338.051561,109.333339 338.051561,108.171875 C338.051561,107.036453 338.392704,106.088545 339.074999,105.328125 C339.752085,104.562496 340.603639,104.179688 341.629686,104.179688 C342.520316,104.179688 343.317183,104.544267 344.020311,105.273438 L344.020311,98.8046875 Z M339.848436,108.171875 C339.848436,108.901045 340.043747,109.494789 340.434374,109.953125 C340.835417,110.416669 341.340621,110.648438 341.949999,110.648438 C342.601044,110.648438 343.12708,110.424481 343.528124,109.976562 C343.929167,109.513019 344.129686,108.924483 344.129686,108.210938 C344.129686,107.497392 343.929167,106.908856 343.528124,106.445312 C343.12708,105.992185 342.606252,105.765625 341.965624,105.765625 C341.361454,105.765625 340.856251,105.994789 340.449999,106.453125 C340.048955,106.916669 339.848436,107.48958 339.848436,108.171875 Z M353.312499,104.390625 L353.312499,108.757812 C353.312499,110.018235 353.809889,110.648438 354.804686,110.648438 C355.799483,110.648438 356.296874,110.018235 356.296874,108.757812 L356.296874,104.390625 L358.054686,104.390625 L358.054686,108.796875 C358.054686,109.406253 357.979166,109.932289 357.828124,110.375 C357.68229,110.770835 357.429688,111.127603 357.070311,111.445312 C356.476558,111.96094 355.721357,112.21875 354.804686,112.21875 C353.893223,112.21875 353.140627,111.96094 352.546874,111.445312 C352.182288,111.127603 351.924478,110.770835 351.773436,110.375 C351.627602,110.020832 351.554686,109.494795 351.554686,108.796875 L351.554686,104.390625 L353.312499,104.390625 Z M369.745311,104.71875 L369.745311,107.054688 C369.344267,106.565102 368.984896,106.229168 368.667186,106.046875 C368.354684,105.859374 367.987501,105.765625 367.565624,105.765625 C366.904162,105.765625 366.354688,105.997394 365.917186,106.460938 C365.479684,106.924481 365.260936,107.505205 365.260936,108.203125 C365.260936,108.91667 365.471871,109.502602 365.893749,109.960938 C366.320834,110.419273 366.865099,110.648438 367.526561,110.648438 C367.948438,110.648438 368.32083,110.557293 368.643749,110.375 C368.95625,110.197916 369.323434,109.854169 369.745311,109.34375 L369.745311,111.664062 C369.031766,112.033856 368.318231,112.21875 367.604686,112.21875 C366.427597,112.21875 365.443232,111.838545 364.651561,111.078125 C363.85989,110.312496 363.464061,109.361985 363.464061,108.226562 C363.464061,107.09114 363.865099,106.132816 364.667186,105.351562 C365.469273,104.570309 366.453639,104.179688 367.620311,104.179688 C368.370315,104.179688 369.078641,104.359373 369.745311,104.71875 Z M380.607811,104.390625 L382.373436,104.390625 L382.373436,112 L380.607811,112 L380.607811,111.203125 C379.883849,111.880212 379.105211,112.21875 378.271873,112.21875 C377.219785,112.21875 376.350002,111.838545 375.662498,111.078125 C374.980203,110.302079 374.639061,109.333339 374.639061,108.171875 C374.639061,107.031244 374.980203,106.080733 375.662498,105.320312 C376.344794,104.559892 377.198952,104.179688 378.224998,104.179688 C379.11042,104.179688 379.904682,104.544267 380.607811,105.273438 L380.607811,104.390625 Z M376.435936,108.171875 C376.435936,108.901045 376.631247,109.494789 377.021873,109.953125 C377.422917,110.416669 377.92812,110.648438 378.537498,110.648438 C379.188543,110.648438 379.71458,110.424481 380.115623,109.976562 C380.516667,109.513019 380.717186,108.924483 380.717186,108.210938 C380.717186,107.497392 380.516667,106.908856 380.115623,106.445312 C379.71458,105.992185 379.193752,105.765625 378.553123,105.765625 C377.948954,105.765625 377.443751,105.994789 377.037498,106.453125 C376.636455,106.916669 376.435936,107.48958 376.435936,108.171875 Z M389.954686,106.03125 L389.954686,112 L388.196873,112 L388.196873,106.03125 L387.446873,106.03125 L387.446873,104.390625 L388.196873,104.390625 L388.196873,101.601562 L389.954686,101.601562 L389.954686,104.390625 L391.321873,104.390625 L391.321873,106.03125 L389.954686,106.03125 Z M397.824998,104.390625 L397.824998,112 L396.067186,112 L396.067186,104.390625 L397.824998,104.390625 Z M395.801561,101.226562 C395.801561,100.919269 395.913539,100.653647 396.137498,100.429688 C396.361458,100.205728 396.629684,100.09375 396.942186,100.09375 C397.259896,100.09375 397.530726,100.205728 397.754686,100.429688 C397.978645,100.648439 398.090623,100.916665 398.090623,101.234375 C398.090623,101.552085 397.978645,101.822916 397.754686,102.046875 C397.535935,102.270834 397.267708,102.382812 396.949998,102.382812 C396.632288,102.382812 396.361458,102.270834 396.137498,102.046875 C395.913539,101.822916 395.801561,101.549481 395.801561,101.226562 Z M403.242186,108.140625 C403.242186,107.041661 403.635411,106.106775 404.421873,105.335938 C405.208336,104.5651 406.166659,104.179688 407.296873,104.179688 C408.432296,104.179688 409.395828,104.567704 410.187498,105.34375 C410.968752,106.119796 411.359373,107.072911 411.359373,108.203125 C411.359373,109.343756 410.966148,110.299475 410.179686,111.070312 C409.388015,111.835941 408.416671,112.21875 407.265623,112.21875 C406.124993,112.21875 405.169273,111.828129 404.398436,111.046875 C403.627599,110.276038 403.242186,109.307298 403.242186,108.140625 Z M405.039061,108.171875 C405.039061,108.932295 405.242184,109.533852 405.648436,109.976562 C406.065105,110.424481 406.614578,110.648438 407.296873,110.648438 C407.984377,110.648438 408.53385,110.427086 408.945311,109.984375 C409.356771,109.541664 409.562498,108.950525 409.562498,108.210938 C409.562498,107.47135 409.356771,106.880211 408.945311,106.4375 C408.528642,105.989581 407.979168,105.765625 407.296873,105.765625 C406.624995,105.765625 406.08073,105.989581 405.664061,106.4375 C405.247392,106.885419 405.039061,107.463538 405.039061,108.171875 Z M416.768748,104.390625 L418.534373,104.390625 L418.534373,105.09375 C419.14896,104.484372 419.841661,104.179688 420.612498,104.179688 C421.497919,104.179688 422.188017,104.458331 422.682811,105.015625 C423.109896,105.489586 423.323436,106.263015 423.323436,107.335938 L423.323436,112 L421.557811,112 L421.557811,107.75 C421.557811,106.999996 421.453645,106.481772 421.245311,106.195312 C421.042185,105.903644 420.672397,105.757812 420.135936,105.757812 C419.5526,105.757812 419.138541,105.950519 418.893748,106.335938 C418.654164,106.716148 418.534373,107.380204 418.534373,108.328125 L418.534373,112 L416.768748,112 L416.768748,104.390625 Z" id="TheGlobalNetworkforOpenEducation" fill-rule="nonzero"></path>
        </g>
    </g>
</svg>