<?xml version="1.0" encoding="UTF-8"?>
<svg width="480px" height="144px" viewBox="0 0 480 144" version="1.1" xmlns="http://www.w3.org/2000/svg" xmlns:xlink="http://www.w3.org/1999/xlink">
    <!-- Generator: Sketch 58 (84663) - https://sketch.com -->
    <title>logo/desktop/primary</title>
    <desc>Created with Sketch.</desc>
    <g id="logo/desktop/primary" stroke="none" stroke-width="1" fill="none" fill-rule="evenodd">
        <g id="logo/fc/primary" transform="translate(28.000000, 14.496552)">
            <path d="M57.0503265,3.87593388 C57.036898,3.8711405 57.0129184,3.86634711 57.0023673,3.8625124 C57.596102,3.9871405 57.596102,3.9871405 58.0910408,4.20092562 L57.8886531,4.12327273 C57.6383061,4.03699174 57.4723673,3.98330579 57.0503265,3.87593388" id="Fill-1" fill="#7FB041"></path>
            <path d="M35.5483061,2.02952066 C35.5176122,2.03910744 35.4763673,2.05061157 35.4456735,2.05828099 C40.0535918,0.702710744 40.2521429,0.702710744 42.1503673,0.695041322 L42.7584898,0.704628099 L42.6040612,0.704628099 C41.3580816,0.76214876 39.5442653,0.960595041 35.5483061,2.02952066 M47.6340204,1.13890909 C47.5054898,1.11590083 47.3337959,1.09385124 47.2023878,1.07276033 C47.8277755,1.17533884 48.666102,1.30092562 49.2895714,1.42171901 L49.9072857,1.55018182 C51.2789184,1.88667769 52.8347143,2.27014876 55.9232857,3.49438017 C54.8202245,3.06680992 51.4630816,1.77067769 47.6340204,1.13890909" id="Fill-2" fill="#7FB041"></path>
            <path d="M28.5894286,2.91533884 C28.5740816,2.92013223 28.5520204,2.92780165 28.5347551,2.9345124 C28.9788571,2.78687603 29.5697143,2.59322314 30.0176531,2.44942149 L30.0608163,2.43887603 C30.6344082,2.35834711 30.6344082,2.35834711 33.9205714,2.30657851 C32.7570816,2.36218182 30.0320408,2.48585124 28.5894286,2.91533884" id="Fill-3" fill="#7FB041"></path>
            <path d="M65.0978776,8.23312397 C66.4033265,9.23398347 69.3758367,11.6671074 69.3988571,11.6872397 C66.4704694,9.15633058 66.3572857,9.0566281 64.3266939,7.66558678 L64.2135102,7.58985124 C64.3669796,7.69530579 64.5962245,7.85157025 65.0978776,8.23312397" id="Fill-4" fill="#7FB041"></path>
            <path d="M56.4182245,3.72254545 L56.4182245,3.72254545 C56.5333265,3.76472727 56.6513061,3.80978512 56.7683265,3.85580165 C56.6474694,3.82224793 56.5333265,3.76760331 56.4182245,3.72254545 M57.1922857,4.03986777 C57.0752653,3.99001653 56.9198776,3.92770248 56.8057347,3.8797686 C59.8684082,5.03785124 67.5553061,8.50155372 73.4581224,16.2956033 C78.8199592,23.3811901 81.2534082,29.9126612 82.0965306,38.0077355 C81.0913061,28.3538512 76.7625102,23.9103802 73.2221633,23.0389421 C70.7618571,22.4320992 68.5029796,23.3044959 65.424,23.8816198 C77.8646122,19.169719 66.1779184,8.43732231 58.9945918,4.872 C58.8478367,4.7991405 58.0785714,4.42046281 57.1922857,4.03986777" id="Fill-5" fill="#26548D"></path>
            <path d="M44.1627347,2.59801653 C45.0480612,3.8711405 49.7777959,4.48373554 50.1163878,3.36783471 C50.2995918,2.7581157 48.6891224,1.87996694 46.3304898,1.66330579 C44.310449,1.54442975 43.7905714,2.06499174 44.1627347,2.59801653" id="Fill-6" fill="#7FB041"></path>
            <path d="M34.3445306,2.3545124 L34.3445306,2.3545124 C34.4433265,2.34300826 34.5402041,2.33629752 34.6380408,2.32479339 C34.5507551,2.34780165 34.5507551,2.34780165 34.3445306,2.3545124 M34.9670408,2.33629752 C34.8682449,2.33629752 34.7339592,2.34013223 34.6332449,2.34300826 C36.1334082,2.18195041 43.8471633,1.61153719 48.478102,5.96105785 C50.2497143,2.07553719 56.3194286,3.72254545 57.0052449,3.92482645 C52.9124082,2.9901157 50.8894898,6.15566942 54.3041837,11.7926942 C56.8920612,16.0626446 64.2221429,22.7580496 65.424,23.8816198 C53.5608163,14.5929917 50.8156327,11.7926942 49.5686939,10.2386777 C48.8560204,11.6987438 46.3803673,15.082876 34.7013469,21.7859504 C47.3491429,13.2728926 47.574551,4.7387438 38.7797959,2.73606612 C38.2397755,2.61335537 36.7885306,2.33054545 34.9670408,2.33629752" id="Fill-7" fill="#7FB041"></path>
            <path d="M20.1150408,7.86019835 C19.7889184,8.33570248 19.9567755,8.56866116 20.5639388,8.48429752 C22.4324286,8.21682645 26.2077755,5.47692562 25.4356327,4.95157025 C25.1325306,4.74066116 24.2011633,5.12892562 23.850102,5.27464463 C21.9921633,6.11061157 20.5639388,7.20733884 20.1150408,7.86019835" id="Fill-8" fill="#26548D"></path>
            <path d="M15.3152857,10.5655868 L15.4505306,10.4505455 L15.4668367,10.4380826 C15.6346939,10.3019504 19.5769388,7.14406612 20.6752041,10.4783471 C24.8745102,4.99183471 32.0520816,2.90191736 34.9411429,2.25960331 C25.5344286,4.84323967 18.3856327,12.9191405 27.7923469,18.7737851 C29.4066531,19.7784793 32.5393469,21.3085289 34.4203061,21.8856529 C22.4362653,19.2186116 20.3346939,16.3003967 19.6575102,15.0991736 C16.5046735,21.055438 11.7883673,27.2494545 8.33338776,32.9948099 C14.3167755,21.2337521 15.343102,19.315438 16.2073265,16.6349752 C18.5602041,9.33464463 15.9358776,10.1936198 15.9090204,10.2012893 C15.6481224,10.2961983 15.3968163,10.5003967 15.3152857,10.5655868" id="Fill-9" fill="#26548D"></path>
            <path d="M1.83779592,53.1222479 C-1.128,40.8214545 1.3687551,33.4367603 2.64063265,29.0776529 C2.38644898,30.7524628 1.81957143,33.8700826 7.64373469,33.1060165 C-1.12032653,32.1952727 6.34595918,20.9221818 8.84463265,17.489157 L8.62689796,17.780595 C6.63755102,20.6968926 6.03997959,21.5779174 4.11106122,25.4480992 C2.61953061,29.026843 2.60706122,29.9855207 1.56442857,33.9228099 C0.602367347,38.0710083 1.23063265,48.5273058 1.83779592,53.1222479 C1.83779592,53.1222479 1.21240816,47.3337521 1.20473469,47.2043306" id="Fill-10" fill="#7FB041"></path>
            <path d="M73.9003061,31.5213223 C74.0077347,34.8393058 76.3251224,37.929124 77.6564694,36.5265785 C78.8276327,35.2927603 78.2252653,31.1071736 76.1735714,29.264595 C74.516102,28.0585785 73.8465918,29.8599339 73.9003061,31.5213223" id="Fill-11" fill="#26548D"></path>
            <path d="M65.5266327,24.041719 C65.4076939,23.9353058 65.6839388,24.041719 65.5266327,24.041719 C66.2373878,24.041719 74.657102,29.2435041 75.142449,40.8157025 C78.782551,34.3733884 81.4471633,37.0404298 82.0936531,38.1755041 C82.087898,38.1678347 82.1013265,38.1831736 82.0936531,38.1755041 C81.8567347,37.9732231 80.1445918,36.6550413 77.011898,44.2017521 C76.1572653,46.2590744 75.9328163,47.0442314 71.3862857,65.5610909 C72.2332449,59.9441983 72.4883878,53.4635372 73.1204898,47.8293884 C71.8572449,49.4572231 69.1216531,52.833686 60.0381837,55.9752727 C78.0027347,46.8131901 72.7099592,30.4140496 65.6311837,24.0647273" id="Fill-12" fill="#26548D"></path>
            <path d="M47.4421837,24.3983471 C47.9889184,27.8160331 52.499,29.2444628 54.3396735,26.5870083 C55.8129796,24.4577851 54.3310408,20.9883306 50.9930816,20.5684298 C48.106898,20.4917355 47.1793673,22.7618843 47.4421837,24.3983471" id="Fill-13" fill="#7FB041"></path>
            <path d="M34.4222245,21.8856529 L34.4203061,21.8856529 C34.5584286,21.8894876 34.7013469,21.8981157 34.8413878,21.9115372 C34.8174082,21.9192066 34.7915102,21.9287934 34.7675306,21.9402975 C34.758898,21.9431736 34.7493061,21.9498843 34.7397143,21.9498843 C34.6821633,21.9470083 34.6313265,21.9259174 34.5756939,21.9124959 C34.5248571,21.9038678 34.472102,21.8933223 34.4222245,21.8856529 M35.3344082,22.0946446 C35.1876531,22.0553388 34.9929388,22.010281 34.8461837,21.9747867 C34.9670408,21.9719339 47.2100612,22.2192727 51.2530204,32.6266777 C55.1003061,23.2680661 65.1017143,24.0081653 65.5266327,24.041719 C59.1221633,24.8680992 49.2799796,34.5239008 59.8818367,55.8784463 C57.0129184,51.7618843 52.6332857,45.1661818 51.0621429,40.2644628 C50.1681837,42.3112397 48.0560612,46.6157025 39.3821633,54.3579835 C53.8178776,37.4200661 45.6811224,24.8949421 35.3344082,22.0946446" id="Fill-14" fill="#7FB041"></path>
            <path d="M17.0485306,31.0506116 C17.7947755,33.9400661 21.2507143,33.8087273 22.9196939,30.8243636 C24.5829184,27.8495868 22.8448776,24.594876 20.0565306,25.466314 C19.9558163,25.5008264 19.8157755,25.5564298 19.7169796,25.5947769 C17.2202245,26.8247603 16.6543061,29.5272727 17.0485306,31.0506116" id="Fill-15" fill="#26548D"></path>
            <path d="M8.64128571,33.318843 C8.54920408,33.324595 8.42642857,33.3408926 8.33338776,33.3523967 C8.40340816,33.3092562 16.121,29.6279339 21.6554898,37.435405 C22.805551,26.8803636 32.5086531,22.679438 34.5756939,21.9124959 C23.3129592,28.0911736 21.2238571,44.5497521 39.1500408,54.4270083 C36.1650612,53.2794711 27.8086531,49.7553719 23.735,44.7098512 C23.7043061,46.9675372 23.196898,47.8667769 20.6752041,62.324595 C21.6861837,35.9973884 12.7485102,32.9986446 8.64128571,33.318843" id="Fill-16" fill="#26548D"></path>
            <path d="M1.0925102,48.5110083 C1.43685714,49.8080992 2.00661224,50.1762314 2.44687755,49.3949091 C3.42908163,47.6481983 2.88618367,42.2930248 1.75434694,42.5758347 C1.5155102,42.634314 1.35628571,42.9583471 1.25940816,43.152 C0.604285714,44.8191405 0.769265306,47.2886942 1.0925102,48.5110083" id="Fill-17" fill="#7FB041"></path>
            <path d="M15.3383061,73.026314 C13.1456122,69.6479339 13.1676735,70.3918678 7.14687755,59.2740826 C8.05426531,60.9517686 12.3753878,62.2852893 20.6752041,62.5383802 C3.29383673,59.3498182 2.89577551,41.8951736 8.02069388,33.408 C7.34255102,34.2315041 0.808591837,48.6950744 3.75904082,53.9869752 C2.24065306,51.2585785 1.57018367,50.2720992 1.56634694,50.3046942 C1.54236735,50.4839669 1.97591837,56.1238678 4.3767551,61.0140826 C7.53726531,67.4535207 13.4563878,71.6534876 15.3383061,73.026314" id="Fill-18" fill="#7FB041"></path>
            <path d="M20.0881837,75.0050248 C20.972551,75.7681322 21.4818776,75.7844298 21.2986735,75.0443306 C20.8862245,73.395405 17.7055714,69.8674711 17.2442041,70.5490909 C17.144449,70.6948099 17.2317347,70.992 17.2864082,71.1664793 C17.8312245,72.6227107 19.2517755,74.2840992 20.0881837,75.0050248" id="Fill-19" fill="#7FB041"></path>
            <path d="M42.8371429,83.9878347 C39.939449,83.7395372 35.6355918,84.0932893 30.9566939,80.7407934 C32.2602245,81.6755041 39.114551,83.3857851 43.746449,80.0035702 C32.6141633,85.2254876 22.4784694,70.700562 20.6752041,62.5383802 C20.7519388,63.4069421 18.9716939,71.8950744 26.2691633,78.4831074 C21.714,76.7181818 17.0015306,75.6530909 17.0216091,75.6722645 C17.6317143,76.1659835 17.1645918,75.7527934 17.2739388,75.8745455 L18.0393673,76.4938512 C18.7242245,77.0633058 23.5911224,80.6688926 28.1482041,82.009124 C34.4366122,83.8632066 41.1374694,84.3013223 42.8371429,83.9878347" id="Fill-20" fill="#7FB041"></path>
            <path d="M46.2067551,83.4979504 C48.8166939,83.1231074 52.6515102,82.6476033 57.4483878,79.781157 C56.1084082,80.5787769 48.666102,82.4568264 45.239898,80.1607934 C54.0480816,83.4452231 68.1768571,72.2229421 71.3805306,65.8544463 C71.1426531,66.521686 69.7815714,72.2306116 62.0361633,77.752595 C66.4100408,76.1065455 70.1988163,71.7263471 70.1777143,72.1146116 C70.160449,72.4060496 70.2976122,72.0168264 70.1777143,72.1146116 C69.6252245,72.964 65.5266327,77.3135207 59.5585918,80.1675041 C53.464898,83.0818843 47.6445714,83.6302479 46.2067551,83.4979504" id="Fill-21" fill="#7FB041"></path>
            <path d="M71.3805306,70.786843 C73.6135102,68.5406612 74.7491837,67.4535207 78.6837551,58.8839008 C78.0967347,60.1646942 75.7141224,63.4539174 71.3862857,65.5610909 C79.5460612,61.5873719 83.2015102,44.7970909 82.0936531,38.1755041 C82.2193061,38.919438 83.9362449,48.0172893 79.0002857,59.338314 C77.0032653,63.918876 72.9065918,69.9259504 71.3805306,70.786843" id="Fill-22" fill="#7FB041"></path>
            <path d="M63.5756531,62.057124 C62.4725918,63.9207934 61.8769388,66.3884298 63.6945918,65.9733223 C66.092551,65.4220826 68.9806531,61.0946116 67.4248571,59.5329256 C66.1788776,58.7247603 64.4417959,60.5999339 63.5756531,62.057124" id="Fill-23" fill="#26548D"></path>
            <path d="M60.0468163,56.2341157 C59.9940612,56.141124 60.0468163,56.2341157 59.9902245,56.141124 C60.0535306,56.1871405 65.4796327,60.962314 59.6420408,69.3622479 C66.5011633,63.9648926 69.9475102,64.8344132 71.3862857,65.8362314 C71.3862857,65.8439008 71.3834082,65.8506116 71.3805306,65.8544463 C67.6876735,65.0203967 61.8587143,69.5309752 58.0047143,72.5210909 C53.4342041,76.0595702 49.4881224,79.112 44.6049184,80.325686 C44.7833265,80.2787107 45.0221633,80.2135207 45.2005714,80.1607934 C48.6584286,79.0353058 50.7446531,77.4726612 54.1123469,74.3895537 C50.9767755,76.4248264 47.5975714,78.0392397 44.6049184,80.325686 L44.7823673,80.185719 C47.6407347,77.9606281 50.7436939,76.098876 53.4936735,73.7184793 C56.4489184,71.161686 57.8147959,69.2270744 58.2684898,68.5119008 C61.8021224,62.9208926 61.3369184,58.6030083 60.0468163,56.2341157" id="Fill-24" fill="#26548D"></path>
            <path d="M47.2944521,57.6721322 C47.3002245,60.1167603 48.7879184,62.3150083 50.6055714,60.4110744 C52.4759796,58.4630413 52.8922653,53.9869752 50.1355714,53.5603636 C48.2843469,53.565157 47.2896735,55.6857521 47.2944521,57.6721322" id="Fill-25" fill="#7FB041"></path>
            <path d="M39.4857551,54.6312066 C39.3821633,54.579438 39.4857551,54.6312066 39.3821633,54.5813554 C39.4684898,54.5909421 47.9313673,55.7797025 48.3639592,65.4949421 C51.772898,56.9444959 58.5581633,56.1948099 59.8818367,56.1277025 C52.2227551,58.3681322 49.3643878,68.2233388 48.2872245,71.9343802 C47.2254082,75.5926942 46.4609388,78.2309752 44.6049184,80.325686 C44.6893265,80.2202314 44.8063469,80.0764298 44.8965102,79.9728926 C46.457102,77.7640992 46.6508571,75.8275702 47.0354898,71.9640992 C44.4744694,78.6403306 44.4744694,78.6403306 44.6049184,80.325686 C44.5982041,80.2767934 44.5876531,80.2116033 44.581898,80.1607934 C44.158898,74.7030413 47.1716939,69.5923306 46.0542449,64.0665124 C45.1679592,59.686314 42.9608776,56.3031405 39.4857551,54.6312066" id="Fill-26" fill="#7FB041"></path>
            <path d="M28.5894286,61.7676033 C29.9821633,63.8278017 32.534551,65.0510744 32.9287755,62.6141157 C33.3316327,60.1531901 31.1283878,56.1804298 28.6604082,57.012562 C27.1487347,57.8207273 27.4393673,60.0640331 28.5894286,61.7676033" id="Fill-27" fill="#26548D"></path>
            <path d="M21.6209592,62.4856529 C21.5212041,62.4808595 20.9610408,62.5441322 20.8603265,62.5383802 C20.9207551,62.5134545 27.4921224,60.2624793 34.3867347,67.7679669 C31.2665102,59.243405 37.9980612,55.2869421 39.3821633,54.5813554 C37.907898,55.7844959 34.6265306,59.2798347 35.9300612,65.7068099 C37.140551,71.6764959 42.2117551,75.1306116 44.6049184,80.325686 C44.5473673,80.2202314 44.4744694,80.0783471 44.4226735,79.9757686 C43.8836122,79.0937851 43.8836122,79.0937851 38.268551,73.3886942 C40.1466327,76.5149421 41.5048367,78.7755041 44.6049184,80.325686 L44.3900612,80.2288595 C35.7353469,75.8151074 32.8012041,63.3427107 21.6209592,62.4856529" id="Fill-28" fill="#26548D"></path>
            <path d="M15.112898,10.7458182 L15.112898,10.7458182 C15.1646939,10.7026777 15.2097755,10.6595372 15.2606122,10.615438 C15.2097755,10.6595372 15.159898,10.701719 15.112898,10.7458182 M15.3056939,10.5751736 L15.2164898,10.6528264 C15.296102,10.585719 15.3709184,10.5176529 15.4505306,10.4505455 C15.4073673,10.4888926 15.3498163,10.5377851 15.3056939,10.5751736" id="Fill-29" fill="#7FB041"></path>
            <path d="M7.73965306,20.7755041 C6.97326531,21.6248926 6.51765306,21.9604298 6.48983673,21.6987107 C6.36993878,20.5818512 10.4301633,15.3608926 10.9203061,16.0012893 C10.9999184,16.1057851 10.8924898,16.3713388 10.8263061,16.5333554 C10.141449,17.9780826 8.21732653,20.2472727 7.73965306,20.7755041" id="Fill-30" fill="#7FB041"></path>
            <path d="M9.69063265,24.0254215 C7.22073469,23.0561983 3.74657143,23.9650248 1.22391837,33.815438 C2.32697959,29.844595 2.52553061,29.1275041 4.11106122,25.4480992 C5.81457143,22.0735537 6.22126531,21.2711405 8.62689796,17.780595 L8.84463265,17.489157 C10.8454898,14.8307438 13.0324286,12.5078678 15.5330204,10.383438 C9.21679592,15.7625785 5.8807551,22.0601322 4.62806122,24.4319008 C5.49804082,23.0389421 6.815,20.9250579 9.73283673,24.0455537 C9.72228571,24.041719 9.70118367,24.0330909 9.69063265,24.0254215" id="Fill-31" fill="#7FB041"></path>
            <path d="M104.464694,26.4029421 C104.464694,29.4764628 105.496776,32.0035372 107.561898,33.9841653 C109.611673,35.9657521 111.984694,36.9570248 114.669449,36.9570248 C117.584408,36.9570248 120.045673,35.9475372 122.049408,33.931438 C124.051224,31.8904132 125.05549,29.404562 125.05549,26.474843 C125.05549,23.5086942 124.064653,21.0247603 122.085857,19.0192066 C120.117612,17.0021488 117.680327,15.9936198 114.777837,15.9936198 C111.884939,15.9936198 109.446694,17.0021488 107.452551,19.0192066 C105.459367,21.0132562 104.464694,23.4732231 104.464694,26.4029421 Z M100.234694,26.3578843 C100.234694,22.4397686 101.668673,19.0748099 104.535673,16.2639669 C107.392122,13.4512066 110.825041,12.0457851 114.83251,12.0457851 C118.791061,12.0457851 122.187531,13.4636694 125.02,16.299438 C127.86302,19.1361653 129.28549,22.5433058 129.28549,26.5208595 C129.28549,30.5214215 127.856306,33.9160992 125.002735,36.7048926 C122.132857,39.5042314 118.671163,40.9039008 114.616694,40.9039008 C111.029347,40.9039008 107.80649,39.6595372 104.950041,37.173686 C101.806796,34.422281 100.234694,30.8157355 100.234694,26.3578843 L100.234694,26.3578843 Z" id="Fill-32" fill="#3B5767"></path>
            <path d="M138.01502,25.204595 L139.581367,25.204595 C143.433449,25.204595 145.35949,23.720562 145.35949,20.7524959 C145.35949,17.8802975 143.37398,16.4441983 139.401041,16.4441983 L138.01502,16.4441983 L138.01502,25.204595 Z M138.01502,29.0977851 L138.01502,40.3986777 L133.823388,40.3986777 L133.823388,12.5701818 L138.571347,12.5701818 C140.900245,12.5701818 142.659388,12.7321983 143.846857,13.0562314 C145.046796,13.3802645 146.100939,13.9928595 147.014082,14.8940165 C148.609204,16.4557025 149.408204,18.4267438 149.408204,20.8061818 C149.408204,23.3543471 148.55549,25.3723636 146.85102,26.8631074 C145.14751,28.3528926 142.850265,29.0977851 139.960245,29.0977851 L138.01502,29.0977851 L138.01502,29.0977851 Z" id="Fill-33" fill="#3B5767"></path>
            <polyline id="Fill-34" fill="#3B5767" points="168.325224 16.5170579 157.184306 16.5170579 157.184306 23.2038347 167.999102 23.2038347 167.999102 27.1507107 157.184306 27.1507107 157.184306 36.4518017 168.325224 36.4518017 168.325224 40.3986777 152.989796 40.3986777 152.989796 12.5701818 168.325224 12.5701818 168.325224 16.5170579"></polyline>
            <polyline id="Fill-35" fill="#3B5767" points="173.093327 40.3986777 173.093327 10.6767934 193.359918 31.9095868 193.359918 12.5701818 197.554429 12.5701818 197.554429 42.0936198 177.287837 20.9145124 177.287837 40.3986777 173.093327 40.3986777"></polyline>
            <polyline id="Fill-36" fill="#3B5767" points="229.448245 16.5170579 218.309245 16.5170579 218.309245 23.2038347 229.125 23.2038347 229.125 27.1507107 218.309245 27.1507107 218.309245 36.4518017 229.448245 36.4518017 229.448245 40.3986777 214.115694 40.3986777 214.115694 12.5701818 229.448245 12.5701818 229.448245 16.5170579"></polyline>
            <path d="M238.411816,36.4518017 L240.303327,36.4518017 C242.185245,36.4518017 243.751592,36.2533554 245.000449,35.8564628 C246.248347,35.4356033 247.376347,34.7693223 248.384449,33.8557025 C250.447653,31.9690248 251.480694,29.5119339 251.480694,26.4844298 C251.480694,23.432 250.460122,20.9566942 248.420898,19.0575537 C246.584061,17.3635702 243.878204,16.5170579 240.303327,16.5170579 L238.411816,16.5170579 L238.411816,36.4518017 Z M234.220184,40.3986777 L234.220184,12.5701818 L240.05202,12.5701818 C242.845163,12.5701818 245.054163,12.8453223 246.674224,13.3984793 C248.413224,13.9391736 249.991082,14.8575868 251.406837,16.1575537 C254.276714,18.7757025 255.709735,22.218314 255.709735,26.4844298 C255.709735,30.7620496 254.215327,34.2219174 251.228429,36.8659504 C249.727306,38.1879669 248.158082,39.1073388 246.513082,39.6231074 C244.97551,40.1407934 242.797204,40.3986777 239.979122,40.3986777 L234.220184,40.3986777 L234.220184,40.3986777 Z" id="Fill-37" fill="#3B5767"></path>
            <path d="M264.438306,12.5701818 L264.438306,29.3192397 C264.438306,31.7082645 264.828694,33.4559339 265.60851,34.5612893 C266.772,36.1574876 268.409327,36.9570248 270.521449,36.9570248 C272.646041,36.9570248 274.290082,36.1574876 275.454531,34.5612893 C276.232429,33.491405 276.623776,31.7446942 276.623776,29.3192397 L276.623776,12.5701818 L280.817327,12.5701818 L280.817327,30.4849917 C280.817327,33.4175868 279.904184,35.8324959 278.080776,37.7316364 C276.028122,39.8455207 273.508347,40.9039008 270.521449,40.9039008 C267.534551,40.9039008 265.019571,39.8455207 262.981306,37.7316364 C261.157898,35.8324959 260.244755,33.4175868 260.244755,30.4849917 L260.244755,12.5701818 L264.438306,12.5701818" id="Fill-38" fill="#3B5767"></path>
            <path d="M307.278327,14.0561322 L307.278327,19.0220826 C304.85351,16.9906446 302.344286,15.9763636 299.752571,15.9763636 C296.896122,15.9763636 294.488571,17.0031074 292.534714,19.0575537 C290.568388,21.1004959 289.583306,23.5997686 289.583306,26.5553719 C289.583306,29.4764628 290.568388,31.9402645 292.534714,33.9467769 C294.502959,35.9523306 296.914347,36.9570248 299.768878,36.9570248 C301.245061,36.9570248 302.500633,36.715438 303.531755,36.2351405 C304.108224,35.9954711 304.704837,35.6704793 305.321592,35.2620826 C305.942184,34.853686 306.591551,34.3609256 307.278327,33.7838017 L307.278327,38.857124 C304.876531,40.2213223 302.356755,40.9039008 299.717082,40.9039008 C295.745102,40.9039008 292.352469,39.5147769 289.547816,36.739405 C286.750837,33.9400661 285.353306,30.5636033 285.353306,26.6100165 C285.353306,23.0657851 286.522551,19.9050248 288.865837,17.1296529 C291.741469,13.7282645 295.467898,12.0275702 300.042245,12.0275702 C302.536122,12.0275702 304.948469,12.7043967 307.278327,14.0561322" id="Fill-39" fill="#3B5767"></path>
            <path d="M327.10849,29.6921653 L322.989755,20.2300165 L318.670551,29.6921653 L327.10849,29.6921653 Z M328.820633,33.6390413 L316.921959,33.6390413 L313.829551,40.3986777 L309.311796,40.3986777 L323.060735,10.820595 L336.327204,40.3986777 L331.73751,40.3986777 L328.820633,33.6390413 L328.820633,33.6390413 Z" id="Fill-40" fill="#3B5767"></path>
            <polyline id="Fill-41" fill="#3B5767" points="345.184306 16.5170579 345.184306 40.3986777 340.987878 40.3986777 340.987878 16.5170579 334.599714 16.5170579 334.599714 12.5701818 351.554245 12.5701818 351.554245 16.5170579 345.184306 16.5170579"></polyline>
            <polygon id="Fill-42" fill="#3B5767" points="354.560327 40.3986777 358.752918 40.3986777 358.752918 12.5701818 354.560327 12.5701818"></polygon>
            <path d="M367.535204,26.4029421 C367.535204,29.4764628 368.570163,32.0035372 370.631449,33.9841653 C372.685061,35.9657521 375.054245,36.9570248 377.742837,36.9570248 C380.656837,36.9570248 383.117143,35.9475372 385.119918,33.931438 C387.125571,31.8904132 388.127918,29.404562 388.127918,26.474843 C388.127918,23.5086942 387.136122,21.0247603 385.155408,19.0192066 C383.188122,17.0021488 380.752755,15.9936198 377.850265,15.9936198 C374.958327,15.9936198 372.517204,17.0021488 370.52402,19.0192066 C368.532755,21.0132562 367.535204,23.4732231 367.535204,26.4029421 Z M363.307122,26.3578843 C363.307122,22.4397686 364.742061,19.0748099 367.61002,16.2639669 C370.462633,13.4512066 373.897469,12.0457851 377.90398,12.0457851 C381.86349,12.0457851 385.258041,13.4636694 388.09051,16.299438 C390.93449,19.1361653 392.356,22.5433058 392.356,26.5208595 C392.356,30.5214215 390.927776,33.9160992 388.072286,36.7048926 C385.206245,39.5042314 381.742633,40.9039008 377.688163,40.9039008 C374.100816,40.9039008 370.877,39.6595372 368.022469,37.173686 C364.880184,34.422281 363.307122,30.8157355 363.307122,26.3578843 L363.307122,26.3578843 Z" id="Fill-43" fill="#3B5767"></path>
            <polyline id="Fill-44" fill="#3B5767" points="396.892939 40.3986777 396.892939 10.6767934 417.158571 31.9095868 417.158571 12.5701818 421.351163 12.5701818 421.351163 42.0936198 401.08649 20.9145124 401.08649 40.3986777 396.892939 40.3986777"></polyline>
            <path d="M117.751306,49.7860496 L117.751306,53.6054215 C115.883776,52.0427769 113.957735,51.2633719 111.964551,51.2633719 C109.767061,51.2633719 107.916796,52.0523636 106.412796,53.6332231 C104.899204,55.2035372 104.144327,57.1266446 104.144327,59.3996694 C104.144327,61.6458512 104.899204,63.5392397 106.412796,65.0846281 C107.925429,66.6280992 109.78049,67.398876 111.97798,67.398876 C113.112694,67.398876 114.076673,67.2138512 114.871837,66.8438017 C115.312102,66.6597355 115.77251,66.4095207 116.248265,66.0960331 C116.722102,65.7825455 117.222796,65.4038678 117.751306,64.9590413 L117.751306,68.8618182 C115.903918,69.9106116 113.966367,70.4350083 111.935776,70.4350083 C108.883653,70.4350083 106.272755,69.3660826 104.117469,67.2339835 C101.964102,65.078876 100.888857,62.4837355 100.888857,59.4418512 C100.888857,56.7153719 101.788571,54.2860826 103.588,52.1491901 C105.803714,49.534876 108.668796,48.226281 112.186122,48.226281 C114.105449,48.226281 115.959551,48.746843 117.751306,49.7860496" id="Fill-45" fill="#3B5767"></path>
            <path d="M138.044755,59.2817521 C138.044755,61.6458512 138.838,63.5900496 140.422571,65.1133884 C142.004265,66.637686 143.824796,67.398876 145.893755,67.398876 C148.135367,67.398876 150.027837,66.6223471 151.568286,65.073124 C153.109694,63.5028099 153.879918,61.5912066 153.879918,59.338314 C153.879918,57.0566612 153.119286,55.1460165 151.597061,53.6035041 C150.08251,52.0523636 148.207306,51.2777521 145.977204,51.2777521 C143.74998,51.2777521 141.872857,52.0523636 140.342,53.6035041 C138.808265,55.1364298 138.044755,57.0307769 138.044755,59.2817521 Z M134.789286,59.2481983 C134.789286,56.2350744 135.895224,53.6466446 138.098469,51.4857851 C140.294041,49.3220496 142.933714,48.2397025 146.01749,48.2397025 C149.062898,48.2397025 151.672837,49.3316364 153.849224,51.5126281 C156.037122,53.6936198 157.133469,56.313686 157.133469,59.3728264 C157.133469,62.4482645 156.034245,65.0616198 153.838673,67.2052231 C151.63351,69.3584132 148.972735,70.4350083 145.851551,70.4350083 C143.092939,70.4350083 140.614408,69.4782479 138.419796,67.5637686 C135.998816,65.4498843 134.789286,62.6764298 134.789286,59.2481983 L134.789286,59.2481983 Z" id="Fill-46" fill="#3B5767"></path>
            <polyline id="Fill-47" fill="#3B5767" points="175.362755 70.0467438 175.362755 47.1880331 190.950449 63.5171901 190.950449 48.6433058 194.175224 48.6433058 194.175224 71.3505455 178.586571 55.0606942 178.586571 70.0467438 175.362755 70.0467438"></polyline>
            <path d="M225.557796,51.8174876 L222.941143,53.3695868 C222.451959,52.5201983 221.984837,51.965124 221.541694,51.7072397 C221.082245,51.4100496 220.484673,51.2633719 219.756653,51.2633719 C218.860776,51.2633719 218.119327,51.5174215 217.52751,52.0255207 C216.938571,52.5249917 216.641224,53.1529256 216.641224,53.9112397 C216.641224,54.9581157 217.416245,55.7979174 218.968204,56.4373554 L221.09951,57.3097521 C222.833714,58.0153388 224.102714,58.871438 224.90651,59.8838017 C225.710306,60.897124 226.112204,62.1386116 226.112204,63.6092231 C226.112204,65.5783471 225.457082,67.2080992 224.144918,68.4927273 C222.824122,69.7869421 221.187755,70.4350083 219.232939,70.4350083 C217.375,70.4350083 215.845102,69.8828099 214.636531,68.7774545 C213.445224,67.6759339 212.701857,66.122876 212.403551,64.1297851 L215.673408,63.4069421 C215.821122,64.6628099 216.077224,65.5304132 216.448429,66.0126281 C217.113143,66.9358347 218.081918,67.398876 219.354755,67.398876 C220.35998,67.398876 221.197347,67.0623802 221.858224,66.3884298 C222.525816,65.7144793 222.856735,64.8574215 222.856735,63.8249256 C222.856735,63.4088595 222.800143,63.0292231 222.682163,62.6831405 C222.569939,62.3360992 222.388653,62.0168595 222.143102,61.7263802 C221.899469,61.4349421 221.584857,61.161719 221.197347,60.9095868 C220.806959,60.6555372 220.346551,60.4120331 219.812286,60.1809917 L217.750041,59.3229752 C214.823571,58.086281 213.361776,56.2762975 213.361776,53.8911074 C213.361776,52.286281 213.973735,50.9412562 215.202449,49.8627438 C216.431163,48.7708099 217.957224,48.226281 219.785429,48.226281 C222.248612,48.226281 224.173694,49.4246281 225.557796,51.8174876" id="Fill-48" fill="#3B5767"></path>
            <path d="M246.360571,59.2817521 C246.360571,61.6458512 247.157653,63.5900496 248.743184,65.1133884 C250.322,66.637686 252.14349,67.398876 254.210531,67.398876 C256.453102,67.398876 258.346531,66.6223471 259.887939,65.073124 C261.42551,63.5028099 262.199571,61.5912066 262.199571,59.338314 C262.199571,57.0566612 261.43702,55.1460165 259.914796,53.6035041 C258.400245,52.0523636 256.526959,51.2777521 254.294939,51.2777521 C252.068673,51.2777521 250.19251,52.0523636 248.658776,53.6035041 C247.126,55.1364298 246.360571,57.0307769 246.360571,59.2817521 Z M243.108939,59.2481983 C243.108939,56.2350744 244.212,53.6466446 246.416204,51.4857851 C248.611776,49.3220496 251.253367,48.2397025 254.337143,48.2397025 C257.38351,48.2397025 259.991531,49.3316364 262.170796,51.5126281 C264.355816,53.6936198 265.451204,56.313686 265.451204,59.3728264 C265.451204,62.4482645 264.35198,65.0616198 262.157367,67.2052231 C259.952204,69.3584132 257.288551,70.4350083 254.169286,70.4350083 C251.408755,70.4350083 248.932143,69.4782479 246.734653,67.5637686 C244.318469,65.4498843 243.108939,62.6764298 243.108939,59.2481983 L243.108939,59.2481983 Z" id="Fill-49" fill="#3B5767"></path>
            <path d="M286.907184,58.4716694 L287.932551,58.4716694 C290.987551,58.4716694 292.513612,57.3020826 292.513612,54.9638678 C292.513612,52.7732893 291.028796,51.6784793 288.057245,51.6784793 L286.907184,51.6784793 L286.907184,58.4716694 Z M290.923286,60.9258843 L297.539735,70.0467438 L293.594612,70.0467438 L287.490367,61.2844298 L286.907184,61.2844298 L286.907184,70.0467438 L283.683367,70.0467438 L283.683367,48.6433058 L287.461592,48.6433058 C290.284469,48.6433058 292.324653,49.1734545 293.580224,50.2366281 C294.965286,51.420595 295.657816,52.9813223 295.657816,54.9226446 C295.657816,56.4373554 295.223306,57.7421157 294.356204,58.8321322 C293.488143,59.9240661 292.343837,60.6200661 290.923286,60.9258843 L290.923286,60.9258843 Z" id="Fill-50" fill="#3B5767"></path>
            <polyline id="Fill-51" fill="#3B5767" points="320.573571 51.6784793 320.573571 70.0467438 317.348796 70.0467438 317.348796 51.6784793 312.433939 51.6784793 312.433939 48.6433058 325.474041 48.6433058 325.474041 51.6784793 320.573571 51.6784793"></polyline>
            <polygon id="Fill-52" fill="#3B5767" points="342.527367 70.0467438 345.752143 70.0467438 345.752143 48.6433058 342.527367 48.6433058"></polygon>
            <path d="M368.289122,48.6433058 L368.289122,61.5260165 C368.289122,63.362843 368.588388,64.7088264 369.187878,65.5572562 C370.083755,66.7853223 371.343163,67.398876 372.967061,67.398876 C374.600551,67.398876 375.864755,66.7853223 376.758714,65.5572562 C377.360122,64.7347107 377.659388,63.392562 377.659388,61.5260165 L377.659388,48.6433058 L380.884163,48.6433058 L380.884163,62.4233388 C380.884163,64.6771901 380.183,66.5351074 378.781633,67.9961322 C377.203776,69.6220496 375.266224,70.4350083 372.967061,70.4350083 C370.667898,70.4350083 368.735143,69.6220496 367.167837,67.9961322 C365.766469,66.5351074 365.065306,64.6771901 365.065306,62.4233388 L365.065306,48.6433058 L368.289122,48.6433058" id="Fill-53" fill="#3B5767"></path>
            <polyline id="Fill-54" fill="#3B5767" points="399.434776 70.0467438 403.935265 47.033686 411.270143 63.6705785 418.869755 47.033686 422.912714 70.0467438 419.601612 70.0467438 417.539367 57.1266446 411.21451 71.0322645 405.068061 57.1122645 402.769857 70.0467438 399.434776 70.0467438"></polyline>
            <text id="The-Global-Network-f" font-family="Futura-Medium, Futura" font-size="16" font-weight="400" letter-spacing="3.54999995" fill="#3B5767">
                <tspan x="0" y="112.503448">The Global Network for Open Educatio</tspan>
                <tspan x="415.659373" y="112.503448">n</tspan>
            </text>
        </g>
    </g>
</svg>