<svg xmlns="http://www.w3.org/2000/svg" viewBox="0 0 230.97 73.2"><defs><style>.cls-1{fill:#1a1a1a;}.cls-2{fill:#e5e5e5;}.cls-3{fill:#ff5547;}.cls-4{fill:#0d6ae5;}</style></defs><title>oeglobal</title><g id="Layer_2" data-name="Layer 2"><g id="Layer_1-2" data-name="Layer 1"><path class="cls-1" d="M98.42,31.87a8.9,8.9,0,0,1-15.3-6.19v-.05A8.92,8.92,0,1,1,101,25.58v.05A8.58,8.58,0,0,1,98.42,31.87ZM87.91,29.93a5.76,5.76,0,0,0,8.28,0,6.05,6.05,0,0,0,1.62-4.28v-.05a6.11,6.11,0,0,0-1.64-4.3A5.46,5.46,0,0,0,92,19.57a5.38,5.38,0,0,0-4.12,1.74,6,6,0,0,0-1.62,4.27v.05A6,6,0,0,0,87.91,29.93Z"/><path class="cls-1" d="M105.36,34.16v-17H118v2.68h-9.65v4.43h8.55V26.9h-8.55v4.58h9.77v2.68Z"/><path class="cls-1" d="M132.26,34.5A9.34,9.34,0,0,1,125.62,32,8.33,8.33,0,0,1,123,25.68v-.05a8.47,8.47,0,0,1,2.62-6.31,9,9,0,0,1,6.56-2.55,10.19,10.19,0,0,1,6.92,2.48l-2.78,3.34A6.31,6.31,0,0,0,132.19,21a4.08,4.08,0,0,0-3.11,1.36,4.71,4.71,0,0,0-1.25,3.32v.05a4.65,4.65,0,0,0,1.3,3.4,4.48,4.48,0,0,0,3.33,1.32,4.84,4.84,0,0,0,2.72-.7V27.65h-3.36V24.2h7.85v7.67A11.33,11.33,0,0,1,132.26,34.5Z"/><path class="cls-1" d="M143,34.16v-17h4.72V30H156v4.14Z"/><path class="cls-1" d="M173.91,31.92a9.64,9.64,0,0,1-13.11,0,8.39,8.39,0,0,1-2.62-6.26v-.05a8.44,8.44,0,0,1,2.64-6.28,9.66,9.66,0,0,1,13.11,0,8.42,8.42,0,0,1,2.62,6.26v.05A8.47,8.47,0,0,1,173.91,31.92Zm-9.65-3a4.31,4.31,0,0,0,6.25,0,4.62,4.62,0,0,0,1.22-3.23v-.05a4.64,4.64,0,0,0-1.25-3.25A4.06,4.06,0,0,0,167.34,21a4,4,0,0,0-3.11,1.33,4.63,4.63,0,0,0-1.2,3.22v.05A4.69,4.69,0,0,0,164.26,28.89Z"/><path class="cls-1" d="M179.74,34.16v-17h8.75a6.34,6.34,0,0,1,4.65,1.53,3.74,3.74,0,0,1,1.1,2.75v.05a3.91,3.91,0,0,1-2.64,3.8,5.47,5.47,0,0,1,2.52,1.53,3.84,3.84,0,0,1,.87,2.64v.05a4,4,0,0,1-1.7,3.44,7.9,7.9,0,0,1-4.76,1.26Zm4.6-10.26h3c1.49,0,2.24-.49,2.24-1.48v-.05c0-1-.72-1.46-2.15-1.46h-3.07Zm0,6.46H188a3,3,0,0,0,1.67-.4,1.33,1.33,0,0,0,.59-1.16v-.05q0-1.53-2.31-1.53h-3.61Z"/><path class="cls-1" d="M196.53,34.16,203.79,17h4.55l7.26,17.18h-5.07l-1.24-3h-6.58l-1.21,3Zm7.57-6.72h3.83L206,22.59Z"/><path class="cls-1" d="M218,34.16v-17h4.72V30H231v4.14Z"/><path class="cls-1" d="M90.78,56.3a6.17,6.17,0,0,1-4.58-1.87,6.36,6.36,0,0,1-1.84-4.61v0a6.41,6.41,0,0,1,1.84-4.63,6.25,6.25,0,0,1,4.67-1.9,6.88,6.88,0,0,1,2.79.51,7.59,7.59,0,0,1,2.15,1.46l-1.42,1.64a5.17,5.17,0,0,0-3.54-1.57,3.86,3.86,0,0,0-3,1.29,4.5,4.5,0,0,0-1.19,3.16v0A4.56,4.56,0,0,0,87.88,53a3.85,3.85,0,0,0,3,1.31,4.29,4.29,0,0,0,1.91-.41,7.1,7.1,0,0,0,1.72-1.23l1.42,1.44a7.68,7.68,0,0,1-2.25,1.68A6.77,6.77,0,0,1,90.78,56.3Z"/><path class="cls-1" d="M109,54.39a6.58,6.58,0,0,1-11.32-4.57v0a6.68,6.68,0,0,1,11.34-4.63,6.29,6.29,0,0,1,1.85,4.59v0A6.33,6.33,0,0,1,109,54.39ZM101.26,53a4.26,4.26,0,0,0,6.13,0,4.46,4.46,0,0,0,1.2-3.16v0a4.5,4.5,0,0,0-1.22-3.18,4.26,4.26,0,0,0-6.13,0,4.46,4.46,0,0,0-1.2,3.16v0A4.5,4.5,0,0,0,101.26,53Z"/><path class="cls-1" d="M114.13,56.09V43.47h2.05l6.76,8.72V43.47h2.18V56.09h-1.85l-7-9v9Z"/><path class="cls-1" d="M129,56.09V43.47h9.39v2h-7.17v3.44h6.36v2h-6.36v5.14Z"/><path class="cls-1" d="M141.17,56.09V43.47h9.36v2h-7.14v3.28h6.33v2h-6.33v3.39h7.23v2Z"/><path class="cls-1" d="M153.84,56.09V43.47h5.63a5,5,0,0,1,3.64,1.26,3.78,3.78,0,0,1,1,2.72v0a3.68,3.68,0,0,1-.81,2.46,4.31,4.31,0,0,1-2.2,1.36l3.41,4.78h-2.61l-3.1-4.4h-2.78v4.4Zm2.22-6.36h3.24a2.93,2.93,0,0,0,1.9-.58,1.89,1.89,0,0,0,.7-1.53v0a1.88,1.88,0,0,0-.68-1.55,3.06,3.06,0,0,0-1.93-.54h-3.23Z"/><path class="cls-1" d="M167.43,56.09V43.47h9.35v2h-7.14v3.28H176v2h-6.33v3.39h7.23v2Z"/><path class="cls-1" d="M180.09,56.09V43.47h2.06l6.76,8.72V43.47h2.18V56.09h-1.86l-6.95-9v9Z"/><path class="cls-1" d="M200.73,56.3a6.17,6.17,0,0,1-4.58-1.87,6.35,6.35,0,0,1-1.83-4.61v0a6.4,6.4,0,0,1,1.83-4.63,6.26,6.26,0,0,1,4.67-1.9,6.85,6.85,0,0,1,2.79.51,7.59,7.59,0,0,1,2.15,1.46l-1.42,1.64a5.17,5.17,0,0,0-3.54-1.57,3.88,3.88,0,0,0-3,1.29,4.5,4.5,0,0,0-1.19,3.16v0A4.56,4.56,0,0,0,197.83,53a3.86,3.86,0,0,0,3,1.31,4.34,4.34,0,0,0,1.92-.41,7.26,7.26,0,0,0,1.71-1.23l1.42,1.44a7.68,7.68,0,0,1-2.25,1.68A6.74,6.74,0,0,1,200.73,56.3Z"/><path class="cls-1" d="M208.6,56.09V43.47H218v2h-7.13v3.28h6.32v2h-6.32v3.39H218v2Z"/><rect class="cls-2" width="73.03" height="73.2" rx="1.7"/><path class="cls-3" d="M0,62.93H73a0,0,0,0,1,0,0v8.68a1.59,1.59,0,0,1-1.59,1.59H1.59A1.59,1.59,0,0,1,0,71.62V62.93A0,0,0,0,1,0,62.93Z"/><path class="cls-4" d="M37.49,69.93c-5.52,0-10.57-3.65-14.22-10.29-3.35-6.09-5.2-14.12-5.2-22.61s1.85-16.52,5.2-22.6C26.92,7.79,32,4.13,37.49,4.13a2.92,2.92,0,0,1,0,5.83c-3.3,0-6.53,2.59-9.11,7.28C25.49,22.48,23.9,29.51,23.9,37s1.59,14.56,4.48,19.8c2.58,4.69,5.81,7.27,9.11,7.27S44,61.52,46.6,56.83c2.88-5.24,4.47-12.27,4.47-19.8a2.92,2.92,0,0,1,5.83,0c0,8.49-1.85,16.52-5.19,22.61C48.05,66.28,43,69.93,37.49,69.93Z"/><path class="cls-4" d="M0,50.45a160.06,160.06,0,0,1,27.8-4.18c3.23-.2,6.53-.3,9.78-.3a162.26,162.26,0,0,1,24.81,1.92l2.88.45-.9,5.77-2.88-.45a155.58,155.58,0,0,0-23.91-1.85c-3.14,0-6.31.09-9.43.28A154,154,0,0,0,0,56.46"/><path class="cls-4" d="M0,36.33a160.86,160.86,0,0,1,27.88-4.12c3.06-.17,6.18-.27,9.26-.27,4.4,0,8.86.19,13.27.55l.56,0,1.27.1h.09c2.77.26,5.64.6,8.53,1l1.76.25v0l2,.32h0l3.09.56,2.35.35a.47.47,0,0,1,.36.5l-.4,5.52-3.42-.64c-1-.19-2-.37-3.13-.57l-2-.31-3-.45-2.72-.35-2-.21a155.12,155.12,0,0,0-33.37,0A152.61,152.61,0,0,0,0,42.35"/><path class="cls-4" d="M0,29.13a154.8,154.8,0,0,1,28.16-4.29c3-.17,6-.26,9-.26,1.38,0,4.81.07,6.64.11a.6.6,0,0,0,.6-.53l.57-5a.21.21,0,0,0-.2-.23c-2.53-.12-5.09-.18-7.61-.18-3.1,0-6.23.09-9.31.27A159.2,159.2,0,0,0,0,23.12"/><path class="cls-4" d="M40.2,70a33,33,0,0,1-26.13-56.3A33.09,33.09,0,0,1,53.49,8.16,33.28,33.28,0,0,1,65,18.85a.34.34,0,0,1-.1.48l-4.48,2.9a.36.36,0,0,1-.49-.11,27.06,27.06,0,0,0-45.6.83,25,25,0,0,0-3.21,7.74A27.09,27.09,0,0,0,43.79,63.34a24.79,24.79,0,0,0,7.74-3.21A27.05,27.05,0,0,0,64.44,37.05v-1.8L68.87,35l1.48.22a.15.15,0,0,1,.13.15v1.67A33,33,0,0,1,40.2,70Z"/></g></g></svg>