<?xml version="1.0" encoding="UTF-8"?>
<svg width="164px" height="142px" viewBox="0 0 164 142" version="1.1" xmlns="http://www.w3.org/2000/svg" xmlns:xlink="http://www.w3.org/1999/xlink">
    <title>logo/desktop/inverted</title>
    <g id="Page-1" stroke="none" stroke-width="1" fill="none" fill-rule="evenodd">
        <g id="frontpage" transform="translate(-615.000000, -4363.000000)" fill-rule="nonzero">
            <g id="footer" transform="translate(0.000000, 4063.000000)">
                <g id="Footer" transform="translate(240.000000, 76.000000)">
                    <g id="Group" transform="translate(365.000000, 216.000000)">
                        <g id="oeg-mainV-RGB" transform="translate(10.000000, 5.000000)">
                            <g id="Group" transform="translate(18.000000, 0.000000)" fill="#0D59F2">
                                <g id="Icon" transform="translate(0.000000, 3.488152)">
                                    <path d="M85.0983074,5.43181295 C91.0781986,8.74554362 96.1734174,13.4396103 99.9566396,19.1203326 C100.086646,19.3311837 100.025176,19.6067849 99.8177767,19.7429311 L94.0549656,23.4525805 C93.9531075,23.5199444 93.8281775,23.5432533 93.7087571,23.5171747 C93.5893367,23.491096 93.4856446,23.4178613 93.4214035,23.3142253 C86.8332799,13.4437788 75.6480978,7.60209179 63.7528078,7.81920261 L63.336835,7.82886756 C59.4921238,8.36558726 55.7689278,11.6013315 52.7432475,17.0795931 C52.3330566,17.8224944 51.9429738,18.5933388 51.5735602,19.3898789 L52.0228961,19.3624543 C55.9891682,19.137627 60.0335507,19.0165662 64.0258596,19.0165662 C67.2717803,19.0165662 70.5610957,19.094391 73.8243742,19.2500406 C73.8991151,19.2542138 73.9687318,19.2892232 74.0164926,19.3466548 C74.0642534,19.4040864 74.0858397,19.4787471 74.0760633,19.5526927 L74.0760633,19.5526927 L73.347033,25.9689161 C73.3065693,26.357082 72.9749173,26.6499715 72.5832869,26.6433978 C70.2226173,26.5915146 65.7616461,26.5050426 64.0258596,26.5050426 C60.1724136,26.5050426 56.2842519,26.6174562 52.4655217,26.8422834 C51.2593575,26.9123308 50.0541126,26.993354 48.8499362,27.0853295 C48.0684425,30.0841753 47.5200272,33.2796512 47.2228749,36.5978222 C48.8391569,36.4625937 50.456244,36.3470255 52.0749697,36.2504384 C56.023884,36.0256112 60.0335507,35.9045504 64.0171807,35.9045504 C69.6758446,35.9045504 75.4212978,36.146672 81.1059985,36.6049737 L81.817671,36.6655041 L83.4579892,36.8038593 L83.5794942,36.8038593 C87.1552144,37.132453 90.8437606,37.5821074 94.5583437,38.1268811 L96.8322239,38.4468276 C97.7001172,38.5765356 98.5680104,38.7148908 99.4359037,38.8618932 L99.4879773,38.8618932 L103.462928,39.5796109 L106.483197,40.0292654 C106.58335,40.0508168 106.672911,40.0961062 106.746738,40.1582412 L106.812996,40.1676206 C106.911104,40.184104 106.983814,40.2674154 106.986576,40.3665063 L106.986576,42.5110122 C106.992213,64.5622697 90.0377955,82.93946 67.9834528,84.7871794 C51.8791951,86.1419318 36.55776,78.3032828 28.2047974,64.8487961 C23.256108,65.7667344 18.3412129,66.8740653 13.4710786,68.1672585 C13.3327498,68.2066269 13.1860881,68.1408704 13.1239213,68.0116089 L9.94743204,61.6040327 C9.91929373,61.5436447 9.91836976,61.4741602 9.94489246,61.4130506 C9.97141517,61.3519411 10.0228613,61.3050203 10.086295,61.2840862 C14.9205536,59.9634995 19.7986665,58.8201889 24.7107528,57.8557853 C23.4491668,54.6189711 22.6087099,51.2848388 22.1762476,47.9272742 C16.0684074,49.2383561 10.0179017,50.838767 4.04575803,52.7233569 C3.8923689,52.7764798 3.72299397,52.710445 3.64652715,52.5677073 L0.0968438082,46.3849584 C0.0678501332,46.3304707 0.063593813,46.2662391 0.0851458804,46.2084265 C0.106697948,46.1506138 0.152006333,46.1047247 0.209669929,46.0823063 C2.4592492,45.3490237 4.7532646,44.6489462 7.06061084,43.9820741 L8.79313404,43.4881459 L9.96478991,43.1681995 C13.9126154,42.0922762 17.8895148,41.1342043 21.8901409,40.2948623 C22.0626032,37.0352557 22.6124094,33.8042106 23.527294,30.6698829 C20.1569059,31.3696712 16.803616,32.1580738 13.4710786,33.0336795 C13.4022055,33.0499072 13.3309867,33.0179759 13.2974999,32.9558547 L13.2974999,32.9558547 L9.97346884,26.3666873 C9.95644465,26.3338715 9.95538984,26.2951071 9.97060444,26.2614205 C9.98581905,26.2277338 10.015638,26.2028118 10.0515792,26.1937433 C15.6275857,24.6863455 21.2609639,23.4134371 26.936728,22.3774572 C28.8674377,18.8132638 31.3321584,15.4869059 34.3091952,12.522518 C47.7526941,-0.870967385 68.477853,-3.76442196 85.0983074,5.43181295 Z M64.5986691,61.4916191 C60.5629656,61.4916191 56.4751885,61.6213271 52.4481638,61.8634487 C51.6694413,61.9111367 50.8911152,61.9633876 50.1132255,62.020195 C50.8604767,64.1147753 51.7337447,66.0763689 52.7258897,67.8732536 C56.0499208,73.9262946 60.2158083,77.2122311 64.4598062,77.2122311 C68.7038042,77.2122311 72.8783706,73.8917058 76.2024017,67.8732536 C77.2092352,66.0694413 78.0928291,64.0977336 78.8465828,61.9903377 C74.1052627,61.6552801 69.353553,61.4893394 64.5986691,61.4916191 Z M42.4327656,62.7314907 L42.230895,62.7533847 C40.3740302,62.9633602 38.5204519,63.1994022 36.670711,63.4614217 C37.6199683,64.7103264 38.6609211,65.9019819 39.7897609,67.0273908 C41.8668603,69.0981769 44.1692591,70.8726298 46.6336103,72.3329269 C46.4753117,72.0605816 46.3189967,71.7848976 46.1646168,71.5050782 C44.6846877,68.8509453 43.4359178,65.9001197 42.4327656,62.7314907 Z M86.5223149,62.6766821 L86.4502922,62.908479 C85.4589652,65.9958502 84.2362001,68.876329 82.7983903,71.4791366 C82.6530031,71.7434582 82.5058996,72.0040874 82.3571149,72.261 L82.5467013,72.1449711 L82.5467013,72.1449711 C86.3554727,69.8208901 89.6172705,66.832399 92.2190016,63.3806193 C90.3235553,63.1180848 88.4243106,62.8838331 86.5223149,62.6766821 Z M39.5145023,44.9898691 L38.2361341,45.1528872 C35.417523,45.5218477 32.6071821,45.9508937 29.8070487,46.4397266 C30.2085477,49.9039053 31.1311245,53.2874135 32.5412494,56.4751878 C35.2256913,56.0540752 37.9178281,55.6867433 40.6168499,55.3726132 C40.0043039,52.0385503 39.6328553,48.5531214 39.5145023,44.9898691 Z M89.4438373,45.0648923 L89.43379,45.3579556 C89.3004965,48.7838457 88.9308201,52.1331331 88.3389842,55.3444082 C90.9974841,55.6474804 93.6513227,56.0029753 96.2982658,56.4094465 C97.6832927,53.2488541 98.6009645,49.8718223 98.9933477,46.3817956 C98.6687964,46.3252384 98.3387105,46.2686264 98.0038798,46.2120143 L95.4869894,45.9266567 C94.3066546,45.7364183 93.0655673,45.554827 91.5554331,45.3472942 C90.8014087,45.2421167 90.0997919,45.1485428 89.4438373,45.0648923 Z M64.1473647,43.4622043 C58.4121768,43.4630998 52.6865951,43.7108186 46.9863902,44.2029305 C47.0780225,47.814532 47.4593827,51.3237913 48.1088531,54.6404712 C49.4037664,54.5357627 50.6997797,54.4449318 51.9968594,54.3663252 C56.1714258,54.1069091 60.4067448,53.9858483 64.5986691,53.9858483 C70.0228941,53.9871917 75.4429837,54.1994892 80.8465962,54.6217891 C81.4878164,51.3367163 81.8644817,47.856268 81.9589404,44.2683535 C76.0363462,43.737567 70.0937524,43.4690724 64.1473647,43.4622043 Z M40.9754324,27.8444751 L40.7904491,27.8662585 C37.9317245,28.2021372 35.0809776,28.6000105 32.2402344,29.0595564 C31.5235685,30.7588145 30.9556613,32.5193787 30.5425385,34.3221125 C30.183984,35.8082966 29.9266454,37.3044445 29.7679824,38.8015723 C33.0497422,38.2438972 36.3450285,37.7661975 39.6508461,37.3681172 C39.8782949,34.0921748 40.3242988,30.8985615 40.9754324,27.8444751 Z M46.6248188,12.6624557 L46.4547171,12.7632451 C42.9615439,14.8513283 39.8324385,17.5505428 37.2353222,20.7652187 C39.2165052,20.504308 41.2010062,20.2733711 43.1888829,20.0711014 C44.0432944,17.7239863 45.0379317,15.5133015 46.1646168,13.4737102 C46.3161575,13.1993156 46.4695717,12.9288877 46.6248188,12.6624557 Z" id="G"></path>
                                </g>
                            </g>
                            <path d="M13.868,118.02892 C17.6438044,117.947791 21.3158164,119.268226 24.17528,121.73536 L20.05076,126.688 C18.3649321,125.168534 16.1854961,124.311613 13.91624,124.276 C12.1516155,124.243824 10.461704,124.987385 9.29324,126.31012 C8.0495425,127.660575 7.38303101,129.443709 7.436,131.27884 L7.436,131.3512 C7.36919059,133.233866 8.0716606,135.062611 9.38168,136.4164 C10.6837124,137.738691 12.4796119,138.455885 14.33432,138.39424 C15.7644231,138.450448 17.1793975,138.08412 18.40256,137.341 L18.40256,134.25364 L13.37756,134.25364 L13.37756,129.1 L25.05968,129.1 L25.05968,140.53288 C21.9712423,143.119546 18.0569781,144.511791 14.0288,144.4564 C10.3724476,144.574332 6.81773027,143.242035 4.1396,140.74996 C1.5266083,138.319025 0.090504033,134.878237 0.2,131.311 L0.2,131.23864 C0.132321139,127.706086 1.54639554,124.306476 4.0994,121.864 C6.70151622,119.314936 10.2266891,117.930979 13.868,118.02892 Z M67.736,118.02892 C71.3643068,117.937316 74.8746378,119.321141 77.4644,121.864 C79.9344376,124.19285 81.3518989,127.418985 81.4036909,130.803123 L81.404,131.23864 C81.4555688,134.781964 80.0105923,138.182767 77.4242,140.60524 C74.820832,143.164254 71.2886921,144.554471 67.63952,144.4564 C64.0091817,144.5588 60.492706,143.183544 57.89504,140.64544 C55.3441125,138.218212 53.9293569,134.83155 53.99564,131.311 L53.99564,131.23864 C53.9314093,127.698661 55.3615827,124.295432 57.93524,121.864 C60.5446691,119.305993 64.0834766,117.921242 67.736,118.02892 Z M38.88848,118.55152 L38.88848,137.77516 L51.19772,137.77516 L51.19772,143.94184 L34.772,143.94184 C34.0016808,143.9526 33.2591989,143.654106 32.7106833,143.113145 C32.1621677,142.572185 31.85348,141.833914 31.85348,141.06352 L31.85348,118.55152 L38.88848,118.55152 Z M99.72716,118.53544 C102.82256,118.53544 105.13808,119.29924 106.65764,120.82684 C107.737318,121.912655 108.319392,123.396943 108.26564,124.92724 L108.26564,124.9996 C108.26564,127.63672 106.9578,129.51272 104.34212,130.6276 C105.776483,131.028065 107.074566,131.811918 108.0968,132.89488 C109.002704,134.001677 109.464149,135.406073 109.39124,136.83448 L109.39124,136.90684 C109.461424,138.937473 108.506945,140.867574 106.8506,142.0444 C105.15684,143.28792 102.79576,143.90968 99.76736,143.90968 L86.69432,143.94184 L86.69432,118.53544 L99.72716,118.53544 Z M129.74048,118.35856 L140.55428,143.94184 L133.00472,143.94184 L131.15552,139.40728 L121.35476,139.40728 L119.53772,143.94184 L112.13288,143.94184 L122.94668,118.35856 L129.74048,118.35856 Z M151.352,118.55152 L151.352,137.77516 L163.6532,137.77516 L163.6532,143.94184 L147.16316,143.94184 C145.573508,143.94184 144.28484,142.653172 144.28484,141.06352 L144.28484,118.55152 L151.352,118.55152 Z M98.9312,133.63456 L93.56048,133.63456 L93.56048,138.31384 L99.00356,138.31384 C99.8719231,138.361403 100.735304,138.154638 101.48792,137.71888 C102.026624,137.371247 102.357577,136.783736 102.380975,136.149658 L102.38036,135.91792 C102.38036,134.39568 101.23064,133.63456 98.9312,133.63456 Z M63.01652,126.3664 C61.8167896,127.682118 61.1715785,129.410362 61.21556,131.1904 L61.21556,131.26276 C61.1844849,133.046492 61.8408641,134.773806 63.04868,136.08676 C64.257017,137.365117 65.9361932,138.092811 67.6952323,138.100466 C69.4542714,138.108002 71.1396689,137.394835 72.359,136.12696 C73.5696861,134.816885 74.2215736,133.086211 74.17604,131.30296 L74.17604,131.2306 C74.2052515,129.444219 73.54266,127.715719 72.32684,126.4066 C71.134187,125.081531 69.4217283,124.344263 67.63952,124.38856 C65.882375,124.33448 64.1908316,125.058166 63.01652,126.3664 Z M126.25916,126.688 L123.38888,133.924 L129.08924,133.924 L126.25916,126.688 Z M98.11112,124.20364 L93.53636,124.20364 L93.56048,128.66584 L97.98248,128.66584 C100.21224,128.66584 101.32712,127.92616 101.32712,126.4468 L101.32712,126.37444 C101.32712,124.92724 100.2578,124.20364 98.11112,124.20364 Z M25.42148,99.0304 C26.7728459,99.017091 28.0678274,99.5712498 28.99124,100.558 C29.9643776,101.636242 30.495727,103.037415 30.486691,104.483317 L30.47864,104.75488 C30.5738761,106.310928 30.040965,107.840151 28.99928,109 C28.0803821,109.999815 26.7793084,110.561177 25.42148,110.54368 C24.0700763,110.559619 22.7886084,109.944158 21.95624,108.8794 L21.95624,113.65516 L18.80456,113.65516 L18.80456,99.22336 L21.95624,99.22336 L21.95624,100.83136 C22.7359238,99.6875851 24.0373705,99.0111952 25.42148,99.0304 Z M14.17352,98.41132 C15.5360977,99.7491139 16.3180977,101.563938 16.3599636,103.465114 L16.3604,103.76596 C16.4081634,105.798632 15.60699,107.759322 14.1494,109.17688 C12.6979992,110.655858 10.6974142,111.465411 8.62592,111.412 C6.56660724,111.476495 4.57264085,110.68473 3.11852,109.22512 C1.67064168,107.81611 0.877752948,105.865953 0.93164,103.84636 L0.93164,103.80616 C0.892186868,101.786813 1.69293083,99.8417334 3.14264,98.43544 C4.59978489,96.9677715 6.59873219,96.1676107 8.66612,96.22444 C10.7244163,96.1657269 12.7161726,96.9566141 14.17352,98.41132 Z M41.7266,100.77508 C42.6729849,102.002183 43.1645504,103.5195 43.11752,105.06844 L43.11752,105.87244 L43.11752,105.87244 L35.3348,105.87244 C35.4469919,106.501408 35.7772032,107.070738 36.26744,107.48044 C36.7806104,107.865683 37.411184,108.061672 38.05232,108.0352 C39.0653378,108.023715 40.0330316,107.613528 40.74572,106.89352 L42.54668,108.50152 C41.4526108,109.893798 39.7573631,110.67714 37.988,110.608 C36.4365932,110.659921 34.9306144,110.079583 33.81524,109 C32.727223,107.906456 32.144463,106.408763 32.20724,104.86744 L32.20724,104.8192 C32.1707797,103.300992 32.7307325,101.828951 33.767,100.7188 C34.7710597,99.6092037 36.2107849,98.9951168 37.7066,99.03844 C39.2472865,98.9407297 40.7416749,99.5863055 41.7266,100.77508 Z M110.96708,101.46652 L109.142,103.4122 C108.55197,102.707701 107.688751,102.289259 106.7702,102.26248 C106.076335,102.241563 105.410635,102.53743 104.9612,103.06648 C104.528102,103.565472 104.275888,104.19334 104.241095,104.848997 L104.2376,105.06844 C104.211267,105.820111 104.472974,106.553465 104.96924,107.11864 C105.453259,107.661405 106.15633,107.956813 106.88276,107.92264 C107.801549,107.885067 108.668365,107.486331 109.29476,106.81312 L111.02336,108.56584 C110.503785,109.144227 109.885884,109.626027 109.19828,109.98892 C108.440289,110.383547 107.600554,110.595546 106.74608,110.608 C105.305883,110.634154 103.916405,110.076339 102.894085,109.061592 C101.871764,108.046844 101.303634,106.661552 101.31908,105.2212 L101.31908,105.1408 C101.369008,102.873997 102.787587,100.863528 104.906484,100.056581 C107.025381,99.2496341 109.421943,99.8071709 110.96708,101.46652 Z M148.71488,101.28964 C149.70158,102.222166 150.276525,103.504668 150.320822,104.854772 L150.32288,105.10864 C150.362291,106.574974 149.777895,107.989214 148.71488,109 C146.440307,111.084748 142.949453,111.084748 140.67488,109 C139.624835,108.010355 139.040971,106.623679 139.06688,105.181 L139.06688,105.1408 C139.035877,103.687773 139.619832,102.289201 140.67488,101.28964 C142.946462,99.1972161 146.443298,99.1972161 148.71488,101.28964 Z M92.31428,99.90676 L92.31428,105.72772 C92.2727389,106.302205 92.4381509,106.872592 92.7806,107.33572 C93.1183333,107.707016 93.6062206,107.905128 94.1072,107.8744 C94.6145605,107.901064 95.1081524,107.704215 95.45792,107.33572 C95.8235529,106.883164 96.001935,106.307738 95.9564,105.72772 L95.9564,99.90676 L98.91512,99.90676 L98.91512,110.35876 L95.9564,110.35876 L95.9564,108.85528 C95.2681195,109.873723 94.130021,110.496683 92.9012,110.5276 C91.9234288,110.586596 90.9696851,110.209809 90.29624,109.49848 C89.6323301,108.707366 89.2983662,107.691079 89.3636,106.66036 L89.3636,99.90676 L92.31428,99.90676 Z M121.0412,100.96 C121.854629,101.869995 122.263751,103.071246 122.17484,104.28856 L122.17484,110.33464 L119.3126,110.33464 L119.3126,109.20904 C118.51035,110.09531 117.355275,110.578556 116.16092,110.5276 C115.240363,110.570802 114.33435,110.285892 113.6042,109.7236 C112.963637,109.185936 112.591903,108.398033 112.57955,107.568096 L112.58312,107.37592 C112.51968,106.405872 112.948804,105.469052 113.7248,104.88352 C114.633927,104.295514 115.707327,104.013782 116.78804,104.07952 C117.6552,104.081064 118.516219,104.22502 119.33672,104.50564 L119.33672,104.32876 C119.33672,103.05844 118.589,102.42328 117.09356,102.42328 C116.108876,102.443789 115.135128,102.634186 114.21524,102.98608 L113.47556,100.73488 C114.74581,100.192629 116.114464,99.9188982 117.49556,99.93088 C118.767842,99.7819725 120.046352,100.153059 121.0412,100.96 Z M86.48528,96.136 L86.48528,110.33464 L83.5346,110.33464 L83.5346,108.8392 C82.81101,109.902836 81.6050035,110.53599 80.3186,110.5276 C79.0489737,110.541155 77.8332707,110.01513 76.97396,109.0804 C76.0583779,108.075015 75.5558213,106.765247 75.5594562,105.41196 L75.56696,105.1408 C75.4925397,103.695502 75.9925141,102.27939 76.95788,101.2012 C77.8227537,100.26482 79.0440071,99.7389211 80.3186,99.754 C81.5735454,99.7511519 82.7598519,100.326511 83.5346,101.31376 L83.5346,96.136 L86.48528,96.136 Z M128.32544,97.24552 L128.32544,99.90676 L130.77764,99.90676 L130.77764,102.43936 L128.32544,102.43936 L128.32544,106.89352 C128.32544,107.56888 128.639,107.90656 129.27416,107.90656 C129.785006,107.906238 130.287789,107.779161 130.73744,107.53672 L130.73744,109.90852 C130.032072,110.316849 129.228795,110.525313 128.41388,110.51152 C127.604218,110.562624 126.804539,110.310396 126.17072,109.804 C125.577674,109.147541 125.286159,108.272995 125.36672,107.392 L125.36672,102.43936 L124.12052,102.43936 L124.12052,99.90676 L125.36672,99.90676 L125.36672,97.24552 L128.32544,97.24552 Z M54.55844,100.13992 C55.2598956,100.989074 55.6158368,102.07125 55.5554,103.171 L55.5554,110.407 L52.40372,110.407 L52.40372,104.176 C52.4435705,103.574323 52.2667461,102.978254 51.90524,102.49564 C51.5449343,102.099244 51.0250251,101.886554 50.4902,101.91676 C49.9490059,101.890553 49.4233526,102.101989 49.05104,102.49564 C48.668562,102.968789 48.4790211,103.569002 48.5204,104.176 L48.5204,110.37484 L45.36872,110.33464 L45.36872,99.22336 L48.5204,99.22336 L48.5204,100.83136 C49.2495293,99.740715 50.4649779,99.0744692 51.7766,99.04648 C52.8191799,98.9865124 53.8357367,99.3860838 54.55844,100.13992 Z M161.11256,100.74292 C161.76979,101.540877 162.102727,102.556909 162.0452,103.58908 L162.0452,110.33464 L159.08648,110.33464 L159.08648,104.52172 C159.13548,103.946472 158.969319,103.373502 158.62016,102.91372 C158.290042,102.535697 157.802355,102.333485 157.3016,102.367 C156.79298,102.342399 156.299191,102.542266 155.95088,102.91372 C155.579957,103.363437 155.400897,103.941051 155.4524,104.52172 L155.4524,110.33464 L152.49368,110.33464 L152.49368,99.88264 L155.4524,99.88264 L155.4524,101.38612 C156.142525,100.369704 157.279493,99.7473635 158.5076,99.7138 C159.484306,99.6614194 160.435371,100.037149 161.11256,100.74292 Z M136.69508,99.88264 L136.69508,110.33464 L133.7444,110.33464 L133.7444,99.88264 L136.69508,99.88264 Z M73.50872,96.72292 L73.50872,99.352 L66.21644,99.352 L66.21644,102.14992 L72.64844,102.14992 L72.64844,104.81116 L66.21644,104.81116 L66.21644,107.6734 L73.6052,107.6734 L73.6052,110.33464 L63.24164,110.33464 L63.24164,96.72292 L73.50872,96.72292 Z M115.98404,106.11364 C115.668427,106.324262 115.471752,106.668467 115.446635,107.041799 L115.44536,107.18296 C115.431663,107.545142 115.597018,107.890883 115.88756,108.10756 C116.223381,108.35955 116.633569,108.492507 117.05336,108.48544 C117.656173,108.513738 118.250112,108.331862 118.73372,107.97088 C119.142461,107.660445 119.378449,107.173534 119.36888,106.66036 L119.36888,106.12972 C118.777605,105.864806 118.135339,105.733059 117.48752,105.7438 C116.960736,105.714857 116.437283,105.843621 115.98404,106.11364 Z M8.86437417,99.1998377 L8.62592,99.19924 C7.43911208,99.1640515 6.29532001,99.6450307 5.49032,100.5178 C4.74195862,101.330169 4.31110008,102.381365 4.27061887,103.479611 L4.26824,103.7338 C4.22096451,104.970262 4.66961142,106.174372 5.51444,107.07844 C6.32149158,107.959675 7.47164291,108.446729 8.66612,108.41308 C9.85216896,108.456796 10.9969193,107.974177 11.79368,107.09452 C12.6068926,106.223626 13.0482266,105.069811 13.0238,103.87852 L13.0238,103.80616 C13.0514085,102.596953 12.6040196,101.425082 11.7776,100.54192 C11.0257186,99.7166599 9.97350827,99.2347339 8.86437417,99.1998377 Z M144.62252,102.275496 C143.88068,102.275496 143.170314,102.575245 142.65272,103.10668 C142.201412,103.609232 141.94151,104.252066 141.91421,104.922781 L141.91304,105.12472 C141.905529,105.881662 142.194037,106.611588 142.71704,107.15884 C143.222645,107.729843 143.95677,108.04531 144.719,108.01912 L144.69488,108.02716 C145.434909,108.058934 146.151757,107.765144 146.65664,107.22316 C147.152155,106.666601 147.416699,105.941981 147.39632,105.19708 L147.39632,105.1408 C147.402133,104.384174 147.113868,103.654863 146.59232,103.10668 C146.074726,102.575245 145.36436,102.275496 144.62252,102.275496 Z M81.07436,102.27052 C80.3827728,102.26095 79.721691,102.554764 79.26536,103.07452 C78.8064591,103.595789 78.5458545,104.259389 78.5247764,104.94925 L78.52568,105.15688 C78.5011228,105.912123 78.7656774,106.648275 79.26536,107.21512 C79.7231383,107.731567 80.380211,108.027185 81.07034,108.027185 C81.760469,108.027185 82.4175417,107.731567 82.87532,107.21512 C83.3278648,106.693467 83.5851083,106.033356 83.6073705,105.347287 L83.60696,105.1408 C83.6349778,104.384021 83.3733172,103.645045 82.87532,103.07452 C82.4228104,102.554222 81.7638273,102.260033 81.07436,102.27052 Z M24.62552,101.7238 C23.8940891,101.707706 23.1932067,102.016919 22.712,102.568 C22.2178379,103.115499 21.9346602,103.818087 21.9081931,104.550475 L21.908,104.77096 C21.8742417,105.592344 22.1627546,106.39441 22.712,107.00608 C23.1915306,107.561308 23.8919457,107.876201 24.62552,107.86636 C25.3627113,107.879667 26.0684255,107.567976 26.55512,107.01412 C27.0597886,106.460024 27.3447141,105.743529 27.3612893,104.99879 L27.35912,104.79508 C27.3904205,103.983732 27.1016755,103.192571 26.55512,102.59212 C26.0721179,102.031381 25.3655275,101.713416 24.62552,101.7238 Z M37.67444,101.53888 C37.0732765,101.516852 36.4902759,101.747137 36.06644,102.17404 C35.6331008,102.654293 35.3629141,103.259399 35.2946,103.90264 L40.0382,103.90264 C39.9765653,103.263107 39.7117063,102.66013 39.28244,102.18208 C38.8640355,101.74618 38.2780434,101.511783 37.67444,101.53888 Z M136.77548,96.136 L136.77548,98.76508 L133.664,98.76508 L133.664,96.136 L136.77548,96.136 Z" id="type" fill="#FFFFFF"></path>
                        </g>
                    </g>
                </g>
            </g>
        </g>
    </g>
</svg>