<?xml version="1.0" encoding="UTF-8"?>
<svg width="146px" height="44px" viewBox="0 0 146 44" version="1.1" xmlns="http://www.w3.org/2000/svg" xmlns:xlink="http://www.w3.org/1999/xlink">
    <!-- Generator: Sketch 61.2 (89653) - https://sketch.com -->
    <title>logos/oeglobal-color</title>
    <desc>Created with Sketch.</desc>
    <g id="Home-Page-HD" stroke="none" stroke-width="1" fill="none" fill-rule="evenodd">
        <g id="oeg_desktop" transform="translate(-44.000000, -26.000000)">
            <g id="logos/oeglobal-color" transform="translate(40.000000, 24.000000)">
                <g id="oeg-mainH-RGB" transform="translate(4.320000, 2.177778)">
                    <path d="M33.2256616,43.4160725 C29.6048882,43.4160725 26.2924532,41.009003 23.8962236,36.6389728 C21.6938066,32.641994 20.491287,27.3437764 20.491287,21.748006 C20.491287,16.1522356 21.7026163,10.8717825 23.8962236,6.86148036 C26.2924532,2.49145015 29.6048882,0.0843806647 33.2256616,0.0843806647 C33.9281402,0.0503143364 34.5922114,0.408778153 34.9535688,1.0171002 C35.3149262,1.62542224 35.3149262,2.38487987 34.9535688,2.99320192 C34.5922114,3.60152396 33.9281402,3.95998778 33.2256616,3.92592145 C31.0628882,3.92592145 28.9397583,5.62685801 27.2483021,8.7134139 C25.3586284,12.164139 24.3146828,16.7917523 24.3146828,21.7613293 C24.3146828,26.7309063 25.3586284,31.3496375 27.2483021,34.8003625 C28.9397583,37.9091239 31.0628882,39.587855 33.2256616,39.587855 C35.388435,39.587855 37.511565,37.8735952 39.2030211,34.7870393 C41.0970997,31.3363142 42.1366405,26.7042598 42.1366405,21.748006 C42.1366405,20.6835147 42.9925368,19.820574 44.0483384,19.820574 C45.10414,19.820574 45.9600363,20.6835147 45.9600363,21.748006 C45.9600363,27.3437764 44.7531118,32.6286707 42.5550997,36.6389728 C40.1588701,41.009003 36.846435,43.4160725 33.2256616,43.4160725 Z" id="Path" fill="#0D6AE5" fill-rule="nonzero"></path>
                    <path d="M5.45758912,31.5539275 C5.43987407,31.5234156 5.4376312,31.4862213 5.45154949,31.4537704 C5.46546779,31.4213194 5.49388306,31.3974919 5.52806647,31.3896073 C12.5021921,29.4705025 19.6536519,28.2799441 26.8694864,27.8367372 C28.9926163,27.7079456 31.1509849,27.6413293 33.2873293,27.6413293 C38.7440997,27.6415564 44.1927795,28.0647063 49.5852145,28.9070393 L51.4748882,29.2001511 L50.8846405,32.997281 L48.9949668,32.7041692 C43.8053375,31.8911739 38.5612547,31.4828638 33.3093535,31.4828701 C31.2522961,31.4828701 29.1732145,31.5450453 27.1425861,31.6738369 C20.4364526,32.0843198 13.7875598,33.1673719 7.29440483,34.9069486 C7.22449425,34.9236173 7.15220266,34.8908183 7.11821148,34.8270091 L5.45758912,31.5539275 Z" id="Path" fill="#0D6AE5" fill-rule="nonzero"></path>
                    <path d="M0.440483384,23.7464955 C0.425967032,23.7179314 0.424420871,23.6844313 0.436243497,23.6546315 C0.448066122,23.6248316 0.472100658,23.6016481 0.502151057,23.5910574 C1.93372205,23.1469486 3.39612689,22.7028399 4.86734139,22.2587311 L4.86734139,22.2587311 L5.46639879,22.0899698 C12.4749518,20.1762464 19.6605102,18.9960808 26.9091299,18.5681873 C28.9177341,18.4482779 30.961577,18.3905438 32.9878006,18.3905438 C35.8685619,18.3905438 38.7977764,18.5104532 41.6917523,18.7502719 L42.0573535,18.7813595 L42.8898671,18.8524169 L42.9515347,18.8524169 C44.7707311,19.0256193 46.6515952,19.2521148 48.5456737,19.5319033 L49.6997402,19.6962236 L49.6997402,19.6962236 C50.1343505,19.7643202 50.5748338,19.8353776 51.0211903,19.9093958 L51.0476193,19.9093958 C51.7303686,20.0293051 52.4131178,20.1536556 53.0694381,20.278006 L54.6111299,20.5089426 C54.7621423,20.5418257 54.8657058,20.6823126 54.8533958,20.8375831 L54.5891057,24.4703927 L52.3470453,24.0529305 C51.7083444,23.9285801 51.0255952,23.8086707 50.2899879,23.6798792 L49.0125861,23.4755891 C48.4135287,23.3823263 47.7792326,23.2846224 47.0127915,23.1780363 L45.250858,22.9470997 L43.9602417,22.809426 C40.3314667,22.4259567 36.6848909,22.2391623 33.0362538,22.2498489 C29.3575774,22.2514268 25.6816224,22.4515621 22.0241692,22.8493958 C15.3808963,23.5803422 8.82549945,24.9712364 2.45349245,27.0018127 C2.37568936,27.0271831 2.29093267,26.9937445 2.25087009,26.9218731 L0.440483384,23.7464955 Z" id="Path" fill="#0D6AE5" fill-rule="nonzero"></path>
                    <path d="M38.1150272,9.97912387 C38.1186824,9.94068207 38.1066637,9.90239581 38.0817366,9.8730748 C38.0568094,9.8437538 38.0211206,9.82592318 37.9828822,9.8236858 C36.3222598,9.74818731 34.648423,9.70821752 32.9966103,9.70821752 C30.961577,9.70821752 28.9045196,9.76595166 26.8827009,9.88586103 C19.6581198,10.3103196 12.4961817,11.4845318 5.51044713,13.3898792 C5.49220579,13.3945366 5.47707175,13.4073362 5.46934985,13.4246372 C5.46162796,13.4419382 5.46216331,13.4618472 5.47080363,13.4787009 L7.16225982,16.8761329 C7.18081732,16.908747 7.21853875,16.9250464 7.25476133,16.9161027 C13.751102,15.1916027 20.401278,14.1219709 27.1073474,13.7229607 C29.054284,13.6074924 31.0320544,13.5497583 32.9922054,13.5497583 C33.8731722,13.5497583 36.1504713,13.5941692 37.3485861,13.6208157 C37.5490261,13.6265396 37.7199532,13.4755053 37.7406163,13.2744109 L38.1150272,9.97912387 Z" id="Path" fill="#0D6AE5" fill-rule="nonzero"></path>
                    <path d="M35.0096193,43.4471601 C27.1141862,44.1119338 19.4921638,40.3618771 15.1535413,33.6779132 C10.8149187,26.9939492 10.4571974,18.4506299 14.2216439,11.4217706 C17.9860904,4.39291128 25.2675111,0.00851118044 33.190423,-3.0192632e-05 C40.4675858,-0.0121732692 47.2654205,3.65741168 51.2898852,9.77039275 C51.3229668,9.82093207 51.3345989,9.88272268 51.3221844,9.94196823 C51.3097699,10.0012138 51.2743427,10.0529804 51.2238127,10.08571 L48.2857885,11.9909366 C48.1786008,12.0612848 48.0352261,12.0315818 47.9642356,11.9243202 C44.5957878,6.86153033 38.9075123,3.87023497 32.8619254,3.98246329 C26.8163385,4.09469162 21.2411345,7.29507858 18.0598187,12.4794562 C17.0735759,14.0442287 16.3585992,15.7667869 15.9454985,17.5733837 C14.5045311,23.608953 16.2931046,29.9651022 20.6630755,34.3384894 C25.0371323,38.7317425 31.3563946,40.5266565 37.3618006,39.081571 C39.1609068,38.6731654 40.878216,37.9598648 42.440574,36.9720544 C47.7017067,33.7379756 50.9115737,27.9739204 50.9110695,21.7613293 L50.9110695,20.5711178 L53.8182598,20.4156798 L54.7829184,20.5577946 C54.8327112,20.5662602 54.8696141,20.6090478 54.8710151,20.6599396 L54.8710151,21.7613293 C54.8488525,33.0965534 46.2149496,42.5235524 35.0096193,43.4471601 Z" id="Path" fill="#0D6AE5" fill-rule="nonzero"></path>
                    <g id="Type_2-link" transform="translate(59.800024, 11.253716)" fill="#333333" fill-rule="nonzero">
                        <g id="Type_2">
                            <path d="M7.6159577,25.3563897 C5.71292988,25.4182751 3.86280027,24.7191453 2.46890937,23.4114154 C1.10892124,22.1357694 0.361469667,20.3301971 0.418459215,18.4582704 L0.418459215,18.4202991 C0.383234285,16.5665722 1.11921993,14.7826087 2.4479864,13.5009063 C3.80231415,12.1632712 5.63706675,11.4370324 7.53226586,11.4884275 C9.49746506,11.4458548 11.4086432,12.1387601 12.896913,13.4334018 L10.7502172,16.0323263 C9.87279155,15.2349785 8.7384569,14.7853046 7.55737341,14.7666163 C6.63893639,14.749732 5.75938532,15.1399197 5.15123293,15.8340317 C4.50392363,16.54269 4.15702328,17.4783995 4.18459215,18.4413943 L4.18459215,18.4793656 C4.14981974,19.4673049 4.51543547,20.4269483 5.19726344,21.1373565 C5.8749344,21.8312359 6.80964921,22.2075871 7.77497221,22.1752387 C8.51930032,22.2047339 9.25575441,22.0125016 9.89237583,21.6225453 L9.89237583,20.0024366 L7.27700574,20.0024366 L7.27700574,17.2980363 L13.3572181,17.2980363 L13.3572181,23.2975015 C11.7497738,24.6548682 9.71251023,25.3854565 7.6159577,25.3563897 Z" id="Path"></path>
                            <path d="M16.8931985,23.5759577 L16.8931985,11.7626647 L20.5547166,11.7626647 L20.5547166,21.8503731 L26.9613272,21.8503731 L26.9613272,25.0863716 L18.4122054,25.0863716 C18.0112761,25.0920178 17.6248353,24.9353815 17.3393485,24.6515096 C17.0538617,24.3676378 16.8931985,23.9802263 16.8931985,23.5759577 Z" id="Path"></path>
                            <path d="M40.6114668,23.3354728 C39.2564875,24.678329 37.4181088,25.4078532 35.5188181,25.3563897 C33.6293299,25.4101245 31.799104,24.6884518 30.4470924,23.356568 C29.119407,22.0828672 28.3830668,20.305698 28.4175653,18.4582704 L28.4175653,18.4202991 C28.384135,16.5626762 29.1284997,14.7768136 30.4680154,13.5009063 C31.8261493,12.1585782 33.6679983,11.4319228 35.5690332,11.4884275 C37.4574641,11.4403578 39.2844919,12.1665273 40.6323897,13.5009063 C41.963888,14.7666285 42.7077203,16.5374391 42.6828399,18.3823278 L42.6828399,18.4202991 C42.70968,20.2796772 41.9576107,22.064267 40.6114668,23.3354728 Z M33.129416,20.9643761 C33.7583212,21.6352011 34.6322848,22.0170623 35.5478148,22.0210794 C36.4633448,22.0250335 37.3405464,21.6507957 37.9751737,20.9854713 C38.6053015,20.2980026 38.9445905,19.3898217 38.9208915,18.4540514 L38.9208915,18.4160801 C38.9360953,17.4786668 38.5912352,16.5716275 37.9584353,15.8846601 C37.3376932,15.1893232 36.446407,14.8024379 35.5188181,14.8256828 C34.604274,14.797304 33.7238736,15.1770623 33.1126776,15.863565 C32.488252,16.5539953 32.1524379,17.4609006 32.175329,18.3949849 L32.175329,18.4329562 C32.1591553,19.3689794 32.500782,20.2753965 33.129416,20.9643761 L33.129416,20.9643761 Z" id="Shape"></path>
                            <path d="M45.4363015,25.0863716 L45.4363015,11.7542266 L52.2195254,11.7542266 C53.8305934,11.7542266 55.0357559,12.1550347 55.8266438,12.9566511 C56.3885855,13.5264383 56.6915384,14.3053264 56.6635622,15.108358 L56.6635622,15.1463293 C56.6635622,16.5301722 55.9828686,17.5146133 54.6214813,18.0996526 C55.3680268,18.3097987 56.0436418,18.7211296 56.5756858,19.2894199 C57.0471834,19.8702174 57.2873522,20.6071821 57.2494051,21.3567462 L57.2494051,21.3947175 C57.2859337,22.4603031 56.7891545,23.4731342 55.927074,24.0906798 C55.0455199,24.7432236 53.8166447,25.0694955 52.2404483,25.0694955 L45.4363015,25.0863716 Z M49.0099432,17.0702085 L51.3114689,17.0702085 C52.4719958,17.0702085 53.0522592,16.6820574 53.0522592,15.9057553 L53.0522592,15.867784 C53.0522592,15.108358 52.4957085,14.728645 51.3784224,14.728645 L48.9973894,14.728645 L49.0099432,17.0702085 Z M49.0099432,22.1330483 L51.8429121,22.1330483 C52.2948705,22.158007 52.7442355,22.0495064 53.1359511,21.8208399 C53.4396963,21.6232155 53.6165404,21.2778604 53.6004408,20.9137477 L53.6004408,20.8757764 C53.6004408,20.0769728 53.0020441,19.677571 51.8052508,19.677571 L49.0099432,19.677571 L49.0099432,22.1330483 Z" id="Shape"></path>
                            <path d="M58.6763511,25.0863716 L64.3046275,11.6614079 L67.8406079,11.6614079 L73.4688843,25.0863716 L69.5395523,25.0863716 L68.5770961,22.7068369 L63.4760782,22.7068369 L62.5303604,25.0863716 L58.6763511,25.0863716 Z M64.5347801,19.8294562 L67.5016559,19.8294562 L66.0286795,16.0323263 L64.5347801,19.8294562 Z" id="Shape"></path>
                            <path d="M75.410535,23.5759577 L75.410535,11.7626647 L79.0887915,11.7626647 L79.0887915,21.8503731 L85.4912175,21.8503731 L85.4912175,25.0863716 L76.908619,25.0863716 C76.0812501,25.0863716 75.410535,24.4101363 75.410535,23.5759577 Z" id="Path"></path>
                            <path d="M7.67872659,6.8432719 C6.92331362,7.61937369 5.88206579,8.04419077 4.80391178,8.01616314 C3.73209785,8.05000708 2.69429486,7.63452426 1.93746616,6.8685861 C1.18388653,6.12920045 0.771210416,5.10584536 0.7992571,4.04605287 L0.7992571,4.0249577 C0.778722863,2.96529465 1.1954874,1.94460352 1.95001994,1.2066435 C2.70842256,0.436476591 3.74881798,0.0165878778 4.82483474,0.0464093656 C5.89611961,0.0155993764 6.93277233,0.430621677 7.69128036,1.1939864 C8.43778884,1.93294911 8.84947829,2.94927938 8.82948943,4.00386254 L8.82948943,4.00386254 C8.8543489,5.07051836 8.43736088,6.09940081 7.67872659,6.8432719 Z M3.18447462,5.74210423 C3.6045221,6.20453715 4.20314327,6.46012129 4.82483474,6.44246375 C5.44213961,6.46540404 6.03794971,6.21214678 6.45264109,5.7505423 C6.8758952,5.2935358 7.10559703,4.68806554 7.09288369,4.062929 L7.09288369,4.0249577 C7.10725314,3.39041958 6.8743999,2.77547435 6.4442719,2.31203021 C6.02498659,1.84803768 5.42626068,1.59086889 4.80391178,1.60745166 C4.18621189,1.58898629 3.59090054,1.84138273 3.17192085,2.29937311 C2.75245835,2.75846029 2.52464817,3.36289493 2.53586284,3.9869864 L2.53586284,3.9869864 C2.51125728,4.63582652 2.74476529,5.26768994 3.18447462,5.74210423 L3.18447462,5.74210423 Z" id="Shape"></path>
                            <path d="M10.1016054,9.19327341 L10.1016054,1.62010876 L11.7419656,1.62010876 L11.7419656,2.46391541 C12.1477689,1.86371337 12.825135,1.50877412 13.5455248,1.51885196 C14.2488724,1.51186799 14.9228736,1.80266578 15.4034837,2.32046828 C15.9416299,2.92164467 16.2201974,3.71412604 16.1776332,4.52280363 L16.1776332,4.52280363 C16.2272009,5.33934835 15.9498358,6.14181641 15.4076683,6.75045317 C14.9294079,7.27511165 14.252236,7.56968944 13.5455248,7.56050755 C12.8421575,7.56887164 12.1751897,7.24590497 11.7419656,6.68716767 L11.7419656,9.19327341 L10.1016054,9.19327341 Z M12.1353172,5.70413293 C12.3848993,5.995492 12.7494455,6.16073354 13.1312502,6.15556949 C13.5149373,6.16255216 13.8822416,5.99899091 14.1355523,5.70835196 C14.4220967,5.39115387 14.5725313,4.9725371 14.5540115,4.54389879 L14.5540115,4.54389879 C14.5703025,4.11813981 14.4200189,3.70297366 14.1355523,3.38788369 C13.8841634,3.09363303 13.5164031,2.92677883 13.1312502,2.9322281 C12.7505611,2.92378276 12.3857717,3.08604384 12.1353172,3.37522659 C11.8524001,3.69125974 11.7023548,4.10576758 11.716858,4.53124169 L11.716858,4.53124169 C11.6992877,4.96226724 11.8494506,5.3831557 12.1353172,5.70413293 L12.1353172,5.70413293 Z" id="Shape"></path>
                            <path d="M20.0860423,7.59425982 C19.278579,7.62150584 18.4947597,7.31697 17.914239,6.75045317 C17.347957,6.1766103 17.0446469,5.39068779 17.0773205,4.58187009 L17.0773205,4.55655589 C17.058344,3.75986796 17.3497836,2.98740665 17.8891314,2.40484894 C18.411716,1.82258233 19.1610522,1.50033694 19.9395816,1.523071 C20.7414653,1.47179698 21.519252,1.81056634 22.0318776,2.43438218 C22.5244442,3.07831095 22.7802901,3.87453157 22.7558121,4.68734592 C22.7558121,4.77594562 22.7558121,4.91939275 22.7558121,5.10924924 L18.7051269,5.10924924 C18.7635196,5.43930366 18.9353852,5.73806251 19.1905396,5.95305589 C19.4576302,6.15521425 19.7858259,6.25806058 20.119519,6.24416918 C20.6467661,6.23814241 21.1504233,6.02289476 21.5213574,5.64506647 L22.458706,6.48887311 C21.889274,7.21947863 21.0069456,7.63054154 20.0860423,7.59425982 Z M18.6842039,4.0755861 L21.1531133,4.0755861 C21.1210342,3.73998769 20.9831826,3.42357233 20.7597616,3.17271299 C20.5419939,2.94397205 20.2370016,2.82097104 19.9228432,2.83519033 C19.6099547,2.82363108 19.3065194,2.9444745 19.0859248,3.16849396 C18.860384,3.4205094 18.7197595,3.73804183 18.6842039,4.0755861 Z" id="Shape"></path>
                            <path d="M23.9274979,7.45081269 L23.9274979,1.62010876 L25.567858,1.62010876 L25.567858,2.46391541 C25.9473492,1.89159359 26.5799557,1.5419775 27.2626178,1.52729003 C27.8052511,1.4958217 28.3343401,1.70549897 28.7104867,2.10107855 C29.0755745,2.54667671 29.2608318,3.11455438 29.2293761,3.69165408 L29.2293761,7.48878399 L27.589016,7.48878399 L27.589016,4.21903323 C27.609757,3.90330013 27.517725,3.5905096 27.3295713,3.33725529 C27.1420424,3.12924417 26.8714444,3.01763388 26.5930831,3.03348489 C26.3114069,3.01973257 26.0378192,3.13068472 25.8440411,3.33725529 C25.6449721,3.58554265 25.5463214,3.9005076 25.567858,4.21903323 L25.567858,7.47190785 L23.9274979,7.45081269 Z" id="Path"></path>
                            <polygon id="Path" points="33.2298462 7.45081269 33.2298462 0.307989426 38.5735704 0.307989426 38.5735704 1.68761329 34.7781453 1.68761329 34.7781453 3.15583686 38.125819 3.15583686 38.125819 4.55233686 34.7781453 4.55233686 34.7781453 6.05431269 38.6237855 6.05431269 38.6237855 7.45081269"></polygon>
                            <path d="M42.1179199,7.55206949 C41.4571154,7.55918258 40.8243765,7.28314796 40.3771296,6.7926435 C39.8688261,6.22989001 39.6051085,5.48540338 39.644826,4.72531722 L39.644826,4.72531722 C39.6060923,3.96688935 39.8663148,3.22377681 40.3687604,2.65799094 C40.8189026,2.16662036 41.4545305,1.89065224 42.1179199,1.89856495 C42.7710834,1.8970704 43.3885224,2.19899296 43.7917568,2.7170574 L43.7917568,0 L45.3275021,0 L45.3275021,7.45081269 L43.7917568,7.45081269 L43.7917568,6.66607251 C43.4151487,7.22422131 42.7874565,7.55647195 42.1179199,7.55206949 Z M41.5697384,5.81382779 C41.807999,6.08483587 42.1499867,6.2399634 42.5091793,6.2399634 C42.8683719,6.2399634 43.2103596,6.08483587 43.4486202,5.81382779 C43.7077106,5.51271345 43.843806,5.12368487 43.8294181,4.72531722 L43.8294181,4.72531722 C43.8440006,4.32819317 43.7078137,3.94041177 43.4486202,3.64102568 C43.2131018,3.36799638 42.8701198,3.21361918 42.5112716,3.21912236 C42.15132,3.21410025 41.8072457,3.3682808 41.5697384,3.64102568 C41.307009,3.94191814 41.1691608,4.33318482 41.1847559,4.73375529 L41.1847559,4.73375529 C41.1719746,5.13007328 41.3096678,5.51637301 41.5697384,5.81382779 L41.5697384,5.81382779 Z" id="Shape"></path>
                            <path d="M48.6668066,7.55206949 C48.1579045,7.58302819 47.6615079,7.38530685 47.3109988,7.01203323 C46.9654525,6.59689195 46.7916337,6.06358996 46.8255861,5.5227145 L46.8255861,1.97872659 L48.3613314,1.97872659 L48.3613314,5.03330665 C48.3397104,5.33477097 48.4258027,5.63408425 48.6040378,5.87711329 C48.7798184,6.07195292 49.0337499,6.17591316 49.2944955,6.15978852 C49.5585622,6.17378045 49.8154628,6.0704828 49.9975069,5.87711329 C50.1878085,5.63963214 50.2806513,5.3376742 50.2569517,5.03330665 L50.2569517,1.97872659 L51.7968816,1.97872659 L51.7968816,7.46346979 L50.2569517,7.46346979 L50.2569517,6.67451057 C49.8987212,7.20894421 49.3063732,7.53584539 48.6668066,7.55206949 Z" id="Path"></path>
                            <path d="M55.8726743,7.59425982 C55.1230924,7.60798429 54.3999089,7.31526806 53.8678199,6.78277365 C53.335731,6.25027925 53.0400356,5.52334006 53.0480746,4.76750755 L53.0480746,4.72531722 C53.0740606,3.53580009 53.8123907,2.48079554 54.9152167,2.05734588 C56.0180428,1.63389623 57.2653849,1.92646667 58.0695852,2.79721903 L57.1196828,3.81822508 C56.8125891,3.44853563 56.3633079,3.22895596 55.8852281,3.21490332 C55.524091,3.20392722 55.1776132,3.35918478 54.9436949,3.63680665 C54.6932336,3.92774983 54.5590006,4.30218461 54.5670816,4.68734592 L54.5670816,4.68734592 C54.5533762,5.08178927 54.6895871,5.4666208 54.9478795,5.7631994 C55.1997975,6.04801828 55.5657263,6.20303531 55.9438124,6.18510272 C56.4220158,6.165386 56.8731692,5.95614736 57.19919,5.60287613 L58.0988773,6.52262538 C57.8284534,6.82613725 57.5068531,7.07896436 57.1489749,7.26939426 C56.7544622,7.47647703 56.3174037,7.58772454 55.8726743,7.59425982 L55.8726743,7.59425982 Z" id="Path"></path>
                            <path d="M60.7728317,7.55206949 C60.293708,7.57474002 59.8221537,7.42523202 59.4421314,7.13016616 C59.0830909,6.82632067 58.8863215,6.37018232 58.9106882,5.89820846 L58.9106882,5.89820846 C58.8776698,5.38917071 59.1010166,4.89756939 59.5049003,4.59030816 C59.978075,4.28174875 60.5367492,4.13390824 61.0992299,4.16840483 C61.5505621,4.169215 61.9986983,4.24475664 62.4257456,4.3920136 L62.4257456,4.29919486 C62.4257456,3.63258761 62.0365785,3.29928399 61.2582444,3.29928399 C60.7457441,3.31004611 60.2389363,3.40995823 59.7601604,3.59461631 L59.3751779,2.41328701 C60.0363069,2.1287379 60.7486526,1.98509616 61.467474,1.99138369 C62.1296607,1.9132437 62.7950892,2.10797357 63.3128792,2.53141994 C63.736246,3.00894483 63.9491822,3.63930766 63.9029066,4.2780997 L63.9029066,7.45081269 L62.4131918,7.45081269 L62.4131918,6.86014804 C61.9956434,7.32522312 61.3944596,7.57880885 60.7728317,7.55206949 Z M61.2373215,6.48043505 C61.5510688,6.49528457 61.8601969,6.39984423 62.1119012,6.21041692 C62.3246394,6.04751441 62.4474641,5.79200541 62.442484,5.5227145 L62.442484,5.24425831 C62.1347423,5.10524306 61.8004611,5.0361082 61.4632894,5.04174471 C61.1891131,5.02655696 60.9166708,5.09412645 60.6807707,5.23582024 C60.4959696,5.3601611 60.3895156,5.5732195 60.400403,5.79695166 L60.400403,5.79695166 C60.3932743,5.98700874 60.4793366,6.16843823 60.6305556,6.28214048 C60.805341,6.41437351 61.0188319,6.48414355 61.2373215,6.48043505 L61.2373215,6.48043505 Z" id="Shape"></path>
                            <path d="M67.1501502,7.54363142 C66.7287442,7.57044874 66.3125339,7.43809047 65.9826489,7.1723565 C65.6739852,6.82787585 65.5222599,6.36895354 65.5641897,5.90664653 L65.5641897,3.30772205 L64.9155779,3.30772205 L64.9155779,1.97872659 L65.5641897,1.97872659 L65.5641897,0.582226586 L67.1041196,0.582226586 L67.1041196,1.97872659 L68.3804202,1.97872659 L68.3804202,3.30772205 L67.1041196,3.30772205 L67.1041196,5.64506647 C67.1041196,5.99946526 67.2673187,6.17666465 67.5979015,6.17666465 C67.8637823,6.1764959 68.1254668,6.10981151 68.3594973,5.98258912 L68.3594973,7.22720393 C67.9923735,7.44147703 67.5742902,7.55086914 67.1501502,7.54363142 Z" id="Path"></path>
                            <path d="M69.8826888,1.37962387 L69.8826888,0 L71.502126,0 L71.502126,1.37962387 L69.8826888,1.37962387 Z M69.9245347,7.45081269 L69.9245347,1.96606949 L71.4602801,1.96606949 L71.4602801,7.45081269 L69.9245347,7.45081269 Z" id="Shape"></path>
                            <path d="M77.7162453,6.75045317 C76.5323943,7.84443573 74.7155042,7.84443573 73.5316532,6.75045317 C72.9851344,6.2311315 72.6812499,5.50346575 72.6947347,4.74641239 L72.6947347,4.72531722 C72.6785988,3.96283365 72.9825308,3.22892534 73.5316532,2.7044003 C74.7139474,1.6063896 76.5339511,1.6063896 77.7162453,2.7044003 C78.2618914,3.22433232 78.5656057,3.95159063 78.5531637,4.70844109 L78.5531637,4.70844109 C78.573676,5.47790786 78.2695143,6.22003753 77.7162453,6.75045317 L77.7162453,6.75045317 Z M75.6239492,6.23995015 C76.0091136,6.25662353 76.3822125,6.10245563 76.6449897,5.81804683 C76.9028912,5.52598955 77.0405788,5.14574127 77.0299722,4.75485045 L77.0299722,4.72531722 C77.0329978,4.3282736 76.8829639,3.9455638 76.611513,3.65790181 C76.3421201,3.3790284 75.9723946,3.2217337 75.5862879,3.2217337 C75.2001812,3.2217337 74.8304557,3.3790284 74.5610628,3.65790181 C74.3026807,3.94799045 74.1648399,4.32715129 74.1760804,4.71687915 L74.1760804,4.71687915 C74.1721709,5.11408844 74.3223313,5.49712097 74.5945396,5.78429456 C74.8576928,6.08393141 75.2397837,6.24947448 75.636503,6.23573112 L75.6239492,6.23995015 Z" id="Shape"></path>
                            <path d="M79.6830036,7.45081269 L79.6830036,1.96606949 L81.2229335,1.96606949 L81.2229335,2.7550287 C81.5821239,2.22165894 82.1738836,1.89508241 82.8130785,1.87746979 C83.3214262,1.84998279 83.8164287,2.04714883 84.1688864,2.41750604 C84.5109561,2.83623834 84.6842403,3.36940632 84.6542991,3.91104381 L84.6542991,7.45081269 L83.1143692,7.45081269 L83.1143692,4.40045166 C83.1398725,4.09858734 83.0533901,3.79791784 82.8716628,3.55664502 C82.699846,3.35827536 82.4460186,3.25216365 82.1853897,3.26975076 C81.9206676,3.25684113 81.6636645,3.36172239 81.4823782,3.55664502 C81.2893234,3.79263619 81.1961274,4.09574263 81.2229335,4.40045166 L81.2229335,7.45081269 L79.6830036,7.45081269 Z" id="Path"></path>
                        </g>
                    </g>
                </g>
            </g>
        </g>
    </g>
</svg>