<?xml version="1.0" encoding="UTF-8"?>
<svg width="194px" height="62px" viewBox="0 0 194 62" version="1.1" xmlns="http://www.w3.org/2000/svg" xmlns:xlink="http://www.w3.org/1999/xlink">
    <!-- Generator: Sketch 61.2 (89653) - https://sketch.com -->
    <title>logos/oeglobal-white</title>
    <desc>Created with Sketch.</desc>
    <g id="Home-Page-HD" stroke="none" stroke-width="1" fill="none" fill-rule="evenodd">
        <g id="oeg_desktop" transform="translate(-44.000000, -2982.000000)">
            <g id="Footer" transform="translate(0.000000, 2930.000000)">
                <g id="logos/oeglobal-white" transform="translate(42.000000, 52.000000)">
                    <g id="oeg-mainH-RGB" transform="translate(5.520000, 2.666667)">
                        <path d="M42.4550121,53.1625378 C37.8284683,53.1625378 33.5959124,50.2151057 30.5340634,44.8640483 C27.719864,39.9697885 26.1833112,33.4821752 26.1833112,26.6302115 C26.1833112,19.7782477 27.7311208,13.3123867 30.5340634,8.40181269 C33.5959124,3.05075529 37.8284683,0.103323263 42.4550121,0.103323263 C43.3526236,0.0616093916 44.2011591,0.500544677 44.6628935,1.24542881 C45.1246279,1.99031295 45.1246279,2.92026107 44.6628935,3.6651452 C44.2011591,4.41002934 43.3526236,4.84896463 42.4550121,4.80725076 C39.6914683,4.80725076 36.9785801,6.89003021 34.8172749,10.6694864 C32.4026918,14.894864 31.0687613,20.5613293 31.0687613,26.6465257 C31.0687613,32.7317221 32.4026918,38.3873112 34.8172749,42.6126888 C36.9785801,46.4193353 39.6914683,48.4749245 42.4550121,48.4749245 C45.2185559,48.4749245 47.9314441,46.3758308 50.0927492,42.5963746 C52.5129607,38.370997 53.8412628,32.6990937 53.8412628,26.6302115 C53.8412628,25.3267527 54.9349081,24.2700906 56.2839879,24.2700906 C57.6330677,24.2700906 58.726713,25.3267527 58.726713,26.6302115 C58.726713,33.4821752 57.1845317,39.9534743 54.3759607,44.8640483 C51.3141118,50.2151057 47.0815559,53.1625378 42.4550121,53.1625378 Z" id="Path" fill="#0D6AE5" fill-rule="nonzero"></path>
                        <path d="M6.9735861,38.6374622 C6.9509502,38.6001007 6.94808431,38.5545567 6.9658688,38.5148209 C6.98365328,38.475085 7.01996169,38.4459084 7.06364048,38.4362538 C15.9750232,36.0863296 25.1129996,34.6285029 34.3332326,34.0858006 C37.0461208,33.9280967 39.8040363,33.8465257 42.5338097,33.8465257 C49.5063496,33.8468038 56.4685516,34.3649465 63.3588852,35.3963746 L65.7734683,35.755287 L65.0192628,40.4048338 L62.6046798,40.0459215 C55.9734868,39.050417 49.2727143,38.5504455 42.5619517,38.5504532 C39.9334894,38.5504532 37.2768852,38.6265861 34.6821934,38.78429 C26.1132449,39.2869222 17.6174375,40.6131084 9.3206284,42.7432024 C9.23129821,42.763613 9.13892562,42.723451 9.09549245,42.6453172 L6.9735861,38.6374622 Z" id="Path" fill="#0D6AE5" fill-rule="nonzero"></path>
                        <path d="M0.562839879,29.0773414 C0.544291208,29.042365 0.542315557,29.0013445 0.557422246,28.9648549 C0.572528934,28.9283653 0.603239729,28.8999772 0.641637462,28.8870091 C2.47086707,28.3432024 4.33949547,27.7993958 6.21938066,27.2555891 L6.21938066,27.2555891 L6.9848429,27.0489426 C15.9402162,24.7056079 25.121763,23.2605071 34.3838882,22.7365559 C36.9504381,22.5897281 39.5620151,22.5190332 42.1510785,22.5190332 C45.8320514,22.5190332 49.5749366,22.665861 53.2727946,22.9595166 L53.7399517,22.9975831 L54.803719,23.0845921 L54.8825166,23.0845921 C57.2070453,23.2966767 59.6103716,23.5740181 62.0305831,23.9166163 L63.5052236,24.1178248 L63.5052236,24.1178248 C64.0605589,24.2012085 64.6233988,24.2882175 65.1937432,24.378852 L65.2275136,24.378852 C66.0999154,24.5256798 66.9723172,24.6779456 67.8109486,24.8302115 L69.7808882,25.1129909 C69.9738484,25.153256 70.1061797,25.3252808 70.0904502,25.5154079 L69.7527462,29.9637462 L66.8878912,29.452568 C66.0717734,29.3003021 65.1993716,29.1534743 64.259429,28.9957704 L62.6271934,28.7456193 C61.8617311,28.6314199 61.0512417,28.5117825 60.0719003,28.3812689 L57.8205408,28.0984894 L56.1714199,27.9299094 C51.5346519,27.4603552 46.8751384,27.2316273 42.2129909,27.244713 C37.51246,27.2466451 32.8154064,27.4917087 28.141994,27.978852 C19.6533675,28.8738885 11.2770271,30.5770242 3.13501813,33.0634441 C3.03560308,33.0945099 2.92730286,33.0535647 2.87611178,32.9655589 L0.562839879,29.0773414 Z" id="Path" fill="#0D6AE5" fill-rule="nonzero"></path>
                        <path d="M48.7025347,12.2193353 C48.7072053,12.1722638 48.6918481,12.1253826 48.6599967,12.0894794 C48.6281454,12.0535761 48.582543,12.0317427 48.5336828,12.029003 C46.4117764,11.9365559 44.2729849,11.8876133 42.1623353,11.8876133 C39.5620151,11.8876133 36.9335529,11.9583082 34.3501178,12.105136 C25.1187087,12.6248811 15.9673433,14.0626919 7.04112689,16.3957704 C7.01781851,16.4014734 6.99848057,16.4171464 6.9886137,16.4383313 C6.97874683,16.4595162 6.97943089,16.4838945 6.9904713,16.5045317 L9.15177644,20.6646526 C9.1754888,20.7045882 9.2236884,20.7245466 9.26997281,20.7135952 C17.5708526,18.6019624 26.0682997,17.2922093 34.6371662,16.8036254 C37.1249184,16.6622356 39.6520695,16.5915408 42.1567069,16.5915408 C43.2823867,16.5915408 46.1922689,16.6459215 47.7231934,16.6785498 C47.9793111,16.6855587 48.197718,16.5006188 48.2241208,16.2543807 L48.7025347,12.2193353 Z" id="Path" fill="#0D6AE5" fill-rule="nonzero"></path>
                        <path d="M44.7345136,53.2006042 C34.6459046,54.0146128 24.9066538,49.4227066 19.3628583,41.238261 C13.8190628,33.0538154 13.3619744,22.592608 18.1721005,13.9858415 C22.9822267,5.37907504 32.2862642,0.0104218536 42.4099849,-3.69705698e-05 C51.7085819,-0.0149060439 60.3947039,4.47846328 65.5370755,11.9637462 C65.5793464,12.0256311 65.5942097,12.1012931 65.5783467,12.1738387 C65.5624838,12.2463842 65.5172156,12.309772 65.4526495,12.3498489 L61.6985076,14.6827795 C61.5615455,14.7689201 61.3783445,14.7325491 61.2876344,14.6012085 C56.9835067,8.40187387 49.7151546,4.73906323 41.990238,4.87648567 C34.2653214,5.01390811 27.1414496,8.93274928 23.076435,15.2809668 C21.8162359,17.1970148 20.9026546,19.3062696 20.3748036,21.518429 C18.5335675,28.908922 20.8189669,36.6919619 26.4028187,42.0471299 C31.9918913,47.4266234 40.0665043,49.6244774 47.7400785,47.8549849 C50.0389365,47.3548965 52.233276,46.4814671 54.2296224,45.2719033 C60.9521808,41.3118068 65.0536774,34.2537801 65.0530332,26.6465257 L65.0530332,25.1891239 L68.7677764,24.9987915 L70.0003958,25.1728097 C70.0640199,25.1831757 70.1111736,25.2355688 70.1129637,25.2978852 L70.1129637,26.6465257 C70.0846449,40.5263919 59.0524356,52.069656 44.7345136,53.2006042 Z" id="Path" fill="#0D6AE5" fill-rule="nonzero"></path>
                        <g id="Type_2-link" transform="translate(76.411142, 13.780060)" fill="#F2F2F2" fill-rule="nonzero">
                            <g id="Type_2">
                                <path d="M9.73150151,31.0486405 C7.29985485,31.1244184 4.93580035,30.2683412 3.15471752,28.6670393 C1.41695491,27.1050238 0.461877908,24.8941189 0.534697885,22.6019637 L0.534697885,22.5554683 C0.489688253,20.2855986 1.43011436,18.1011535 3.12798263,16.5317221 C4.85851253,14.8938014 7.20291862,14.0045295 9.62456193,14.0674622 C12.1356498,14.0153324 14.5777108,14.8637879 16.4793888,16.4490634 L13.7363887,19.6314199 C12.6152337,18.6550758 11.165806,18.1044546 9.65664381,18.081571 C8.48308539,18.0608963 7.35921458,18.5386771 6.58213097,19.3886103 C5.75501353,20.2563551 5.31175197,21.4021218 5.34697885,22.5812991 L5.34697885,22.6277946 C5.30254745,23.8375162 5.7697231,25.0125897 6.64094773,25.8824773 C7.50686062,26.7321256 8.70121843,27.1929638 9.93468671,27.1533535 C10.8857726,27.18947 11.8267973,26.9540836 12.640258,26.4765861 L12.640258,24.4927795 L9.29839622,24.4927795 L9.29839622,21.1812689 L17.0675565,21.1812689 L17.0675565,28.5275529 C15.0135999,30.1896345 12.4104297,31.0842325 9.73150151,31.0486405 Z" id="Path"></path>
                                <path d="M21.5857536,28.8685196 L21.5857536,14.4032628 L26.2643601,14.4032628 L26.2643601,26.7555589 L34.4505847,26.7555589 L34.4505847,30.718006 L23.5267069,30.718006 C23.0144084,30.7249198 22.5206229,30.5331201 22.1558342,30.185522 C21.7910455,29.8379238 21.5857536,29.3635424 21.5857536,28.8685196 Z" id="Path"></path>
                                <path d="M51.8924298,28.5740483 C50.1610674,30.218362 47.8120279,31.111657 45.3851565,31.0486405 C42.9708105,31.1144381 40.6321884,30.2307573 38.9046181,28.5998792 C37.2081311,27.0402455 36.267252,24.8641199 36.3113334,22.6019637 L36.3113334,22.5554683 C36.268617,20.280828 37.2197496,18.0940574 38.931353,16.5317221 C40.6667463,14.888055 43.0202201,13.9982728 45.4493202,14.0674622 C47.8623152,14.0086014 50.1968508,14.8977885 51.9191647,16.5317221 C53.6205236,18.0815859 54.5709759,20.2499254 54.5391843,22.5089728 L54.5391843,22.5554683 C54.57348,24.8322578 53.6125025,27.0174698 51.8924298,28.5740483 Z M42.3320316,25.6706647 C43.1356326,26.492083 44.2523639,26.9596681 45.4222078,26.964587 C46.5920517,26.9694288 47.7129204,26.5111784 48.5238331,25.6964955 C49.3289964,24.8546971 49.7625323,23.7426389 49.7322503,22.5967976 L49.7322503,22.5503021 C49.7516773,21.4024492 49.3110228,20.2917888 48.5024452,19.4506042 C47.7092747,18.5991712 46.570409,18.1254342 45.3851565,18.1538973 C44.2165723,18.1191477 43.0916162,18.5841579 42.3106437,19.4247734 C41.5127664,20.2701983 41.0836706,21.3806946 41.1129204,22.5244713 L41.1129204,22.5709668 C41.092254,23.7171176 41.5287771,24.8270162 42.3320316,25.6706647 L42.3320316,25.6706647 Z" id="Shape"></path>
                                <path d="M58.0574964,30.718006 L58.0574964,14.3929305 L66.7249491,14.3929305 C68.783536,14.3929305 70.3234659,14.883716 71.3340449,15.865287 C72.0520814,16.5629856 72.4391879,17.5167262 72.4034406,18.5000302 L72.4034406,18.5465257 C72.4034406,20.2410272 71.5336654,21.4464653 69.794115,22.1628399 C70.7480342,22.4201617 71.6113201,22.9238322 72.2911541,23.6196979 C72.8936232,24.3308784 73.2005056,25.2332842 73.1520177,26.1511178 L73.1520177,26.1976133 C73.1986931,27.502412 72.5639196,28.7426133 71.4623724,29.4987915 C70.3359421,30.2978248 68.7657127,30.6973414 66.751684,30.6973414 L58.0574964,30.718006 Z M62.6238163,20.9022961 L65.5646547,20.9022961 C67.0475502,20.9022961 67.7889979,20.4270091 67.7889979,19.476435 L67.7889979,19.4299396 C67.7889979,18.5000302 67.0778497,18.0350755 65.6502063,18.0350755 L62.6077754,18.0350755 L62.6238163,20.9022961 Z M62.6238163,27.1016918 L66.243721,27.1016918 C66.8212234,27.1322535 67.3954121,26.9993956 67.8959375,26.7193958 C68.2840563,26.4774067 68.5100238,26.0545229 68.4894521,25.6086707 L68.4894521,25.5621752 C68.4894521,24.5840483 67.7248341,24.0949849 66.1955982,24.0949849 L62.6238163,24.0949849 L62.6238163,27.1016918 Z" id="Shape"></path>
                                <path d="M74.9753375,30.718006 L82.167024,14.2792749 L86.6852211,14.2792749 L93.8769077,30.718006 L88.8560946,30.718006 L87.6262894,27.80429 L81.1083222,27.80429 L79.899905,30.718006 L74.9753375,30.718006 Z M82.4611079,24.2809668 L86.2521159,24.2809668 L84.3699793,19.6314199 L82.4611079,24.2809668 Z" id="Shape"></path>
                                <path d="M96.3579059,28.8685196 L96.3579059,14.4032628 L101.0579,14.4032628 L101.0579,26.7555589 L109.238778,26.7555589 L109.238778,30.718006 L98.2721243,30.718006 C97.2149307,30.718006 96.3579059,29.8899628 96.3579059,28.8685196 Z" id="Path"></path>
                                <path d="M9.81170619,8.37951662 C8.84645629,9.32984533 7.51597296,9.85002952 6.13833172,9.81570997 C4.7687917,9.85715152 3.44271009,9.34839706 2.47565121,8.4105136 C1.5127439,7.50514341 0.985435532,6.25205554 1.02127296,4.95435045 L1.02127296,4.92851964 C0.995034769,3.63097304 1.52756724,2.38114717 2.49169215,1.47752266 C3.46076216,0.534461132 4.79015631,0.020311687 6.16506662,0.0568277946 C7.53393062,0.0191012772 8.85854242,0.527291849 9.82774713,1.46202417 C10.7816191,2.36687646 11.3076667,3.61136251 11.2821254,4.90268882 L11.2821254,4.90268882 C11.3138903,6.20879799 10.7810722,7.46865406 9.81170619,8.37951662 Z M4.06905091,7.03114804 C4.60577824,7.59739243 5.37068307,7.9103526 6.16506662,7.88873112 C6.95384506,7.91682128 7.71515796,7.60671034 8.24504139,7.04148036 C8.78586609,6.48188057 9.07937398,5.74048842 9.06312915,4.97501511 L9.06312915,4.92851964 C9.08149012,4.15153417 8.78395542,3.39854002 8.23434743,2.8310574 C7.69859398,2.26290329 6.93355531,1.94800272 6.13833172,1.96830816 C5.34904853,1.9456975 4.58837291,2.25475436 4.05300997,2.81555891 C3.51703011,3.37770648 3.22593932,4.11783053 3.24026918,4.88202417 L3.24026918,4.88202417 C3.20882875,5.67652227 3.50720009,6.45023258 4.06905091,7.03114804 L4.06905091,7.03114804 Z" id="Shape"></path>
                                <path d="M12.9076069,11.2570695 L12.9076069,1.98380665 L15.0036227,1.98380665 L15.0036227,3.01703927 C15.5221491,2.28209801 16.3876725,1.84747852 17.3081705,1.85981873 C18.2068925,1.85126693 19.0681163,2.20734586 19.6822292,2.84138973 C20.3698604,3.57752409 20.7258078,4.54790943 20.6714202,5.53812689 L20.6714202,5.53812689 C20.7347567,6.53797757 20.3803457,7.52059153 19.6875761,8.26586103 C19.0764657,8.90829998 18.2111904,9.26900748 17.3081705,9.25776435 C16.4094234,9.26800609 15.5571869,8.87253669 15.0036227,8.18836858 L15.0036227,11.2570695 L12.9076069,11.2570695 Z M15.5062387,6.98465257 C15.8251491,7.34141878 16.2909582,7.54375535 16.7788196,7.53743202 C17.2690866,7.54598223 17.7384198,7.34570315 18.0620946,6.98981873 C18.4282346,6.6014129 18.6204566,6.08882094 18.5967924,5.5639577 L18.5967924,5.5639577 C18.6176088,5.04262017 18.4255798,4.53425346 18.0620946,4.148429 C17.7408754,3.78812208 17.2709595,3.58381081 16.7788196,3.59048338 C16.2923836,3.58014215 15.8262638,3.77882919 15.5062387,4.13293051 C15.1447335,4.51990989 14.9530089,5.02747051 14.9715408,5.54845921 L14.9715408,5.54845921 C14.9490899,6.07624561 15.1409646,6.59161923 15.5062387,6.98465257 L15.5062387,6.98465257 Z" id="Shape"></path>
                                <path d="M25.6654985,9.29909366 C24.6337399,9.33245614 23.632193,8.9595551 22.8904165,8.26586103 C22.1668339,7.56319628 21.7792711,6.6008422 21.8210207,5.61045317 L21.8210207,5.57945619 C21.7967729,4.60391996 22.1691679,3.65804896 22.8583346,2.94471299 C23.5260816,2.23173346 24.4835667,1.83714727 25.4783542,1.86498489 C26.5029834,1.80220039 27.4968221,2.21702001 28.1518437,2.98087613 C28.7812342,3.76936035 29.1081484,4.74432437 29.076871,5.73960725 C29.076871,5.84809668 29.076871,6.02374622 29.076871,6.25622356 L23.9009955,6.25622356 C23.9756084,6.66037183 24.1952144,7.02619899 24.521245,7.28945619 C24.8625275,7.53699704 25.2818887,7.66293133 25.7082743,7.64592145 C26.3819789,7.63854172 27.0255409,7.37497318 27.4995122,6.91232628 L28.6972355,7.94555891 C27.9696279,8.84017791 26.8422083,9.34352025 25.6654985,9.29909366 Z M23.8742606,4.9905136 L27.0289781,4.9905136 C26.9879881,4.57957677 26.8118444,4.19212938 26.5263621,3.88495468 C26.2481034,3.60486373 25.858391,3.45425025 25.4569663,3.47166163 C25.0571643,3.45750745 24.6694414,3.60547898 24.3875705,3.87978852 C24.0993795,4.18837886 23.9196926,4.57719408 23.8742606,4.9905136 Z" id="Shape"></path>
                                <path d="M30.5740251,9.12344411 L30.5740251,1.98380665 L32.6700408,1.98380665 L32.6700408,3.01703927 C33.1549461,2.31623705 33.9632767,1.88813571 34.8355672,1.87015106 C35.528932,1.83161841 36.2049902,2.08836608 36.6856219,2.57274924 C37.1521229,3.11837965 37.3888406,3.81374005 37.3486473,4.52039275 L37.3486473,9.16993958 L35.2526316,9.16993958 L35.2526316,5.16616314 C35.279134,4.77955118 35.1615375,4.39654236 34.9211189,4.08643505 C34.6814986,3.83172756 34.3357345,3.6950619 33.9800506,3.7144713 C33.620131,3.69763171 33.2705468,3.8334915 33.0229414,4.08643505 C32.7685755,4.39046038 32.6425218,4.77613175 32.6700408,5.16616314 L32.6700408,9.14927492 L30.5740251,9.12344411 Z" id="Path"></path>
                                <polygon id="Path" points="42.4603591 9.12344411 42.4603591 0.377129909 49.2884511 0.377129909 49.2884511 2.06646526 44.4387412 2.06646526 44.4387412 3.86429003 48.7163243 3.86429003 48.7163243 5.57429003 44.4387412 5.57429003 44.4387412 7.41344411 49.3526148 7.41344411 49.3526148 9.12344411"></polygon>
                                <path d="M53.8173421,9.24743202 C52.9729808,9.25614193 52.1644811,8.91814036 51.5929989,8.31752266 C50.9435,7.62843675 50.6065275,6.71682046 50.6572776,5.78610272 L50.6572776,5.78610272 C50.6077846,4.85741553 50.9402911,3.9474818 51.582305,3.25468278 C52.1574867,2.65300452 52.9696778,2.31508437 53.8173421,2.32477341 C54.6519399,2.32294335 55.4408897,2.69264444 55.9561337,3.32700906 L55.9561337,0 L57.9184749,0 L57.9184749,9.12344411 L55.9561337,9.12344411 L55.9561337,8.16253776 C55.4749122,8.84598528 54.6728611,9.2528228 53.8173421,9.24743202 Z M53.1168879,7.11897281 C53.4213321,7.45081944 53.8583164,7.64077151 54.3172847,7.64077151 C54.7762529,7.64077151 55.2132373,7.45081944 55.5176814,7.11897281 C55.8487414,6.75026137 56.022641,6.27389984 56.0042565,5.78610272 L56.0042565,5.78610272 C56.0228897,5.29982837 55.848873,4.824994 55.5176814,4.45839879 C55.2167412,4.1240772 54.7784864,3.93504389 54.3199582,3.94178248 C53.8600201,3.93563296 53.4203695,4.12442547 53.1168879,4.45839879 C52.7811781,4.82683854 52.6050388,5.30594059 52.6249659,5.79643505 L52.6249659,5.79643505 C52.6086342,6.28172238 52.7845755,6.75474246 53.1168879,7.11897281 L53.1168879,7.11897281 Z" id="Shape"></path>
                                <path d="M62.185364,9.24743202 C61.5351002,9.28534064 60.9008156,9.04323287 60.4529429,8.58616314 C60.0114115,8.07782687 59.7893098,7.42480403 59.8326934,6.76250755 L59.8326934,2.42293051 L61.7950346,2.42293051 L61.7950346,6.16323263 C61.7674078,6.53237261 61.8774146,6.89887868 62.1051594,7.19646526 C62.3297679,7.43504439 62.654236,7.56234264 62.9874109,7.54259819 C63.3248295,7.55973116 63.6530914,7.43324424 63.8857033,7.19646526 C64.1288664,6.90567201 64.2474989,6.5359276 64.217216,6.16323263 L64.217216,2.42293051 L66.1849042,2.42293051 L66.1849042,9.1389426 L64.217216,9.1389426 L64.217216,8.17287009 C63.759477,8.82727863 63.0025879,9.22756578 62.185364,9.24743202 Z" id="Path"></path>
                                <path d="M71.3928616,9.29909366 C70.4350625,9.31589913 69.5109946,8.95747109 68.8311033,8.30543713 C68.1512119,7.65340316 67.7733788,6.76327354 67.7836509,5.83776435 L67.7836509,5.78610272 C67.8168553,4.32955112 68.760277,3.03770882 70.1694436,2.51919904 C71.5786102,2.00068927 73.1724363,2.35893878 74.2000255,3.42516616 L72.9862613,4.67537764 C72.5938639,4.22269669 72.0197823,3.95382362 71.4089026,3.93661631 C70.9474497,3.92317619 70.504728,4.11328748 70.2058323,4.45323263 C69.8857985,4.80948959 69.7142785,5.26798115 69.7246042,5.73960725 L69.7246042,5.73960725 C69.7070918,6.22259911 69.8811391,6.69382138 70.2111793,7.05697885 C70.5330746,7.40573667 71.0006502,7.59555344 71.4837603,7.57359517 C72.0947979,7.54945225 72.6712717,7.29324166 73.0878539,6.86066465 L74.2374544,7.98688822 C73.8919127,8.3585354 73.480979,8.66811962 73.0236902,8.90129909 C72.5195907,9.15486983 71.961127,9.29109127 71.3928616,9.29909366 L71.3928616,9.29909366 Z" id="Path"></path>
                                <path d="M77.6541739,9.24743202 C77.0419602,9.27519186 76.4394186,9.09212084 75.9538346,8.73081571 C75.4950606,8.35876001 75.243633,7.80022325 75.2747683,7.22229607 L75.2747683,7.22229607 C75.232578,6.59898454 75.5179657,5.99702374 76.0340393,5.6207855 C76.6386514,5.24295766 77.3525129,5.06192846 78.0712382,5.10416918 C78.6479405,5.10516122 79.220559,5.19766119 79.7662305,5.37797583 L79.7662305,5.26432024 C79.7662305,4.44806647 79.2689615,4.03993958 78.2744234,4.03993958 C77.6195619,4.05311769 76.9719741,4.17545906 76.360205,4.401571 L75.8682829,2.95504532 C76.7130588,2.60661784 77.6232783,2.43072999 78.5417724,2.438429 C79.3878998,2.34274739 80.2381695,2.58119213 80.89979,3.09969789 C81.4407588,3.68442224 81.712844,4.4562951 81.653714,5.23848943 L81.653714,9.12344411 L79.7501896,9.12344411 L79.7501896,8.40018127 C79.2166554,8.96966097 78.4484762,9.2801741 77.6541739,9.24743202 Z M78.2476885,7.93522659 C78.6485879,7.95340968 79.0435849,7.83654395 79.3652071,7.60459215 C79.6370392,7.40511968 79.7939819,7.09225153 79.7876184,6.76250755 L79.7876184,6.42154079 C79.3943929,6.25131803 78.9672558,6.1666631 78.5364254,6.17356495 C78.186089,6.15496771 77.8379683,6.23770585 77.5365403,6.41120846 C77.3004056,6.56346257 77.164381,6.82435041 77.1782927,7.09830816 L77.1782927,7.09830816 C77.1691838,7.33103111 77.2791523,7.55318967 77.4723766,7.69241692 C77.6957136,7.85433492 77.9685074,7.93976761 78.2476885,7.93522659 L78.2476885,7.93522659 Z" id="Shape"></path>
                                <path d="M85.8029696,9.2370997 C85.2645065,9.26993723 84.7326822,9.10786588 84.3111625,8.78247734 C83.9167589,8.3606643 83.7228876,7.79871862 83.7764647,7.2326284 L83.7764647,4.0502719 L82.9476829,4.0502719 L82.9476829,2.42293051 L83.7764647,2.42293051 L83.7764647,0.712930514 L85.7441529,0.712930514 L85.7441529,2.42293051 L87.3749814,2.42293051 L87.3749814,4.0502719 L85.7441529,4.0502719 L85.7441529,6.91232628 C85.7441529,7.34628399 85.952685,7.56326284 86.3750964,7.56326284 C86.714833,7.5630562 87.0492075,7.48140185 87.3482465,7.32561934 L87.3482465,8.84963746 C86.8791439,9.11201269 86.3449264,9.24596221 85.8029696,9.2370997 Z" id="Path"></path>
                                <path d="M89.2945468,1.68933535 L89.2945468,0 L91.3638276,0 L91.3638276,1.68933535 L89.2945468,1.68933535 Z M89.3480166,9.12344411 L89.3480166,2.40743202 L91.3103579,2.40743202 L91.3103579,9.12344411 L89.3480166,9.12344411 Z" id="Shape"></path>
                                <path d="M99.3040912,8.26586103 C97.7913927,9.60543151 95.4698109,9.60543151 93.9571124,8.26586103 C93.2587828,7.62995694 92.870486,6.73893766 92.8877166,5.81193353 L92.8877166,5.78610272 C92.8670984,4.85244937 93.255456,3.95378613 93.9571124,3.31151057 C95.4678216,1.96700767 97.793382,1.96700767 99.3040912,3.31151057 C100.001306,3.94816202 100.389385,4.83868241 100.373487,5.76543807 L100.373487,5.76543807 C100.399697,6.70764228 100.011046,7.61637249 99.3040912,8.26586103 L99.3040912,8.26586103 Z M96.6306018,7.64075529 C97.1227562,7.66117167 97.5994937,7.47239465 97.9352647,7.12413897 C98.2648054,6.76651782 98.4407395,6.30090768 98.4271867,5.82226586 L98.4271867,5.78610272 C98.4310527,5.29992686 98.2393428,4.83130261 97.8924888,4.47906344 C97.5482646,4.13758579 97.0758376,3.94498004 96.582479,3.94498004 C96.0891205,3.94498004 95.6166934,4.13758579 95.2724692,4.47906344 C94.9423142,4.83427402 94.7661843,5.2985526 94.7805471,5.77577039 L94.7805471,5.77577039 C94.7755517,6.26214911 94.9674233,6.73116853 95.315245,7.08280967 C95.6514963,7.44971193 96.1397237,7.65241773 96.6466427,7.63558912 L96.6306018,7.64075529 Z" id="Shape"></path>
                                <path d="M101.817171,9.12344411 L101.817171,2.40743202 L103.78486,2.40743202 L103.78486,3.37350453 C104.243825,2.7203987 104.999962,2.32050907 105.816711,2.2989426 C106.466267,2.26528504 107.09877,2.50671285 107.549133,2.96021148 C107.986222,3.4729449 108.20764,4.12580366 108.169382,4.78903323 L108.169382,9.12344411 L106.201694,9.12344411 L106.201694,5.38830816 C106.234282,5.01867838 106.123776,4.65051164 105.891569,4.35507553 C105.672025,4.11217391 105.34769,3.98224121 105.014665,4.00377644 C104.676409,3.98796872 104.348016,4.11639477 104.116372,4.35507553 C103.869691,4.64404432 103.750607,5.01519506 103.78486,5.38830816 L103.78486,9.12344411 L101.817171,9.12344411 Z" id="Path"></path>
                            </g>
                        </g>
                    </g>
                </g>
            </g>
        </g>
    </g>
</svg>
