<svg xmlns="http://www.w3.org/2000/svg" viewBox="0 0 276.43 73.23"><defs><style>.cls-1{fill:#e5e5e5;}.cls-2{fill:#fb9b1d;}.cls-3{fill:#0d6ae5;}.cls-4{fill:#1a1a1a;}</style></defs><title>oelatam</title><g id="Layer_2" data-name="Layer 2"><g id="Layer_1-2" data-name="Layer 1"><rect class="cls-1" width="73.03" height="73.2" rx="1.61"/><path class="cls-2" d="M0,63H73a0,0,0,0,1,0,0v8.68a1.59,1.59,0,0,1-1.59,1.59H1.59A1.59,1.59,0,0,1,0,71.64V63A0,0,0,0,1,0,63Z"/><path class="cls-3" d="M37.38,69.65c-5.51,0-10.56-3.65-14.21-10.29C19.82,53.27,18,45.25,18,36.75s1.85-16.52,5.2-22.6c3.65-6.64,8.7-10.29,14.21-10.29a2.92,2.92,0,1,1,0,5.83c-3.29,0-6.53,2.58-9.11,7.27C25.39,22.2,23.8,29.23,23.8,36.75s1.59,14.56,4.47,19.8c2.58,4.69,5.82,7.27,9.11,7.27s6.54-2.58,9.12-7.27C49.38,51.31,51,44.28,51,36.75a2.92,2.92,0,0,1,5.83,0c0,8.5-1.85,16.52-5.2,22.61C48,66,42.9,69.65,37.38,69.65Z"/><path class="cls-3" d="M0,56.15a153.68,153.68,0,0,1,28.05-4.33c3.12-.2,6.29-.29,9.43-.29a155.58,155.58,0,0,1,23.91,1.85l2.88.45.9-5.77-2.88-.44a161,161,0,0,0-24.81-1.93c-3.26,0-6.55.1-9.78.3A159.86,159.86,0,0,0,0,50.15Z"/><path class="cls-3" d="M0,36a159.83,159.83,0,0,1,27.78-4.09c3.06-.18,6.17-.27,9.26-.27,4.39,0,8.86.18,13.27.54l.55,0,1.28.11h.09c2.77.26,5.64.61,8.52,1l1.77.25v0c.66.1,1.33.21,2,.33h0l3.08.56,2.35.35a.47.47,0,0,1,.37.5L70,40.93l-3.42-.64c-1-.19-2-.37-3.13-.56l-1.95-.31c-.91-.15-1.88-.29-3.05-.45-1-.14-1.9-.26-2.72-.35l-2-.22a155.89,155.89,0,0,0-16.6-.88A154.3,154.3,0,0,0,0,42Z"/><path class="cls-3" d="M0,22.82a161.09,161.09,0,0,1,27.71-4.08c3.09-.18,6.22-.27,9.32-.27,2.52,0,5.07.06,7.61.18a.2.2,0,0,1,.19.23l-.56,5a.59.59,0,0,1-.6.53c-1.83,0-5.27-.11-6.64-.11-3,0-6,.09-9,.26A155.45,155.45,0,0,0,0,28.82Z"/><path class="cls-3" d="M40.1,69.71A33,33,0,1,1,53.39,7.88,33.45,33.45,0,0,1,64.92,18.57a.36.36,0,0,1-.1.49L60.34,22a.35.35,0,0,1-.49-.1,27,27,0,0,0-45.6.83A24.64,24.64,0,0,0,11,30.41,27.09,27.09,0,0,0,43.69,63.06a24.79,24.79,0,0,0,7.74-3.21A27,27,0,0,0,64.34,36.77V35l4.43-.24,1.47.22a.15.15,0,0,1,.14.15v1.67A33.07,33.07,0,0,1,40.1,69.71Z"/><path class="cls-4" d="M97.75,22.67a8.89,8.89,0,0,1-15.3-6.18v0a8.92,8.92,0,1,1,17.83-.05v.05A8.57,8.57,0,0,1,97.75,22.67ZM87.24,20.74a5.77,5.77,0,0,0,8.28,0,6,6,0,0,0,1.62-4.27v0a6.11,6.11,0,0,0-1.64-4.3,5.77,5.77,0,0,0-8.29,0,6.07,6.07,0,0,0-1.62,4.28v.05A6.07,6.07,0,0,0,87.24,20.74Z"/><path class="cls-4" d="M103.42,25v-17h12.65v2.68h-9.65V15H115v2.68h-8.55v4.58h9.77V25Z"/><path d="M122.86,25V7.65h4.8V20.76h8.39V25Z"/><path d="M136.84,25l7.37-17.43h4.62L156.2,25h-5.14l-1.26-3.09h-6.68L141.88,25Zm7.69-6.82h3.88l-1.93-4.92Z"/><path d="M160,25V11.86h-5.19V7.65H170v4.21h-5.19V25Z"/><path d="M168.62,25,176,7.53h4.63L188,25h-5.15l-1.26-3.09H174.9L173.67,25Zm7.69-6.82h3.89l-1.93-4.92Z"/><path d="M189.79,25V7.65h5.07l4.13,6.7,4.13-6.7h5.07V25h-4.77V15L199,21.8h-.1l-4.4-6.73V25Z"/><path d="M83.55,45.86v-13h2.12l7,9v-9h2.25v13H93L85.8,36.61v9.25Z"/><path d="M109.5,44.11a7,7,0,0,1-9.75,0,6.5,6.5,0,0,1-1.92-4.74v0a6.8,6.8,0,1,1,13.6,0v0A6.53,6.53,0,0,1,109.5,44.11Zm-8-1.48A4.16,4.16,0,0,0,104.65,44a4.09,4.09,0,0,0,3.15-1.33A4.61,4.61,0,0,0,109,39.39v0a4.61,4.61,0,0,0-1.26-3.28,4.38,4.38,0,0,0-6.31,0,4.57,4.57,0,0,0-1.24,3.26v0A4.64,4.64,0,0,0,101.48,42.63Z"/><path d="M114.37,45.86v-13h4.85a6.92,6.92,0,0,1,5,1.85,6.12,6.12,0,0,1,1.94,4.62v0A6.18,6.18,0,0,1,124.19,44a6.88,6.88,0,0,1-5,1.86Zm2.29-2.08h2.56a4.45,4.45,0,0,0,3.27-1.23,4.24,4.24,0,0,0,1.24-3.16v0a4.3,4.3,0,0,0-1.24-3.18,4.42,4.42,0,0,0-3.27-1.25h-2.56Z"/><path d="M140.05,44.11a6.78,6.78,0,0,1-11.67-4.72v0a6.8,6.8,0,1,1,13.6,0v0A6.57,6.57,0,0,1,140.05,44.11Zm-8-1.48a4.4,4.4,0,0,0,6.32,0,4.61,4.61,0,0,0,1.23-3.26v0a4.64,4.64,0,0,0-1.25-3.28,4.14,4.14,0,0,0-3.17-1.35A4.09,4.09,0,0,0,132,36.06a4.61,4.61,0,0,0-1.23,3.26v0A4.59,4.59,0,0,0,132,42.63Z"/><path d="M150.51,45.86v-13h5.79a5.22,5.22,0,0,1,3.76,1.3A3.88,3.88,0,0,1,161.13,37v0a3.78,3.78,0,0,1-.83,2.53,4.41,4.41,0,0,1-2.27,1.4l3.51,4.93h-2.69l-3.2-4.53h-2.86v4.53Zm2.28-6.56h3.35a3,3,0,0,0,2-.59,2,2,0,0,0,.72-1.58v0a1.92,1.92,0,0,0-.7-1.6,3.16,3.16,0,0,0-2-.56h-3.33Z"/><path d="M164.13,45.86v-13h9.64v2h-7.35v3.38h6.52v2h-6.52v3.49h7.45v2Z"/><path d="M182.65,46.08a6.44,6.44,0,0,1-6.74-6.69v0a6.59,6.59,0,0,1,1.9-4.76,6.41,6.41,0,0,1,4.8-2,7.93,7.93,0,0,1,2.79.44,7.58,7.58,0,0,1,2.21,1.32l-1.45,1.73a6.12,6.12,0,0,0-1.64-1,5.2,5.2,0,0,0-2-.34,3.88,3.88,0,0,0-3,1.35,4.65,4.65,0,0,0-1.22,3.24v0a4.66,4.66,0,0,0,1.23,3.33A4.18,4.18,0,0,0,182.72,44a5.13,5.13,0,0,0,3.14-1V40.58h-3.32v-2h5.54v5.47A8.11,8.11,0,0,1,182.65,46.08Z"/><path d="M191.44,45.86v-13h2.29v13Z"/><path d="M208.43,44.11a7,7,0,0,1-9.75,0,6.5,6.5,0,0,1-1.92-4.74v0a6.8,6.8,0,1,1,13.6,0v0A6.53,6.53,0,0,1,208.43,44.11Zm-8-1.48A4.16,4.16,0,0,0,203.58,44a4.09,4.09,0,0,0,3.15-1.33A4.57,4.57,0,0,0,208,39.39v0a4.61,4.61,0,0,0-1.26-3.28,4.38,4.38,0,0,0-6.31,0,4.57,4.57,0,0,0-1.24,3.26v0A4.64,4.64,0,0,0,200.41,42.63Z"/><path d="M213.3,45.86v-13h2.12l7,9v-9h2.25v13h-1.92l-7.17-9.25v9.25Z"/><path d="M226.9,45.86l5.72-13.1h2.12l5.72,13.1h-2.41l-1.32-3.14h-6.15l-1.34,3.14Zm4.52-5.17h4.47l-2.24-5.2Z"/><path d="M242.73,45.86v-13H245V43.78h6.83v2.08Z"/><path d="M83.55,68.15v-13h2.29V66.07h6.84v2.08Z"/><path d="M94.45,68.15l5.73-13.09h2.12L108,68.15H105.6L104.28,65H98.13L96.8,68.15ZM99,63h4.48l-2.25-5.2Z"/><path d="M111.87,68.15V57.27h-4.13V55.15h10.55v2.12h-4.12V68.15Z"/><path d="M120.72,68.15v-13H123v13Z"/><path d="M126.67,68.15v-13h2.12l7,9v-9H138v13h-1.91l-7.17-9.25v9.25Z"/><path d="M152.62,66.41A6.78,6.78,0,0,1,141,61.69v0a6.8,6.8,0,1,1,13.6,0v0A6.59,6.59,0,0,1,152.62,66.41Zm-8-1.48a4.4,4.4,0,0,0,6.32,0,4.62,4.62,0,0,0,1.23-3.26v0a4.66,4.66,0,0,0-1.25-3.28,4.42,4.42,0,0,0-6.32,0,4.65,4.65,0,0,0-1.24,3.26v0A4.63,4.63,0,0,0,144.6,64.93Z"/><path d="M155.51,68.15l5.72-13.09h2.12l5.72,13.09h-2.42L165.33,65h-6.14l-1.34,3.14ZM160,63h4.48l-2.25-5.2Z"/><path d="M171.34,68.15v-13h2.43l4,6.15,4-6.15h2.44v13h-2.29V58.83L177.73,65h-.08l-4.07-6.1v9.29Z"/><path d="M187.73,68.15v-13h9.64v2H190v3.38h6.52v2H190v3.49h7.45v2Z"/><path d="M200.41,68.15v-13h5.8a5.14,5.14,0,0,1,3.75,1.3A3.87,3.87,0,0,1,211,59.26v0a3.8,3.8,0,0,1-.84,2.54,4.44,4.44,0,0,1-2.26,1.4l3.51,4.92h-2.7l-3.19-4.53H202.7v4.53Zm2.29-6.55H206a3,3,0,0,0,2-.6,2,2,0,0,0,.73-1.58v0a1.91,1.91,0,0,0-.71-1.59,3.14,3.14,0,0,0-2-.56H202.7Z"/><path d="M214.09,68.15v-13h2.29v13Z"/><path d="M226,68.38a6.39,6.39,0,0,1-4.72-1.93,6.56,6.56,0,0,1-1.89-4.76v0a6.59,6.59,0,0,1,1.89-4.77,6.44,6.44,0,0,1,4.81-2,7,7,0,0,1,2.87.52,7.7,7.7,0,0,1,2.22,1.5l-1.46,1.69A5.33,5.33,0,0,0,226.11,57,4,4,0,0,0,223,58.35a4.64,4.64,0,0,0-1.23,3.26v0A4.69,4.69,0,0,0,223,64.93a4,4,0,0,0,3.07,1.35,4.38,4.38,0,0,0,2-.42,7.46,7.46,0,0,0,1.77-1.27l1.47,1.48A7.8,7.8,0,0,1,229,67.8,6.86,6.86,0,0,1,226,68.38Z"/><path d="M232.72,68.15l5.72-13.09h2.12l5.72,13.09h-2.41L242.55,65H236.4l-1.34,3.14ZM237.24,63h4.47l-2.25-5.2Z"/><path d="M248.55,68.15v-13h2.12l7,9v-9h2.24v13H258L250.8,58.9v9.25Z"/><path d="M274.5,66.41a6.78,6.78,0,0,1-11.67-4.72v0a6.8,6.8,0,1,1,13.6,0v0A6.55,6.55,0,0,1,274.5,66.41Zm-8-1.48a4.4,4.4,0,0,0,6.32,0A4.62,4.62,0,0,0,274,61.69v0a4.62,4.62,0,0,0-1.25-3.28,4.42,4.42,0,0,0-6.32,0,4.64,4.64,0,0,0-1.23,3.26v0A4.66,4.66,0,0,0,266.48,64.93Z"/></g></g></svg>