<?xml version="1.0" encoding="UTF-8"?>
<svg width="163px" height="48px" viewBox="0 0 163 48" version="1.1" xmlns="http://www.w3.org/2000/svg" xmlns:xlink="http://www.w3.org/1999/xlink">
    <!-- Generator: Sketch 61.2 (89653) - https://sketch.com -->
    <title>logos/oeweek</title>
    <desc>Created with Sketch.</desc>
    <g id="Home-Page-HD" stroke="none" stroke-width="1" fill="none" fill-rule="evenodd">
        <g id="oeg_desktop" transform="translate(-551.000000, -608.000000)">
            <g id="Padding-Group-28" transform="translate(520.000000, 592.000000)">
                <g id="logos/oeweek" transform="translate(31.000000, 16.000000)">
                    <g>
                        <rect id="Rectangle" fill="#E5E5E5" fill-rule="nonzero" x="0.648648649" y="0" width="47.3708108" height="47.4356757" rx="1.11567568"></rect>
                        <path d="M0.648648649,40.7740541 L48,40.7740541 L48,46.4043243 C48,46.9739239 47.5382483,47.4356757 46.9686486,47.4356757 L1.68,47.4356757 C1.11040038,47.4356757 0.648648649,46.9739239 0.648648649,46.4043243 L0.648648649,40.7740541 Z" id="Path" fill="#664BDA" fill-rule="nonzero"></path>
                        <path d="M25.0508108,45.347027 C21.4767568,45.347027 18.2010811,42.972973 15.8335135,38.6724324 C13.6605405,34.7221622 12.4605405,29.5135135 12.4605405,24.0064865 C12.4605405,18.4994595 13.6605405,13.2908108 15.8335135,9.34054054 C18.2010811,5.04 21.4767568,2.66594595 25.0508108,2.66594595 C25.7527607,2.62481459 26.4197266,2.97593574 26.7831163,3.57791034 C27.146506,4.17988494 27.146506,4.93362858 26.7831163,5.53560317 C26.4197266,6.13757777 25.7527607,6.48869892 25.0508108,6.44756757 C22.9167568,6.44756757 20.8151351,8.12108108 19.1416216,11.1632432 C17.2735135,14.5621622 16.2162162,19.1221622 16.2162162,24 C16.2162162,28.8778378 17.2475676,33.4443243 19.1156757,36.8367568 C20.7891892,39.8789189 22.8908108,41.5589189 25.0248649,41.5589189 C27.1589189,41.5589189 29.267027,39.8789189 30.9405405,36.8432432 C32.8086486,33.4443243 33.84,28.8778378 33.84,24 C33.7988686,23.2980501 34.1499898,22.6310842 34.7519644,22.2676945 C35.353939,21.9043049 36.1076826,21.9043049 36.7096572,22.2676945 C37.3116318,22.6310842 37.662753,23.2980501 37.6216216,24 C37.6216216,29.507027 36.4216216,34.7156757 34.2486486,38.6659459 C31.907027,42.972973 28.6313514,45.347027 25.0508108,45.347027 Z" id="Path" fill="#0D6AE5" fill-rule="nonzero"></path>
                        <path d="M0.648648649,32.7308108 C6.59714035,31.2866599 12.6619707,30.3728111 18.7718919,30 C20.867027,29.8702703 23.0010811,29.8054046 25.1156757,29.8054046 C30.5040965,29.8047427 35.8844873,30.2211212 41.2086486,31.0508108 L43.0767568,31.3427027 L42.492973,35.0789189 L40.6248649,34.787027 C35.4937094,33.9885923 30.3085799,33.5874007 25.1156757,33.587027 C23.0789189,33.587027 21.0227027,33.6518919 18.9989189,33.7751351 C12.8066661,34.153293 6.66324663,35.1087912 0.648648649,36.6291892" id="Path" fill="#0D6AE5" fill-rule="nonzero"></path>
                        <path d="M0.648648649,23.5718919 C6.61156457,22.1412229 12.6892687,21.2404203 18.8108108,20.88 C20.7956757,20.7632432 22.812973,20.7048649 24.8172973,20.7048649 C27.6648649,20.7048649 30.5643243,20.8216216 33.4248649,21.0616216 L33.7816216,21.0616216 L34.6118919,21.132973 L34.6702703,21.132973 C36.467027,21.3016216 38.3286486,21.5286486 40.1967568,21.7816216 L41.3448649,21.9372973 L41.3448649,21.9372973 L42.6421622,22.1513514 L42.6421622,22.1513514 C43.2908108,22.2616216 43.9913514,22.3848649 44.64,22.5145946 L46.1643243,22.7351351 C46.3156311,22.7701191 46.4180222,22.9112528 46.4043243,23.0659459 L46.1448649,26.64 L43.9264865,26.2313514 C43.2778378,26.1081081 42.6291892,25.9848649 41.8962162,25.8616216 L40.5989189,25.6605405 C40.0086486,25.5697297 39.3794595,25.4724324 38.652973,25.3686486 C38.0043243,25.2778378 37.4205405,25.2064865 36.8886486,25.1416216 L35.5913514,25.0054054 C23.8655082,23.7332632 12.0070653,24.5457861 0.564324324,27.4054054" id="Path" fill="#0D6AE5" fill-rule="nonzero"></path>
                        <path d="M0.648648649,18.9016216 C6.66500698,17.3992069 12.8083584,16.4610917 18.9989189,16.0994595 C20.9448649,15.9827027 22.8908108,15.9308108 24.8367568,15.9308108 C25.7318919,15.9308108 27.9567568,15.9697297 29.1437838,15.9956757 C29.3410761,16.0004077 29.5096154,15.8543403 29.532973,15.6583784 L29.8962162,12.4151351 C29.9038915,12.3776203 29.8946012,12.338631 29.8708333,12.3086083 C29.8470654,12.2785857 29.811248,12.2605969 29.772973,12.2594595 C28.1254054,12.1816216 26.4713514,12.1427027 24.8367568,12.1427027 C22.8259459,12.1427027 20.7956757,12.2010811 18.7913514,12.3178378 C12.6763092,12.6750728 6.60497608,13.5737256 0.648648649,15.0032432" id="Path" fill="#0D6AE5" fill-rule="nonzero"></path>
                        <path d="M26.8151351,45.4054054 C17.7032979,46.1076809 9.15058294,40.9476312 5.52320183,32.5594923 C1.89582071,24.1713534 3.99392836,14.4054437 10.7464284,8.24731809 C17.4989284,2.08919245 27.4163038,0.897256256 35.4356757,5.28 C38.4455106,6.9624564 41.0096987,9.33983461 42.9145946,12.2140541 C42.981423,12.3181747 42.9525773,12.4566339 42.8497297,12.5254054 L39.9437838,14.4 C39.8932239,14.4341824 39.8310308,14.4465687 39.7712327,14.434365 C39.7114347,14.4221614 39.6590685,14.3863956 39.6259459,14.3351351 C36.3224986,9.32811222 30.6862781,6.36012204 24.6886848,6.46928876 C18.6910915,6.57845548 13.1666139,9.74958995 10.0475676,14.8735135 C9.07366132,16.4167553 8.36955117,18.1145162 7.96540541,19.8940541 C6.54391596,25.8352809 8.31010393,32.0884274 12.6297572,36.4080807 C16.9494104,40.7277339 23.202557,42.4939219 29.1437838,41.0724324 C30.9225206,40.6657739 32.6198701,39.9618344 34.1643243,38.9902703 C39.3750695,35.7921696 42.5471424,30.1138888 42.5383784,24 L42.5383784,22.8454054 L45.4054054,22.7027027 L46.3589189,22.8454054 C46.41112,22.8519805 46.4498577,22.8965773 46.4498577,22.9491892 L46.4498577,24 C46.4879905,35.1635022 37.9404421,44.4819395 26.8151351,45.4054054 Z" id="Path" fill="#0D6AE5" fill-rule="nonzero"></path>
                        <path d="M55.1740022,12.9275676 L55.1740022,12.9275676 C55.173439,11.6024568 55.7098316,10.3336561 56.6607775,9.41082303 C57.6117234,8.48798996 58.8960446,7.98990251 60.2205405,8.03027027 C61.5385874,7.98617949 62.8177965,8.48051677 63.7636807,9.39948063 C64.7095649,10.3184445 65.2406211,11.5828513 65.2346453,12.9016216 L65.2346453,12.9016216 C65.2334555,14.2256067 64.6962926,15.4927182 63.7455438,16.414138 C62.7947949,17.3355578 61.5114792,17.8327663 60.1881081,17.7924324 C58.8706775,17.8383287 57.5914136,17.345477 56.6453154,16.4275292 C55.6992172,15.5095814 55.1679607,14.2457834 55.1740022,12.9275676 L55.1740022,12.9275676 Z M63.0551351,12.9275676 L63.0551351,12.9275676 C63.0832826,12.1487708 62.7939051,11.3919407 62.2533464,10.8305913 C61.7127878,10.269242 60.9674124,9.95152093 60.1881081,9.95025537 C59.4150722,9.9477627 58.6747033,10.2618033 58.139221,10.8193421 C57.6037387,11.3768809 57.3198219,12.1293162 57.3535135,12.9016216 L57.3535135,12.9016216 C57.3271646,13.6793149 57.6173422,14.4344452 58.1577027,14.9943663 C58.6980632,15.5542873 59.4424021,15.8711221 60.2205405,15.8724465 C60.9924012,15.874861 61.7317177,15.5617037 62.2669974,15.0056007 C62.8022771,14.4494978 63.0870049,13.6987739 63.0551351,12.9275676 L63.0551351,12.9275676 Z" id="Shape" fill="#333333" fill-rule="nonzero"></path>
                        <path d="M66.732973,11.3318919 C66.7755981,10.7956775 67.2231752,10.3822677 67.7610811,10.3822677 C68.298987,10.3822677 68.746564,10.7956775 68.7891892,11.3318919 L68.7891892,11.4291892 C69.2902871,10.6756148 70.1417003,10.2303355 71.0464865,10.2486486 C72.7394595,10.2486486 74.3416216,11.5459459 74.3416216,13.9913514 L74.3416216,14.0237838 C74.3416216,16.4432432 72.7654054,17.7664865 71.0464865,17.7664865 C70.1647039,17.7844601 69.3268403,17.3823819 68.7891892,16.6832432 L68.7891892,18.8497297 C68.746564,19.3859441 68.298987,19.7993539 67.7610811,19.7993539 C67.2231752,19.7993539 66.7755981,19.3859441 66.732973,18.8497297 L66.732973,11.3318919 Z M72.2918919,14.0237838 L72.2918919,13.9913514 C72.3746779,13.3099323 72.0576612,12.6417562 71.4775061,12.27487 C70.8973509,11.9079838 70.1577842,11.9079838 69.5776291,12.27487 C68.9974739,12.6417562 68.6804573,13.3099323 68.7632432,13.9913514 L68.7632432,14.0237838 C68.6804573,14.7052029 68.9974739,15.373379 69.5776291,15.7402651 C70.1577842,16.1071513 70.8973509,16.1071513 71.4775061,15.7402651 C72.0576612,15.373379 72.3746779,14.7052029 72.2918919,14.0237838 L72.2918919,14.0237838 Z" id="Shape" fill="#333333" fill-rule="nonzero"></path>
                        <path d="M79.1351351,17.7924324 C78.1245389,17.8401995 77.1400783,17.4628089 76.4203808,16.7517379 C75.7006833,16.0406669 75.3114494,15.0608285 75.347027,14.0497297 L75.347027,14.0497297 C75.3010899,13.0688479 75.6571017,12.1116442 76.3328446,11.3991761 C77.0085876,10.686708 77.945629,10.2805839 78.9275676,10.2745946 C79.8579046,10.2586272 80.7548386,10.6211644 81.412783,11.2791089 C82.0707275,11.9370533 82.4332647,12.8339873 82.4172973,13.7643243 C82.4319417,14.0254857 82.3364078,14.2808216 82.1539311,14.4682302 C81.9714543,14.6556388 81.7187563,14.7579464 81.4572973,14.7502703 L77.3902703,14.7502703 C77.5229337,15.6112997 78.2917747,16.2280623 79.1610811,16.1708108 C79.6880019,16.1746442 80.2013039,16.0035436 80.6205405,15.6843243 C80.7624258,15.5725581 80.939521,15.5150597 81.12,15.5221622 C81.3349753,15.5184898 81.5420448,15.6031691 81.6928465,15.7564228 C81.8436482,15.9096766 81.9249769,16.1180849 81.9178378,16.332973 C81.9179951,16.5657375 81.8188979,16.7875264 81.6454054,16.9427027 C80.9394114,17.521045 80.0472593,17.8230397 79.1351351,17.7924324 L79.1351351,17.7924324 Z M80.4324324,13.44 C80.42551,12.5953116 79.7462215,11.9102665 78.9016216,11.8962162 C78.0518919,11.8962162 77.5005405,12.5059459 77.3383784,13.44 L80.4324324,13.44 Z" id="Shape" fill="#333333" fill-rule="nonzero"></path>
                        <path d="M83.8767568,11.3318919 C83.9193819,10.7956775 84.366959,10.3822677 84.9048649,10.3822677 C85.4427707,10.3822677 85.8903478,10.7956775 85.932973,11.3318919 L85.932973,11.4097297 C86.4054116,10.6967583 87.1988717,10.2624178 88.0540541,10.2486486 C89.6108108,10.2486486 90.5124324,11.28 90.5124324,12.9405405 L90.5124324,16.6832432 C90.4698073,17.2194576 90.0222302,17.6328674 89.4843243,17.6328674 C88.9464184,17.6328674 88.4988414,17.2194576 88.4562162,16.6832432 L88.4562162,13.6216216 C88.4562162,12.6486486 88.0021622,12.1491892 87.2172973,12.1491892 C86.4324324,12.1491892 85.92,12.6486486 85.92,13.6216216 L85.92,16.7156757 C85.8773748,17.25189 85.4297978,17.6652999 84.8918919,17.6652999 C84.353986,17.6652999 83.9064089,17.25189 83.8637838,16.7156757 L83.8767568,11.3318919 Z" id="Path" fill="#333333" fill-rule="nonzero"></path>
                        <path d="M96.2983784,16.5924324 L96.2983784,9.21081081 C96.2966385,8.93330906 96.4061064,8.66666898 96.6023336,8.47044175 C96.7985609,8.27421453 97.0652009,8.16474661 97.3427027,8.16646606 L102.583784,8.16646606 C103.092143,8.16646606 103.507247,8.57283241 103.517838,9.08108108 C103.517862,9.32763139 103.419041,9.56389963 103.243489,9.73701365 C103.067937,9.91012767 102.83031,10.0056347 102.583784,10.0021622 L98.3675676,10.0021622 L98.3675676,11.9481081 L101.980541,11.9481081 C102.227675,11.9481021 102.464594,12.0467176 102.638734,12.2220757 C102.812874,12.3974337 102.909836,12.635034 102.908108,12.8821622 C102.908133,13.1269923 102.809995,13.3616108 102.635659,13.5335084 C102.461323,13.705406 102.225346,13.8002295 101.980541,13.7967568 L98.3675676,13.7967568 L98.3675676,15.7881081 L102.655135,15.7881081 C103.168476,15.7880957 103.585624,16.2023468 103.589189,16.7156757 C103.589189,16.962226 103.490393,17.1984942 103.31484,17.3716082 C103.139288,17.5447223 102.901661,17.6402293 102.655135,17.6368482 L97.3427027,17.6368482 C97.0646666,17.6402766 96.7969886,17.5313806 96.6003716,17.3347636 C96.4037546,17.1381466 96.2948585,16.8704686 96.2983784,16.5924324 L96.2983784,16.5924324 Z" id="Path" fill="#333333" fill-rule="nonzero"></path>
                        <path d="M112.157838,16.6832432 C112.115213,17.2194576 111.667636,17.6328674 111.12973,17.6328674 C110.591824,17.6328674 110.144247,17.2194576 110.101622,16.6832432 L110.101622,16.5924324 C109.597351,17.3416804 108.747298,17.7838058 107.844324,17.7664865 C106.157838,17.7664865 104.549189,16.4691892 104.549189,14.0237838 L104.549189,13.9913514 C104.549189,11.5718919 106.131892,10.2486486 107.844324,10.2486486 C108.726107,10.230675 109.563971,10.6327533 110.101622,11.3318919 L110.101622,8.7372973 C110.070874,8.35049476 110.259829,7.97916781 110.59062,7.7763398 C110.92141,7.57351179 111.338049,7.57351179 111.66884,7.7763398 C111.99963,7.97916781 112.188586,8.35049476 112.157838,8.7372973 L112.157838,16.6832432 Z M106.605405,13.9913514 L106.605405,14.0237838 C106.512065,14.7100164 106.825844,15.3879714 107.409403,15.7609137 C107.992963,16.133856 108.74001,16.133856 109.32357,15.7609137 C109.907129,15.3879714 110.220908,14.7100164 110.127568,14.0237838 L110.127568,13.9913514 C110.220908,13.3051188 109.907129,12.6271638 109.32357,12.2542214 C108.74001,11.8812791 107.992963,11.8812791 107.409403,12.2542214 C106.825844,12.6271638 106.512065,13.3051188 106.605405,13.9913514 L106.605405,13.9913514 Z" id="Shape" fill="#333333" fill-rule="nonzero"></path>
                        <path d="M120.447568,16.6832432 C120.404942,17.2194576 119.957365,17.6328674 119.419459,17.6328674 C118.881554,17.6328674 118.433977,17.2194576 118.391351,16.6832432 L118.391351,16.6054054 C117.918913,17.3183768 117.125453,17.7527173 116.27027,17.7664865 C114.713514,17.7664865 113.805405,16.7351351 113.805405,15.0745946 L113.805405,11.3318919 C113.848031,10.7956775 114.295608,10.3822677 114.833514,10.3822677 C115.371419,10.3822677 115.818996,10.7956775 115.861622,11.3318919 L115.861622,14.4259459 C115.861622,15.3989189 116.322162,15.8983784 117.107027,15.8983784 C117.891892,15.8983784 118.404324,15.3989189 118.404324,14.4259459 L118.404324,11.3318919 C118.446949,10.7956775 118.894527,10.3822677 119.432432,10.3822677 C119.970338,10.3822677 120.417915,10.7956775 120.460541,11.3318919 L120.447568,16.6832432 Z" id="Path" fill="#333333" fill-rule="nonzero"></path>
                        <path d="M121.796757,14.0497297 L121.796757,14.0497297 C121.782455,13.0396601 122.179187,12.0671333 122.895928,11.355285 C123.612669,10.6434367 124.58789,10.2533748 125.597838,10.2745946 C126.493545,10.22994 127.374023,10.5188106 128.069189,11.0854054 C128.364298,11.337264 128.469949,11.7470407 128.333404,12.1101903 C128.19686,12.4733399 127.847399,12.7119947 127.459459,12.707027 C127.245478,12.7095962 127.037102,12.6386112 126.869189,12.5059459 C126.507315,12.1994934 126.045994,12.0357243 125.571892,12.0454054 C125.080205,12.0688739 124.618182,12.2874691 124.288215,12.6527468 C123.958247,13.0180246 123.787587,13.4998171 123.814054,13.9913514 L123.814054,14.0237838 C123.774471,14.5366501 123.949609,15.0429282 124.297642,15.4217054 C124.645674,15.8004826 125.135353,16.0177512 125.64973,16.0216216 C126.146648,16.0217028 126.627315,15.8446148 127.005405,15.5221622 C127.163998,15.4014612 127.357462,15.3354559 127.556757,15.3340541 C127.915546,15.3411324 128.233701,15.5664029 128.359548,15.9024716 C128.485395,16.2385402 128.393459,16.6173773 128.127568,16.8583784 C127.423631,17.5061875 126.488292,17.8429095 125.532973,17.7924324 C124.537741,17.8029849 123.580286,17.4118434 122.877122,16.7074585 C122.173958,16.0030736 121.784478,15.0449418 121.796757,14.0497297 L121.796757,14.0497297 Z" id="Path" fill="#333333" fill-rule="nonzero"></path>
                        <path d="M129.301622,15.5675676 L129.301622,15.5675676 C129.301622,13.9848649 130.501622,13.2583784 132.220541,13.2583784 C132.823345,13.2512879 133.422713,13.3500849 133.991351,13.5502703 L133.991351,13.4335135 C133.991351,12.5772973 133.465946,12.1362162 132.434595,12.1362162 C131.955681,12.1297219 131.478659,12.1975554 131.020541,12.3372973 C130.924596,12.3708245 130.823793,12.3883555 130.722162,12.3891892 C130.496888,12.3944295 130.279022,12.3085904 130.117866,12.1510965 C129.956709,11.9936026 129.865885,11.7777672 129.865946,11.5524324 C129.867905,11.1963648 130.090029,10.8786752 130.423784,10.7545946 C131.162829,10.4844143 131.946387,10.3567561 132.732973,10.3783784 C133.624093,10.307843 134.505925,10.6002277 135.178378,11.1891892 C135.741165,11.8213094 136.024266,12.6542331 135.963243,13.4983784 L135.963243,16.7935135 C135.963266,17.0572659 135.857611,17.3100314 135.669895,17.4953096 C135.482179,17.6805878 135.228054,17.7829299 134.964324,17.7794595 C134.709652,17.7993894 134.458251,17.711903 134.27097,17.5381758 C134.08369,17.3644486 133.9776,17.1203144 133.978378,16.8648649 L133.978378,16.8648649 C133.423263,17.4859657 132.618083,17.8242365 131.785946,17.7859459 C130.423784,17.7664865 129.301622,16.9816216 129.301622,15.5675676 Z M134.017297,15.0940541 L134.017297,14.7308108 C133.608819,14.5498306 133.166774,14.4570011 132.72,14.4583633 C131.844324,14.4583633 131.299459,14.8086486 131.299459,15.4572973 L131.299459,15.4897297 C131.299459,16.0410811 131.76,16.3654054 132.421622,16.3654054 C133.368649,16.3459459 134.017297,15.8205405 134.017297,15.0745946 L134.017297,15.0940541 Z" id="Shape" fill="#333333" fill-rule="nonzero"></path>
                        <path d="M137.87027,15.5675676 L137.87027,12.1427027 L137.805405,12.1427027 C137.473372,12.1712532 137.153589,12.0102544 136.978777,11.7265251 C136.803965,11.4427958 136.803965,11.0847718 136.978777,10.8010425 C137.153589,10.5173132 137.473372,10.3563144 137.805405,10.3848649 L137.87027,10.3848649 L137.87027,9.47675676 C137.912895,8.94054241 138.360473,8.52713256 138.898378,8.52713256 C139.436284,8.52713256 139.883861,8.94054241 139.926486,9.47675676 L139.926486,10.3783784 L140.834595,10.3783784 C141.290821,10.4176078 141.641182,10.7993871 141.641182,11.2572973 C141.641182,11.7152075 141.290821,12.0969868 140.834595,12.1362162 L139.926486,12.1362162 L139.926486,15.2302703 C139.926486,15.7037838 140.127568,15.9372973 140.575135,15.9372973 L140.821622,15.9372973 C141.291962,15.9408606 141.671351,16.3231599 141.671351,16.7935135 C141.665942,17.1326039 141.459423,17.4360083 141.145946,17.5654054 C140.768729,17.7066303 140.368105,17.7748683 139.965405,17.7664865 C138.726486,17.7535135 137.87027,17.2540541 137.87027,15.5675676 Z" id="Path" fill="#333333" fill-rule="nonzero"></path>
                        <path d="M142.981622,8.65297297 C143.083974,8.0993961 143.56677,7.69768305 144.12973,7.69768305 C144.692689,7.69768305 145.175485,8.0993961 145.277838,8.65297297 L145.277838,8.68540541 C145.192212,9.25339408 144.704136,9.67340544 144.12973,9.67340544 C143.555323,9.67340544 143.067248,9.25339408 142.981622,8.68540541 L142.981622,8.65297297 Z M143.104865,11.3318919 C143.14749,10.7956775 143.595067,10.3822677 144.132973,10.3822677 C144.670879,10.3822677 145.118456,10.7956775 145.161081,11.3318919 L145.161081,16.6832432 C145.118456,17.2194576 144.670879,17.6328674 144.132973,17.6328674 C143.595067,17.6328674 143.14749,17.2194576 143.104865,16.6832432 L143.104865,11.3318919 Z" id="Shape" fill="#333333" fill-rule="nonzero"></path>
                        <path d="M146.59456,14.0497297 L146.59456,14.0497297 C146.585639,11.8859676 148.332454,10.1246316 150.496216,10.1156414 C152.659978,10.1067197 154.421314,11.8535352 154.43027,14.0172973 L154.43027,14.0497297 C154.43027,16.2134918 152.676195,17.9675676 150.512432,17.9675676 C148.34867,17.9675676 146.59456,16.2134918 146.59456,14.0497297 L146.59456,14.0497297 Z M152.432432,14.0497297 L152.432432,14.0497297 C152.455445,13.5191834 152.260631,13.0022794 151.893171,12.6188966 C151.525711,12.2355138 151.017531,12.0189606 150.486486,12.0194595 C149.974421,12.0135794 149.482547,12.2188969 149.126626,12.5870902 C148.770706,12.9552835 148.582176,13.4538334 148.605405,13.9654054 L148.605405,13.9978378 C148.591478,14.5161832 148.785004,15.0186502 149.143038,15.3937335 C149.501073,15.7688168 149.994,15.9854921 150.512432,15.9956757 C151.031183,16.0124968 151.533403,15.8119925 151.897936,15.4425332 C152.262469,15.0730738 152.456215,14.5682074 152.432432,14.0497297 L152.432432,14.0497297 Z" id="Shape" fill="#333333" fill-rule="nonzero"></path>
                        <path d="M156.090811,11.3318919 C156.133436,10.7956775 156.581013,10.3822677 157.118919,10.3822677 C157.656825,10.3822677 158.104402,10.7956775 158.147027,11.3318919 L158.147027,11.4097297 C158.619466,10.6967583 159.412926,10.2624178 160.268108,10.2486486 C161.824865,10.2486486 162.726486,11.28 162.726486,12.9405405 L162.726486,16.6832432 C162.683861,17.2194576 162.236284,17.6328674 161.698378,17.6328674 C161.160473,17.6328674 160.712895,17.2194576 160.67027,16.6832432 L160.67027,13.6216216 C160.67027,12.6486486 160.216216,12.1491892 159.431351,12.1491892 C158.646486,12.1491892 158.134054,12.6486486 158.134054,13.6216216 L158.134054,16.7156757 C158.091429,17.25189 157.643852,17.6652999 157.105946,17.6652999 C156.56804,17.6652999 156.120463,17.25189 156.077838,16.7156757 L156.090811,11.3318919 Z" id="Path" fill="#333333" fill-rule="nonzero"></path>
                        <path d="M55.3232432,26.5945946 C55.2417042,26.3693074 55.1936256,26.1332855 55.1805405,25.8940541 C55.1887861,25.3910101 55.4002878,24.9127215 55.7668688,24.5681353 C56.1334499,24.2235492 56.6238944,24.0420083 57.1264865,24.0648649 C57.9637281,24.0549736 58.7067193,24.5996575 58.9491892,25.4010811 L62.3416216,35.8572973 L65.7535135,25.4789189 C65.9675507,24.6131302 66.742749,24.003664 67.6345946,23.9999747 L67.9264865,23.9999747 C68.8274895,23.9954295 69.6137985,24.609985 69.827027,25.4854054 L73.2389189,35.8637838 L76.6248649,25.4075676 C76.8634529,24.6117943 77.5973446,24.0679753 78.4281081,24.0713514 C78.9141758,24.0591083 79.3845896,24.2436737 79.7326482,24.5831835 C80.0807067,24.9226932 80.2767568,25.3883728 80.2767568,25.8745946 C80.264162,26.1223333 80.2161053,26.3669856 80.1340541,26.6010811 L75.3535135,40.0086486 C75.1153827,40.8935108 74.323621,41.5163633 73.4075676,41.5394595 L73.0183784,41.5394595 C72.0968478,41.5317657 71.2968835,40.9024605 71.0724324,40.0086486 L67.7124324,30.2335135 L64.3654054,39.9891892 C64.1429901,40.8843189 63.3417916,41.514595 62.4194595,41.52 L62.0302703,41.52 C61.1142168,41.4969039 60.3224551,40.8740513 60.0843243,39.9891892 L55.3232432,26.5945946 Z" id="Path" fill="#333333" fill-rule="nonzero"></path>
                        <path d="M84.3826562,39.3794595 L84.3826562,26.0691892 C84.379166,25.5686826 84.5773208,25.0878361 84.9324596,24.7351381 C85.2875983,24.3824402 85.7698,24.1876062 86.2702703,24.1945946 L95.7275676,24.1945946 C96.6564542,24.1981673 97.4075744,24.9521876 97.4075676,25.8810811 C97.4058688,26.3237507 97.2274892,26.7474183 96.9120459,27.05799 C96.5966025,27.3685616 96.17021,27.540326 95.7275676,27.5351351 L88.1124324,27.5351351 L88.1124324,30.9924324 L94.5989189,30.9924324 C95.5278056,30.9960051 96.2789258,31.7500254 96.2789189,32.6789189 C96.2772202,33.1215885 96.0988406,33.5452562 95.7833972,33.8558278 C95.4679539,34.1663995 95.0415613,34.3381638 94.5989189,34.332973 L88.1124324,34.332973 L88.1124324,37.9135135 L95.8378378,37.9135135 C96.7667245,37.9170862 97.5178378,38.6711065 97.5178378,39.6 C97.5161391,40.0426696 97.3377595,40.4663373 97.0223161,40.7769089 C96.7068728,41.0874806 96.2804803,41.2592449 95.8378378,41.2540541 L86.2702703,41.2540541 C85.7698,41.2610424 85.2875983,41.0662084 84.9324596,40.7135105 C84.5773208,40.3608126 84.379166,39.8799661 84.3826562,39.3794595 Z" id="Path" fill="#333333" fill-rule="nonzero"></path>
                        <path d="M101.93509,39.3794595 L101.93509,26.0691892 C101.931682,25.5754528 102.124513,25.1005684 102.471205,24.7490111 C102.817896,24.3974538 103.290047,24.1980233 103.783784,24.1945946 L113.241081,24.1945946 C114.169968,24.1981673 114.921088,24.9521876 114.921081,25.8810811 C114.919382,26.3237507 114.741003,26.7474183 114.425559,27.05799 C114.110116,27.3685616 113.683724,27.540326 113.241081,27.5351351 L105.664865,27.5351351 L105.664865,30.9924324 L112.151351,30.9924324 C113.078761,30.9995325 113.827825,31.7514888 113.831351,32.6789189 C113.827924,33.1210462 113.648996,33.5437021 113.333932,33.8539002 C113.018868,34.1640984 112.593478,34.336427 112.151351,34.332973 L105.664865,34.332973 L105.664865,37.9135135 L113.39027,37.9135135 C114.31768,37.9206136 115.066744,38.6725699 115.07027,39.6 C115.066843,40.0421273 114.887915,40.4647831 114.572851,40.7749813 C114.257787,41.0851795 113.832397,41.2575081 113.39027,41.254105 L103.783784,41.254105 C103.290047,41.2506254 102.817896,41.0511949 102.471205,40.6996376 C102.124513,40.3480803 101.931682,39.8731958 101.93509,39.3794595 L101.93509,39.3794595 Z" id="Path" fill="#333333" fill-rule="nonzero"></path>
                        <path d="M119.487568,24.9459459 C119.487568,23.9088447 120.328304,23.0681081 121.365405,23.0681081 C122.402507,23.0681081 123.243243,23.9088447 123.243243,24.9459459 L123.243243,30.6540541 L130.164324,23.7783784 C130.564083,23.3215039 131.139974,23.0571608 131.747027,23.0518919 C132.208959,23.0393236 132.655814,23.2168506 132.983183,23.5429932 C133.310551,23.8691357 133.489754,24.3153213 133.478919,24.7772973 C133.470514,25.3257838 133.221465,25.8428574 132.797838,26.1913514 L127.997838,30.68 L133.232432,37.2702703 C133.552209,37.6274157 133.731925,38.0882259 133.738505,38.5675676 C133.74428,39.0658805 133.544433,39.5445736 133.185963,39.8907671 C132.827493,40.2369607 132.342129,40.4200122 131.844324,40.3967568 C131.197658,40.3790536 130.602067,40.0411468 130.255135,39.4951351 L125.383784,33.1059459 L123.243243,35.1102703 L123.243243,38.5221622 C123.243243,39.5574722 122.403959,40.3967568 121.368649,40.3967568 C120.333339,40.3967568 119.494054,39.5574722 119.494054,38.5221622 L119.487568,24.9459459 Z" id="Path" fill="#333333" fill-rule="nonzero"></path>
                    </g>
                </g>
            </g>
        </g>
    </g>
</svg>