<svg xmlns="http://www.w3.org/2000/svg" viewBox="0 0 197.57 73.13"><defs><style>.cls-1{fill:#e5e5e5;}.cls-2{fill:#664bda;}.cls-3{fill:#0d6ae5;}</style></defs><title>oeweek</title><g id="Layer_2" data-name="Layer 2"><g id="Layer_1-2" data-name="Layer 1"><rect class="cls-1" width="73.03" height="73.13" rx="1.72"/><path class="cls-2" d="M0,62.86H73a0,0,0,0,1,0,0v8.68a1.59,1.59,0,0,1-1.59,1.59H1.59A1.59,1.59,0,0,1,0,71.54V62.86a0,0,0,0,1,0,0Z"/><path class="cls-3" d="M37.62,69.91c-5.51,0-10.56-3.66-14.21-10.29-3.35-6.09-5.2-14.12-5.2-22.61s1.85-16.52,5.2-22.61c3.65-6.63,8.7-10.29,14.21-10.29a2.92,2.92,0,1,1,0,5.83c-3.29,0-6.53,2.58-9.11,7.27C25.63,22.45,24,29.48,24,37s1.59,14.56,4.47,19.79c2.58,4.69,5.82,7.28,9.11,7.28s6.54-2.59,9.12-7.27c2.88-5.24,4.47-12.28,4.47-19.8A2.92,2.92,0,1,1,57,37c0,8.49-1.85,16.52-5.2,22.61C48.19,66.25,43.14,69.91,37.62,69.91Z"/><path class="cls-3" d="M0,50.46a159.64,159.64,0,0,1,27.94-4.21c3.23-.2,6.52-.3,9.78-.3a161,161,0,0,1,24.81,1.92l2.88.45-.9,5.76-2.88-.45a155.58,155.58,0,0,0-23.91-1.85c-3.14,0-6.31.1-9.43.29A153.65,153.65,0,0,0,0,56.47"/><path class="cls-3" d="M0,36.34a160.43,160.43,0,0,1,28-4.15c3.06-.18,6.17-.27,9.26-.27,4.39,0,8.86.18,13.27.55l.55,0,1.28.11h.09c2.77.26,5.64.61,8.52,1l1.77.24v0l2,.33h0c1,.17,2.08.36,3.08.56l2.35.34a.48.48,0,0,1,.37.51l-.4,5.51-3.42-.63c-1-.19-2-.38-3.13-.57l-2-.31c-.91-.14-1.88-.29-3-.45-1-.14-1.9-.25-2.72-.35l-2-.21a154.15,154.15,0,0,0-54,3.7"/><path class="cls-3" d="M0,29.14a153.78,153.78,0,0,1,28.29-4.32c3-.18,6-.26,9-.26,1.38,0,4.81.06,6.64.1a.59.59,0,0,0,.6-.52l.56-5a.2.2,0,0,0-.19-.24c-2.54-.12-5.09-.18-7.61-.18-3.1,0-6.23.09-9.32.27A159.78,159.78,0,0,0,0,23.13"/><path class="cls-3" d="M40.34,70A33,33,0,1,1,53.63,8.14,33.36,33.36,0,0,1,65.16,18.83a.35.35,0,0,1-.1.48L60.58,22.2a.35.35,0,0,1-.49-.1,27,27,0,0,0-45.6.83,24.79,24.79,0,0,0-3.21,7.74A27.09,27.09,0,0,0,43.93,63.32a25,25,0,0,0,7.74-3.21A27.07,27.07,0,0,0,64.58,37V35.22L69,35l1.47.22a.16.16,0,0,1,.14.16V37A33,33,0,0,1,40.34,70Z"/><path d="M82.12,37.34v-.05a9.05,9.05,0,0,1,18.1,0v0a9.05,9.05,0,0,1-18.1.05Zm14.91,0v-.05a5.94,5.94,0,0,0-5.88-6.16,5.85,5.85,0,0,0-5.84,6.11v0a5.92,5.92,0,0,0,5.89,6.14A5.83,5.83,0,0,0,97,37.34Z"/><path d="M102.79,44.41V30.17a1.52,1.52,0,0,1,1.54-1.54h10.06A1.37,1.37,0,0,1,115.75,30a1.35,1.35,0,0,1-1.36,1.36h-8.55v4.51h7.44a1.37,1.37,0,0,1,1.36,1.38,1.36,1.36,0,0,1-1.36,1.34h-7.44v4.65h8.68a1.36,1.36,0,0,1,0,2.72H104.33A1.52,1.52,0,0,1,102.79,44.41Z"/><path d="M121.34,31.06a2.62,2.62,0,0,1-.14-.72,1.94,1.94,0,0,1,3.8-.49l3.44,10.61,3.47-10.52a2,2,0,0,1,1.92-1.5h.3a2,2,0,0,1,1.93,1.5l3.46,10.52L143,29.85a1.91,1.91,0,0,1,1.83-1.37,1.84,1.84,0,0,1,1.88,1.84,2.44,2.44,0,0,1-.15.74l-4.84,13.6a2.12,2.12,0,0,1-2,1.56h-.4a2,2,0,0,1-2-1.56l-3.42-9.92-3.41,9.92a2.06,2.06,0,0,1-2,1.56h-.4a2.12,2.12,0,0,1-2-1.56Z"/><path d="M149.71,44V30.54a1.89,1.89,0,0,1,1.91-1.91h9.59a1.72,1.72,0,0,1,1.71,1.71A1.69,1.69,0,0,1,161.21,32H153.5v3.51h6.6a1.72,1.72,0,0,1,1.71,1.71,1.69,1.69,0,0,1-1.71,1.68h-6.6v3.64h7.84a1.71,1.71,0,0,1,1.7,1.71,1.68,1.68,0,0,1-1.7,1.68h-9.72A1.89,1.89,0,0,1,149.71,44Z"/><path d="M166.41,44V30.54a1.89,1.89,0,0,1,1.9-1.91h9.6a1.72,1.72,0,0,1,1.71,1.71A1.69,1.69,0,0,1,177.91,32h-7.72v3.51h6.61a1.71,1.71,0,0,1,1.7,1.71,1.68,1.68,0,0,1-1.7,1.68h-6.61v3.64H178a1.72,1.72,0,0,1,1.71,1.71A1.69,1.69,0,0,1,178,46h-9.72A1.89,1.89,0,0,1,166.41,44Z"/><path d="M183.1,30.39a1.91,1.91,0,1,1,3.81,0V36.2l7-7a2.15,2.15,0,0,1,1.6-.75,1.72,1.72,0,0,1,1.76,1.76,1.91,1.91,0,0,1-.69,1.44l-4.88,4.55,5.32,6.68a2,2,0,0,1,.52,1.33,1.84,1.84,0,0,1-1.93,1.86,1.92,1.92,0,0,1-1.61-.92l-4.94-6.48-2.18,2v3.46a1.91,1.91,0,1,1-3.81,0Z"/></g></g></svg>