<?xml version="1.0" encoding="UTF-8"?>
<svg width="242px" height="34px" viewBox="0 0 242 34" version="1.1" xmlns="http://www.w3.org/2000/svg" xmlns:xlink="http://www.w3.org/1999/xlink">
    <!-- Generator: Sketch 58 (84663) - https://sketch.com -->
    <title>Combined Shape</title>
    <desc>Created with Sketch.</desc>
    <g id="Home" stroke="none" stroke-width="1" fill="none" fill-rule="evenodd">
        <g id="oeg_desktop" transform="translate(-391.000000, -161.000000)" fill="#FF922D" fill-rule="nonzero" stroke="#4D4D4D">
            <g id="Hero">
                <g id="hero-titles" transform="translate(327.000000, 161.000000)">
                    <path d="M82,0.5 C71.8214827,0.5 64.5,7.35969696 64.5,16.9052925 C64.5,26.5218185 71.8463147,33.5 82,33.5 C92.1359738,33.5 99.5,26.491359 99.5,16.9052925 C99.5,7.39015032 92.1605187,0.5 82,0.5 Z M132.081395,1.5 L105.5,1.5 L105.5,33.5 L132.5,33.5 L132.5,26.2146933 L115.290698,26.2146933 L115.290698,21.1191155 L130.546512,21.1191155 L130.546512,13.8338088 L115.290698,13.8338088 L115.290698,8.7853067 L132.081395,8.7853067 L132.081395,1.5 Z M152.568702,1.5 L142.5,1.5 L142.5,33.5 L166.5,33.5 L166.5,25.414408 L152.568702,25.414408 L152.568702,1.5 Z M193.093567,1.5 L182.425374,1.5 L168.757264,33.5 L178.984498,33.5 L180.698783,28.839515 L193.923631,28.839515 L195.590298,33.5 L206.25374,33.5 L193.093567,1.5 Z M231.5,1.5 L202.5,1.5 L202.5,9.11483595 L211.961173,9.11483595 L211.961173,33.5 L221.991284,33.5 L221.991284,9.11483595 L231.5,9.11483595 L231.5,1.5 Z M253.093567,1.5 L242.425374,1.5 L228.757264,33.5 L238.984498,33.5 L240.698783,28.839515 L253.923631,28.839515 L255.590298,33.5 L266.25374,33.5 L253.093567,1.5 Z M279.364868,1.5 L268.5,1.5 L268.5,33.5 L277.143216,33.5 L277.143216,13.2332636 L283.715105,30.2988588 L290.284895,30.2988588 L296.856784,13.2332636 L296.856784,33.5 L305.5,33.5 L305.5,1.5 L294.635132,1.5 L287,19.5107408 L279.364868,1.5 Z M82.1428571,8.5 C86.3074928,8.5 89.5,12.1348426 89.5,16.9518072 C89.5,21.7857391 86.292567,25.5 82.1428571,25.5 C77.9425283,25.5 74.5,21.7309405 74.5,16.9518072 C74.5,12.1713968 77.8951455,8.5 82.1428571,8.5 Z M183.292065,21.5 L187.55441,9.4864419 L191.701556,21.5 L183.292065,21.5 Z M247.55441,9.4864419 L251.701556,21.5 L243.292065,21.5 L247.55441,9.4864419 Z" id="Combined-Shape"></path>
                </g>
            </g>
        </g>
    </g>
</svg>