<?xml version="1.0" encoding="UTF-8"?>
<svg width="242px" height="34px" viewBox="0 0 242 34" version="1.1" xmlns="http://www.w3.org/2000/svg" xmlns:xlink="http://www.w3.org/1999/xlink">
    <!-- Generator: Sketch 58 (84663) - https://sketch.com -->
    <title>OELATAM</title>
    <desc>Created with Sketch.</desc>
    <defs>
        <path d="M82,0 C92.425974,0 100,7.10306407 100,16.9052925 C100,26.7548747 92.425974,34 82,34 C71.574026,34 64,26.8022284 64,16.9052925 C64,7.05571031 71.574026,0 82,0 Z M82.1428571,9 C78.2857143,9 75,12.3253012 75,16.9518072 C75,21.5783133 78.3333333,25 82.1428571,25 C85.952381,25 89,21.5783133 89,16.9518072 C89,12.3253012 85.952381,9 82.1428571,9 Z M132.581395,9.2853067 L115.790698,9.2853067 L115.790698,13.3338088 L131.046512,13.3338088 L131.046512,21.6191155 L115.790698,21.6191155 L115.790698,25.7146933 L133,25.7146933 L133,34 L105,34 L105,1 L132.581395,1 L132.581395,9.2853067 Z M153.068702,24.914408 L167,24.914408 L167,34 L142,34 L142,1 L153.068702,1 L153.068702,24.914408 Z M193.571429,29.339515 L181.047619,29.339515 L179.333333,34 L168,34 L182.095238,1 L193.428571,1 L207,34 L195.238095,34 L193.571429,29.339515 Z M191,21 L187.547945,11 L184,21 L191,21 Z M232,9.61483595 L222.491284,9.61483595 L222.491284,34 L211.461173,34 L211.461173,9.61483595 L202,9.61483595 L202,1 L232,1 L232,9.61483595 Z M253.571429,29.339515 L241.047619,29.339515 L239.333333,34 L228,34 L242.095238,1 L253.428571,1 L267,34 L255.238095,34 L253.571429,29.339515 Z M251,21 L247.547945,11 L244,21 L251,21 Z M306,34 L296.356784,34 L296.356784,15.9229672 L290.628141,30.7988588 L283.371859,30.7988588 L277.643216,15.9229672 L277.643216,34 L268,34 L268,1 L279.69598,1 L287,18.2296719 L294.30402,1 L306,1 L306,34 Z" id="path-1"></path>
    </defs>
    <g id="Home" stroke="none" stroke-width="1" fill="none" fill-rule="evenodd">
        <g id="oeg_desktop" transform="translate(-391.000000, -161.000000)">
            <g id="Hero">
                <g id="hero-titles" transform="translate(327.000000, 161.000000)">
                    <mask id="mask-2" fill="white">
                        <use xlink:href="#path-1"></use>
                    </mask>
                    <path stroke="#BD6513" d="M82,0.5 C71.8214827,0.5 64.5,7.35969696 64.5,16.9052925 C64.5,26.5218185 71.8463147,33.5 82,33.5 C92.1359738,33.5 99.5,26.491359 99.5,16.9052925 C99.5,7.39015032 92.1605187,0.5 82,0.5 Z M82.1428571,8.5 C86.3074928,8.5 89.5,12.1348426 89.5,16.9518072 C89.5,21.7857391 86.292567,25.5 82.1428571,25.5 C77.9425283,25.5 74.5,21.7309405 74.5,16.9518072 C74.5,12.1713968 77.8951455,8.5 82.1428571,8.5 Z M132.081395,8.7853067 L132.081395,1.5 L105.5,1.5 L105.5,33.5 L132.5,33.5 L132.5,26.2146933 L115.290698,26.2146933 L115.290698,21.1191155 L130.546512,21.1191155 L130.546512,13.8338088 L115.290698,13.8338088 L115.290698,8.7853067 L132.081395,8.7853067 Z M152.568702,1.5 L142.5,1.5 L142.5,33.5 L166.5,33.5 L166.5,25.414408 L152.568702,25.414408 L152.568702,1.5 Z M195.590298,33.5 L206.25374,33.5 L193.093567,1.5 L182.425374,1.5 L168.757264,33.5 L178.984498,33.5 L180.698783,28.839515 L193.923631,28.839515 L195.590298,33.5 Z M187.55441,9.4864419 L191.701556,21.5 L183.292065,21.5 L187.55441,9.4864419 Z M231.5,9.11483595 L231.5,1.5 L202.5,1.5 L202.5,9.11483595 L211.961173,9.11483595 L211.961173,33.5 L221.991284,33.5 L221.991284,9.11483595 L231.5,9.11483595 Z M255.590298,33.5 L266.25374,33.5 L253.093567,1.5 L242.425374,1.5 L228.757264,33.5 L238.984498,33.5 L240.698783,28.839515 L253.923631,28.839515 L255.590298,33.5 Z M247.55441,9.4864419 L251.701556,21.5 L243.292065,21.5 L247.55441,9.4864419 Z M305.5,33.5 L305.5,1.5 L294.635132,1.5 L287,19.5107408 L279.364868,1.5 L268.5,1.5 L268.5,33.5 L277.143216,33.5 L277.143216,13.2332636 L283.715105,30.2988588 L290.284895,30.2988588 L296.856784,13.2332636 L296.856784,33.5 L305.5,33.5 Z"></path>
                </g>
            </g>
        </g>
    </g>
</svg>